<?xml version="1.0" encoding="UTF-8"?>
<!DOCTYPE svg PUBLIC "-//W3C//DTD SVG 1.1//EN" "http://www.w3.org/Graphics/SVG/1.1/DTD/svg11.dtd">
<!-- Creator: CorelDRAW 2019 (64 Bit) -->
<svg xmlns="http://www.w3.org/2000/svg" xml:space="preserve" width="98.954mm" height="83.6596mm" version="1.1" style="shape-rendering:geometricPrecision; text-rendering:geometricPrecision; image-rendering:optimizeQuality; fill-rule:evenodd; clip-rule:evenodd"
viewBox="0 0 31363.37 26515.82"
 xmlns:xlink="http://www.w3.org/1999/xlink"
 xmlns:xodm="http://www.corel.com/coreldraw/odm/2003">
 <defs>
  <style type="text/css">
   <![CDATA[
    .fil3 {fill:black;fill-rule:nonzero}
    .fil2 {fill:#F2427F;fill-rule:nonzero}
    .fil1 {fill:#FF6400;fill-rule:nonzero}
    .fil0 {fill:#FFAE57;fill-rule:nonzero}
   ]]>
  </style>
 </defs>
 <g id="Camada_x0020_1">
  <metadata id="CorelCorpID_0Corel-Layer"/>
  <g id="_019-care.svg">
   <g>
    <path class="fil0" d="M25230.37 8983.03l1791.21 0 0 -3763.17 -483.79 0c-1140.79,0 -2222.48,-507.18 -2952.09,-1384.15l-1529.94 -1839.06c-729.55,-876.93 -1811.3,-1384.15 -2952.06,-1384.15l-6397.77 0c-63.39,0 -125.19,6.15 -186.08,15.09 -8.94,60.95 -15.06,122.75 -15.06,186.08 0,705.62 572,1277.68 1277.62,1277.68l5493.55 0 319.07 266.9c-394.25,-70.3 -814.78,54.58 -1106.47,370.61 -125.51,136 -212.8,293.49 -264.87,459.32l294.83 246.62c-113.63,-20.28 -229.47,-23.77 -343.76,-11.73 -38.35,359.96 82.82,732.75 362.75,1002.95l3302.16 3187.49c910.15,878.49 2125.78,1369.5 3390.72,1369.5z"/>
    <path class="fil0" d="M19967.09 24361.55c-121.71,-578.88 -634.91,-1013.63 -1249.98,-1013.63l-5493.55 0 -319.04 -266.9c394.25,70.33 814.78,-54.58 1106.47,-370.58 447.69,-485 426.01,-1238.79 -48.94,-1697.2l-3302.2 -3187.46c-910.15,-878.55 -2125.71,-1369.5 -3390.72,-1369.5l-1274.71 0 0 3297.92 483.79 0c1140.79,0 2222.45,507.21 2952.09,1384.15l1529.94 1839.06c729.55,876.97 1811.3,1384.15 2952.06,1384.15l6054.77 0 0 0z"/>
   </g>
   <g>
    <path class="fil1" d="M30750.83 10988.68l0 -6720.68 -1342.5 0c-304.81,0 -552,247.09 -552,551.97l0 5616.78c0,304.81 247.13,552 552,552l1342.5 0 0 -0.06z"/>
    <path class="fil1" d="M2470.65 15503.37l0 6720.68 1469.22 23.71c254.89,0 461.57,-405.5 461.57,-905.71l0 -4909.22c0,-500.24 -206.62,-905.75 -461.54,-905.75l-1469.25 -23.71z"/>
   </g>
   <path class="fil2" d="M19360.73 14382.13c405.09,-404.08 655.8,-962.8 655.8,-1580.12 0,-1232.61 -999.21,-2231.83 -2231.83,-2231.83 -930.15,0 -1727.12,569.21 -2062.32,1378.09 -219.77,-530.35 -638.72,-956.33 -1162.89,-1187.7 -163.99,413.84 -255.14,864.57 -255.14,1336.86 0,1121.68 508.73,2124.26 1307.7,2790.42l1561.61 1236.32 2187.07 -1742.05z"/>
   <path class="fil3" d="M18717.1 22735.45l-2376.71 0c-338.25,0 -612.47,274.16 -612.47,612.47 0,338.31 274.22,612.5 612.47,612.5l2376.71 0.03c366.81,0 665.24,298.38 665.24,665.18 0,366.81 -298.38,665.18 -665.24,665.18l-6397.87 0c-961.75,0 -1866.13,-424.05 -2481.14,-1163.39l-1530.01 -1839.03c-820.96,-986.85 -2015.76,-1564.81 -3294.18,-1601.38l0 -3618.23 2255.22 0c1112.14,0 2165.21,425.35 2965.28,1197.69l3302.23 3187.49c233.46,225.35 244.34,602.68 24.28,841.12 -224.34,242.94 -605.09,258.79 -848.85,35.4l-2592.55 -2376.51c-249.25,-228.55 -636.75,-211.75 -865.3,37.62 -228.62,249.38 -211.75,636.81 37.62,865.37l2592.55 2376.48c349.66,320.5 792.12,478.78 1233.47,478.78 492.76,0 984.09,-197.3 1343.23,-586.32 668.07,-723.75 635.04,-1869.14 -73.63,-2553.25l-3302.2 -3187.49c-1029.67,-993.95 -2384.91,-1541.32 -3816.1,-1541.32l-2374.23 0c-230.45,-545.44 -770.91,-929.2 -1399.3,-929.2l-2883.16 0c-338.25,0 -612.47,274.19 -612.47,612.5l0 4478.9c0,338.25 274.22,612.47 612.47,612.47 338.25,0 612.5,-274.16 612.5,-612.47l0 -3866.46 2270.72 0c161.74,0 293.24,131.57 293.24,293.24l0 4909.25c0,161.68 -131.5,293.24 -293.24,293.24l-636.12 0c-338.28,0 -612.5,274.19 -612.5,612.5 0,338.25 274.22,612.5 612.5,612.5l636.05 0c636.85,0 1182.95,-394.25 1408.08,-951.39 954.87,5.45 1851.58,428.29 2462.69,1162.92l1529.98 1839.03c848.54,1020.01 2096.08,1604.93 3422.83,1604.93l6397.9 0c1042.22,0 1890.19,-847.9 1890.19,-1890.19 0,-1042.29 -847.97,-1890.19 -1890.19,-1890.19z"/>
   <path class="fil3" d="M30750.83 5658.01c-338.25,0 -612.5,274.19 -612.5,612.5l0 4105.73 -2270.72 0c-161.71,0 -293.24,-131.57 -293.24,-293.24l0 -4909.25c0,-161.68 131.53,-293.24 293.24,-293.24l591.17 0c338.25,0 612.5,-274.19 612.5,-612.5 0,-338.25 -274.26,-612.5 -612.5,-612.5l-591.17 0c-636.85,0 -1182.92,394.25 -1408.08,951.39 -954.84,-5.45 -1851.58,-428.29 -2462.66,-1162.92l-1530.01 -1838.97c-848.47,-1020.01 -2096.08,-1605 -3422.89,-1605l-6397.77 0c-1042.19,0 -1890.19,847.9 -1890.19,1890.16 0,1042.22 848,1890.13 1890.19,1890.13l2616.16 0c338.25,0 612.5,-274.19 612.5,-612.5 0,-338.31 -274.26,-612.5 -612.5,-612.5l-2616.16 0c-366.81,0 -665.24,-298.41 -665.24,-665.21 0,-366.74 298.38,-665.18 665.24,-665.18l6397.8 0c961.81,0 1866.2,424.05 2481.2,1163.39l1530.01 1839c820.9,986.82 2015.76,1564.78 3294.18,1601.42l0 3618.26 -2255.22 0c-1112.14,0 -2165.21,-425.38 -2965.28,-1197.72l-3302.23 -3187.46c-233.43,-225.38 -244.34,-602.65 -24.25,-841.12 224.34,-243 605.09,-258.82 848.82,-35.43l2592.64 2376.51c249.38,228.55 636.69,211.75 865.37,-37.62 228.52,-249.38 211.69,-636.81 -37.69,-865.37l-2592.61 -2376.42c-739.98,-678.3 -1895.8,-629.97 -2576.7,107.54 -668.07,723.82 -635.04,1869.21 73.63,2553.25l3302.2 3187.49c1029.67,993.95 2384.91,1541.32 3816.1,1541.32l2374.2 0.03c230.45,545.41 770.91,929.2 1399.3,929.2l2883.22 -0.03c338.25,0 612.47,-274.16 612.47,-612.5l0 -4718.2c-0.03,-338.22 -274.29,-612.41 -612.54,-612.41z"/>
   <path class="fil3" d="M18966.61 20525.3c-310.23,135.08 -452.06,495.99 -317.01,806.1 100.35,230.49 325.54,368.07 561.86,368.07 81.65,0 164.59,-16.42 244.21,-51.09 2.57,-1.11 10.68,-4.72 13.19,-5.83 308.3,-139.24 446.3,-502.43 307.06,-810.72 -139.27,-308.23 -501.32,-445.76 -809.3,-306.52z"/>
   <path class="fil3" d="M20441.02 19671.37c-272.89,199.8 -332.16,583.09 -132.36,855.98 120,163.86 305.98,250.74 494.66,250.74 125.58,0 252.29,-38.48 361.35,-118.29 0.98,-0.7 6.75,-4.98 7.64,-5.64 271.34,-200.91 326.33,-581.7 126.15,-853.54 -200.28,-271.97 -585.12,-328.58 -857.44,-129.25z"/>
   <path class="fil3" d="M17339.74 21046.58c-329.82,65.51 -545.44,384.97 -482.21,715.73 56.1,293.4 312.83,497.58 600.94,497.58 38.1,0 76.86,-3.61 115.65,-11.03 3.96,-0.79 14.01,-2.82 18.07,-3.64 330.77,-70.14 541.38,-394.92 471.37,-725.78 -69.79,-329.88 -393.62,-541.1 -723.82,-472.86z"/>
   <path class="fil3" d="M22577.99 18468.43c-251.18,-226.52 -638.37,-206.62 -865.02,44.59 -3.01,3.36 -10.05,11.32 -12.99,14.67 -221.01,256.13 -192.45,642.9 63.68,863.84 115.69,99.84 258.06,148.74 399.74,148.74 170.11,0 339.26,-70.46 460.18,-207.92 225.54,-251.18 205.26,-637.73 -45.58,-863.94zm-342.05 516.47l-68.11 -61.65 73.72 66.53 -5.61 -4.88z"/>
   <path class="fil3" d="M24136.96 15149.05c-323.7,-98.19 -666.1,86.5 -764.29,410.23 -99.49,323.32 81.96,666.07 405.25,765.53 59.97,18.51 120.63,27.26 180.28,27.26 261.8,0 504.2,-169.19 585.18,-432.51l2.57 -8.4c98.16,-323.76 -85.32,-663.98 -408.99,-762.1z"/>
   <path class="fil3" d="M24917.01 11964.51c-69.16,-331.02 -393.59,-542.78 -724.48,-473.74 -329.75,68.71 -541.76,391.18 -475.33,720.87 56.16,292.26 312.29,496.79 600.65,496.79 35.85,0 72.23,-3.11 108.68,-9.67 332.99,-59.62 554.57,-377.9 494.95,-710.88 -1.36,-7.8 -2.82,-15.56 -4.47,-23.36z"/>
   <path class="fil3" d="M24359.75 13316.8c-335.87,-29.63 -634.18,219.36 -663.88,556.28 -0.57,5.96 -1.43,18 -1.77,23.96 -19.87,337.71 237.71,627.56 575.42,647.43 12.27,0.73 24.37,1.08 36.51,1.08 318.88,0 586.89,-246.62 610.35,-567.78 27.95,-335.68 -220.63,-631.3 -556.63,-660.97z"/>
   <path class="fil3" d="M23537.36 16891.92c-294.03,-166.68 -668.07,-63.39 -834.81,230.93l-8.49 15.34c-161.3,297.33 -52.46,671.77 244.84,833.07 93.53,50.71 194.16,74.8 293.34,74.8 216.19,0 425,-114.67 535.58,-318.53l-532.44 -302.72 532.85 301.99c166.84,-294.35 63.48,-668.07 -230.87,-834.88z"/>
   <path class="fil3" d="M11879.6 6113.95c92.74,0 186.81,-20.92 275.08,-65.04 302.62,-151.25 425.19,-519.16 273.94,-821.79 -151.25,-302.59 -519.32,-425.28 -821.69,-273.91l-5.45 2.69c-302.62,151.31 -422.46,517.8 -271.18,820.33 107.16,214.35 324.24,337.71 549.3,337.71z"/>
   <path class="fil3" d="M13596.67 5475.48c50.46,0 101.8,-6.31 153.02,-19.49 328.71,-79.68 530.6,-410.77 450.89,-739.54 -79.68,-328.64 -410.35,-530.67 -739.6,-450.92 -2.82,0.7 -11.51,2.88 -14.33,3.61 -327.63,84.4 -526.04,418.69 -441.67,746.22 71.25,276.41 319.14,460.11 591.68,460.11z"/>
   <path class="fil3" d="M10328.19 7110.24c133.69,0 268.36,-43.61 381.16,-133.37l8.08 -6.5c262.78,-212.26 303.45,-596.75 91.63,-859.98 -211.82,-263.23 -597.48,-304.56 -861.02,-93.21l379.74 480.56 -381.57 -479.16c-264.62,210.74 -308.3,596.02 -97.65,860.67 121.04,151.91 299.49,230.99 479.64,230.99z"/>
   <path class="fil3" d="M7236.23 11659.76c48.49,11.76 97.02,17.4 144.81,17.4 274.79,0 524.46,-186.46 594.06,-464.39 83.99,-323.92 -107.92,-656.12 -431.81,-744.45 -326.36,-88.94 -663.03,103.36 -752.02,429.72 -1.55,5.58 -4.5,17.15 -5.9,22.79 -79.65,328.64 122.28,659.13 450.86,738.93z"/>
   <path class="fil3" d="M7099.12 13497.27c6.24,0.19 12.39,0.32 18.57,0.32 328.33,0 599.64,-260.53 611.77,-590.35 15.31,-334.38 -241.23,-619.79 -576.37,-639.25 -338.56,-18.83 -627.34,238.41 -646.92,576.05 -0.51,7.89 -0.82,15.72 -1.05,23.58 -9.92,337.96 256,619.54 593.99,629.65z"/>
   <path class="fil3" d="M7756.53 9891.28c86.88,42.82 178.92,63.04 269.76,63.04 224.94,0 441.48,-124.47 548.8,-338.88 152.55,-298.5 36.64,-664.8 -260.94,-820.96 -299.61,-157.17 -669.78,-41.71 -826.89,257.84l-10.02 19.71c-149.25,303.42 -24.06,669.84 279.3,819.25z"/>
   <path class="fil3" d="M8645.07 8276.14c112.45,89.22 246.62,132.48 379.9,132.48 179.68,0 357.8,-78.67 478.78,-229.47 212.2,-260.15 175.43,-643.37 -83.42,-858.33 -260.28,-216.06 -646.42,-180.22 -862.48,80 -2.95,3.61 -9.67,11.95 -12.61,15.56 -210.01,265.06 -165.1,649.65 99.84,859.76z"/>
   <path class="fil3" d="M7134.39 14112.34c-332.99,59.68 -554.53,377.9 -494.95,710.88l1.11 5.99c53.06,296.06 310.13,501.7 600.55,501.7 36.23,0 72.9,-3.17 109.79,-9.79 332.99,-59.62 554.06,-380.91 494.38,-713.9 -59.59,-332.99 -378.06,-554.53 -710.88,-494.88z"/>
   <path class="fil3" d="M11839.72 14987.15c3.9,3.3 7.96,6.56 12.01,9.79l3490.43 2763.41c111.38,88.21 245.79,132.26 380.18,132.26 134.99,0 270.01,-44.47 381.61,-133.4l3638.32 -2898.05c17.84,-14.17 34.8,-29.35 50.9,-45.39 539,-537.55 835.79,-1252.71 835.79,-2013.8 0,-1568.36 -1275.91,-2844.27 -2844.27,-2844.27 -797.25,0 -1535.93,328.74 -2062.32,883.56 -526.42,-554.82 -1265.07,-883.56 -2062.32,-883.56 -1568.36,0 -2844.27,1275.91 -2844.27,2844.27 0,846.22 373.27,1642.68 1023.94,2185.17zm1820.33 -3804.47c657.35,0 1244.75,392.6 1496.51,1000.13 94.89,228.81 318.19,378.03 565.82,378.03 247.66,0 470.95,-149.16 565.82,-378.03 251.78,-607.53 839.15,-1000.13 1496.51,-1000.13 892.88,0 1619.32,726.45 1619.32,1619.32 0,422.78 -160.95,820.71 -453.71,1124.06l-3229.01 2572.04 -3102.65 -2456.32c-367.31,-308.99 -577.83,-760.39 -577.83,-1239.71 -0.06,-892.94 726.35,-1619.39 1619.23,-1619.39z"/>
   <circle class="fil3" cx="612.48" cy="22247.89" r="610.35"/>
   <circle class="fil3" cx="30750.76" cy="4267.87" r="610.35"/>
   <g>
   </g>
   <g>
   </g>
   <g>
   </g>
   <g>
   </g>
   <g>
   </g>
   <g>
   </g>
   <g>
   </g>
   <g>
   </g>
   <g>
   </g>
   <g>
   </g>
   <g>
   </g>
   <g>
   </g>
   <g>
   </g>
   <g>
   </g>
   <g>
   </g>
  </g>
 </g>
</svg>
