<?xml version="1.0" encoding="UTF-8"?>
<!DOCTYPE svg PUBLIC "-//W3C//DTD SVG 1.1//EN" "http://www.w3.org/Graphics/SVG/1.1/DTD/svg11.dtd">
<!-- Creator: CorelDRAW 2019 (64 Bit) -->
<svg xmlns="http://www.w3.org/2000/svg" xml:space="preserve" width="91.4754mm" height="92.6042mm" version="1.1" style="shape-rendering:geometricPrecision; text-rendering:geometricPrecision; image-rendering:optimizeQuality; fill-rule:evenodd; clip-rule:evenodd"
viewBox="0 0 41614.03 42127.54"
 xmlns:xlink="http://www.w3.org/1999/xlink"
 xmlns:xodm="http://www.corel.com/coreldraw/odm/2003">
 <defs>
  <style type="text/css">
   <![CDATA[
    .fil3 {fill:black;fill-rule:nonzero}
    .fil0 {fill:#00C3FF;fill-rule:nonzero}
    .fil2 {fill:#FF6400;fill-rule:nonzero}
    .fil1 {fill:#FFAE57;fill-rule:nonzero}
   ]]>
  </style>
 </defs>
 <g id="Camada_x0020_1">
  <metadata id="CorelCorpID_0Corel-Layer"/>
  <g id="_044-coin.svg">
   <path class="fil0" d="M32498.2 1151.13c-4460.77,1152 -7755.94,5202.97 -7755.94,10023.63 0,4820.66 3295.17,8871.63 7755.94,10023.67 4460.72,-1152.04 7755.89,-5203.02 7755.89,-10023.67 0,-4820.66 -3295.17,-8871.63 -7755.89,-10023.63z"/>
   <g>
    <path class="fil1" d="M28908.01 27470.83c-6.14,-13.42 -12.33,-26.75 -18.74,-39.99 -28.89,2.18 -57.5,5.5 -86.57,6.73l105.31 33.25z"/>
    <path class="fil1" d="M40589.23 27910.6c-528.98,-1197.99 -1928.91,-1740.3 -3126.9,-1211.41l-9405.48 4316.92 -1105.59 -349.11c903.11,-35.8 1733.38,-616.28 2043.37,-1522.3 195.07,-570.29 147.99,-1165.73 -86.75,-1673.88l-105.31 -33.25c29.07,-1.14 57.68,-4.41 86.57,-6.73 -246.02,-506.51 -680.65,-921.81 -1249.76,-1130.8l-7995.5 -2936.24c-2203.73,-809.26 -4635.5,-731.65 -6783.14,216.63l-2126.03 938.73 2736.57 6197.84 821.31 -362.57c1936.69,-855.16 4153.33,-804.89 6049.3,137.07l3976.05 1975.4c1895.97,941.91 4112.62,992.14 6049.3,137.07l10282.61 -4540.06c-18.52,-51.45 -38.26,-102.63 -60.64,-153.31l0 0z"/>
   </g>
   <path class="fil2" d="M5487.16 38948.51l5706.66 -2882.88c629.43,-277.87 914.39,-1013.43 636.43,-1642.81l-4031.41 -9130.66c-277.87,-629.43 -1013.47,-914.39 -1642.81,-636.43l-629.47 277.96 -39.4 14014.82z"/>
   <circle class="fil3" cx="6603.79" cy="33273.38" r="822.79"/>
   <path class="fil3" d="M41341.89 27578.28c-711.36,-1610.96 -2600.87,-2343.02 -4211.84,-1631.8 -4.09,1.82 -8.23,3.73 -12.24,5.5l-5307.74 2447.79c-412.61,190.29 -592.9,679.11 -402.6,1091.76 190.34,412.7 678.97,592.72 1091.76,402.65l5300.69 -2444.56c779.87,-340.96 1692.58,14.1 2036.68,793.47 167.05,378.4 176.74,799.11 27.39,1184.66 -149.3,385.55 -440,689.98 -818.4,857.02l-10861.86 4795.82c-1718.33,758.81 -3668.66,714.68 -5350.96,-121.19l-3976 -1975.4c-2121.29,-1053.96 -4580.91,-1109.55 -6747.74,-152.9l-68.65 30.39 -2963.08 -6711.03 4115.85 -1817.27c1962.8,-866.81 4153.2,-936.77 6167.17,-197.07l7995.5 2936.28c724.14,265.95 1110.1,1076.11 860.39,1806.03 -254.48,743.75 -1067.43,1143.9 -1811.9,892.1l-6183.05 -2091.41c-430.49,-145.76 -897.42,85.34 -1043.04,515.79 -145.67,430.49 85.3,897.47 515.79,1043.09l6182.96 2091.31c325.04,109.95 655.72,162.09 981.45,162.09 1279.46,0 2478.72,-805.53 2914.77,-2080.31 536.9,-1569.38 -293.06,-3311.5 -1850.07,-3883.38l-7995.5 -2936.24c-2416.49,-887.5 -5044.11,-803.57 -7399.14,236.19l-4143.78 1829.6c-234.6,-357.16 -571.79,-633.39 -978.17,-790.79 -515.29,-199.8 -1077.34,-186.79 -1582.8,36.44l-5293.04 2336.97c-297.34,131.29 -489.54,425.35 -490.45,750.39l-40.17 14312.16c-0.82,286.24 147.21,552.27 390.78,702.49 131.97,81.48 281.87,122.6 432.13,122.6 126.88,0 253.98,-29.3 370.99,-88.35l10354.22 -5230.63c494.77,-225.14 874.68,-627.47 1071.38,-1135.25 162.86,-420.03 184.24,-871.35 65.6,-1297.62l88.53 -39.08c1718.42,-758.81 3668.61,-714.63 5350.91,121.28l3976.05 1975.36c2121.43,1053.96 4580.87,1109.41 6747.74,152.81l10861.82 -4795.77c1611.1,-711.4 2343.11,-2600.92 1631.71,-4212.02zm-30256.89 7500.59c-40.81,105.31 -120.19,188.38 -223.55,234.06 -13.06,5.78 -9212,4652.47 -9212,4652.47l9.96 -3537.46 2383.33 -1170.33c407.93,-200.39 576.2,-693.39 375.86,-1101.27 -200.3,-408.02 -693.39,-576.2 -1101.27,-375.95l-1652.82 811.62 19.79 -7062.55 4804.05 -2121.07c103.31,-45.54 218.27,-48.31 323.58,-7.51 105.41,40.81 188.56,120.28 234.19,223.64l4031.5 9130.71c45.58,103.27 48.22,218.32 7.37,323.63z"/>
   <path class="fil3" d="M30656.59 14901.33l-1671.97 0c-475.39,0 -862.12,-386.73 -862.12,-862.12 0,-454.37 -368.39,-822.81 -822.81,-822.81 -454.42,0 -822.77,368.44 -822.77,822.81 0,1382.82 1124.93,2507.75 2507.75,2507.75l94.58 0 0 1001.96c0,454.37 368.39,822.81 822.81,822.81 454.47,0 822.81,-368.44 822.81,-822.77l0 -1003.74c1441.1,-36.44 2602.28,-1219.23 2602.28,-2668.84l0 -877.77c0,-1472.53 -1198.08,-2670.61 -2670.66,-2670.61l-569.7 0 -369.62 0 -569.7 0c-565.19,0 -1025.07,-459.88 -1025.07,-1025.07l0 -877.68c0,-565.19 459.79,-1025.07 1025.07,-1025.07l1671.92 0.05c475.39,0 862.12,386.68 862.12,862.12 0,454.33 368.39,822.81 822.81,822.81 454.47,0 822.81,-368.44 822.81,-822.77 0,-1382.82 -1124.93,-2507.75 -2507.75,-2507.75l-94.53 -0.05 0 -1001.83c0,-454.33 -368.39,-822.81 -822.81,-822.81 -454.42,0 -822.77,368.49 -822.77,822.81l-0.05 1003.55c-1441.05,36.48 -2602.37,1219.23 -2602.37,2668.93l0 877.72c0,1472.58 1198.08,2670.66 2670.66,2670.66l569.74 -0.05 369.62 0 569.7 0c565.15,0 1025.03,459.79 1025.03,1024.98l0 877.77c0,565.28 -459.83,1024.98 -1025.03,1024.98z"/>
   <path class="fil3" d="M29902.06 22349.6c6161.85,0 11174.76,-5013.04 11174.76,-11174.76 0,-6161.72 -5012.95,-11174.85 -11174.76,-11174.85 -6161.81,0 -11174.76,5013.04 -11174.76,11174.76 0,6161.76 5013.04,11174.85 11174.76,11174.85zm0 -20703.97c5254.33,0 9529.17,4274.8 9529.17,9529.13 0,5254.38 -4274.8,9529.13 -9529.17,9529.13 -5254.42,0 -9529.13,-4274.75 -9529.13,-9529.13 0,-5254.33 4274.71,-9529.13 9529.13,-9529.13z"/>
   <g>
   </g>
   <g>
   </g>
   <g>
   </g>
   <g>
   </g>
   <g>
   </g>
   <g>
   </g>
   <g>
   </g>
   <g>
   </g>
   <g>
   </g>
   <g>
   </g>
   <g>
   </g>
   <g>
   </g>
   <g>
   </g>
   <g>
   </g>
   <g>
   </g>
  </g>
 </g>
</svg>
