<?xml version="1.0" encoding="UTF-8"?>
<!DOCTYPE svg PUBLIC "-//W3C//DTD SVG 1.1//EN" "http://www.w3.org/Graphics/SVG/1.1/DTD/svg11.dtd">
<!-- Creator: CorelDRAW 2019 (64 Bit) -->
<svg xmlns="http://www.w3.org/2000/svg" xml:space="preserve" width="85.1958mm" height="86.3282mm" version="1.1" style="shape-rendering:geometricPrecision; text-rendering:geometricPrecision; image-rendering:optimizeQuality; fill-rule:evenodd; clip-rule:evenodd"
viewBox="0 0 3810.14 3860.79"
 xmlns:xlink="http://www.w3.org/1999/xlink"
 xmlns:xodm="http://www.corel.com/coreldraw/odm/2003">
 <defs>
  <style type="text/css">
   <![CDATA[
    .fil3 {fill:black;fill-rule:nonzero}
    .fil0 {fill:#0084FF;fill-rule:nonzero}
    .fil2 {fill:#00C3FF;fill-rule:nonzero}
    .fil1 {fill:white;fill-rule:nonzero}
   ]]>
  </style>
 </defs>
 <g id="Camada_x0020_1">
  <metadata id="CorelCorpID_0Corel-Layer"/>
  <g id="_038-diamond.svg">
   <g>
    <polygon class="fil0" points="1300.99,979.66 643.46,1723.67 3734.74,1723.67 3077.21,979.66 "/>
    <polygon class="fil0" points="3734.74,1723.67 571.41,1723.67 2153.07,3505.93 "/>
   </g>
   <polygon class="fil1" points="1187.95,1723.67 1905.07,3785.38 2097.36,3232.56 1572.52,1723.67 "/>
   <polygon class="fil2" points="1572.52,1723.67 2097.36,3232.56 2622.19,1723.67 "/>
   <polygon class="fil1" points="732.93,979.66 1187.95,1723.67 1450.92,1450.85 1162.75,979.66 "/>
   <polygon class="fil2" points="1162.75,979.66 1450.92,1450.85 1905.07,979.66 "/>
   <polygon class="fil1" points="2334.89,979.66 1905.07,979.66 2119.98,1202.62 2622.19,1723.67 2789.04,1450.85 "/>
   <polygon class="fil2" points="2334.89,979.66 2789.04,1450.85 3077.21,979.66 "/>
   <path class="fil3" d="M3791.24 1673.73l-657.51 -744.01c-14.32,-16.2 -34.89,-25.47 -56.51,-25.47l-2344.29 0c-21.61,0 -42.19,9.28 -56.5,25.47l-657.52 744.01c-19.64,22.22 -24.43,53.89 -12.24,80.92 4.59,10.2 11.29,19 19.43,26.04 0.16,0.17 0.28,0.37 0.44,0.55l1822.13 2054.17c14.32,16.14 34.85,25.37 56.41,25.37 21.57,0 42.1,-9.24 56.41,-25.37l1822.13 -2054.17c0.16,-0.17 0.29,-0.37 0.44,-0.55 8.13,-7.03 14.83,-15.85 19.43,-26.04 12.19,-27.04 7.4,-58.7 -12.24,-80.92zm-1886.17 -572.04l543.33 546.56 -1086.66 0 543.33 -546.56zm-703.33 493.61l-335.11 -540.24 872.15 0 -537.04 540.24zm869.61 -540.25l872.15 0 -335.11 540.24 -537.04 -540.24zm-936.28 744.02l615.59 1698.61 -1506.72 -1698.61 891.13 0zm1312.71 434.53c-39.08,-14.45 -82.44,5.53 -96.87,44.6l-445.16 1204.82 -610.27 -1683.94 2270.71 0 -1503.92 1695.45 430.1 -1164.06c14.43,-39.06 -5.54,-82.43 -44.6,-96.87zm305.24 -585.34l335.9 -541.5 478.55 541.5 -814.45 0 0 0zm-2031.8 -541.5l335.9 541.5 -814.45 0 478.55 -541.5z"/>
   <path class="fil3" d="M1905.07 539.25c41.64,0 75.41,-33.76 75.41,-75.41l0 -388.44c0,-41.65 -33.77,-75.4 -75.41,-75.4 -41.64,0 -75.41,33.76 -75.41,75.41l0 388.44c0,41.65 33.77,75.4 75.41,75.4z"/>
   <path class="fil3" d="M2263.74 701.42c19.3,0 38.6,-7.37 53.32,-22.08l274.67 -274.67c29.45,-29.45 29.45,-77.19 0,-106.64 -29.45,-29.45 -77.18,-29.45 -106.65,0l-274.67 274.67c-29.45,29.45 -29.45,77.19 0,106.64 14.74,14.73 34.03,22.08 53.33,22.08z"/>
   <path class="fil3" d="M1478.4 679.34c14.73,14.73 34.02,22.08 53.32,22.08 19.3,0 38.59,-7.37 53.32,-22.08 29.45,-29.45 29.45,-77.19 0,-106.64l-274.67 -274.67c-29.44,-29.45 -77.17,-29.45 -106.64,0 -29.45,29.45 -29.45,77.19 0,106.64l274.67 274.67z"/>
   <circle class="fil3" cx="2519.1" cy="2023.59" r="75.41"/>
   <g>
   </g>
   <g>
   </g>
   <g>
   </g>
   <g>
   </g>
   <g>
   </g>
   <g>
   </g>
   <g>
   </g>
   <g>
   </g>
   <g>
   </g>
   <g>
   </g>
   <g>
   </g>
   <g>
   </g>
   <g>
   </g>
   <g>
   </g>
   <g>
   </g>
  </g>
 </g>
</svg>
