<?xml version="1.0" encoding="UTF-8"?>
<!DOCTYPE svg PUBLIC "-//W3C//DTD SVG 1.1//EN" "http://www.w3.org/Graphics/SVG/1.1/DTD/svg11.dtd">
<!-- Creator: CorelDRAW 2020 (64 Bit) -->
<svg xmlns="http://www.w3.org/2000/svg" xml:space="preserve" width="295.97mm" height="37.2156mm" version="1.1" style="shape-rendering:geometricPrecision; text-rendering:geometricPrecision; image-rendering:optimizeQuality; fill-rule:evenodd; clip-rule:evenodd"
viewBox="0 0 30241.85 3802.64"
 xmlns:xlink="http://www.w3.org/1999/xlink"
 xmlns:xodm="http://www.corel.com/coreldraw/odm/2003">
 <defs>
  <style type="text/css">
   <![CDATA[
    .fil1 {fill:white}
    .fil2 {fill:url(#id0)}
    .fil0 {fill:url(#id1);fill-opacity:0.200000}
   ]]>
  </style>
  <linearGradient id="id0" gradientUnits="userSpaceOnUse" x1="-0" y1="1858.06" x2="30241.85" y2="1858.06">
   <stop offset="0" style="stop-opacity:1; stop-color:#EC6715"/>
   <stop offset="0.478431" style="stop-opacity:1; stop-color:#C81324"/>
   <stop offset="1" style="stop-opacity:1; stop-color:#DD049D"/>
  </linearGradient>
  <linearGradient id="id1" gradientUnits="userSpaceOnUse" xlink:href="#id0" x1="-0" y1="1858.06" x2="30241.85" y2="1858.06">
  </linearGradient>
 </defs>
 <g id="Camada_x0020_1">
  <metadata id="CorelCorpID_0Corel-Layer"/>
  <path class="fil0" d="M28751.49 1414.95c-30.97,-30.97 -73.78,-50.14 -121.07,-50.14 -47.43,0 -90.23,19.09 -121.07,49.93l0 0.2c-30.97,30.97 -50.14,73.78 -50.14,121.07 0,47.43 19.09,90.23 49.93,121.07l0.2 0.2c30.84,30.85 73.64,49.93 121.07,49.93 47.29,0 90.1,-19.17 121.07,-50.14l0.2 0c30.85,-30.84 49.93,-73.64 49.93,-121.07 0,-47.29 -19.17,-90.1 -50.14,-121.07zm-21379.33 164.95c-30.97,-30.97 -73.78,-50.14 -121.07,-50.14 -47.43,0 -90.23,19.09 -121.07,49.93l0 0.2c-30.97,30.97 -50.14,73.78 -50.14,121.07 0,47.43 19.09,90.23 49.93,121.07l0.2 0.2c30.84,30.85 73.64,49.93 121.07,49.93 47.29,0 90.1,-19.17 121.07,-50.14l0.2 0c30.85,-30.84 49.93,-73.64 49.93,-121.07 0,-47.29 -19.17,-90.1 -50.14,-121.07zm22869.69 -1579.9l0 172.94c-181.2,218.92 -621.84,705.84 -1355.65,1250.63 15.15,34.4 23.57,72.45 23.57,112.46 0,76.95 -31.32,146.76 -81.94,197.42l0.1 0.1c-50.55,50.55 -120.4,81.83 -197.52,81.83 -74.75,0 -142.77,-29.56 -193.04,-77.66 -2141.37,1415.06 -6204.63,2946.61 -12753.26,1191.92 -3210.96,-860.37 -5929.8,-1166.53 -8158.34,-1177.78 -10.47,56.61 -38.08,107.31 -77.28,146.53l0.1 0.1c-50.55,50.55 -120.4,81.83 -197.52,81.83 -76.9,0 -146.67,-31.28 -197.32,-81.83l-0.2 -0.2c-38.46,-38.52 -65.75,-88.11 -76.62,-143.49 -4260.05,72.06 -6585.68,1222.61 -6976.94,1433.24l0 -121.87c521.47,-270.49 2849.07,-1347.81 6976.73,-1418.1 10.72,-55.93 38.14,-105.93 76.84,-144.62l0.1 0.1c50.66,-50.62 120.47,-81.94 197.42,-81.94 77.12,0 146.97,31.29 197.52,81.83 37.98,37.98 65.09,86.86 76.22,141.53 2238.37,10.76 4967.1,317.53 8187.18,1180.34 6510.82,1744.56 10542.75,226.19 12663.71,-1174.67 -15.83,-35.01 -24.65,-73.81 -24.65,-114.62 0,-77.12 31.29,-146.97 81.83,-197.52l0.1 0.1c50.66,-50.62 120.47,-81.94 197.42,-81.94 75.73,0 144.46,30.17 194.77,79.13 892.74,-663.57 1343.39,-1238.65 1416.66,-1335.79z"/>
  <path class="fil1" d="M1355.65 1423.56c-15.15,34.4 -23.57,72.45 -23.57,112.46 0,76.95 31.32,146.76 81.94,197.42l-0.1 0.1c50.55,50.55 120.4,81.83 197.52,81.83 74.75,0 142.77,-29.56 193.04,-77.66 2141.37,1415.06 6204.63,2946.61 12753.26,1191.92 3210.96,-860.37 5929.8,-1166.53 8158.34,-1177.78 10.47,56.61 38.08,107.31 77.28,146.53l-0.1 0.1c50.55,50.55 120.4,81.83 197.52,81.83 76.9,0 146.67,-31.28 197.32,-81.83l0.2 -0.2c38.46,-38.52 65.75,-88.11 76.62,-143.49 4394.33,74.32 6699.14,1279.17 6976.94,1433.24l0 614.61 -30241.85 0 0 -3629.71c181.2,218.92 621.84,705.84 1355.65,1250.63z"/>
  <path class="fil2" d="M1490.36 1414.95c30.97,-30.97 73.78,-50.14 121.07,-50.14 47.43,0 90.23,19.09 121.07,49.93l0 0.2c30.97,30.97 50.14,73.78 50.14,121.07 0,47.43 -19.09,90.23 -49.93,121.07l-0.2 0.2c-30.84,30.85 -73.64,49.93 -121.07,49.93 -47.29,0 -90.1,-19.17 -121.07,-50.14l-0.2 0c-30.85,-30.84 -49.93,-73.64 -49.93,-121.07 0,-47.29 19.17,-90.1 50.14,-121.07zm21379.33 164.95c30.97,-30.97 73.78,-50.14 121.07,-50.14 47.43,0 90.23,19.09 121.07,49.93l0 0.2c30.97,30.97 50.14,73.78 50.14,121.07 0,47.43 -19.09,90.23 -49.93,121.07l-0.2 0.2c-30.84,30.85 -73.64,49.93 -121.07,49.93 -47.29,0 -90.1,-19.17 -121.07,-50.14l-0.2 0c-30.85,-30.84 -49.93,-73.64 -49.93,-121.07 0,-47.29 19.17,-90.1 50.14,-121.07zm-22869.69 -1579.9l0 172.94c181.2,218.92 621.84,705.84 1355.65,1250.63 -15.15,34.4 -23.57,72.45 -23.57,112.46 0,76.95 31.32,146.76 81.94,197.42l-0.1 0.1c50.55,50.55 120.4,81.83 197.52,81.83 74.75,0 142.77,-29.56 193.04,-77.66 2141.37,1415.06 6204.63,2946.61 12753.26,1191.92 3210.96,-860.37 5929.8,-1166.53 8158.34,-1177.78 10.47,56.61 38.08,107.31 77.28,146.53l-0.1 0.1c50.55,50.55 120.4,81.83 197.52,81.83 76.9,0 146.67,-31.28 197.32,-81.83l0.2 -0.2c38.46,-38.52 65.75,-88.11 76.62,-143.49 4260.05,72.06 6585.68,1222.61 6976.94,1433.24l0 -121.87c-521.47,-270.49 -2849.07,-1347.81 -6976.73,-1418.1 -10.72,-55.93 -38.14,-105.93 -76.84,-144.62l-0.1 0.1c-50.66,-50.62 -120.47,-81.94 -197.42,-81.94 -77.12,0 -146.97,31.29 -197.52,81.83 -37.98,37.98 -65.09,86.86 -76.22,141.53 -2238.37,10.76 -4967.1,317.53 -8187.18,1180.34 -6510.82,1744.56 -10542.75,226.19 -12663.71,-1174.67 15.83,-35.01 24.65,-73.81 24.65,-114.62 0,-77.12 -31.29,-146.97 -81.83,-197.52l-0.1 0.1c-50.66,-50.62 -120.47,-81.94 -197.42,-81.94 -75.73,0 -144.46,30.17 -194.77,79.13 -892.74,-663.57 -1343.39,-1238.65 -1416.66,-1335.79z"/>
 </g>
</svg>
