<?xml version="1.0" encoding="UTF-8"?>
<!DOCTYPE svg PUBLIC "-//W3C//DTD SVG 1.1//EN" "http://www.w3.org/Graphics/SVG/1.1/DTD/svg11.dtd">
<!-- Creator: CorelDRAW 2019 (64 Bit) -->
<svg xmlns="http://www.w3.org/2000/svg" xml:space="preserve" width="94.1632mm" height="116.417mm" version="1.1" style="shape-rendering:geometricPrecision; text-rendering:geometricPrecision; image-rendering:optimizeQuality; fill-rule:evenodd; clip-rule:evenodd"
viewBox="0 0 976.52 1207.3"
 xmlns:xlink="http://www.w3.org/1999/xlink"
 xmlns:xodm="http://www.corel.com/coreldraw/odm/2003">
 <defs>
  <style type="text/css">
   <![CDATA[
    .fil2 {fill:black;fill-rule:nonzero}
    .fil1 {fill:#00C3FF;fill-rule:nonzero}
    .fil0 {fill:#FFD41D;fill-rule:nonzero}
   ]]>
  </style>
 </defs>
 <g id="Camada_x0020_1">
  <metadata id="CorelCorpID_0Corel-Layer"/>
  <g id="_043-line-chart.svg">
   <path class="fil0" d="M488.26 23.58l0 0c-51.84,0 -93.87,42.02 -93.87,93.87l0 0 187.73 0 0 0c0,-51.84 -42.03,-93.87 -93.87,-93.87z"/>
   <path class="fil1" d="M919.45 867.63l-670.45 0c-18.49,0 -33.49,-14.99 -33.49,-33.49l0 -609.55c0,-18.49 14.99,-33.49 33.49,-33.49l670.44 0c18.49,0 33.49,14.99 33.49,33.49l0 609.55c0,18.5 -14.99,33.49 -33.49,33.49z"/>
   <path class="fil2" d="M913.35 93.87l-310.03 0c-10.95,-53.5 -58.38,-93.87 -115.06,-93.87 -56.68,0 -104.12,40.37 -115.07,93.87l-310.02 0c-34.83,0 -63.17,28.34 -63.17,63.17l0 671c0,34.83 28.34,63.17 63.17,63.17l294.53 0 -95.66 285c-4.14,12.34 2.51,25.71 14.85,29.86 2.49,0.83 5.02,1.23 7.51,1.23 9.85,0 19.04,-6.23 22.35,-16.08l100.69 -300.01 161.63 0 100.69 300.01c3.31,9.86 12.5,16.08 22.35,16.08 2.49,0 5.02,-0.4 7.51,-1.23 12.35,-4.15 19,-17.51 14.85,-29.86l-95.66 -285 294.53 0c34.83,0 63.17,-28.34 63.17,-63.17l0 -671c-0,-34.83 -28.34,-63.17 -63.17,-63.17zm-425.09 -46.71c30.49,0 56.5,19.51 66.22,46.71l-132.43 0c9.71,-27.19 35.73,-46.71 66.22,-46.71zm441.1 780.88c0,8.83 -7.18,16.01 -16.01,16.01l-61.59 0 0 -336.16c0,-13.02 -10.56,-23.58 -23.58,-23.58 -13.02,0 -23.58,10.56 -23.58,23.58l0 336.16 -72.54 0 0 -264.03c0,-13.02 -10.56,-23.58 -23.58,-23.58 -13.02,0 -23.58,10.56 -23.58,23.58l0 264.03 -66.22 0 0 -186.88c0,-13.02 -10.56,-23.58 -23.58,-23.58 -13.02,0 -23.58,10.56 -23.58,23.58l0 186.88 -59.68 0 0 -246.82c0,-13.02 -10.56,-23.58 -23.58,-23.58 -13.02,0 -23.58,10.56 -23.58,23.58l0 246.82 -68.47 0 0 -129.75c0,-13.02 -10.56,-23.58 -23.58,-23.58 -13.02,0 -23.58,10.56 -23.58,23.58l0 129.75 -54.76 0 0 -120.22c0,-13.02 -10.56,-23.58 -23.58,-23.58 -13.02,0 -23.58,10.56 -23.58,23.58l0 120.22 -63.14 0 0 -92.76c0,-13.02 -10.56,-23.58 -23.58,-23.58 -13.02,0 -23.58,10.56 -23.58,23.58l0 92.76 -73.66 0c-8.83,0 -16.01,-7.18 -16.01,-16.01l0 -671c0,-8.83 7.18,-16.01 16.01,-16.01l331.23 0 187.73 0 331.22 0c8.83,0 16.01,7.18 16.01,16.01l0 671 0 0z"/>
   <path class="fil2" d="M851.64 252.03c-0.03,-0.32 -0.09,-0.63 -0.14,-0.95 -0.06,-0.44 -0.12,-0.89 -0.2,-1.33 -0.07,-0.37 -0.18,-0.74 -0.27,-1.1 -0.09,-0.38 -0.18,-0.76 -0.29,-1.14 -0.11,-0.36 -0.24,-0.71 -0.37,-1.06 -0.13,-0.37 -0.26,-0.75 -0.41,-1.11 -0.14,-0.33 -0.29,-0.64 -0.44,-0.96 -0.18,-0.38 -0.35,-0.76 -0.55,-1.13 -0.16,-0.3 -0.34,-0.59 -0.52,-0.88 -0.22,-0.37 -0.43,-0.74 -0.67,-1.1 -0.21,-0.32 -0.45,-0.61 -0.67,-0.91 -0.23,-0.31 -0.45,-0.63 -0.7,-0.94 -0.42,-0.51 -0.87,-1 -1.34,-1.48 -0.08,-0.08 -0.14,-0.16 -0.22,-0.24 -0.08,-0.08 -0.16,-0.14 -0.24,-0.21 -0.48,-0.47 -0.97,-0.92 -1.49,-1.34 -0.29,-0.24 -0.59,-0.44 -0.89,-0.66 -0.32,-0.24 -0.63,-0.49 -0.97,-0.71 -0.34,-0.23 -0.69,-0.42 -1.04,-0.63 -0.31,-0.19 -0.62,-0.38 -0.95,-0.56 -0.34,-0.18 -0.7,-0.34 -1.05,-0.5 -0.35,-0.16 -0.69,-0.34 -1.05,-0.49 -0.33,-0.14 -0.67,-0.25 -1.01,-0.37 -0.39,-0.14 -0.78,-0.29 -1.18,-0.41 -0.33,-0.1 -0.66,-0.17 -0.99,-0.26 -0.42,-0.11 -0.83,-0.22 -1.25,-0.3 -0.37,-0.07 -0.74,-0.12 -1.11,-0.17 -0.39,-0.06 -0.78,-0.13 -1.17,-0.17 -0.63,-0.06 -1.26,-0.09 -1.9,-0.1 -0.14,-0 -0.28,-0.02 -0.42,-0.02l-101.86 0c-13.02,0 -23.58,10.56 -23.58,23.58 0,13.02 10.56,23.58 23.58,23.58l44.93 -0 -195.78 195.78 -51.4 -51.4c-4.42,-4.42 -10.42,-6.91 -16.67,-6.91 -6.25,0 -12.25,2.49 -16.67,6.91l-170.16 170.16 -50.8 -50.8c-9.21,-9.2 -24.14,-9.2 -33.35,0l-86.05 86.05c-9.21,9.21 -9.21,24.14 0,33.35 4.6,4.6 10.64,6.91 16.67,6.91 6.03,0 12.07,-2.3 16.67,-6.91l69.37 -69.38 50.8 50.8c9.21,9.2 24.14,9.2 33.35,0l170.16 -170.16 51.4 51.4c4.42,4.42 10.42,6.91 16.67,6.91 6.25,0 12.25,-2.49 16.67,-6.91l212.45 -212.45 0 44.93c0,13.02 10.56,23.58 23.58,23.58 13.02,0 23.58,-10.56 23.58,-23.58l0 -101.85c0,-0.79 -0.04,-1.57 -0.11,-2.35z"/>
   <circle class="fil2" cx="167.05" cy="254.36" r="23.58"/>
   <circle class="fil2" cx="167.05" cy="350.49" r="23.58"/>
   <circle class="fil2" cx="167.05" cy="446.63" r="23.58"/>
   <g>
   </g>
   <g>
   </g>
   <g>
   </g>
   <g>
   </g>
   <g>
   </g>
   <g>
   </g>
   <g>
   </g>
   <g>
   </g>
   <g>
   </g>
   <g>
   </g>
   <g>
   </g>
   <g>
   </g>
   <g>
   </g>
   <g>
   </g>
   <g>
   </g>
  </g>
 </g>
</svg>
