<?xml version="1.0" encoding="UTF-8"?>
<!DOCTYPE svg PUBLIC "-//W3C//DTD SVG 1.1//EN" "http://www.w3.org/Graphics/SVG/1.1/DTD/svg11.dtd">
<!-- Creator: CorelDRAW 2019 (64 Bit) -->
<svg xmlns="http://www.w3.org/2000/svg" xml:space="preserve" width="92.6695mm" height="47.3403mm" version="1.1" style="shape-rendering:geometricPrecision; text-rendering:geometricPrecision; image-rendering:optimizeQuality; fill-rule:evenodd; clip-rule:evenodd"
viewBox="0 0 2111.06 1078.44"
 xmlns:xlink="http://www.w3.org/1999/xlink">
 <defs>
  <style type="text/css">
   <![CDATA[
    .fil5 {fill:#FEFEFE}
    .fil0 {fill:#061324}
    .fil4 {fill:#30466B;fill-rule:nonzero}
    .fil17 {fill:#192D48;fill-rule:nonzero}
    .fil6 {fill:url(#id76);fill-rule:nonzero}
    .fil7 {fill:url(#id77);fill-rule:nonzero}
    .fil12 {fill:url(#id78);fill-rule:nonzero}
    .fil15 {fill:url(#id79);fill-rule:nonzero}
    .fil2 {fill:url(#id80);fill-rule:nonzero}
    .fil8 {fill:url(#id81);fill-rule:nonzero}
    .fil11 {fill:url(#id82);fill-rule:nonzero}
    .fil13 {fill:url(#id83);fill-rule:nonzero}
    .fil1 {fill:url(#id84);fill-rule:nonzero}
    .fil3 {fill:url(#id85);fill-rule:nonzero}
    .fil9 {fill:url(#id86);fill-rule:nonzero}
    .fil10 {fill:url(#id87);fill-rule:nonzero}
    .fil14 {fill:url(#id88);fill-rule:nonzero}
    .fil16 {fill:url(#id89);fill-rule:nonzero}
   ]]>
  </style>
     <mask id="id0">
  <linearGradient id="id1" gradientUnits="userSpaceOnUse" x1="1782.38" y1="671.6" x2="1782.39" y2="93.47">
   <stop offset="0" style="stop-opacity:1; stop-color:white"/>
   <stop offset="1" style="stop-opacity:0; stop-color:white"/>
  </linearGradient>
      <rect style="fill:url(#id1)" x="357.08" y="-2.28" width="849.85" height="375.94"/>
     </mask>
     <mask id="id2">
  <linearGradient id="id3" gradientUnits="userSpaceOnUse" x1="1782.38" y1="671.6" x2="1782.39" y2="93.47">
   <stop offset="0" style="stop-opacity:1; stop-color:white"/>
   <stop offset="1" style="stop-opacity:0; stop-color:white"/>
  </linearGradient>
      <rect style="fill:url(#id3)" x="1116.2" y="129.6" width="578.83" height="268.47"/>
     </mask>
       <mask id="id4">
  <linearGradient id="id5" gradientUnits="userSpaceOnUse" x1="1020.74" y1="973.8" x2="1020.74" y2="715.92">
   <stop offset="0" style="stop-opacity:1; stop-color:white"/>
   <stop offset="1" style="stop-opacity:0; stop-color:white"/>
  </linearGradient>
        <rect style="fill:url(#id5)" x="837.01" y="783.26" width="156.19" height="91.83"/>
       </mask>
       <mask id="id6">
  <linearGradient id="id7" gradientUnits="userSpaceOnUse" x1="1026.93" y1="974.34" x2="1026.93" y2="712.92">
   <stop offset="0" style="stop-opacity:1; stop-color:white"/>
   <stop offset="1" style="stop-opacity:0; stop-color:white"/>
  </linearGradient>
        <rect style="fill:url(#id7)" x="568.17" y="783.26" width="206.6" height="101.37"/>
       </mask>
       <mask id="id8">
  <linearGradient id="id9" gradientUnits="userSpaceOnUse" x1="1029.68" y1="974.34" x2="1029.68" y2="712.92">
   <stop offset="0" style="stop-opacity:1; stop-color:white"/>
   <stop offset="1" style="stop-opacity:0; stop-color:white"/>
  </linearGradient>
        <rect style="fill:url(#id9)" x="368" y="783.26" width="196.49" height="101.57"/>
       </mask>
       <mask id="id10">
  <linearGradient id="id11" gradientUnits="userSpaceOnUse" x1="1031.92" y1="974.34" x2="1031.92" y2="712.92">
   <stop offset="0" style="stop-opacity:1; stop-color:white"/>
   <stop offset="1" style="stop-opacity:0; stop-color:white"/>
  </linearGradient>
        <rect style="fill:url(#id11)" x="231.1" y="783.26" width="76.01" height="94.42"/>
       </mask>
       <mask id="id12">
  <linearGradient id="id13" gradientUnits="userSpaceOnUse" x1="1020.74" y1="971.78" x2="1020.74" y2="713.9">
   <stop offset="0" style="stop-opacity:1; stop-color:white"/>
   <stop offset="1" style="stop-opacity:0; stop-color:white"/>
  </linearGradient>
        <rect style="fill:url(#id13)" x="12.98" y="783.26" width="237.6" height="89.39"/>
       </mask>
       <mask id="id14">
  <linearGradient id="id15" gradientUnits="userSpaceOnUse" x1="1008.59" y1="974.34" x2="1008.59" y2="712.92">
   <stop offset="0" style="stop-opacity:1; stop-color:white"/>
   <stop offset="1" style="stop-opacity:0; stop-color:white"/>
  </linearGradient>
        <rect style="fill:url(#id15)" x="1832.9" y="845.48" width="116.7" height="26.46"/>
       </mask>
       <mask id="id16">
  <linearGradient id="id17" gradientUnits="userSpaceOnUse" x1="1008.59" y1="974.34" x2="1008.59" y2="712.92">
   <stop offset="0" style="stop-opacity:1; stop-color:white"/>
   <stop offset="1" style="stop-opacity:0; stop-color:white"/>
  </linearGradient>
        <rect style="fill:url(#id17)" x="1777.24" y="783.26" width="206.28" height="75.37"/>
       </mask>
       <mask id="id18">
  <linearGradient id="id19" gradientUnits="userSpaceOnUse" x1="1017.72" y1="973.8" x2="1017.72" y2="715.92">
   <stop offset="0" style="stop-opacity:1; stop-color:white"/>
   <stop offset="1" style="stop-opacity:0; stop-color:white"/>
  </linearGradient>
        <rect style="fill:url(#id19)" x="1562.6" y="783.46" width="225.09" height="70.81"/>
       </mask>
       <mask id="id20">
  <linearGradient id="id21" gradientUnits="userSpaceOnUse" x1="1012.37" y1="974.34" x2="1012.37" y2="712.92">
   <stop offset="0" style="stop-opacity:1; stop-color:white"/>
   <stop offset="1" style="stop-opacity:0; stop-color:white"/>
  </linearGradient>
        <rect style="fill:url(#id21)" x="1509.53" y="783.26" width="60.22" height="56.33"/>
       </mask>
       <mask id="id22">
  <linearGradient id="id23" gradientUnits="userSpaceOnUse" x1="1016.25" y1="973.57" x2="1016.25" y2="713.22">
   <stop offset="0" style="stop-opacity:1; stop-color:white"/>
   <stop offset="1" style="stop-opacity:0; stop-color:white"/>
  </linearGradient>
        <rect style="fill:url(#id23)" x="1300.02" y="783.26" width="60.49" height="56.39"/>
       </mask>
       <mask id="id24">
  <linearGradient id="id25" gradientUnits="userSpaceOnUse" x1="1015.44" y1="973.57" x2="1015.44" y2="713.22">
   <stop offset="0" style="stop-opacity:1; stop-color:white"/>
   <stop offset="1" style="stop-opacity:0; stop-color:white"/>
  </linearGradient>
        <rect style="fill:url(#id25)" x="1455.18" y="783.26" width="59.63" height="54.77"/>
       </mask>
       <mask id="id26">
  <linearGradient id="id27" gradientUnits="userSpaceOnUse" x1="1018.33" y1="974.34" x2="1018.33" y2="712.92">
   <stop offset="0" style="stop-opacity:1; stop-color:white"/>
   <stop offset="1" style="stop-opacity:0; stop-color:white"/>
  </linearGradient>
        <rect style="fill:url(#id27)" x="1074.08" y="783.26" width="175.3" height="70.33"/>
       </mask>
       <mask id="id28">
  <linearGradient id="id29" gradientUnits="userSpaceOnUse" x1="1026.15" y1="739.13" x2="1026.16" y2="1010.04">
   <stop offset="0" style="stop-opacity:1; stop-color:white"/>
   <stop offset="1" style="stop-opacity:0; stop-color:white"/>
  </linearGradient>
        <rect style="fill:url(#id29)" x="762.88" y="931.57" width="256.67" height="114.5"/>
       </mask>
       <mask id="id30">
  <linearGradient id="id31" gradientUnits="userSpaceOnUse" x1="1026.15" y1="739.13" x2="1026.16" y2="1010.04">
   <stop offset="0" style="stop-opacity:1; stop-color:white"/>
   <stop offset="1" style="stop-opacity:0; stop-color:white"/>
  </linearGradient>
        <rect style="fill:url(#id31)" x="592.41" y="931.57" width="205.79" height="114.5"/>
       </mask>
       <mask id="id32">
  <linearGradient id="id33" gradientUnits="userSpaceOnUse" x1="1026.15" y1="739.13" x2="1026.16" y2="1010.04">
   <stop offset="0" style="stop-opacity:1; stop-color:white"/>
   <stop offset="1" style="stop-opacity:0; stop-color:white"/>
  </linearGradient>
        <rect style="fill:url(#id33)" x="389.09" y="931.57" width="204.7" height="114.5"/>
       </mask>
       <mask id="id34">
  <linearGradient id="id35" gradientUnits="userSpaceOnUse" x1="1026.15" y1="739.13" x2="1026.16" y2="1010.04">
   <stop offset="0" style="stop-opacity:1; stop-color:white"/>
   <stop offset="1" style="stop-opacity:0; stop-color:white"/>
  </linearGradient>
        <rect style="fill:url(#id35)" x="205.19" y="931.57" width="184.77" height="114.5"/>
       </mask>
       <mask id="id36">
  <linearGradient id="id37" gradientUnits="userSpaceOnUse" x1="1026.15" y1="739.13" x2="1026.16" y2="1010.04">
   <stop offset="0" style="stop-opacity:1; stop-color:white"/>
   <stop offset="1" style="stop-opacity:0; stop-color:white"/>
  </linearGradient>
        <rect style="fill:url(#id37)" x="4.86" y="931.57" width="275.02" height="114.5"/>
       </mask>
       <mask id="id38">
  <linearGradient id="id39" gradientUnits="userSpaceOnUse" x1="1026.15" y1="739.13" x2="1026.16" y2="1010.04">
   <stop offset="0" style="stop-opacity:1; stop-color:white"/>
   <stop offset="1" style="stop-opacity:0; stop-color:white"/>
  </linearGradient>
        <rect style="fill:url(#id39)" x="849.33" y="977.03" width="158.53" height="69.04"/>
       </mask>
       <mask id="id40">
  <linearGradient id="id41" gradientUnits="userSpaceOnUse" x1="1026.15" y1="739.13" x2="1026.16" y2="1010.04">
   <stop offset="0" style="stop-opacity:1; stop-color:white"/>
   <stop offset="1" style="stop-opacity:0; stop-color:white"/>
  </linearGradient>
        <rect style="fill:url(#id41)" x="592.41" y="969.98" width="205.79" height="76.09"/>
       </mask>
       <mask id="id42">
  <linearGradient id="id43" gradientUnits="userSpaceOnUse" x1="1026.15" y1="739.13" x2="1026.16" y2="1010.04">
   <stop offset="0" style="stop-opacity:1; stop-color:white"/>
   <stop offset="1" style="stop-opacity:0; stop-color:white"/>
  </linearGradient>
        <rect style="fill:url(#id43)" x="392.25" y="969.82" width="201.55" height="76.24"/>
       </mask>
       <mask id="id44">
  <linearGradient id="id45" gradientUnits="userSpaceOnUse" x1="1026.15" y1="739.13" x2="1026.16" y2="1010.04">
   <stop offset="0" style="stop-opacity:1; stop-color:white"/>
   <stop offset="1" style="stop-opacity:0; stop-color:white"/>
  </linearGradient>
        <rect style="fill:url(#id45)" x="243.35" y="975.11" width="93.06" height="70.96"/>
       </mask>
       <mask id="id46">
  <linearGradient id="id47" gradientUnits="userSpaceOnUse" x1="1026.15" y1="739.13" x2="1026.16" y2="1010.04">
   <stop offset="0" style="stop-opacity:1; stop-color:white"/>
   <stop offset="1" style="stop-opacity:0; stop-color:white"/>
  </linearGradient>
        <rect style="fill:url(#id47)" x="30.1" y="978.83" width="249.78" height="67.24"/>
       </mask>
       <mask id="id48">
  <linearGradient id="id49" gradientUnits="userSpaceOnUse" x1="1026.15" y1="739.13" x2="1026.16" y2="1010.04">
   <stop offset="0" style="stop-opacity:1; stop-color:white"/>
   <stop offset="1" style="stop-opacity:0; stop-color:white"/>
  </linearGradient>
        <rect style="fill:url(#id49)" x="1841.29" y="979.36" width="125.51" height="20.74"/>
       </mask>
       <mask id="id50">
  <linearGradient id="id51" gradientUnits="userSpaceOnUse" x1="1026.15" y1="739.13" x2="1026.16" y2="1010.04">
   <stop offset="0" style="stop-opacity:1; stop-color:white"/>
   <stop offset="1" style="stop-opacity:0; stop-color:white"/>
  </linearGradient>
        <rect style="fill:url(#id51)" x="1742.63" y="931.57" width="270.19" height="114.5"/>
       </mask>
       <mask id="id52">
  <linearGradient id="id53" gradientUnits="userSpaceOnUse" x1="1026.15" y1="739.13" x2="1026.16" y2="1010.04">
   <stop offset="0" style="stop-opacity:1; stop-color:white"/>
   <stop offset="1" style="stop-opacity:0; stop-color:white"/>
  </linearGradient>
        <rect style="fill:url(#id53)" x="1847.9" y="979.36" width="118.91" height="20.74"/>
       </mask>
       <mask id="id54">
  <linearGradient id="id55" gradientUnits="userSpaceOnUse" x1="1026.15" y1="739.13" x2="1026.16" y2="1010.04">
   <stop offset="0" style="stop-opacity:1; stop-color:white"/>
   <stop offset="1" style="stop-opacity:0; stop-color:white"/>
  </linearGradient>
        <rect style="fill:url(#id55)" x="1793.43" y="989.18" width="219.4" height="56.89"/>
       </mask>
       <mask id="id56">
  <linearGradient id="id57" gradientUnits="userSpaceOnUse" x1="1026.15" y1="739.13" x2="1026.16" y2="1010.04">
   <stop offset="0" style="stop-opacity:1; stop-color:white"/>
   <stop offset="1" style="stop-opacity:0; stop-color:white"/>
  </linearGradient>
        <rect style="fill:url(#id57)" x="1522.18" y="930.23" width="294.66" height="115.69"/>
       </mask>
       <mask id="id58">
  <linearGradient id="id59" gradientUnits="userSpaceOnUse" x1="1026.15" y1="739.13" x2="1026.16" y2="1010.04">
   <stop offset="0" style="stop-opacity:1; stop-color:white"/>
   <stop offset="1" style="stop-opacity:0; stop-color:white"/>
  </linearGradient>
        <rect style="fill:url(#id59)" x="1581.43" y="992.41" width="235.41" height="53.51"/>
       </mask>
       <mask id="id60">
  <linearGradient id="id61" gradientUnits="userSpaceOnUse" x1="1026.15" y1="739.13" x2="1026.16" y2="1010.04">
   <stop offset="0" style="stop-opacity:1; stop-color:white"/>
   <stop offset="1" style="stop-opacity:0; stop-color:white"/>
  </linearGradient>
        <rect style="fill:url(#id61)" x="1467.83" y="931.57" width="131.22" height="114.5"/>
       </mask>
       <mask id="id62">
  <linearGradient id="id63" gradientUnits="userSpaceOnUse" x1="1026.15" y1="739.13" x2="1026.16" y2="1010.04">
   <stop offset="0" style="stop-opacity:1; stop-color:white"/>
   <stop offset="1" style="stop-opacity:0; stop-color:white"/>
  </linearGradient>
        <rect style="fill:url(#id63)" x="1528.93" y="1003.25" width="70.12" height="42.82"/>
       </mask>
       <mask id="id64">
  <linearGradient id="id65" gradientUnits="userSpaceOnUse" x1="1026.15" y1="739.13" x2="1026.16" y2="1010.04">
   <stop offset="0" style="stop-opacity:1; stop-color:white"/>
   <stop offset="1" style="stop-opacity:0; stop-color:white"/>
  </linearGradient>
        <rect style="fill:url(#id65)" x="1258.73" y="931.57" width="131.08" height="114.5"/>
       </mask>
       <mask id="id66">
  <linearGradient id="id67" gradientUnits="userSpaceOnUse" x1="1026.15" y1="739.13" x2="1026.16" y2="1010.04">
   <stop offset="0" style="stop-opacity:1; stop-color:white"/>
   <stop offset="1" style="stop-opacity:0; stop-color:white"/>
  </linearGradient>
        <rect style="fill:url(#id67)" x="1319.24" y="1003.21" width="70.58" height="42.86"/>
       </mask>
       <mask id="id68">
  <linearGradient id="id69" gradientUnits="userSpaceOnUse" x1="1026.15" y1="739.13" x2="1026.16" y2="1010.04">
   <stop offset="0" style="stop-opacity:1; stop-color:white"/>
   <stop offset="1" style="stop-opacity:0; stop-color:white"/>
  </linearGradient>
        <rect style="fill:url(#id69)" x="1356.18" y="931.57" width="187.93" height="114.5"/>
       </mask>
       <mask id="id70">
  <linearGradient id="id71" gradientUnits="userSpaceOnUse" x1="1026.15" y1="739.13" x2="1026.16" y2="1010.04">
   <stop offset="0" style="stop-opacity:1; stop-color:white"/>
   <stop offset="1" style="stop-opacity:0; stop-color:white"/>
  </linearGradient>
        <rect style="fill:url(#id71)" x="1474.79" y="1004.41" width="69.32" height="41.66"/>
       </mask>
       <mask id="id72">
  <linearGradient id="id73" gradientUnits="userSpaceOnUse" x1="1026.15" y1="739.13" x2="1026.16" y2="1010.04">
   <stop offset="0" style="stop-opacity:1; stop-color:white"/>
   <stop offset="1" style="stop-opacity:0; stop-color:white"/>
  </linearGradient>
        <rect style="fill:url(#id73)" x="1034.69" y="931.57" width="245.28" height="114.5"/>
       </mask>
       <mask id="id74">
  <linearGradient id="id75" gradientUnits="userSpaceOnUse" x1="1026.15" y1="739.13" x2="1026.16" y2="1010.04">
   <stop offset="0" style="stop-opacity:1; stop-color:white"/>
   <stop offset="1" style="stop-opacity:0; stop-color:white"/>
  </linearGradient>
        <rect style="fill:url(#id75)" x="1091.97" y="992.91" width="186.7" height="53.16"/>
       </mask>
  <linearGradient id="id76" gradientUnits="userSpaceOnUse" x1="1991.31" y1="1073.18" x2="2055.91" y2="1030.62">
   <stop offset="0" style="stop-opacity:1; stop-color:red"/>
   <stop offset="0.478431" style="stop-opacity:1; stop-color:#FF4600"/>
   <stop offset="1" style="stop-opacity:1; stop-color:#FF8400"/>
  </linearGradient>
  <linearGradient id="id77" gradientUnits="userSpaceOnUse" xlink:href="#id76" x1="9.16" y1="917.97" x2="1016.72" y2="788.81">
  </linearGradient>
  <linearGradient id="id78" gradientUnits="userSpaceOnUse" xlink:href="#id76" x1="21.08" y1="1039.28" x2="1037" y2="948.03">
  </linearGradient>
  <linearGradient id="id79" gradientUnits="userSpaceOnUse" xlink:href="#id76" x1="18.52" y1="1040.73" x2="1048.41" y2="948.23">
  </linearGradient>
  <linearGradient id="id80" gradientUnits="userSpaceOnUse" x1="541.89" y1="409.66" x2="563.27" y2="131.87">
   <stop offset="0" style="stop-opacity:1; stop-color:#5E2D2C"/>
   <stop offset="1" style="stop-opacity:1; stop-color:#9C4400"/>
  </linearGradient>
  <linearGradient id="id81" gradientUnits="userSpaceOnUse" xlink:href="#id76" x1="1.45" y1="917.75" x2="1022.85" y2="786.81">
  </linearGradient>
  <linearGradient id="id82" gradientUnits="userSpaceOnUse" xlink:href="#id76" x1="9.16" y1="917.97" x2="1016.72" y2="788.81">
  </linearGradient>
  <linearGradient id="id83" gradientUnits="userSpaceOnUse" xlink:href="#id76" x1="13.52" y1="1040.73" x2="1043.41" y2="948.23">
  </linearGradient>
  <linearGradient id="id84" gradientUnits="userSpaceOnUse" xlink:href="#id80" x1="536.53" y1="573.35" x2="1140.31" y2="-61.22">
  </linearGradient>
  <linearGradient id="id85" gradientUnits="userSpaceOnUse" xlink:href="#id76" x1="390.49" y1="450.87" x2="1204.65" y2="-0">
  </linearGradient>
  <linearGradient id="id86" gradientUnits="userSpaceOnUse" xlink:href="#id76" x1="4.2" y1="917.75" x2="1025.61" y2="786.81">
  </linearGradient>
  <linearGradient id="id87" gradientUnits="userSpaceOnUse" xlink:href="#id76" x1="6.44" y1="917.75" x2="1027.85" y2="786.81">
  </linearGradient>
  <linearGradient id="id88" gradientUnits="userSpaceOnUse" xlink:href="#id76" x1="16.28" y1="1040.73" x2="1046.16" y2="948.23">
  </linearGradient>
  <linearGradient id="id89" gradientUnits="userSpaceOnUse" xlink:href="#id76" x1="21.08" y1="1039.28" x2="1037" y2="948.03">
  </linearGradient>
 </defs>
 <g id="Camada_x0020_1">
  <metadata id="CorelCorpID_0Corel-Layer"/>
  <g id="_1623998490816">
   <g>
    <polygon class="fil0" points="1322.86,291.72 1594.51,291.72 1654.4,219.16 1352.57,219.16 1347.69,219.23 1342.9,219.41 1338.2,219.73 1333.58,220.17 1329.05,220.74 1324.6,221.43 1320.24,222.25 1315.96,223.2 1311.77,224.27 1307.67,225.47 1303.65,226.79 1299.71,228.25 1295.86,229.82 1292.1,231.53 1288.42,233.35 1284.83,235.31 1281.34,237.38 1277.98,239.55 1274.75,241.82 1271.64,244.18 1268.65,246.65 1265.79,249.21 1263.05,251.88 1260.44,254.64 1257.95,257.51 1255.59,260.47 1253.35,263.53 1251.24,266.69 1249.25,269.95 1247.39,273.31 1245.65,276.77 1244.04,280.33 1242.6,283.89 1241.37,287.34 1240.36,290.7 1221.88,356.1 1222.79,353.08 1223.89,349.97 1225.19,346.77 1226.64,343.57 1228.21,340.45 1229.88,337.43 1231.67,334.5 1233.57,331.65 1235.59,328.9 1237.71,326.23 1239.95,323.65 1242.3,321.16 1244.76,318.76 1247.34,316.46 1250.03,314.24 1252.83,312.11 1255.74,310.07 1258.76,308.11 1261.9,306.25 1265.14,304.49 1268.45,302.85 1271.83,301.31 1275.3,299.89 1278.84,298.59 1282.46,297.4 1286.15,296.32 1289.92,295.35 1293.77,294.5 1297.7,293.76 1301.7,293.14 1305.78,292.63 1309.94,292.23 1314.17,291.94 1318.48,291.78 "/>
    <polygon class="fil0" points="1430.6,662.86 572.53,662.86 518.86,631.55 1472.27,631.55 1475.45,631.53 1478.61,631.5 1481.76,631.45 1484.89,631.37 1488,631.28 1491.1,631.16 1494.18,631.02 1497.24,630.86 1500.29,630.67 1503.32,630.47 1506.34,630.24 1509.34,630 1512.33,629.73 1515.29,629.44 1518.24,629.13 1521.18,628.8 1524.1,628.44 1527,628.07 1529.89,627.67 1532.76,627.25 1535.62,626.81 1538.45,626.35 1541.28,625.87 1544.09,625.36 1546.88,624.84 1549.65,624.29 1552.41,623.72 1555.15,623.13 1557.88,622.52 1560.59,621.88 1563.28,621.23 1565.96,620.55 1568.62,619.86 1571.27,619.14 1573.89,618.41 1576.5,617.66 1579.09,616.9 1581.66,616.13 1584.21,615.33 1586.75,614.51 1589.26,613.69 1591.76,612.84 1594.24,611.97 1596.7,611.09 1599.14,610.2 1601.57,609.28 1603.97,608.35 1606.36,607.4 1608.74,606.44 1611.09,605.46 1613.42,604.46 1615.74,603.45 1618.04,602.42 1620.32,601.37 1622.58,600.3 1624.83,599.22 1627.05,598.12 1629.26,597.01 1631.45,595.88 1633.63,594.73 1635.78,593.56 1637.91,592.38 1640.03,591.18 1642.13,589.97 1646.28,587.49 1587.2,623.21 1583.47,625.44 1581.58,626.53 1579.68,627.62 1577.75,628.68 1575.81,629.73 1573.86,630.76 1571.89,631.78 1569.9,632.78 1567.9,633.77 1565.88,634.75 1563.84,635.7 1561.79,636.65 1559.72,637.58 1557.63,638.49 1555.53,639.39 1553.41,640.27 1551.28,641.14 1549.13,641.99 1546.96,642.83 1544.78,643.65 1542.58,644.46 1540.37,645.25 1538.13,646.03 1535.89,646.79 1533.62,647.53 1531.34,648.27 1529.04,648.98 1526.73,649.69 1524.4,650.37 1522.05,651.04 1519.69,651.7 1517.31,652.34 1514.92,652.97 1512.51,653.58 1510.08,654.17 1507.64,654.74 1505.19,655.29 1502.72,655.82 1500.24,656.33 1497.74,656.82 1495.23,657.3 1492.7,657.75 1490.16,658.19 1487.61,658.6 1485.04,659 1482.45,659.38 1479.85,659.73 1477.24,660.07 1474.61,660.39 1471.97,660.69 1469.32,660.97 1466.65,661.23 1463.96,661.47 1461.26,661.69 1458.54,661.9 1455.81,662.08 1453.07,662.25 1450.31,662.39 1447.54,662.52 1444.75,662.62 1441.95,662.71 1439.13,662.78 1436.3,662.83 1433.46,662.85 "/>
    <polygon class="fil1" points="470.1,510.73 468.07,509.31 466.09,507.87 400.59,459.33 402.79,460.93 405.05,462.51 407.37,464.06 409.75,465.58 412.19,467.07 414.69,468.54 417.26,469.98 419.88,471.39 422.56,472.77 425.3,474.12 428.1,475.44 430.96,476.74 433.89,478.01 436.87,479.25 439.91,480.46 443.01,481.64 446.18,482.8 449.4,483.92 452.68,485.02 456.03,486.09 459.43,487.14 462.89,488.15 466.42,489.13 470,490.09 473.64,491.02 477.35,491.92 481.11,492.8 484.94,493.64 488.83,494.46 492.78,495.25 496.81,496.02 500.89,496.76 505.04,497.47 509.26,498.16 513.54,498.81 517.88,499.44 522.29,500.05 526.77,500.63 531.31,501.17 535.91,501.7 540.58,502.19 545.31,502.66 550.11,503.11 554.97,503.53 559.9,503.91 564.89,504.28 569.95,504.61 575.07,504.92 580.26,505.2 585.51,505.46 590.83,505.69 596.21,505.89 601.66,506.06 607.17,506.21 612.74,506.33 618.38,506.42 624.09,506.49 629.86,506.53 635.69,506.55 641.59,506.53 647.45,506.49 653.27,506.42 659.04,506.33 664.77,506.21 670.45,506.06 676.09,505.89 681.69,505.69 687.24,505.46 692.75,505.2 698.22,504.92 703.64,504.61 709.02,504.28 714.36,503.91 719.65,503.53 724.9,503.11 730.11,502.66 735.27,502.19 740.39,501.7 745.47,501.17 750.5,500.63 755.49,500.05 760.43,499.44 765.33,498.81 770.19,498.16 775.01,497.47 779.78,496.76 784.51,496.02 789.19,495.25 793.83,494.46 798.43,493.64 802.98,492.8 807.5,491.92 811.98,491.02 816.42,490.09 820.83,489.13 825.2,488.15 829.53,487.14 833.83,486.09 838.09,485.02 842.32,483.92 846.51,482.8 850.66,481.64 854.78,480.46 858.87,479.25 862.91,478.01 866.93,476.74 870.9,475.44 874.84,474.12 878.74,472.77 882.61,471.39 886.44,469.98 890.24,468.54 894,467.07 897.72,465.58 901.41,464.06 905.06,462.51 908.68,460.93 912.26,459.33 915.81,457.69 919.31,456.03 922.79,454.34 926.22,452.62 929.62,450.87 932.99,449.1 936.33,447.29 939.63,445.46 942.91,443.6 946.15,441.71 949.36,439.79 952.54,437.84 955.69,435.86 958.8,433.85 961.89,431.82 964.95,429.75 967.97,427.66 970.96,425.54 973.92,423.39 976.85,421.21 979.75,419 982.62,416.76 985.45,414.49 988.26,412.2 991.03,409.87 993.77,407.52 996.48,405.14 999.16,402.73 1001.81,400.29 1004.43,397.82 1007.01,395.32 1009.57,392.8 1012.09,390.24 1014.58,387.66 1017.05,385.05 1019.48,382.41 1021.87,379.74 1024.25,377.04 1026.59,374.31 1028.9,371.55 1031.2,368.76 1033.46,365.95 1035.7,363.11 1037.91,360.23 1040.1,357.33 1042.26,354.4 1044.4,351.44 1046.51,348.45 1048.59,345.44 1050.65,342.39 1052.68,339.32 1054.68,336.22 1056.66,333.08 1058.62,329.92 1060.54,326.73 1062.45,323.51 1064.32,320.26 1066.17,316.99 1067.99,313.69 1069.79,310.35 1071.56,306.99 1073.31,303.59 1075.03,300.17 1076.72,296.73 1078.39,293.25 1080.03,289.74 1081.64,286.21 1083.23,282.64 1084.79,279.05 1164.07,94.47 1089.96,94.47 982.08,345.62 980.45,349.35 978.78,353.01 977.06,356.62 975.3,360.17 973.51,363.66 971.67,367.08 969.79,370.45 967.87,373.76 965.92,377 963.92,380.19 961.88,383.31 959.8,386.38 957.68,389.38 955.52,392.32 953.32,395.21 951.08,398.03 939.48,337.29 941.97,334.15 944.41,330.95 946.81,327.67 949.17,324.34 951.48,320.93 953.74,317.46 955.96,313.92 958.14,310.31 960.27,306.64 962.35,302.9 964.39,299.09 966.39,295.22 968.34,291.28 970.25,287.27 972.11,283.19 973.92,279.05 1093.78,-0 1204.65,-0 1189.74,94.47 1081.87,345.62 1080.46,348.85 1079.03,352.06 1077.58,355.24 1076.1,358.4 1074.6,361.53 1073.08,364.63 1071.53,367.71 1069.96,370.76 1068.36,373.79 1066.75,376.79 1065.11,379.76 1063.44,382.71 1061.75,385.63 1060.04,388.53 1058.31,391.4 1056.55,394.25 1054.77,397.07 1052.96,399.86 1051.14,402.63 1049.29,405.37 1047.41,408.08 1045.51,410.77 1043.59,413.43 1041.65,416.07 1039.67,418.68 1037.68,421.27 1035.67,423.83 1033.63,426.36 1031.57,428.87 1029.48,431.35 1027.38,433.81 1025.24,436.23 1023.08,438.64 1020.89,441.02 1018.68,443.37 1016.44,445.69 1014.17,447.99 1011.87,450.26 1009.54,452.51 1007.18,454.74 1004.8,456.93 1002.39,459.1 999.95,461.24 997.48,463.36 994.99,465.45 992.46,467.52 989.91,469.56 987.33,471.57 984.72,473.56 982.08,475.52 979.42,477.46 976.73,479.37 974.01,481.25 971.26,483.11 968.48,484.94 965.67,486.75 962.84,488.53 959.98,490.28 957.09,492.01 954.17,493.71 951.22,495.39 948.25,497.04 945.25,498.66 942.21,500.26 939.15,501.83 936.06,503.38 932.94,504.9 929.78,506.4 926.59,507.87 923.37,509.31 920.11,510.73 916.82,512.13 913.51,513.5 910.15,514.84 906.77,516.16 903.35,517.45 899.9,518.72 896.42,519.96 892.91,521.18 889.36,522.37 885.79,523.54 882.18,524.68 878.53,525.8 874.86,526.89 871.15,527.95 867.41,528.99 863.64,530 859.84,530.99 856,531.96 852.13,532.9 848.23,533.81 844.3,534.69 840.33,535.56 836.33,536.39 832.3,537.2 828.24,537.99 824.14,538.75 820,539.49 815.82,540.2 811.61,540.89 807.36,541.55 803.06,542.2 798.73,542.81 794.35,543.4 789.94,543.97 785.49,544.52 781,545.04 776.47,545.53 771.9,546 767.3,546.45 762.65,546.87 757.97,547.27 753.24,547.65 748.48,548 743.68,548.32 738.83,548.62 733.95,548.9 729.03,549.15 724.07,549.38 719.07,549.59 714.04,549.77 708.96,549.93 703.84,550.06 698.69,550.17 693.49,550.26 688.26,550.32 682.99,550.35 677.68,550.36 672.43,550.35 667.23,550.32 662.1,550.26 657.02,550.17 652.01,550.06 647.05,549.93 642.14,549.77 637.3,549.59 632.52,549.38 627.79,549.15 623.12,548.9 618.51,548.62 613.96,548.32 609.47,548 605.03,547.65 600.65,547.27 596.34,546.87 592.07,546.45 587.87,546 583.73,545.53 579.64,545.04 575.61,544.52 571.65,543.97 567.74,543.4 563.88,542.81 560.09,542.2 556.36,541.55 552.68,540.89 549.06,540.2 545.5,539.49 542,538.75 538.55,537.99 535.17,537.2 531.83,536.39 528.55,535.56 525.33,534.69 522.16,533.81 519.04,532.9 515.98,531.96 512.97,530.99 510.01,530 507.11,528.99 504.27,527.95 501.48,526.89 498.74,525.8 496.05,524.68 493.42,523.54 490.85,522.37 488.33,521.18 485.86,519.96 483.44,518.72 481.09,517.45 478.78,516.16 476.53,514.84 474.33,513.5 472.19,512.13 "/>
    <polygon class="fil2" points="541.63,406.88 541.89,409.66 542.29,412.5 542.83,415.28 543.5,417.99 544.31,420.64 545.26,423.21 546.34,425.72 547.56,428.16 548.92,430.53 550.41,432.84 552.03,435.07 553.79,437.25 555.69,439.35 526.67,410.01 526.5,410.03 522.75,410.65 519.02,411.27 515.3,411.9 511.61,412.53 507.93,413.17 504.27,413.81 500.63,414.46 497.01,415.1 493.42,415.75 489.84,416.41 486.28,417.07 482.74,417.74 479.22,418.41 475.72,419.08 472.24,419.75 468.78,420.43 465.35,421.11 461.93,421.79 458.54,422.47 455.17,423.16 451.82,423.85 448.49,424.54 445.18,425.23 441.89,425.93 438.63,426.62 435.39,427.32 432.17,428.02 428.98,428.72 359.36,371.38 362.91,370.61 366.48,369.83 370.09,369.05 373.71,368.28 377.36,367.51 381.04,366.74 384.74,365.97 388.46,365.21 392.21,364.45 395.98,363.68 399.77,362.93 403.59,362.17 407.43,361.42 411.3,360.67 415.18,359.93 419.1,359.18 423.03,358.45 426.98,357.71 430.96,356.98 434.96,356.26 438.98,355.54 443.02,354.82 447.08,354.11 451.17,353.4 455.28,352.7 459.4,352 463.55,351.31 467.72,350.62 471.91,349.94 476.12,349.27 480.34,348.6 484.59,347.94 484.55,347.41 484.53,347.11 484.52,346.96 484.51,346.81 484.48,346.35 484.45,345.81 484.43,345.27 484.4,344.74 484.39,344.19 484.37,343.65 484.37,340.26 484.5,336.78 484.76,333.21 485.15,329.56 485.67,325.83 486.32,322 487.1,318.09 488.02,314.1 489.06,310.02 490.24,305.85 491.55,301.6 492.99,297.26 494.56,292.83 496.26,288.32 498.09,283.73 500.06,279.05 563.27,131.87 612.5,213.16 555.6,345.62 553.84,349.83 552.19,353.97 550.66,358.02 549.24,362.01 547.95,365.91 546.77,369.74 545.71,373.49 544.77,377.16 543.94,380.76 543.24,384.27 542.65,387.72 542.18,391.08 541.84,394.37 541.6,397.57 541.49,400.71 541.49,403.76 541.61,406.61 541.62,406.66 "/>
    <polygon class="fil0" points="1133.06,433.78 1133.08,433.78 1134.7,435.34 1136.92,437.33 1139.25,439.25 1141.68,441.11 1144.22,442.92 1146.87,444.67 1149.62,446.36 1152.48,448 1155.45,449.57 1158.52,451.09 1161.7,452.55 1164.99,453.95 1168.38,455.29 1171.88,456.57 1175.49,457.8 1177.33,458.39 1179.19,458.96 1181.08,459.52 1182.99,460.05 1184.92,460.57 1186.88,461.06 1188.86,461.54 1190.86,462 1192.88,462.44 1194.93,462.86 1197,463.26 1199.1,463.65 1201.21,464.01 1203.35,464.36 1205.51,464.69 1207.7,465 1209.91,465.29 1212.14,465.56 1214.39,465.81 1216.67,466.04 1218.97,466.26 1221.3,466.46 1223.65,466.64 1226.02,466.8 1228.4,466.94 1230.82,467.06 1233.26,467.16 1235.72,467.25 1238.21,467.31 1240.72,467.36 1243.25,467.39 1245.8,467.4 1514.56,467.4 1519.59,467.45 1524.43,467.62 1529.06,467.91 1533.51,468.31 1537.75,468.82 1541.8,469.44 1545.65,470.18 1549.31,471.03 1552.77,472 1556.03,473.07 1559.1,474.27 1561.97,475.57 1564.64,476.99 1567.12,478.53 1569.4,480.17 1571.48,481.93 1573.36,483.81 1575.01,485.79 1576.44,487.89 1577.65,490.11 1578.64,492.44 1579.41,494.88 1579.95,497.43 1580.28,500.1 1580.38,502.88 1580.26,505.78 1579.92,508.79 1579.35,511.91 1578.57,515.15 1577.56,518.5 1576.33,521.96 1574.88,525.54 1573.38,528.83 1571.75,532.03 1569.98,535.15 1568.07,538.18 1566.02,541.14 1563.84,544.01 1561.51,546.8 1559.05,549.51 1556.46,552.14 1553.72,554.68 1550.85,557.14 1547.84,559.52 1602.54,516.72 1605.88,514.08 1609.07,511.34 1612.12,508.51 1615,505.6 1617.74,502.59 1620.32,499.49 1622.74,496.29 1625.02,493.01 1627.14,489.64 1629.11,486.17 1630.93,482.61 1632.59,478.97 1634.2,474.99 1635.57,471.14 1636.68,467.42 1637.55,463.82 1638.18,460.35 1638.56,457.01 1638.7,453.79 1638.58,450.7 1638.22,447.73 1637.62,444.89 1636.77,442.18 1635.67,439.59 1634.32,437.13 1632.73,434.8 1630.89,432.59 1628.81,430.51 1626.49,428.55 1623.96,426.73 1621.21,425.02 1618.24,423.44 1615.05,421.99 1611.64,420.67 1608.02,419.47 1604.17,418.4 1603.83,418.32 1615.85,415.63 1629.03,412.55 1692.75,353.42 1678.11,356.84 1663.22,360.17 1648.11,363.41 1632.76,366.55 1617.2,369.58 1601.42,372.49 1585.44,375.27 1569.26,377.91 1552.89,380.41 1536.34,382.76 1519.62,384.94 1502.72,386.95 1485.68,388.78 1468.48,390.41 1451.13,391.85 1433.65,393.08 1416.04,394.09 1398.31,394.87 1380.47,395.42 1362.52,395.72 1344.48,395.77 1326.34,395.56 1308.12,395.08 1289.83,394.31 1271.46,393.25 1253.04,391.9 1234.57,390.24 1216.05,388.26 1197.49,385.96 1178.91,383.32 1160.3,380.34 1141.7,377.01 1141.15,376.48 1138.92,374.15 1136.8,371.76 1134.81,369.31 1132.92,366.81 1131.16,364.25 1129.51,361.63 1127.97,358.96 1126.54,356.23 1125.24,353.45 1124.04,350.6 1122.97,347.71 1122,344.75 1121.16,341.74 1120.42,338.67 1119.81,335.55 1119.3,332.37 1118.92,329.13 1118.65,325.85 1118.51,322.53 1118.49,319.17 1118.59,315.77 1118.82,312.34 1112.49,375.58 1112.29,378.67 1112.19,381.72 1112.21,384.75 1112.34,387.74 1112.58,390.69 1112.93,393.6 1113.38,396.47 1113.94,399.28 1114.6,402.04 1115.36,404.75 1116.22,407.41 1117.19,410.02 1118.27,412.57 1119.44,415.08 1120.73,417.54 1122.11,419.94 1123.6,422.3 1125.19,424.6 1126.88,426.86 1128.68,429.06 1130.58,431.21 1130.88,431.53 1131.19,431.86 1131.49,432.18 1131.8,432.5 1132.11,432.82 1132.43,433.14 1132.59,433.3 1132.75,433.46 "/>
    <path class="fil3" d="M1093.78 -0l110.87 0 -119.86 279.05c-16.53,38.49 -37.51,72.05 -62.92,100.69 -25.42,28.64 -56.17,52.35 -92.25,71.14 -36.09,18.78 -78.3,32.76 -126.64,41.92 -48.35,9.17 -104.11,13.75 -167.29,13.75 -62.58,0 -114.11,-4.58 -154.58,-13.75 -40.47,-9.16 -70.68,-23.14 -90.62,-41.92 -19.95,-18.79 -30.33,-42.5 -31.14,-71.14 -0.81,-28.64 7.05,-62.2 23.58,-100.69l63.22 -147.17 117.12 0 -63.22 147.17c-10.82,25.2 -16.05,46.74 -15.68,64.61 0.37,17.87 7.19,32.53 20.45,43.99 13.25,11.45 33.96,19.81 62.09,25.08 28.14,5.27 64.55,7.9 109.26,7.9 44.7,0 83.39,-2.64 116.06,-7.9 32.66,-5.27 60.54,-13.63 83.64,-25.08 23.1,-11.46 42.52,-26.12 58.24,-43.99 15.72,-17.87 28.99,-39.41 39.81,-64.61l119.86 -279.05z"/>
    <path class="fil4" d="M518.86 631.55l37.5 -87.29 953.41 0c30.4,0 56.35,-5.96 77.86,-17.87 21.51,-11.92 36.5,-27.72 44.96,-47.42 9.25,-21.54 7.99,-37.69 -3.78,-48.46 -11.76,-10.77 -32.84,-16.15 -63.25,-16.15l-298.62 0c-30.4,0 -56.44,-3.56 -78.12,-10.66 -21.69,-7.1 -38.32,-16.95 -49.9,-29.55 -11.58,-12.6 -18.24,-27.61 -20,-45.02 -1.76,-17.41 1.79,-36.43 10.65,-57.05 8.66,-20.16 20.99,-38.83 37.02,-56.02 16.02,-17.18 35.19,-31.96 57.48,-44.33 22.3,-12.37 47.5,-22.11 75.58,-29.21 28.08,-7.1 58.22,-10.65 90.41,-10.65l301.83 0 -37.49 87.29 -301.83 0c-26.22,0 -48.81,5.38 -67.73,16.15 -18.93,10.77 -32.53,25.78 -40.79,45.02 -8.26,19.25 -7.36,34.14 2.72,44.68 10.07,10.54 27.63,15.81 52.67,15.81l297.73 0c66.17,0 111.27,11.91 135.31,35.74 24.04,23.83 25.63,60.02 4.77,108.59 -9.05,21.08 -21.59,40.55 -37.61,58.42 -16.02,17.87 -35.19,33.34 -57.48,46.39 -22.3,13.06 -47.69,23.25 -76.17,30.59 -28.48,7.33 -59.71,10.99 -93.69,10.99l-953.42 0z"/>
    <path class="fil5" style="mask:url(#id0)" d="M359.36 371.38c37.74,-8.3 79.81,-16.42 125.23,-23.44 -0.11,-1.41 -0.19,-2.84 -0.22,-4.29 -0.37,-17.87 4.86,-39.41 15.68,-64.6l63.22 -147.18 -117.13 0 -63.22 147.18c-14.95,34.8 -22.81,65.58 -23.57,92.34zm580.12 -34.1c34.11,4.33 68.39,10.03 102.62,17.34 16.54,-22.63 30.77,-47.83 42.7,-75.58l119.86 -279.05 -110.87 0 -119.86 279.05c-9.57,22.27 -21.05,41.69 -34.45,58.24z"/>
    <path class="fil5" style="mask:url(#id2)" d="M1141.68 377c198.68,37.48 396.22,13.25 551.07,-23.58 -24.44,-8.41 -56.3,-12.61 -95.6,-12.61l-297.73 0c-25.04,0 -42.6,-5.27 -52.67,-15.81 -10.08,-10.54 -10.98,-25.43 -2.72,-44.68 8.26,-19.24 21.86,-34.25 40.79,-45.02 18.93,-10.76 41.52,-16.15 67.73,-16.15l301.83 0 37.49 -87.29 -301.83 0c-32.19,0 -62.33,3.55 -90.41,10.65 -28.08,7.1 -53.28,16.84 -75.58,29.21 -22.3,12.37 -41.47,27.15 -57.48,44.33 -16.03,17.18 -28.36,35.85 -37.02,56.02 -8.85,20.62 -12.41,39.64 -10.65,57.05 1.76,17.41 8.42,32.42 20,45.02 0.89,0.97 1.81,1.92 2.76,2.85z"/>
   </g>
   <g>
    <g>
     <path class="fil4" d="M2041.68 1077.79l3.79 -8.24 35.36 0c2.21,0 4.17,-0.56 5.87,-1.69 1.71,-1.13 2.99,-2.62 3.84,-4.48 0.94,-2.03 1.04,-3.56 0.32,-4.57 -0.72,-1.02 -2.19,-1.52 -4.4,-1.52l-21.67 0c-2.21,0 -4.05,-0.34 -5.53,-1.01 -1.49,-0.67 -2.58,-1.6 -3.26,-2.79 -0.68,-1.19 -0.98,-2.61 -0.9,-4.25 0.09,-1.64 0.58,-3.44 1.48,-5.39 0.88,-1.9 2,-3.66 3.37,-5.29 1.37,-1.62 2.95,-3.02 4.72,-4.18 1.76,-1.17 3.72,-2.09 5.84,-2.76 2.12,-0.67 4.35,-1.01 6.69,-1.01l33.87 0 -3.79 8.24 -33.87 0c-1.9,0 -3.61,0.51 -5.12,1.52 -1.5,1.02 -2.67,2.44 -3.51,4.25 -0.84,1.82 -0.95,3.22 -0.35,4.22 0.6,1 1.81,1.49 3.63,1.49l21.61 0c4.8,0 7.93,1.12 9.38,3.38 1.45,2.25 1.12,5.66 -0.98,10.25 -0.92,1.99 -2.07,3.83 -3.45,5.51 -1.38,1.69 -2.96,3.15 -4.74,4.38 -1.77,1.23 -3.74,2.19 -5.9,2.89 -2.16,0.69 -4.46,1.04 -6.93,1.04l-35.36 0z"/>
     <path class="fil6" d="M2047.87 1030.62l8.05 0 -12.12 26.35c-1.67,3.63 -3.61,6.8 -5.8,9.5 -2.19,2.7 -4.72,4.95 -7.56,6.71 -2.85,1.77 -6.08,3.1 -9.7,3.96 -3.62,0.87 -7.72,1.3 -12.31,1.3 -4.54,0 -8.23,-0.43 -11.05,-1.3 -2.83,-0.86 -4.85,-2.18 -6.06,-3.96 -1.23,-1.77 -1.69,-4.01 -1.39,-6.71 0.29,-2.7 1.28,-5.87 2.95,-9.5l12.12 -26.35 8.5 0 -12.12 26.35c-1.1,2.38 -1.74,4.41 -1.93,6.1 -0.19,1.69 0.12,3.07 0.95,4.15 0.82,1.08 2.22,1.87 4.2,2.37 1.97,0.5 4.59,0.75 7.83,0.75 3.24,0 6.08,-0.25 8.51,-0.75 2.44,-0.5 4.57,-1.29 6.38,-2.37 1.82,-1.08 3.4,-2.46 4.77,-4.15 1.36,-1.69 2.59,-3.72 3.68,-6.1l12.12 -26.35z"/>
     <polygon class="fil4" points="1910.46,1077.98 1932.25,1030.62 1940.49,1030.62 1918.7,1077.98 "/>
     <polygon class="fil4" points="1948.41,1077.98 1957.84,1057.48 1934.1,1057.48 1937.47,1050.15 1961.22,1050.15 1970.2,1030.62 1978.45,1030.62 1956.66,1077.98 "/>
     <polygon class="fil4" points="1878.96,1077.79 1896.86,1038.86 1878.96,1038.86 1882.74,1030.62 1926.8,1030.62 1923.01,1038.86 1905.1,1038.86 1887.19,1077.79 "/>
     <polygon class="fil4" points="1846.96,1077.79 1868.66,1030.62 1876.9,1030.62 1855.2,1077.79 "/>
     <path class="fil4" d="M1808.54 1062.02l-13.69 13.82c-0.88,0.87 -1.78,1.51 -2.71,1.95 -0.94,0.43 -1.83,0.65 -2.7,0.65 -1.9,0 -2.94,-0.87 -3.08,-2.6l-3.6 -45.22 9.86 0 2.39 36.27 13.05 -12.85 -1.49 -23.42 9.93 0 1.55 36.27 35.89 -36.27 9.21 0 -45.19 45.22c-0.88,0.87 -1.79,1.51 -2.75,1.95 -0.96,0.43 -1.87,0.65 -2.73,0.65 -0.86,0 -1.57,-0.22 -2.1,-0.65 -0.54,-0.44 -0.84,-1.08 -0.92,-1.95l-0.91 -13.82z"/>
     <polygon class="fil4" points="1719.56,1057.29 1722.75,1050.35 1748.9,1050.35 1745.71,1057.29 "/>
     <polygon class="fil4" points="1695.92,1077.79 1717.62,1030.62 1759.73,1030.62 1755.94,1038.86 1722.01,1038.86 1707.89,1069.55 1741.88,1069.55 1738.09,1077.79 "/>
     <path class="fil4" d="M1682.3 1077.79l6.24 -33.16 -27.49 30.69c-0.94,0.99 -1.86,1.76 -2.78,2.3 -0.92,0.54 -1.88,0.81 -2.87,0.81 -1.95,0 -2.87,-1.04 -2.79,-3.11l0.82 -30.69 -24.27 33.16 -8.11 0 32.55 -44.38c1.6,-2.25 3.48,-3.37 5.64,-3.37 0.86,0 1.56,0.24 2.1,0.71 0.54,0.48 0.8,1.17 0.77,2.08l-0.81 33.35 29.88 -33.35c1.63,-1.86 3.38,-2.79 5.24,-2.79 1.99,0 2.79,1.12 2.41,3.37l-8.35 44.38 -8.18 0z"/>
     <path class="fil4" d="M1600.18 1069.55c2.16,0 4.33,-0.39 6.51,-1.17 2.17,-0.78 4.23,-1.85 6.18,-3.21 1.94,-1.36 3.72,-2.99 5.34,-4.9 1.6,-1.9 2.92,-3.96 3.94,-6.16 1.01,-2.2 1.58,-4.25 1.72,-6.13 0.13,-1.88 -0.16,-3.49 -0.86,-4.83 -0.7,-1.34 -1.79,-2.39 -3.25,-3.15 -1.47,-0.76 -3.29,-1.13 -5.45,-1.13l-11.49 0c-2.12,0 -4.25,0.38 -6.39,1.13 -2.15,0.76 -4.18,1.81 -6.09,3.15 -1.91,1.34 -3.66,2.94 -5.26,4.8 -1.59,1.86 -2.9,3.92 -3.93,6.16 -1.02,2.21 -1.6,4.26 -1.74,6.16 -0.14,1.9 0.13,3.54 0.8,4.9 0.67,1.36 1.72,2.44 3.16,3.21 1.44,0.78 3.22,1.17 5.33,1.17l11.49 0zm-15.28 8.24c-3.29,0 -6.04,-0.62 -8.27,-1.85 -2.22,-1.23 -3.87,-2.92 -4.94,-5.06 -1.07,-2.15 -1.5,-4.69 -1.29,-7.63 0.2,-2.94 1.09,-6.12 2.67,-9.53 1.59,-3.46 3.62,-6.62 6.08,-9.47 2.46,-2.85 5.18,-5.29 8.16,-7.3 2.98,-2.02 6.12,-3.57 9.42,-4.67 3.3,-1.1 6.59,-1.66 9.88,-1.66l11.49 0c3.41,0 6.29,0.56 8.6,1.69 2.32,1.13 4.03,2.7 5.12,4.74 1.1,2.03 1.56,4.46 1.38,7.3 -0.18,2.83 -1.06,5.96 -2.63,9.38 -1.57,3.42 -3.61,6.59 -6.11,9.53 -2.5,2.94 -5.26,5.48 -8.31,7.63 -3.04,2.14 -6.25,3.83 -9.63,5.06 -3.37,1.23 -6.75,1.85 -10.12,1.85l-11.49 0z"/>
     <path class="fil4" d="M1531.12 1077.79c-3.29,0 -6.04,-0.62 -8.27,-1.85 -2.22,-1.23 -3.87,-2.92 -4.94,-5.06 -1.06,-2.15 -1.5,-4.69 -1.29,-7.63 0.2,-2.94 1.09,-6.12 2.67,-9.53 1.59,-3.46 3.62,-6.62 6.08,-9.47 2.46,-2.85 5.18,-5.29 8.16,-7.3 2.98,-2.02 6.12,-3.57 9.42,-4.67 3.3,-1.1 6.59,-1.66 9.88,-1.66l25.56 0 -3.79 8.24 -25.56 0c-2.12,0 -4.25,0.38 -6.39,1.13 -2.15,0.76 -4.18,1.81 -6.09,3.15 -1.91,1.34 -3.66,2.94 -5.26,4.8 -1.59,1.86 -2.9,3.92 -3.93,6.16 -1.02,2.21 -1.6,4.26 -1.74,6.16 -0.14,1.9 0.13,3.54 0.8,4.9 0.67,1.36 1.73,2.44 3.16,3.21 1.44,0.78 3.22,1.17 5.33,1.17l25.56 0 -3.79 8.24 -25.56 0z"/>
    </g>
    <g>
     <g>
      <path class="fil7" d="M976.74 934.32l-12.76 -36.95 -90.34 0 24.69 -20.79 58.56 0 -18.96 -54.91 -135.05 112.65 -38.08 0 170.13 -140.51c3.03,-2.56 6.17,-4.58 9.43,-6.06 3.26,-1.48 6.73,-2.22 10.41,-2.22 3.68,0 6.47,0.74 8.37,2.22 1.9,1.48 3.27,3.5 4.1,6.06l49.68 140.51 -40.18 0z"/>
      <path class="fil8" d="M697.41 934.32l-31.23 -41.34 -72.41 0 9.84 -22.92 80.67 0c12.25,0 22.58,-2.56 30.98,-7.67 8.41,-5.12 14.7,-12.52 18.86,-22.2 4.16,-9.69 4.01,-16.88 -0.44,-21.59 -4.46,-4.71 -12.54,-7.06 -24.25,-7.06 -46.32,0 -92.65,0 -138.97,0l11.16 -25.99 138.97 0c11.01,0 20.31,1.26 27.93,3.79 7.61,2.52 13.42,6.14 17.44,10.85 4.01,4.71 6.18,10.4 6.5,17.09 0.33,6.68 -1.3,14.19 -4.88,22.51 -5.33,12.42 -13.31,22.82 -23.92,31.21 -10.61,8.39 -23.01,14.43 -37.2,18.11l38.88 45.23 -47.92 0z"/>
      <polygon class="fil9" points="391.02,934.32 443.76,811.53 370.28,811.53 381.44,785.54 562.21,785.54 551.05,811.53 477.57,811.53 424.83,934.32 "/>
      <polygon class="fil10" points="207.11,934.32 271.02,785.54 304.83,785.54 252.09,908.33 382.27,908.33 371.11,934.32 "/>
      <path class="fil11" d="M215.74 785.54l32.56 0 -35.21 81.96c-4.85,11.3 -11.02,21.16 -18.48,29.57 -7.47,8.41 -16.5,15.38 -27.1,20.89 -10.6,5.52 -23,9.62 -37.2,12.32 -14.2,2.69 -30.58,4.04 -49.14,4.04 -18.38,0 -33.52,-1.34 -45.4,-4.04 -11.89,-2.69 -20.76,-6.8 -26.62,-12.32 -5.86,-5.52 -8.91,-12.48 -9.14,-20.89 -0.24,-8.41 2.07,-18.27 6.93,-29.57l35.21 -81.96 34.4 0 -35.21 81.96c-3.18,7.4 -4.72,13.73 -4.61,18.98 0.11,5.25 2.11,9.55 6.01,12.92 3.89,3.36 9.98,5.82 18.24,7.37 8.26,1.55 18.96,2.32 32.09,2.32 13.13,0 24.49,-0.77 34.09,-2.32 9.59,-1.55 17.78,-4 24.57,-7.37 6.79,-3.36 12.49,-7.67 17.11,-12.92 4.62,-5.25 8.52,-11.57 11.7,-18.98l35.21 -81.96z"/>
      <path class="fil5" style="mask:url(#id4)" d="M839.29 872.81c13.45,-0.88 26.99,-1.81 40.72,-2.81l57.93 -48.32 14.69 42.54c12.66,-1.09 25.43,-2.22 38.3,-3.41l-23.69 -66.99c-0.83,-2.56 -2.19,-4.58 -4.1,-6.06 -1.9,-1.48 -4.69,-2.22 -8.37,-2.22 -3.68,0 -7.14,0.74 -10.41,2.22 -3.26,1.48 -6.4,3.5 -9.43,6.06l-95.64 78.99z"/>
      <path class="fil5" style="mask:url(#id6)" d="M598.33 882.35c43.21,-0.78 88.22,-2.19 135.03,-4.3 3.6,-2.13 7.03,-4.49 10.28,-7.07 10.61,-8.39 18.59,-18.79 23.92,-31.21 3.58,-8.33 5.2,-15.83 4.88,-22.51 -0.32,-6.69 -2.49,-12.38 -6.5,-17.09 -4.01,-4.71 -9.83,-8.32 -17.44,-10.85 -7.61,-2.52 -16.92,-3.78 -27.92,-3.78l-138.97 0 -11.17 25.99c46.32,0 92.65,0 138.97,0 11.72,0 19.8,2.36 24.26,7.06 4.46,4.71 4.61,11.9 0.45,21.59 -4.16,9.69 -10.45,17.09 -18.86,22.2 -8.41,5.12 -18.74,7.67 -30.98,7.67l-80.67 0 -5.28 12.29z"/>
      <path class="fil5" style="mask:url(#id8)" d="M413.54 881.89c11.02,0.27 22.2,0.49 33.52,0.67l30.51 -71.03 73.48 0 11.16 -25.99 -180.77 0 -11.17 25.99 73.48 0 -30.22 70.36z"/>
      <path class="fil5" style="mask:url(#id10)" d="M233.38 873.18c10.72,0.78 21.72,1.51 32.85,2.22l38.6 -89.86 -33.81 0 -37.64 87.64z"/>
      <path class="fil5" style="mask:url(#id12)" d="M15.26 848.15c10.4,1.57 21.2,3.13 32.4,4.66l28.9 -67.27 -34.4 0 -26.89 62.61zm165.18 19.57c10.26,0.92 20.68,1.81 31.38,2.66 0.44,-0.95 0.86,-1.9 1.28,-2.87l35.21 -81.96 -32.56 0 -35.21 81.96 -0.09 0.21z"/>
      <polygon class="fil4" points="1830.64,869.65 1840.04,847.76 1947.33,847.76 1937.93,869.65 "/>
      <polygon class="fil4" points="1744.56,934.32 1808.46,785.54 1981.24,785.54 1970.08,811.53 1830.84,811.53 1789.26,908.33 1928.77,908.33 1917.6,934.32 "/>
      <path class="fil5" style="mask:url(#id14)" d="M1835.18 859.07c27.69,3.3 54.25,6.85 79.75,10.58l22.99 0 9.4 -21.9 -107.29 0 -4.86 11.32z"/>
      <path class="fil5" style="mask:url(#id16)" d="M1779.52 852.93c10.85,1.1 21.51,2.25 32.07,3.43l19.25 -44.83 139.24 0 11.16 -25.99 -172.78 0 -28.94 67.39z"/>
      <path class="fil4" d="M1602.01 826.92l-46.13 107.4 -31.78 0 57.23 -133.24c2.02,-4.71 5.16,-8.44 9.41,-11.2 4.25,-2.76 9,-4.14 14.25,-4.14 2.45,0 4.64,0.4 6.57,1.21 1.93,0.81 3.71,2.15 5.36,4.04l90.58 102.76 46.13 -107.4 31.78 0 -57.75 134.45c-2.08,4.84 -5.23,8.61 -9.45,11.3 -4.22,2.69 -8.78,4.04 -13.68,4.04 -5.43,0 -9.72,-1.82 -12.89,-5.45l-89.63 -103.77z"/>
      <path class="fil5" style="mask:url(#id18)" d="M1564.88 839.38c10.51,0.4 20.91,0.84 31.21,1.31l5.92 -13.77 12.67 14.67c16.77,0.86 33.22,1.85 49.43,2.92l-47.19 -53.53c-1.64,-1.88 -3.43,-3.23 -5.36,-4.04 -1.93,-0.81 -4.12,-1.21 -6.57,-1.21 -5.25,0 -10,1.38 -14.25,4.14 -4.25,2.76 -7.38,6.49 -9.41,11.2l-16.45 38.3zm161.74 9.85c10.33,0.88 20.51,1.81 30.59,2.76l28.2 -65.65 -31.78 0 -27.01 62.89z"/>
      <polygon class="fil4" points="1469.75,934.32 1533.66,785.54 1567.47,785.54 1503.56,934.32 "/>
      <path class="fil5" style="mask:url(#id20)" d="M1511.81 836.42c11.24,0.25 22.39,0.55 33.42,0.9l22.24 -51.78 -33.81 0 -21.85 50.88z"/>
      <polygon class="fil4" points="1260.66,934.32 1324.57,785.54 1358.24,785.54 1294.33,934.32 "/>
      <path class="fil5" style="mask:url(#id22)" d="M1302.3 837.37c11.45,-0.37 22.81,-0.7 34.09,-0.97l21.85 -50.86 -33.67 0 -22.27 51.83z"/>
      <polygon class="fil4" points="1414.95,934.32 1442.61,869.92 1345.57,869.92 1355.46,846.89 1452.5,846.89 1478.85,785.54 1512.53,785.54 1448.62,934.32 "/>
      <path class="fil5" style="mask:url(#id24)" d="M1457.46 835.36c11.26,0.08 22.44,0.22 33.5,0.4l21.57 -50.22 -33.68 0 -21.4 49.82z"/>
      <path class="fil4" d="M1036.61 934.32l11.16 -25.99 145.09 0c9.05,0 16.78,-1.77 23.18,-5.32 6.41,-3.55 10.87,-8.26 13.39,-14.12 2.75,-6.41 2.38,-11.22 -1.13,-14.43 -3.5,-3.21 -9.78,-4.81 -18.83,-4.81l-88.92 0c-9.05,0 -16.81,-1.06 -23.26,-3.17 -6.46,-2.12 -11.41,-5.05 -14.86,-8.8 -3.45,-3.75 -5.43,-8.22 -5.96,-13.4 -0.52,-5.18 0.53,-10.85 3.17,-16.99 2.58,-6 6.25,-11.56 11.02,-16.68 4.77,-5.12 10.48,-9.52 17.12,-13.2 6.64,-3.68 14.14,-6.59 22.5,-8.7 8.36,-2.12 17.34,-3.17 26.92,-3.17l89.87 0 -11.16 25.99 -89.87 0c-7.81,0 -14.53,1.6 -20.17,4.81 -5.64,3.21 -9.69,7.68 -12.15,13.41 -2.46,5.73 -2.19,10.16 0.81,13.3 3,3.14 8.23,4.71 15.68,4.71l88.65 0c19.7,0 33.13,3.55 40.29,10.64 7.16,7.09 7.63,17.87 1.42,32.33 -2.7,6.28 -6.43,12.07 -11.2,17.4 -4.77,5.32 -10.48,9.93 -17.12,13.81 -6.64,3.89 -14.2,6.92 -22.68,9.11 -8.48,2.18 -17.78,3.27 -27.9,3.27l-145.09 0z"/>
      <path class="fil5" style="mask:url(#id26)" d="M1078.28 851.32c15.78,-1.38 31.41,-2.66 46.91,-3.84 -4.82,-0.58 -8.37,-2.05 -10.64,-4.43 -3,-3.14 -3.27,-7.57 -0.81,-13.3 2.46,-5.73 6.51,-10.2 12.14,-13.41 5.64,-3.21 12.36,-4.81 20.17,-4.81l89.87 0 11.17 -25.99 -89.88 0c-9.58,0 -18.56,1.06 -26.92,3.17 -8.36,2.11 -15.86,5.01 -22.5,8.7 -6.64,3.68 -12.35,8.08 -17.12,13.2 -4.77,5.12 -8.44,10.68 -11.02,16.68 -2.64,6.14 -3.69,11.8 -3.17,16.99 0.25,2.52 0.85,4.86 1.79,7.04z"/>
     </g>
     <g>
      <path class="fil12" style="mask:url(#id28)" d="M977.09 933.85l-5.57 27.3 -90.34 0 28.73 15.37 58.56 0 -8.28 40.57 -156.96 -83.24 -38.08 0 197.46 103.82c3.52,1.89 7.06,3.38 10.61,4.48 3.55,1.09 7.16,1.64 10.84,1.64 3.68,0 6.32,-0.55 7.94,-1.64 1.62,-1.09 2.59,-2.59 2.92,-4.48l22.35 -103.82 -40.18 0z"/>
      <path class="fil13" style="mask:url(#id30)" d="M697.76 933.85l-23.19 30.55 -72.41 0 14.3 16.94 80.67 0c12.25,0 23.07,1.89 32.48,5.67 9.41,3.78 17.13,9.25 23.18,16.41 6.05,7.16 7.3,12.47 3.76,15.95 -3.54,3.48 -11.17,5.22 -22.88,5.22 -46.32,0 -92.65,0 -138.97,0l16.22 19.21 138.97 0c11.01,0 20.07,-0.93 27.19,-2.8 7.12,-1.87 12.23,-4.54 15.33,-8.02 3.1,-3.48 4.16,-7.69 3.18,-12.63 -0.98,-4.94 -4.06,-10.48 -9.26,-16.63 -7.75,-9.17 -17.74,-16.86 -29.99,-23.06 -12.25,-6.2 -25.82,-10.66 -40.72,-13.38l30.08 -33.42 -47.92 0z"/>
      <polygon class="fil14" style="mask:url(#id32)" points="391.37,933.85 468,1024.58 394.52,1024.58 410.75,1043.79 591.51,1043.79 575.29,1024.58 501.81,1024.58 425.18,933.85 "/>
      <polygon class="fil15" style="mask:url(#id34)" points="207.47,933.85 300.32,1043.79 334.13,1043.79 257.5,953.06 387.68,953.06 371.46,933.85 "/>
      <path class="fil16" style="mask:url(#id36)" d="M245.04 1043.79l32.56 0 -51.15 -60.56c-7.05,-8.35 -15.13,-15.64 -24.23,-21.85 -9.1,-6.21 -19.49,-11.36 -31.16,-15.44 -11.67,-4.08 -24.87,-7.11 -39.59,-9.1 -14.73,-1.99 -31.36,-2.98 -49.92,-2.98 -18.38,0 -33.26,1 -44.62,2.98 -11.36,1.99 -19.44,5.02 -24.22,9.1 -4.78,4.08 -6.48,9.23 -5.08,15.44 1.4,6.22 5.62,13.5 12.68,21.85l51.15 60.56 34.4 0 -51.15 -60.56c-4.62,-5.47 -7.39,-10.14 -8.3,-14.02 -0.91,-3.88 0.25,-7.06 3.49,-9.55 3.24,-2.49 8.84,-4.3 16.81,-5.44 7.96,-1.14 18.51,-1.72 31.64,-1.72 13.13,0 24.64,0.57 34.54,1.72 9.89,1.14 18.56,2.96 26,5.44 7.44,2.49 13.98,5.67 19.62,9.55 5.64,3.88 10.77,8.55 15.39,14.02l51.15 60.56z"/>
      <path class="fil5" style="mask:url(#id38)" d="M851.61 979.31c13.62,0.65 27.35,1.34 41.26,2.08l67.33 35.71 6.41 -31.44c12.87,0.8 25.86,1.64 38.96,2.52l-10.65 49.5c-0.33,1.89 -1.3,3.38 -2.92,4.48 -1.62,1.09 -4.26,1.64 -7.94,1.64 -3.68,0 -7.29,-0.55 -10.84,-1.64 -3.55,-1.09 -7.08,-2.59 -10.61,-4.48l-111.01 -58.37z"/>
      <path class="fil5" style="mask:url(#id40)" d="M608.8 972.26c43.36,0.58 88.65,1.62 135.87,3.18 4.01,1.58 7.9,3.31 11.66,5.22 12.25,6.2 22.25,13.89 29.99,23.06 5.2,6.15 8.28,11.7 9.26,16.63 0.98,4.94 -0.08,9.15 -3.18,12.63 -3.1,3.48 -8.21,6.15 -15.33,8.01 -7.13,1.86 -16.19,2.8 -27.19,2.8l-138.97 0 -16.22 -19.21c46.32,0 92.65,0 138.97,0 11.72,0 19.34,-1.74 22.88,-5.22 3.54,-3.48 2.29,-8.8 -3.76,-15.95 -6.05,-7.16 -13.77,-12.63 -23.18,-16.41 -9.4,-3.78 -20.23,-5.67 -32.48,-5.67l-80.67 0 -7.67 -9.08z"/>
      <path class="fil5" style="mask:url(#id42)" d="M424.1 972.6c10.96,-0.2 22.11,-0.36 33.39,-0.49l44.33 52.48 73.48 0 16.22 19.21 -180.77 0 -16.22 -19.21 73.48 0 -43.91 -51.99z"/>
      <path class="fil5" style="mask:url(#id44)" d="M245.62 979.03c10.57,-0.58 21.43,-1.12 32.42,-1.64l56.08 66.4 -33.81 0 -54.7 -64.76z"/>
      <path class="fil5" style="mask:url(#id46)" d="M32.38 997.53c10.09,-1.16 20.59,-2.31 31.49,-3.44l41.99 49.71 -34.4 0 -39.07 -46.26zm161.37 -14.46c10.08,-0.68 20.33,-1.34 30.86,-1.96 0.62,0.7 1.23,1.41 1.84,2.12l51.15 60.56 -32.56 0 -51.15 -60.56 -0.13 -0.16z"/>
      <polygon class="fil17" style="mask:url(#id48)" points="1843.57,981.64 1857.24,997.82 1964.53,997.82 1950.86,981.64 "/>
      <polygon class="fil17" style="mask:url(#id50)" points="1744.91,933.85 1837.76,1043.79 2010.54,1043.79 1994.32,1024.58 1855.09,1024.58 1794.67,953.06 1934.18,953.06 1917.96,933.85 "/>
      <path class="fil5" style="mask:url(#id52)" d="M1850.17 989.45c27.05,-2.44 52.91,-5.06 77.69,-7.82l22.99 0 13.67 16.18 -107.29 0 -7.06 -8.36z"/>
      <path class="fil5" style="mask:url(#id54)" d="M1795.7 994c10.64,-0.81 21.08,-1.66 31.41,-2.53l27.97 33.12 139.24 0 16.22 19.21 -172.78 0 -42.06 -49.8z"/>
      <path class="fil17" style="mask:url(#id56)" d="M1623.26 1013.21l-67.03 -79.36 -31.78 0 83.16 98.45c2.94,3.48 6.8,6.24 11.59,8.28 4.79,2.04 9.8,3.06 15.06,3.06 2.45,0 4.56,-0.3 6.34,-0.9 1.77,-0.6 3.29,-1.59 4.57,-2.98l70.59 -75.93 67.02 79.36 31.78 0 -83.91 -99.35c-3.02,-3.58 -6.91,-6.36 -11.65,-8.35 -4.74,-1.99 -9.56,-2.98 -14.47,-2.98 -5.43,0 -9.37,1.34 -11.83,4.03l-69.44 76.67z"/>
      <path class="fil5" style="mask:url(#id58)" d="M1583.71 1004c10.43,-0.29 20.74,-0.62 30.95,-0.97l8.6 10.18 9.81 -10.84c16.6,-0.64 32.86,-1.36 48.86,-2.16l-36.77 39.55c-1.28,1.39 -2.8,2.39 -4.57,2.98 -1.77,0.6 -3.88,0.9 -6.33,0.9 -5.25,0 -10.27,-1.02 -15.06,-3.06 -4.79,-2.04 -8.65,-4.8 -11.59,-8.28l-23.9 -28.3zm159.83 -7.28c10.16,-0.65 20.16,-1.33 30.05,-2.04l40.97 48.51 -31.78 0 -39.25 -46.47z"/>
      <polygon class="fil17" style="mask:url(#id60)" points="1470.11,933.85 1562.96,1043.79 1596.77,1043.79 1503.92,933.85 "/>
      <path class="fil5" style="mask:url(#id62)" d="M1531.21 1006.2c11.19,-0.19 22.28,-0.41 33.25,-0.67l32.32 38.26 -33.81 0 -31.75 -37.59z"/>
      <polygon class="fil17" style="mask:url(#id64)" points="1261.01,933.85 1353.87,1043.79 1387.54,1043.79 1294.68,933.85 "/>
      <path class="fil5" style="mask:url(#id66)" d="M1321.52 1005.49c11.52,0.28 22.95,0.52 34.28,0.72l31.75 37.59 -33.67 0 -32.35 -38.3z"/>
      <polygon class="fil17" style="mask:url(#id68)" points="1415.3,933.85 1455.49,981.44 1358.46,981.44 1372.83,998.46 1469.87,998.46 1508.15,1043.79 1541.83,1043.79 1448.98,933.85 "/>
      <path class="fil5" style="mask:url(#id70)" d="M1477.07 1006.98c11.25,-0.06 22.39,-0.16 33.42,-0.3l31.34 37.11 -33.67 0 -31.09 -36.81z"/>
      <path class="fil17" style="mask:url(#id72)" d="M1036.96 933.85l16.22 19.2 145.09 0c9.05,0 17.12,1.31 24.22,3.93 7.1,2.62 12.47,6.1 16.14,10.44 4,4.74 4.57,8.29 1.68,10.66 -2.88,2.37 -8.85,3.55 -17.9,3.55l-88.92 0c-9.05,0 -16.6,0.78 -22.65,2.35 -6.05,1.56 -10.43,3.73 -13.14,6.5 -2.72,2.77 -3.83,6.07 -3.35,9.9 0.49,3.83 2.64,8.02 6.48,12.55 3.75,4.44 8.5,8.54 14.27,12.32 5.77,3.78 12.33,7.03 19.68,9.75 7.36,2.72 15.43,4.87 24.2,6.43 8.77,1.56 17.95,2.34 27.54,2.34l89.87 0 -16.22 -19.21 -89.87 0c-7.81,0 -14.85,-1.18 -21.1,-3.55 -6.26,-2.37 -11.18,-5.67 -14.75,-9.9 -3.58,-4.23 -4.17,-7.51 -1.78,-9.83 2.39,-2.32 7.31,-3.48 14.77,-3.48l88.65 0c19.7,0 32.44,-2.62 38.22,-7.87 5.78,-5.24 4.16,-13.21 -4.87,-23.89 -3.92,-4.64 -8.78,-8.92 -14.58,-12.85 -5.81,-3.93 -12.41,-7.34 -19.8,-10.21 -7.4,-2.87 -15.55,-5.12 -24.45,-6.73 -8.9,-1.61 -18.42,-2.42 -28.53,-2.42l-145.09 0z"/>
      <path class="fil5" style="mask:url(#id74)" d="M1094.78 995.19c16.05,1.02 31.92,1.96 47.66,2.84 -4.71,0.43 -7.97,1.52 -9.78,3.27 -2.39,2.32 -1.8,5.6 1.78,9.83 3.57,4.23 8.49,7.54 14.75,9.91 6.26,2.37 13.29,3.55 21.1,3.55l89.88 0 16.22 19.21 -89.87 0c-9.58,0 -18.77,-0.78 -27.54,-2.34 -8.77,-1.56 -16.84,-3.71 -24.2,-6.43 -7.36,-2.72 -13.92,-5.97 -19.68,-9.75 -5.77,-3.78 -10.52,-7.89 -14.27,-12.32 -3.83,-4.54 -5.99,-8.72 -6.47,-12.55 -0.24,-1.86 -0.1,-3.59 0.42,-5.2z"/>
     </g>
    </g>
   </g>
  </g>
 </g>
</svg>
