<?xml version="1.0" encoding="UTF-8"?>
<!DOCTYPE svg PUBLIC "-//W3C//DTD SVG 1.1//EN" "http://www.w3.org/Graphics/SVG/1.1/DTD/svg11.dtd">
<!-- Creator: CorelDRAW 2019 (64 Bit) -->
<svg xmlns="http://www.w3.org/2000/svg" xml:space="preserve" width="257.816mm" height="122.73mm" version="1.1" style="shape-rendering:geometricPrecision; text-rendering:geometricPrecision; image-rendering:optimizeQuality; fill-rule:evenodd; clip-rule:evenodd"
viewBox="0 0 5546.61 2640.38"
 xmlns:xlink="http://www.w3.org/1999/xlink">
 <defs>
  <style type="text/css">
   <![CDATA[
    .fil5 {fill:#FEFEFE}
    .fil0 {fill:#727376}
    .fil6 {fill:#606062}
    .fil4 {fill:#E6E7E8;fill-rule:nonzero}
    .fil1 {fill:url(#id4);fill-rule:nonzero}
    .fil2 {fill:url(#id5);fill-rule:nonzero}
    .fil3 {fill:url(#id6);fill-rule:nonzero}
   ]]>
  </style>
   <mask id="id0">
  <linearGradient id="id1" gradientUnits="userSpaceOnUse" x1="5668.57" y1="2675.18" x2="5668.61" y2="372.34">
   <stop offset="0" style="stop-opacity:1; stop-color:white"/>
   <stop offset="1" style="stop-opacity:0; stop-color:white"/>
  </linearGradient>
    <rect style="fill:url(#id1)" x="-1.9" y="-2.15" width="3371.35" height="1483.64"/>
   </mask>
   <mask id="id2">
  <linearGradient id="id3" gradientUnits="userSpaceOnUse" x1="5668.57" y1="2675.18" x2="5668.61" y2="372.34">
   <stop offset="0" style="stop-opacity:1; stop-color:white"/>
   <stop offset="1" style="stop-opacity:0; stop-color:white"/>
  </linearGradient>
    <rect style="fill:url(#id3)" x="3024.05" y="525.3" width="2287.48" height="1051.24"/>
   </mask>
  <linearGradient id="id4" gradientUnits="userSpaceOnUse" x1="705.96" y1="2283.81" x2="3111.03" y2="-243.86">
   <stop offset="0" style="stop-opacity:1; stop-color:#5E2D2C"/>
   <stop offset="1" style="stop-opacity:1; stop-color:#9C4400"/>
  </linearGradient>
  <linearGradient id="id5" gradientUnits="userSpaceOnUse" xlink:href="#id4" x1="727.32" y1="1631.78" x2="812.5" y2="525.29">
  </linearGradient>
  <linearGradient id="id6" gradientUnits="userSpaceOnUse" x1="124.26" y1="1795.97" x2="3367.3" y2="0.01">
   <stop offset="0" style="stop-opacity:1; stop-color:red"/>
   <stop offset="0.478431" style="stop-opacity:1; stop-color:#FF4600"/>
   <stop offset="1" style="stop-opacity:1; stop-color:#FF8400"/>
  </linearGradient>
 </defs>
 <g id="Camada_x0020_1">
  <metadata id="CorelCorpID_0Corel-Layer"/>
  <polygon class="fil0" points="3838.17,1162.01 4920.21,1162.01 5158.77,872.99 3956.48,872.99 3937.07,873.25 3917.99,873.99 3899.27,875.25 3880.86,877.01 3862.81,879.27 3845.1,882.04 3827.72,885.3 3810.69,889.08 3793.99,893.34 3777.64,898.12 3761.63,903.4 3745.95,909.17 3730.63,915.46 3715.63,922.24 3700.99,929.52 3686.68,937.32 3672.79,945.55 3659.4,954.19 3646.51,963.23 3634.12,972.65 3622.22,982.47 3610.81,992.69 3599.92,1003.31 3589.51,1014.32 3579.6,1025.73 3570.19,1037.53 3561.28,1049.73 3552.87,1062.32 3544.96,1075.31 3537.54,1088.69 3530.62,1102.47 3524.2,1116.64 3518.46,1130.81 3513.56,1144.57 3509.53,1157.93 3435.9,1418.46 3439.54,1406.43 3443.94,1394.04 3449.11,1381.29 3454.9,1368.53 3461.12,1356.13 3467.8,1344.09 3474.92,1332.41 3482.49,1321.07 3490.51,1310.09 3498.98,1299.47 3507.89,1289.2 3517.26,1279.29 3527.07,1269.74 3537.33,1260.54 3548.04,1251.7 3559.19,1243.22 3570.8,1235.09 3582.84,1227.32 3595.35,1219.9 3608.23,1212.89 3621.41,1206.34 3634.89,1200.23 3648.69,1194.57 3662.8,1189.37 3677.22,1184.62 3691.93,1180.33 3706.96,1176.49 3722.29,1173.09 3737.92,1170.15 3753.86,1167.66 3770.11,1165.63 3786.67,1164.04 3803.54,1162.91 3820.69,1162.23 "/>
  <polygon class="fil0" points="4267.31,2640.38 849.36,2640.38 635.58,2515.63 4433.31,2515.63 4445.97,2515.59 4458.56,2515.46 4471.09,2515.25 4483.56,2514.95 4495.95,2514.57 4508.29,2514.09 4520.56,2513.54 4532.77,2512.9 4544.91,2512.17 4556.99,2511.36 4569.01,2510.46 4580.95,2509.47 4592.85,2508.41 4604.67,2507.26 4616.43,2506.01 4628.12,2504.69 4639.75,2503.28 4651.31,2501.78 4662.81,2500.2 4674.25,2498.53 4685.63,2496.78 4696.94,2494.94 4708.18,2493.01 4719.37,2491 4730.48,2488.91 4741.53,2486.73 4752.52,2484.46 4763.45,2482.11 4774.3,2479.67 4785.1,2477.15 4795.83,2474.54 4806.5,2471.84 4817.1,2469.07 4827.63,2466.23 4838.08,2463.32 4848.47,2460.35 4858.78,2457.32 4869.01,2454.21 4879.19,2451.04 4889.28,2447.79 4899.3,2444.49 4909.25,2441.12 4919.13,2437.68 4928.94,2434.17 4938.67,2430.59 4948.33,2426.96 4957.92,2423.25 4967.43,2419.48 4976.88,2415.64 4986.25,2411.73 4995.56,2407.76 5004.78,2403.72 5013.94,2399.61 5023.03,2395.43 5032.04,2391.2 5040.98,2386.88 5049.85,2382.51 5058.64,2378.07 5067.36,2373.56 5076.02,2368.99 5084.6,2364.34 5093.11,2359.64 5101.54,2354.85 5109.91,2350.01 5126.41,2340.14 4891.1,2482.44 4876.24,2491.33 4868.71,2495.68 4861.13,2499.99 4853.47,2504.21 4845.75,2508.4 4837.95,2512.52 4830.11,2516.58 4822.19,2520.57 4814.21,2524.51 4806.17,2528.39 4798.05,2532.2 4789.87,2535.96 4781.63,2539.66 4773.33,2543.29 4764.95,2546.87 4756.52,2550.39 4748.02,2553.84 4739.45,2557.24 4730.82,2560.57 4722.13,2563.85 4713.37,2567.06 4704.55,2570.23 4695.65,2573.33 4686.69,2576.36 4677.68,2579.33 4668.59,2582.25 4659.44,2585.1 4650.23,2587.9 4640.95,2590.63 4631.6,2593.3 4622.19,2595.92 4612.72,2598.48 4603.17,2600.98 4593.58,2603.4 4583.92,2605.75 4574.2,2608.02 4564.43,2610.21 4554.6,2612.32 4544.7,2614.36 4534.77,2616.33 4524.76,2618.22 4514.69,2620.02 4504.57,2621.76 4494.39,2623.41 4484.16,2624.99 4473.86,2626.5 4463.51,2627.92 4453.1,2629.27 4442.64,2630.53 4432.11,2631.73 4421.53,2632.85 4410.89,2633.89 4400.18,2634.84 4389.43,2635.73 4378.62,2636.54 4367.75,2637.27 4356.82,2637.92 4345.83,2638.5 4334.79,2639 4323.68,2639.43 4312.53,2639.77 4301.31,2640.04 4290.03,2640.23 4278.7,2640.35 "/>
  <polygon class="fil1" points="441.37,2034.4 433.26,2028.75 425.38,2022.99 164.49,1829.64 173.26,1836.04 182.26,1842.32 191.5,1848.5 200.99,1854.56 210.71,1860.5 220.67,1866.34 230.88,1872.07 241.32,1877.67 252,1883.18 262.92,1888.56 274.08,1893.84 285.48,1899 297.12,1904.05 309.01,1908.99 321.12,1913.82 333.47,1918.53 346.08,1923.13 358.91,1927.62 371.99,1931.99 385.3,1936.26 398.86,1940.41 412.65,1944.45 426.69,1948.38 440.96,1952.19 455.47,1955.9 470.23,1959.48 485.22,1962.96 500.47,1966.33 515.96,1969.59 531.72,1972.75 547.74,1975.8 564.02,1978.74 580.55,1981.57 597.34,1984.3 614.39,1986.92 631.7,1989.43 649.26,1991.84 667.08,1994.15 685.17,1996.33 703.5,1998.42 722.1,2000.4 740.96,2002.27 760.07,2004.03 779.44,2005.69 799.07,2007.24 818.96,2008.69 839.11,2010.02 859.51,2011.25 880.17,2012.37 901.09,2013.39 922.27,2014.31 943.7,2015.11 965.39,2015.8 987.35,2016.38 1009.55,2016.87 1032.02,2017.24 1054.75,2017.51 1077.73,2017.67 1100.97,2017.72 1124.48,2017.67 1147.82,2017.51 1170.97,2017.24 1193.97,2016.87 1216.78,2016.38 1239.42,2015.8 1261.89,2015.11 1284.18,2014.31 1306.3,2013.39 1328.26,2012.37 1350.03,2011.25 1371.64,2010.02 1393.07,2008.69 1414.32,2007.24 1435.41,2005.69 1456.32,2004.03 1477.05,2002.27 1497.62,2000.4 1518.01,1998.42 1538.23,1996.33 1558.27,1994.15 1578.14,1991.84 1597.84,1989.43 1617.37,1986.92 1636.72,1984.3 1655.9,1981.57 1674.91,1978.74 1693.74,1975.8 1712.39,1972.75 1730.89,1969.59 1749.2,1966.33 1767.34,1962.96 1785.32,1959.48 1803.16,1955.9 1820.86,1952.19 1838.41,1948.38 1855.82,1944.45 1873.08,1940.41 1890.2,1936.26 1907.18,1931.99 1924.02,1927.62 1940.71,1923.13 1957.26,1918.53 1973.67,1913.82 1989.94,1908.99 2006.06,1904.05 2022.03,1899 2037.86,1893.84 2053.56,1888.56 2069.11,1883.18 2084.52,1877.67 2099.78,1872.07 2114.9,1866.34 2129.88,1860.5 2144.71,1854.56 2159.4,1848.5 2173.95,1842.32 2188.36,1836.04 2202.61,1829.64 2216.74,1823.13 2230.71,1816.51 2244.55,1809.77 2258.23,1802.93 2271.79,1795.97 2285.2,1788.9 2298.49,1781.71 2311.65,1774.4 2324.69,1766.99 2337.61,1759.45 2350.39,1751.8 2363.06,1744.04 2375.6,1736.16 2388.01,1728.16 2400.31,1720.06 2412.48,1711.84 2424.51,1703.5 2436.44,1695.04 2448.23,1686.47 2459.9,1677.79 2471.44,1668.99 2482.87,1660.08 2494.16,1651.06 2505.34,1641.91 2516.38,1632.66 2527.31,1623.28 2538.1,1613.79 2548.78,1604.2 2559.32,1594.48 2569.75,1584.65 2580.05,1574.7 2590.23,1564.63 2600.28,1554.46 2610.21,1544.17 2620.01,1533.77 2629.69,1523.24 2639.24,1512.6 2648.69,1501.85 2658.02,1490.99 2667.24,1480 2676.37,1468.9 2685.4,1457.69 2694.32,1446.37 2703.13,1434.92 2711.84,1423.36 2720.46,1411.69 2728.96,1399.9 2737.36,1388 2745.66,1375.99 2753.86,1363.86 2761.94,1351.61 2769.93,1339.25 2777.82,1326.77 2785.6,1314.18 2793.27,1301.47 2800.85,1288.65 2808.31,1275.72 2815.69,1262.67 2822.94,1249.51 2830.1,1236.22 2837.16,1222.83 2844.11,1209.32 2850.96,1195.69 2857.7,1181.96 2864.35,1168.1 2870.88,1154.13 2877.31,1140.05 2883.64,1125.85 2889.86,1111.54 3205.65,376.32 2910.44,376.32 2480.75,1376.7 2474.24,1391.55 2467.57,1406.15 2460.72,1420.54 2453.74,1434.66 2446.58,1448.56 2439.27,1462.2 2431.79,1475.62 2424.15,1488.79 2416.35,1501.71 2408.39,1514.41 2400.27,1526.85 2391.99,1539.06 2383.55,1551.02 2374.94,1562.75 2366.19,1574.23 2357.26,1585.48 2311.03,1343.52 2320.95,1331.02 2330.68,1318.26 2340.24,1305.23 2349.62,1291.94 2358.82,1278.37 2367.85,1264.55 2376.69,1250.45 2385.35,1236.08 2393.84,1221.45 2402.15,1206.54 2410.27,1191.38 2418.23,1175.94 2425.99,1160.25 2433.59,1144.27 2441,1128.04 2448.24,1111.54 2925.67,0 3367.3,0 3307.9,376.32 2878.22,1376.7 2872.61,1389.59 2866.91,1402.36 2861.13,1415.03 2855.25,1427.61 2849.27,1440.08 2843.2,1452.43 2837.04,1464.7 2830.78,1476.86 2824.43,1488.92 2817.98,1500.87 2811.46,1512.71 2804.81,1524.46 2798.1,1536.1 2791.28,1547.65 2784.38,1559.07 2777.37,1570.41 2770.27,1581.64 2763.08,1592.76 2755.81,1603.79 2748.43,1614.7 2740.96,1625.51 2733.4,1636.23 2725.74,1646.83 2718,1657.34 2710.15,1667.74 2702.22,1678.05 2694.19,1688.23 2686.07,1698.32 2677.85,1708.32 2669.55,1718.2 2661.15,1727.98 2652.65,1737.66 2644.06,1747.23 2635.34,1756.71 2626.52,1766.07 2617.59,1775.33 2608.54,1784.49 2599.38,1793.54 2590.11,1802.49 2580.72,1811.35 2571.24,1820.09 2561.62,1828.73 2551.92,1837.27 2542.08,1845.71 2532.14,1854.03 2522.08,1862.27 2511.91,1870.39 2501.64,1878.41 2491.25,1886.32 2480.74,1894.14 2470.13,1901.85 2459.4,1909.46 2448.57,1916.97 2437.61,1924.37 2426.55,1931.66 2415.37,1938.86 2404.09,1945.95 2392.69,1952.93 2381.18,1959.81 2369.56,1966.6 2357.82,1973.28 2345.97,1979.85 2334.01,1986.32 2321.94,1992.69 2309.75,1998.95 2297.42,2005.11 2284.97,2011.17 2272.4,2017.13 2259.68,2022.99 2246.86,2028.75 2233.89,2034.4 2220.8,2039.96 2207.58,2045.42 2194.22,2050.77 2180.75,2056.03 2167.14,2061.18 2153.4,2066.22 2139.53,2071.18 2125.54,2076.02 2111.41,2080.77 2097.17,2085.41 2082.78,2089.96 2068.28,2094.41 2053.63,2098.75 2038.87,2102.99 2023.97,2107.13 2008.96,2111.17 1993.8,2115.1 1978.52,2118.94 1963.1,2122.69 1947.57,2126.32 1931.91,2129.85 1916.1,2133.29 1900.17,2136.62 1884.12,2139.85 1867.94,2142.97 1851.61,2146.01 1835.13,2148.95 1818.49,2151.79 1801.7,2154.54 1784.76,2157.17 1767.64,2159.72 1750.39,2162.19 1732.96,2164.55 1715.39,2166.81 1697.66,2168.98 1679.78,2171.04 1661.74,2173.01 1643.54,2174.89 1625.19,2176.68 1606.68,2178.35 1588.02,2179.95 1569.2,2181.44 1550.22,2182.84 1531.09,2184.14 1511.81,2185.33 1492.36,2186.45 1472.77,2187.45 1453.01,2188.37 1433.1,2189.19 1413.03,2189.91 1392.81,2190.54 1372.43,2191.06 1351.91,2191.49 1331.21,2191.83 1310.37,2192.08 1289.36,2192.22 1268.21,2192.27 1247.29,2192.22 1226.6,2192.08 1206.16,2191.83 1185.93,2191.49 1165.95,2191.06 1146.19,2190.54 1126.67,2189.91 1107.38,2189.19 1088.31,2188.37 1069.49,2187.45 1050.89,2186.45 1032.53,2185.33 1014.39,2184.14 996.5,2182.84 978.83,2181.44 961.4,2179.95 944.2,2178.35 927.23,2176.68 910.48,2174.89 893.98,2173.01 877.71,2171.04 861.66,2168.98 845.86,2166.81 830.28,2164.55 814.93,2162.19 799.83,2159.72 784.95,2157.17 770.3,2154.54 755.88,2151.79 741.7,2148.95 727.75,2146.01 714.03,2142.97 700.54,2139.85 687.26,2136.62 674.2,2133.29 661.36,2129.85 648.73,2126.32 636.31,2122.69 624.11,2118.94 612.13,2115.1 600.35,2111.17 588.81,2107.13 577.46,2102.99 566.34,2098.75 555.44,2094.41 544.74,2089.96 534.27,2085.41 524.01,2080.77 513.96,2076.02 504.13,2071.18 494.52,2066.22 485.13,2061.18 475.94,2056.03 466.97,2050.77 458.22,2045.42 449.68,2039.96 "/>
  <polygon class="fil2" points="726.3,1620.75 727.32,1631.78 728.92,1643.12 731.07,1654.2 733.75,1664.98 736.99,1675.52 740.76,1685.77 745.06,1695.77 749.92,1705.49 755.31,1714.95 761.25,1724.12 767.73,1733.04 774.74,1741.69 782.31,1750.06 666.71,1633.19 666.04,1633.3 651.09,1635.75 636.22,1638.23 621.41,1640.73 606.7,1643.24 592.05,1645.77 577.49,1648.33 563,1650.9 548.58,1653.48 534.24,1656.08 519.99,1658.7 505.81,1661.33 491.72,1663.97 477.7,1666.64 463.76,1669.3 449.9,1671.99 436.13,1674.69 422.44,1677.4 408.84,1680.11 395.32,1682.84 381.89,1685.57 368.54,1688.32 355.27,1691.07 342.11,1693.83 329.02,1696.6 316.02,1699.37 303.11,1702.15 290.28,1704.93 277.56,1707.72 0.25,1479.34 14.39,1476.24 28.64,1473.15 42.98,1470.06 57.43,1466.98 71.96,1463.91 86.6,1460.84 101.34,1457.78 116.17,1454.73 131.09,1451.7 146.12,1448.66 161.23,1445.64 176.45,1442.64 191.75,1439.64 207.14,1436.66 222.62,1433.7 238.2,1430.73 253.86,1427.8 269.62,1424.87 285.45,1421.97 301.38,1419.08 317.4,1416.21 333.5,1413.35 349.69,1410.51 365.97,1407.69 382.32,1404.91 398.76,1402.13 415.28,1399.37 431.89,1396.65 448.56,1393.93 465.33,1391.25 482.17,1388.59 499.1,1385.96 498.94,1383.85 498.85,1382.67 498.8,1382.07 498.77,1381.46 498.65,1379.61 498.53,1377.47 498.43,1375.33 498.34,1373.19 498.28,1371.03 498.22,1368.87 498.21,1355.36 498.72,1341.49 499.75,1327.29 501.3,1312.75 503.37,1297.86 505.97,1282.64 509.09,1267.07 512.73,1251.16 516.9,1234.9 521.59,1218.3 526.8,1201.36 532.54,1184.08 538.79,1166.45 545.57,1148.49 552.87,1130.18 560.69,1111.54 812.5,525.29 1008.58,849.08 781.95,1376.7 774.92,1393.48 768.35,1409.96 762.25,1426.12 756.62,1441.99 751.46,1457.54 746.76,1472.78 742.55,1487.72 738.79,1502.36 735.51,1516.68 732.71,1530.68 730.37,1544.39 728.5,1557.79 727.11,1570.88 726.18,1583.65 725.72,1596.13 725.74,1608.3 726.23,1619.67 726.24,1619.87 "/>
  <polygon class="fil0" points="3082.14,1727.87 3082.22,1727.88 3088.67,1734.1 3097.51,1742.01 3106.78,1749.66 3116.48,1757.09 3126.59,1764.29 3137.13,1771.25 3148.09,1777.99 3159.48,1784.5 3171.3,1790.77 3183.54,1796.83 3196.22,1802.63 3209.31,1808.22 3222.82,1813.57 3236.76,1818.68 3251.13,1823.57 3258.47,1825.92 3265.89,1828.19 3273.4,1830.39 3281.02,1832.51 3288.71,1834.57 3296.5,1836.55 3304.38,1838.46 3312.36,1840.28 3320.41,1842.03 3328.58,1843.71 3336.83,1845.32 3345.17,1846.85 3353.6,1848.31 3362.12,1849.68 3370.74,1850.99 3379.44,1852.23 3388.25,1853.39 3397.12,1854.47 3406.11,1855.47 3415.18,1856.4 3424.35,1857.27 3433.61,1858.05 3442.96,1858.76 3452.39,1859.4 3461.92,1859.96 3471.55,1860.44 3481.26,1860.85 3491.06,1861.19 3500.96,1861.45 3510.96,1861.63 3521.04,1861.74 3531.21,1861.79 4601.74,1861.79 4621.79,1862.01 4641.05,1862.69 4659.53,1863.82 4677.22,1865.41 4694.14,1867.44 4710.26,1869.93 4725.61,1872.87 4740.16,1876.26 4753.94,1880.11 4766.95,1884.4 4779.16,1889.15 4790.59,1894.36 4801.23,1900.01 4811.1,1906.12 4820.18,1912.67 4828.48,1919.69 4835.96,1927.15 4842.54,1935.06 4848.25,1943.43 4853.07,1952.25 4857.01,1961.53 4860.06,1971.24 4862.23,1981.42 4863.52,1992.05 4863.93,2003.13 4863.45,2014.68 4862.09,2026.66 4859.84,2039.1 4856.71,2052 4852.7,2065.34 4847.81,2079.14 4842.03,2093.4 4836.07,2106.47 4829.56,2119.22 4822.51,2131.65 4814.89,2143.75 4806.74,2155.52 4798.04,2166.96 4788.78,2178.08 4778.98,2188.86 4768.63,2199.32 4757.74,2209.46 4746.3,2219.26 4734.3,2228.75 4952.19,2058.26 4965.52,2047.73 4978.23,2036.83 4990.35,2025.57 5001.84,2013.94 5012.73,2001.96 5023.01,1989.61 5032.68,1976.89 5041.74,1963.82 5050.19,1950.37 5058.03,1936.57 5065.27,1922.39 5071.9,1907.87 5078.31,1892.03 5083.75,1876.7 5088.21,1861.87 5091.68,1847.54 5094.18,1833.72 5095.69,1820.4 5096.22,1807.58 5095.77,1795.27 5094.34,1783.45 5091.93,1772.14 5088.54,1761.34 5084.16,1751.04 5078.8,1741.24 5072.46,1731.94 5065.14,1723.15 5056.84,1714.86 5047.61,1707.06 5037.53,1699.78 5026.56,1692.99 5014.73,1686.71 5002.04,1680.92 4988.47,1675.65 4974.02,1670.88 4958.71,1666.61 4957.33,1666.29 5005.22,1655.57 5057.7,1643.33 5311.53,1407.8 5253.21,1421.39 5193.93,1434.66 5133.7,1447.57 5072.58,1460.07 5010.58,1472.14 4947.74,1483.73 4884.07,1494.81 4819.63,1505.35 4754.43,1515.31 4688.51,1524.65 4621.88,1533.35 4554.61,1541.35 4486.7,1548.62 4418.18,1555.14 4349.09,1560.86 4279.46,1565.75 4209.32,1569.78 4138.7,1572.9 4067.63,1575.09 3996.14,1576.29 3924.26,1576.49 3852.01,1575.64 3779.44,1573.71 3706.57,1570.66 3633.43,1566.46 3560.05,1561.07 3486.46,1554.45 3412.69,1546.57 3338.78,1537.39 3264.75,1526.89 3190.63,1515.01 3116.55,1501.75 3114.35,1499.63 3105.47,1490.36 3097.05,1480.83 3089.09,1471.09 3081.59,1461.11 3074.55,1450.92 3067.96,1440.49 3061.84,1429.85 3056.17,1418.98 3050.97,1407.89 3046.22,1396.57 3041.92,1385.02 3038.09,1373.25 3034.72,1361.26 3031.8,1349.04 3029.34,1336.6 3027.33,1323.93 3025.79,1311.03 3024.73,1297.96 3024.15,1284.72 3024.08,1271.34 3024.5,1257.81 3025.42,1244.13 3000.21,1496.03 2999.38,1508.35 2999.01,1520.52 2999.07,1532.56 2999.59,1544.47 3000.55,1556.25 3001.93,1567.85 3003.74,1579.25 3005.95,1590.45 3008.58,1601.45 3011.61,1612.24 3015.07,1622.83 3018.93,1633.22 3023.21,1643.41 3027.89,1653.39 3032.99,1663.18 3038.5,1672.76 3044.43,1682.15 3050.77,1691.32 3057.52,1700.29 3064.67,1709.07 3072.26,1717.64 3073.45,1718.93 3074.67,1720.22 3075.89,1721.52 3077.12,1722.79 3078.36,1724.07 3079.61,1725.35 3080.25,1725.98 3080.88,1726.61 "/>
  <path class="fil3" d="M2925.67 0l441.63 0 -477.43 1111.53c-65.85,153.3 -149.4,286.99 -250.62,401.07 -101.24,114.06 -223.73,208.51 -367.46,283.36 -143.75,74.82 -311.88,130.49 -504.45,166.99 -192.58,36.52 -414.7,54.77 -666.36,54.77 -249.28,0 -454.55,-18.25 -615.75,-54.77 -161.19,-36.49 -281.52,-92.17 -360.96,-166.99 -79.46,-74.85 -120.8,-169.3 -124.03,-283.36 -3.22,-114.09 28.08,-247.78 93.93,-401.07l251.81 -586.24 466.54 0 -251.8 586.24c-43.11,100.37 -63.95,186.17 -62.47,257.34 1.48,71.18 28.64,129.59 81.46,175.22 52.79,45.63 135.27,78.93 247.32,99.92 112.09,20.99 257.14,31.49 435.21,31.49 178.07,0 332.17,-10.49 462.29,-31.49 130.09,-20.99 241.14,-54.29 333.15,-99.92 92.02,-45.63 169.36,-104.04 231.99,-175.22 62.62,-71.17 115.49,-156.97 158.6,-257.34l477.43 -1111.53z"/>
  <path class="fil4" d="M635.58 2515.64l149.37 -347.69 3797.71 0c121.1,0 224.48,-23.73 310.14,-71.17 85.7,-47.47 145.39,-110.43 179.1,-188.91 36.85,-85.8 31.84,-150.13 -15.05,-193.01 -46.86,-42.89 -130.83,-64.33 -251.93,-64.33l-1189.5 0c-121.1,0 -224.83,-14.17 -311.19,-42.46 -86.4,-28.29 -152.64,-67.53 -198.75,-117.71 -46.12,-50.19 -72.66,-109.96 -79.67,-179.32 -7.01,-69.36 7.13,-145.12 42.41,-227.24 34.5,-80.31 83.63,-154.68 147.48,-223.14 63.8,-68.43 140.16,-127.3 228.97,-176.58 88.84,-49.28 189.22,-88.09 301.06,-116.35 111.85,-28.29 231.92,-42.43 360.13,-42.43l1202.28 0 -149.34 347.69 -1202.28 0c-104.44,0 -194.42,21.44 -269.81,64.33 -75.39,42.89 -129.56,102.68 -162.47,179.32 -32.93,76.66 -29.33,135.98 10.81,177.96 40.11,41.98 110.07,62.97 209.79,62.97l1185.93 0c263.56,0 443.21,47.47 538.96,142.37 95.76,94.91 102.09,239.09 18.99,432.56 -36.06,83.96 -86.01,161.53 -149.82,232.7 -63.83,71.17 -140.16,132.79 -228.97,184.81 -88.84,52.02 -189.96,92.62 -303.41,121.84 -113.44,29.19 -237.84,43.79 -373.18,43.79l-3797.74 0z"/>
  <path class="fil5" style="mask:url(#id0)" d="M0.25 1479.34c150.33,-33.06 317.91,-65.41 498.85,-93.38 -0.46,-5.62 -0.76,-11.31 -0.88,-17.09 -1.48,-71.17 19.36,-156.97 62.47,-257.34l251.81 -586.24 -466.54 0 -251.81 586.24c-59.54,138.64 -90.84,261.24 -93.9,367.8zm2310.78 -135.82c135.88,17.25 272.42,39.96 408.76,69.07 65.89,-90.16 122.59,-190.5 170.07,-301.05l477.43 -1111.53 -441.62 0 -477.43 1111.53c-38.11,88.73 -83.85,166.06 -137.21,231.98z"/>
  <path class="fil6" style="mask:url(#id2)" d="M3116.46 1501.73c791.39,149.28 1578.28,52.76 2195.07,-93.94 -97.33,-33.48 -224.27,-50.23 -380.79,-50.23l-1185.94 0c-99.72,0 -169.68,-20.99 -209.79,-62.97 -40.14,-41.98 -43.74,-101.3 -10.82,-177.96 32.92,-76.64 87.09,-136.43 162.48,-179.32 75.39,-42.88 165.37,-64.32 269.8,-64.32l1202.28 0 149.35 -347.69 -1202.29 0c-128.21,0 -248.29,14.15 -360.13,42.43 -111.83,28.26 -212.21,67.07 -301.05,116.35 -88.8,49.28 -165.17,108.14 -228.97,176.58 -63.84,68.45 -112.97,142.82 -147.47,223.13 -35.27,82.12 -49.42,157.88 -42.41,227.24 7.01,69.36 33.56,129.13 79.67,179.32 3.55,3.86 7.21,7.64 10.99,11.37z"/>
 </g>
</svg>
