<?xml version="1.0" encoding="UTF-8"?>
<!DOCTYPE svg PUBLIC "-//W3C//DTD SVG 1.1//EN" "http://www.w3.org/Graphics/SVG/1.1/DTD/svg11.dtd">
<!-- Creator: CorelDRAW 2019 (64 Bit) -->
<svg xmlns="http://www.w3.org/2000/svg" xml:space="preserve" width="123.825mm" height="26.9795mm" version="1.1" style="shape-rendering:geometricPrecision; text-rendering:geometricPrecision; image-rendering:optimizeQuality; fill-rule:evenodd; clip-rule:evenodd"
viewBox="0 0 17829.8 3884.83"
 xmlns:xlink="http://www.w3.org/1999/xlink"
 xmlns:xodm="http://www.corel.com/coreldraw/odm/2003">
 <defs>
  <style type="text/css">
   <![CDATA[
    .fil1 {fill:#FF6400}
    .fil0 {fill:#FF6400;fill-rule:nonzero}
   ]]>
  </style>
 </defs>
 <g id="Camada_x0020_1">
  <metadata id="CorelCorpID_0Corel-Layer"/>
  <g id="_2316571476384">
   <path class="fil0" d="M894.82 1339.95l845.07 0c228.43,0 398.93,13.64 511.99,41.47 112.4,27.82 190.5,67.71 233.71,119.67 43.02,52.5 61.66,116.01 57.54,190.04 -5.01,74.54 -35.45,189.51 -91.43,345.41l-77.87 216.78c-56.93,158.55 -119.69,274.56 -188.53,346.99 -68.37,72.96 -166.71,129.15 -293.53,168 -127.49,38.85 -282.68,58.27 -465.57,58.27l-225.04 0 -360.86 1004.72 -840.31 0 894.82 -2491.35zm687.59 425.19l-227.95 634.66c23.43,1.04 43.64,1.56 60.62,1.56 76.83,0 135.14,-14.69 175.63,-44.09 39.58,-28.87 76.42,-89.76 109.59,-182.15l73.72 -205.25c30.54,-85.06 33.54,-140.68 8.11,-166.41 -24.75,-25.72 -91.62,-38.32 -199.72,-38.32zm2748.79 1035.17c-89.92,250.4 -160.97,427.3 -213.93,531.24 -52.47,104.45 -134.19,199.47 -245.32,285.56 -111.16,86.08 -243.69,152.21 -396.94,198.42 -153.24,46.18 -320.63,69.29 -502.14,69.29 -172.69,0 -319.1,-22.05 -440.79,-65.62 -121.69,-43.57 -209.12,-108.66 -260.77,-195.8 -52.33,-87.14 -67.83,-182.15 -47.37,-284.51 21.33,-102.88 77.64,-282.41 169.65,-538.59l153.11 -426.24c89.94,-250.4 160.94,-427.3 213.9,-531.23 52.47,-104.48 134.2,-199.49 245.35,-285.56 111.15,-86.09 243.69,-152.24 396.93,-198.42 153.24,-46.21 320.64,-69.32 502.14,-69.32 172.7,0 319.1,22.05 440.79,65.63 121.69,43.56 209.12,108.66 260.75,195.8 52.33,87.13 67.83,182.15 47.37,284.51 -21.3,102.9 -77.61,282.43 -169.62,538.59l-153.11 426.24zm-546.36 -818.38c41.46,-115.48 59.89,-189.51 55.28,-222.05 -4.82,-32.02 -32.3,-48.28 -82.61,-48.28 -42.84,0 -80.19,13.1 -112.72,39.35 -31.68,25.73 -70.94,102.9 -116.95,230.98l-417.62 1162.73c-51.85,144.35 -76.43,233.6 -73.54,267.19 2.71,34.13 31.35,50.93 85.73,50.93 55.74,0 98.76,-19.42 128.34,-58.27 29.6,-38.85 70.44,-131.77 123.04,-278.22l411.04 -1144.36zm3075.15 -641.99l-178.74 497.64 -493.59 0 -716.09 1993.71 -840.32 0 716.1 -1993.71 -497.66 0 178.72 -497.64 1831.58 0zm191.73 0l1399.17 0 -178.72 497.64 -558.88 0 -170.83 475.59 522.14 0 -169.69 472.44 -522.13 0 -196.84 548.03 615.97 0 -178.74 497.65 -1456.28 0 894.82 -2491.35zm3567.24 0l-894.81 2491.35 -734.24 0 -29.6 -1132.81 -406.86 1132.81 -701.63 0 894.84 -2491.35 701.63 0 66.19 1121.77 402.9 -1121.77 701.59 0zm1904.31 1086.61l-840.34 0 155.37 -432.55c45.26,-125.96 64.49,-204.19 58.16,-235.69 -6.57,-30.96 -40.33,-46.71 -100.85,-46.71 -67.99,0 -118.29,18.89 -150.23,56.69 -32.1,38.32 -71.05,120.2 -116.29,246.2l-415.19 1155.9c-43.54,121.26 -62.29,200.02 -57.35,237.27 5.17,36.76 40.04,55.13 103.98,55.13 61.86,0 109.25,-18.37 141.66,-55.65 32.25,-36.73 73.06,-123.88 122.25,-260.88l112.57 -313.38 840.31 0 -34.87 97.09c-92.76,258.29 -182.34,441.49 -267.93,549.1 -85.75,108.12 -224.4,202.63 -414.74,283.98 -191.03,81.37 -404.07,121.79 -640.66,121.79 -245.42,0 -435.78,-34.11 -570.81,-102.9 -134.4,-68.76 -206.37,-163.76 -214.27,-285.55 -7.95,-121.77 31.85,-304.46 119.54,-548.55l261.3 -727.56c64.48,-179.53 120.91,-313.92 168.77,-403.68 48.57,-89.76 126.6,-176.38 235.9,-259.32 108.66,-82.94 241.69,-148.57 398.9,-196.33 157.24,-47.76 326.85,-71.41 509.04,-71.41 246.77,0 437.55,36.76 572.09,110.77 134.07,73.49 206.43,165.36 217.82,275.6 10.73,110.23 -25.57,281.36 -109.1,513.89l-85.03 236.75zm1531.1 -1086.61l-894.82 2491.35 -840.31 0 894.82 -2491.35 840.31 0zm1782.62 0l-414.86 2491.35 -857.28 0 115.08 -447.24 -302.53 0 -206.2 447.24 -868.2 0 1320.41 -2491.35 1213.58 0zm-1021.12 1603.15c61.33,-282.43 144.76,-632.02 249.75,-1049.34 -254.88,478.73 -432.83,828.34 -534.61,1049.34l284.86 0z"/>
   <polygon class="fil1" points="13205.07,1231.3 14120.9,458.05 14761.98,1231.3 14397.98,343.15 15172.31,343.15 14808.3,1231.3 15517.43,375.98 16226.57,1231.3 15862.57,343.15 16636.89,343.15 16272.89,1231.3 16915.8,455.85 17432.4,1231.3 16434.38,1231.3 17307.82,1403.94 15517.43,3884.83 16235.16,1291.85 15972.75,3128.71 15517.43,3884.83 17624.76,1466.59 17624.77,1466.59 17829.8,1231.3 16982.02,0 16777.52,0 15721.93,0 15517.43,0 15312.94,0 14257.35,0 14052.85,0 "/>
  </g>
 </g>
</svg>
