<?xml version="1.0" encoding="UTF-8"?>
<!DOCTYPE svg PUBLIC "-//W3C//DTD SVG 1.1//EN" "http://www.w3.org/Graphics/SVG/1.1/DTD/svg11.dtd">
<!-- Creator: CorelDRAW 2019 (64 Bit) -->
<svg xmlns="http://www.w3.org/2000/svg" xml:space="preserve" width="92.6695mm" height="47.3405mm" version="1.1" style="shape-rendering:geometricPrecision; text-rendering:geometricPrecision; image-rendering:optimizeQuality; fill-rule:evenodd; clip-rule:evenodd"
viewBox="0 0 2111.06 1078.44"
 xmlns:xlink="http://www.w3.org/1999/xlink">
 <defs>
  <style type="text/css">
   <![CDATA[
    .fil5 {fill:#FEFEFE}
    .fil0 {fill:#727376}
    .fil6 {fill:#606062}
    .fil7 {fill:#FEFEFE;fill-rule:nonzero}
    .fil4 {fill:#E6E7E8;fill-rule:nonzero}
    .fil14 {fill:#606062;fill-rule:nonzero}
    .fil8 {fill:url(#id56);fill-rule:nonzero}
    .fil9 {fill:url(#id57);fill-rule:nonzero}
    .fil18 {fill:url(#id58);fill-rule:nonzero}
    .fil15 {fill:url(#id59);fill-rule:nonzero}
    .fil2 {fill:url(#id60);fill-rule:nonzero}
    .fil10 {fill:url(#id61);fill-rule:nonzero}
    .fil13 {fill:url(#id62);fill-rule:nonzero}
    .fil1 {fill:url(#id63);fill-rule:nonzero}
    .fil16 {fill:url(#id64);fill-rule:nonzero}
    .fil3 {fill:url(#id65);fill-rule:nonzero}
    .fil11 {fill:url(#id66);fill-rule:nonzero}
    .fil12 {fill:url(#id67);fill-rule:nonzero}
    .fil17 {fill:url(#id68);fill-rule:nonzero}
    .fil19 {fill:url(#id69);fill-rule:nonzero}
   ]]>
  </style>
    <mask id="id0">
  <linearGradient id="id1" gradientUnits="userSpaceOnUse" x1="1782.38" y1="671.6" x2="1782.39" y2="93.48">
   <stop offset="0" style="stop-opacity:1; stop-color:white"/>
   <stop offset="1" style="stop-opacity:0; stop-color:white"/>
  </linearGradient>
     <rect style="fill:url(#id1)" x="357.08" y="-2.28" width="849.85" height="375.94"/>
    </mask>
    <mask id="id2">
  <linearGradient id="id3" gradientUnits="userSpaceOnUse" x1="1782.38" y1="671.6" x2="1782.39" y2="93.48">
   <stop offset="0" style="stop-opacity:1; stop-color:white"/>
   <stop offset="1" style="stop-opacity:0; stop-color:white"/>
  </linearGradient>
     <rect style="fill:url(#id3)" x="1118.48" y="131.88" width="574.27" height="263.91"/>
    </mask>
    <mask id="id4">
  <linearGradient id="id5" gradientUnits="userSpaceOnUse" x1="1020.74" y1="973.81" x2="1020.74" y2="715.93">
   <stop offset="0" style="stop-opacity:1; stop-color:white"/>
   <stop offset="1" style="stop-opacity:0; stop-color:white"/>
  </linearGradient>
     <rect style="fill:url(#id5)" x="837.01" y="783.26" width="156.19" height="91.83"/>
    </mask>
    <mask id="id6">
  <linearGradient id="id7" gradientUnits="userSpaceOnUse" x1="1026.93" y1="974.35" x2="1026.93" y2="712.92">
   <stop offset="0" style="stop-opacity:1; stop-color:white"/>
   <stop offset="1" style="stop-opacity:0; stop-color:white"/>
  </linearGradient>
     <rect style="fill:url(#id7)" x="568.17" y="783.26" width="206.6" height="101.37"/>
    </mask>
    <mask id="id8">
  <linearGradient id="id9" gradientUnits="userSpaceOnUse" x1="1029.68" y1="974.35" x2="1029.68" y2="712.92">
   <stop offset="0" style="stop-opacity:1; stop-color:white"/>
   <stop offset="1" style="stop-opacity:0; stop-color:white"/>
  </linearGradient>
     <rect style="fill:url(#id9)" x="368" y="783.26" width="196.49" height="101.57"/>
    </mask>
    <mask id="id10">
  <linearGradient id="id11" gradientUnits="userSpaceOnUse" x1="1031.92" y1="974.35" x2="1031.92" y2="712.92">
   <stop offset="0" style="stop-opacity:1; stop-color:white"/>
   <stop offset="1" style="stop-opacity:0; stop-color:white"/>
  </linearGradient>
     <rect style="fill:url(#id11)" x="231.1" y="783.26" width="76.01" height="94.42"/>
    </mask>
    <mask id="id12">
  <linearGradient id="id13" gradientUnits="userSpaceOnUse" x1="1020.74" y1="971.79" x2="1020.74" y2="713.91">
   <stop offset="0" style="stop-opacity:1; stop-color:white"/>
   <stop offset="1" style="stop-opacity:0; stop-color:white"/>
  </linearGradient>
     <rect style="fill:url(#id13)" x="12.98" y="783.26" width="237.6" height="89.39"/>
    </mask>
    <mask id="id14">
  <linearGradient id="id15" gradientUnits="userSpaceOnUse" x1="1008.59" y1="974.35" x2="1008.59" y2="712.92">
   <stop offset="0" style="stop-opacity:1; stop-color:white"/>
   <stop offset="1" style="stop-opacity:0; stop-color:white"/>
  </linearGradient>
     <rect style="fill:url(#id15)" x="1835.18" y="847.76" width="112.15" height="21.9"/>
    </mask>
    <mask id="id16">
  <linearGradient id="id17" gradientUnits="userSpaceOnUse" x1="1008.59" y1="974.35" x2="1008.59" y2="712.92">
   <stop offset="0" style="stop-opacity:1; stop-color:white"/>
   <stop offset="1" style="stop-opacity:0; stop-color:white"/>
  </linearGradient>
     <rect style="fill:url(#id17)" x="1779.52" y="785.54" width="201.73" height="70.82"/>
    </mask>
    <mask id="id18">
  <linearGradient id="id19" gradientUnits="userSpaceOnUse" x1="1017.72" y1="973.81" x2="1017.72" y2="715.93">
   <stop offset="0" style="stop-opacity:1; stop-color:white"/>
   <stop offset="1" style="stop-opacity:0; stop-color:white"/>
  </linearGradient>
     <rect style="fill:url(#id19)" x="1564.88" y="785.74" width="220.53" height="66.25"/>
    </mask>
    <mask id="id20">
  <linearGradient id="id21" gradientUnits="userSpaceOnUse" x1="1012.37" y1="974.35" x2="1012.37" y2="712.92">
   <stop offset="0" style="stop-opacity:1; stop-color:white"/>
   <stop offset="1" style="stop-opacity:0; stop-color:white"/>
  </linearGradient>
     <rect style="fill:url(#id21)" x="1511.81" y="785.54" width="55.66" height="51.78"/>
    </mask>
    <mask id="id22">
  <linearGradient id="id23" gradientUnits="userSpaceOnUse" x1="1016.25" y1="973.57" x2="1016.25" y2="713.22">
   <stop offset="0" style="stop-opacity:1; stop-color:white"/>
   <stop offset="1" style="stop-opacity:0; stop-color:white"/>
  </linearGradient>
     <rect style="fill:url(#id23)" x="1302.3" y="785.54" width="55.94" height="51.83"/>
    </mask>
    <mask id="id24">
  <linearGradient id="id25" gradientUnits="userSpaceOnUse" x1="1015.44" y1="973.57" x2="1015.44" y2="713.22">
   <stop offset="0" style="stop-opacity:1; stop-color:white"/>
   <stop offset="1" style="stop-opacity:0; stop-color:white"/>
  </linearGradient>
     <rect style="fill:url(#id25)" x="1457.46" y="785.54" width="55.07" height="50.22"/>
    </mask>
    <mask id="id26">
  <linearGradient id="id27" gradientUnits="userSpaceOnUse" x1="1018.33" y1="974.35" x2="1018.33" y2="712.92">
   <stop offset="0" style="stop-opacity:1; stop-color:white"/>
   <stop offset="1" style="stop-opacity:0; stop-color:white"/>
  </linearGradient>
     <rect style="fill:url(#id27)" x="1076.36" y="785.54" width="170.74" height="65.78"/>
    </mask>
    <mask id="id28">
  <linearGradient id="id29" gradientUnits="userSpaceOnUse" x1="697" y1="742.81" x2="697.09" y2="1010.45">
   <stop offset="0" style="stop-opacity:1; stop-color:white"/>
   <stop offset="1" style="stop-opacity:0; stop-color:white"/>
  </linearGradient>
     <rect style="fill:url(#id29)" x="594.69" y="933.85" width="201.24" height="109.94"/>
    </mask>
    <mask id="id30">
  <linearGradient id="id31" gradientUnits="userSpaceOnUse" x1="493.13" y1="742.81" x2="493.22" y2="1010.45">
   <stop offset="0" style="stop-opacity:1; stop-color:white"/>
   <stop offset="1" style="stop-opacity:0; stop-color:white"/>
  </linearGradient>
     <rect style="fill:url(#id31)" x="391.37" y="933.85" width="200.14" height="109.94"/>
    </mask>
    <mask id="id32">
  <linearGradient id="id33" gradientUnits="userSpaceOnUse" x1="299.08" y1="742.81" x2="299.18" y2="1010.45">
   <stop offset="0" style="stop-opacity:1; stop-color:white"/>
   <stop offset="1" style="stop-opacity:0; stop-color:white"/>
  </linearGradient>
     <rect style="fill:url(#id33)" x="207.47" y="933.85" width="180.22" height="109.94"/>
    </mask>
    <mask id="id34">
  <linearGradient id="id35" gradientUnits="userSpaceOnUse" x1="144.68" y1="742.81" x2="144.74" y2="1010.45">
   <stop offset="0" style="stop-opacity:1; stop-color:white"/>
   <stop offset="1" style="stop-opacity:0; stop-color:white"/>
  </linearGradient>
     <rect style="fill:url(#id35)" x="7.14" y="933.85" width="270.46" height="109.94"/>
    </mask>
    <mask id="id36">
  <linearGradient id="id37" gradientUnits="userSpaceOnUse" x1="1905.09" y1="953.53" x2="1905.1" y2="992.91">
   <stop offset="0" style="stop-opacity:1; stop-color:white"/>
   <stop offset="1" style="stop-opacity:0; stop-color:white"/>
  </linearGradient>
     <rect style="fill:url(#id37)" x="1843.57" y="981.64" width="120.96" height="16.18"/>
    </mask>
    <mask id="id38">
  <linearGradient id="id39" gradientUnits="userSpaceOnUse" x1="1879.99" y1="742.81" x2="1880.05" y2="1010.45">
   <stop offset="0" style="stop-opacity:1; stop-color:white"/>
   <stop offset="1" style="stop-opacity:0; stop-color:white"/>
  </linearGradient>
     <rect style="fill:url(#id39)" x="1744.91" y="933.85" width="265.64" height="109.94"/>
    </mask>
    <mask id="id40">
  <linearGradient id="id41" gradientUnits="userSpaceOnUse" x1="1584.92" y1="999.1" x2="1584.93" y2="1005.98">
   <stop offset="0" style="stop-opacity:1; stop-color:white"/>
   <stop offset="1" style="stop-opacity:0; stop-color:white"/>
  </linearGradient>
     <rect style="fill:url(#id41)" x="1583.71" y="1004.01" width="2.39" height="2.83"/>
    </mask>
    <mask id="id42">
  <linearGradient id="id43" gradientUnits="userSpaceOnUse" x1="1671.98" y1="739.39" x2="1672.05" y2="1009.94">
   <stop offset="0" style="stop-opacity:1; stop-color:white"/>
   <stop offset="1" style="stop-opacity:0; stop-color:white"/>
  </linearGradient>
     <rect style="fill:url(#id43)" x="1524.46" y="932.51" width="290.1" height="111.13"/>
    </mask>
    <mask id="id44">
  <linearGradient id="id45" gradientUnits="userSpaceOnUse" x1="1599.45" y1="1001.35" x2="1599.45" y2="1003.71">
   <stop offset="0" style="stop-opacity:1; stop-color:white"/>
   <stop offset="1" style="stop-opacity:0; stop-color:white"/>
  </linearGradient>
     <rect style="fill:url(#id45)" x="1583.71" y="1003.04" width="30.95" height="0.97"/>
    </mask>
    <mask id="id46">
  <linearGradient id="id47" gradientUnits="userSpaceOnUse" x1="1534.46" y1="742.81" x2="1534.6" y2="1010.45">
   <stop offset="0" style="stop-opacity:1; stop-color:white"/>
   <stop offset="1" style="stop-opacity:0; stop-color:white"/>
  </linearGradient>
     <rect style="fill:url(#id47)" x="1470.11" y="933.85" width="126.67" height="109.94"/>
    </mask>
    <mask id="id48">
  <linearGradient id="id49" gradientUnits="userSpaceOnUse" x1="1325.3" y1="742.81" x2="1325.44" y2="1010.45">
   <stop offset="0" style="stop-opacity:1; stop-color:white"/>
   <stop offset="1" style="stop-opacity:0; stop-color:white"/>
  </linearGradient>
     <rect style="fill:url(#id49)" x="1261.01" y="933.85" width="126.53" height="109.94"/>
    </mask>
    <mask id="id50">
  <linearGradient id="id51" gradientUnits="userSpaceOnUse" x1="1451.68" y1="742.81" x2="1451.78" y2="1010.45">
   <stop offset="0" style="stop-opacity:1; stop-color:white"/>
   <stop offset="1" style="stop-opacity:0; stop-color:white"/>
  </linearGradient>
     <rect style="fill:url(#id51)" x="1358.46" y="933.85" width="183.37" height="109.94"/>
    </mask>
    <mask id="id52">
  <linearGradient id="id53" gradientUnits="userSpaceOnUse" x1="1159.37" y1="742.81" x2="1159.44" y2="1010.45">
   <stop offset="0" style="stop-opacity:1; stop-color:white"/>
   <stop offset="1" style="stop-opacity:0; stop-color:white"/>
  </linearGradient>
     <rect style="fill:url(#id53)" x="1036.96" y="933.85" width="240.72" height="109.94"/>
    </mask>
    <mask id="id54">
  <linearGradient id="id55" gradientUnits="userSpaceOnUse" x1="893.36" y1="742.81" x2="893.43" y2="1010.45">
   <stop offset="0" style="stop-opacity:1; stop-color:white"/>
   <stop offset="1" style="stop-opacity:0; stop-color:white"/>
  </linearGradient>
     <rect style="fill:url(#id55)" x="765.16" y="933.85" width="252.11" height="109.94"/>
    </mask>
  <linearGradient id="id56" gradientUnits="userSpaceOnUse" x1="1991.31" y1="1073.18" x2="2055.91" y2="1030.62">
   <stop offset="0" style="stop-opacity:1; stop-color:red"/>
   <stop offset="0.478431" style="stop-opacity:1; stop-color:#FF4600"/>
   <stop offset="1" style="stop-opacity:1; stop-color:#FF8400"/>
  </linearGradient>
  <linearGradient id="id57" gradientUnits="userSpaceOnUse" xlink:href="#id56" x1="9.16" y1="917.98" x2="1016.72" y2="788.81">
  </linearGradient>
  <linearGradient id="id58" gradientUnits="userSpaceOnUse" xlink:href="#id56" x1="-9.81" y1="923.78" x2="1053.2" y2="1040.83">
  </linearGradient>
  <linearGradient id="id59" gradientUnits="userSpaceOnUse" xlink:href="#id56" x1="-9.81" y1="923.78" x2="1053.2" y2="1040.83">
  </linearGradient>
  <linearGradient id="id60" gradientUnits="userSpaceOnUse" x1="541.89" y1="409.66" x2="563.27" y2="131.88">
   <stop offset="0" style="stop-opacity:1; stop-color:#5E2D2C"/>
   <stop offset="1" style="stop-opacity:1; stop-color:#9C4400"/>
  </linearGradient>
  <linearGradient id="id61" gradientUnits="userSpaceOnUse" xlink:href="#id56" x1="1.45" y1="917.75" x2="1022.85" y2="786.81">
  </linearGradient>
  <linearGradient id="id62" gradientUnits="userSpaceOnUse" xlink:href="#id56" x1="9.16" y1="917.98" x2="1016.72" y2="788.81">
  </linearGradient>
  <linearGradient id="id63" gradientUnits="userSpaceOnUse" xlink:href="#id60" x1="536.53" y1="573.35" x2="1140.31" y2="-61.22">
  </linearGradient>
  <linearGradient id="id64" gradientUnits="userSpaceOnUse" xlink:href="#id56" x1="-9.81" y1="923.78" x2="1053.2" y2="1040.83">
  </linearGradient>
  <linearGradient id="id65" gradientUnits="userSpaceOnUse" xlink:href="#id56" x1="390.49" y1="450.88" x2="1204.65" y2="0">
  </linearGradient>
  <linearGradient id="id66" gradientUnits="userSpaceOnUse" xlink:href="#id56" x1="4.2" y1="917.75" x2="1025.61" y2="786.81">
  </linearGradient>
  <linearGradient id="id67" gradientUnits="userSpaceOnUse" xlink:href="#id56" x1="6.44" y1="917.75" x2="1027.85" y2="786.81">
  </linearGradient>
  <linearGradient id="id68" gradientUnits="userSpaceOnUse" xlink:href="#id56" x1="-9.81" y1="923.78" x2="1053.2" y2="1040.83">
  </linearGradient>
  <linearGradient id="id69" gradientUnits="userSpaceOnUse" xlink:href="#id56" x1="-9.81" y1="923.78" x2="1053.2" y2="1040.83">
  </linearGradient>
 </defs>
 <g id="Camada_x0020_1">
  <metadata id="CorelCorpID_0Corel-Layer"/>
  <g id="_1623996865600">
   <polygon class="fil0" points="1322.86,291.72 1594.51,291.72 1654.4,219.16 1352.57,219.16 1347.69,219.23 1342.9,219.42 1338.2,219.73 1333.58,220.17 1329.05,220.74 1324.6,221.44 1320.24,222.26 1315.96,223.2 1311.77,224.27 1307.67,225.47 1303.65,226.8 1299.71,228.25 1295.86,229.83 1292.1,231.53 1288.42,233.36 1284.83,235.31 1281.34,237.38 1277.98,239.55 1274.75,241.82 1271.64,244.18 1268.65,246.65 1265.79,249.21 1263.05,251.88 1260.44,254.65 1257.95,257.51 1255.59,260.47 1253.35,263.53 1251.24,266.7 1249.25,269.96 1247.39,273.31 1245.65,276.77 1244.04,280.33 1242.6,283.89 1241.37,287.34 1240.36,290.7 1221.88,356.1 1222.79,353.08 1223.89,349.98 1225.19,346.77 1226.64,343.57 1228.21,340.46 1229.88,337.43 1231.67,334.5 1233.57,331.66 1235.59,328.9 1237.71,326.23 1239.95,323.65 1242.3,321.17 1244.76,318.77 1247.34,316.46 1250.03,314.24 1252.83,312.11 1255.74,310.07 1258.76,308.12 1261.9,306.25 1265.14,304.5 1268.45,302.85 1271.83,301.32 1275.3,299.9 1278.84,298.59 1282.46,297.4 1286.15,296.32 1289.92,295.36 1293.77,294.5 1297.7,293.77 1301.7,293.14 1305.78,292.63 1309.94,292.23 1314.17,291.95 1318.48,291.78 "/>
   <polygon class="fil0" points="1430.6,662.87 572.53,662.87 518.86,631.55 1472.27,631.55 1475.45,631.54 1478.61,631.51 1481.76,631.45 1484.89,631.38 1488,631.28 1491.1,631.16 1494.18,631.02 1497.24,630.86 1500.29,630.68 1503.32,630.48 1506.34,630.25 1509.34,630 1512.33,629.73 1515.29,629.45 1518.24,629.13 1521.18,628.8 1524.1,628.45 1527,628.07 1529.89,627.67 1532.76,627.25 1535.62,626.82 1538.45,626.35 1541.28,625.87 1544.09,625.36 1546.88,624.84 1549.65,624.29 1552.41,623.72 1555.15,623.13 1557.88,622.52 1560.59,621.89 1563.28,621.23 1565.96,620.56 1568.62,619.86 1571.27,619.15 1573.89,618.42 1576.5,617.67 1579.09,616.91 1581.66,616.13 1584.21,615.33 1586.75,614.52 1589.26,613.69 1591.76,612.84 1594.24,611.98 1596.7,611.1 1599.14,610.2 1601.57,609.29 1603.97,608.35 1606.36,607.41 1608.74,606.45 1611.09,605.46 1613.42,604.47 1615.74,603.45 1618.04,602.42 1620.32,601.37 1622.58,600.31 1624.83,599.23 1627.05,598.13 1629.26,597.01 1631.45,595.88 1633.63,594.73 1635.78,593.57 1637.91,592.39 1640.03,591.18 1642.13,589.97 1646.28,587.49 1587.2,623.22 1583.47,625.45 1581.58,626.54 1579.68,627.62 1577.75,628.68 1575.81,629.73 1573.86,630.77 1571.89,631.79 1569.9,632.79 1567.9,633.78 1565.88,634.75 1563.84,635.71 1561.79,636.65 1559.72,637.58 1557.63,638.49 1555.53,639.39 1553.41,640.27 1551.28,641.14 1549.13,641.99 1546.96,642.83 1544.78,643.65 1542.58,644.46 1540.37,645.25 1538.13,646.03 1535.89,646.79 1533.62,647.54 1531.34,648.27 1529.04,648.99 1526.73,649.69 1524.4,650.38 1522.05,651.05 1519.69,651.7 1517.31,652.35 1514.92,652.97 1512.51,653.58 1510.08,654.17 1507.64,654.74 1505.19,655.29 1502.72,655.82 1500.24,656.33 1497.74,656.83 1495.23,657.3 1492.7,657.76 1490.16,658.19 1487.61,658.61 1485.04,659 1482.45,659.38 1479.85,659.74 1477.24,660.08 1474.61,660.39 1471.97,660.69 1469.32,660.98 1466.65,661.24 1463.96,661.48 1461.26,661.7 1458.54,661.9 1455.81,662.08 1453.07,662.25 1450.31,662.39 1447.54,662.52 1444.75,662.63 1441.95,662.71 1439.13,662.78 1436.3,662.83 1433.46,662.86 "/>
   <polygon class="fil1" points="470.1,510.74 468.07,509.32 466.09,507.87 400.59,459.33 402.79,460.94 405.05,462.51 407.37,464.06 409.75,465.59 412.19,467.08 414.69,468.55 417.26,469.98 419.88,471.39 422.56,472.77 425.3,474.12 428.1,475.45 430.96,476.74 433.89,478.01 436.87,479.25 439.91,480.46 443.01,481.65 446.18,482.8 449.4,483.93 452.68,485.03 456.03,486.1 459.43,487.14 462.89,488.15 466.42,489.14 470,490.1 473.64,491.03 477.35,491.93 481.11,492.8 484.94,493.65 488.83,494.47 492.78,495.26 496.81,496.02 500.89,496.76 505.04,497.47 509.26,498.16 513.54,498.81 517.88,499.45 522.29,500.05 526.77,500.63 531.31,501.18 535.91,501.7 540.58,502.2 545.31,502.67 550.11,503.11 554.97,503.53 559.9,503.92 564.89,504.28 569.95,504.62 575.07,504.92 580.26,505.21 585.51,505.46 590.83,505.69 596.21,505.89 601.66,506.07 607.17,506.21 612.74,506.33 618.38,506.43 624.09,506.5 629.86,506.53 635.69,506.55 641.59,506.53 647.45,506.5 653.27,506.43 659.04,506.33 664.77,506.21 670.45,506.07 676.09,505.89 681.69,505.69 687.24,505.46 692.75,505.21 698.22,504.92 703.64,504.62 709.02,504.28 714.36,503.92 719.65,503.53 724.9,503.11 730.11,502.67 735.27,502.2 740.39,501.7 745.47,501.18 750.5,500.63 755.49,500.05 760.43,499.45 765.33,498.81 770.19,498.16 775.01,497.47 779.78,496.76 784.51,496.02 789.19,495.26 793.83,494.47 798.43,493.65 802.98,492.8 807.5,491.93 811.98,491.03 816.42,490.1 820.83,489.14 825.2,488.15 829.53,487.14 833.83,486.1 838.09,485.03 842.32,483.93 846.51,482.8 850.66,481.65 854.78,480.46 858.87,479.25 862.91,478.01 866.93,476.74 870.9,475.45 874.84,474.12 878.74,472.77 882.61,471.39 886.44,469.98 890.24,468.55 894,467.08 897.72,465.59 901.41,464.06 905.06,462.51 908.68,460.94 912.26,459.33 915.81,457.7 919.31,456.03 922.79,454.34 926.22,452.62 929.62,450.88 932.99,449.1 936.33,447.3 939.63,445.46 942.91,443.6 946.15,441.71 949.36,439.79 952.54,437.84 955.69,435.86 958.8,433.86 961.89,431.82 964.95,429.76 967.97,427.66 970.96,425.54 973.92,423.39 976.85,421.21 979.75,419 982.62,416.76 985.45,414.5 988.26,412.2 991.03,409.88 993.77,407.52 996.48,405.14 999.16,402.73 1001.81,400.3 1004.43,397.83 1007.01,395.33 1009.57,392.8 1012.09,390.25 1014.58,387.66 1017.05,385.05 1019.48,382.41 1021.87,379.74 1024.25,377.04 1026.59,374.31 1028.9,371.56 1031.2,368.77 1033.46,365.95 1035.7,363.11 1037.91,360.24 1040.1,357.34 1042.26,354.4 1044.4,351.44 1046.51,348.46 1048.59,345.44 1050.65,342.4 1052.68,339.32 1054.68,336.22 1056.66,333.09 1058.62,329.92 1060.54,326.73 1062.45,323.52 1064.32,320.27 1066.17,316.99 1067.99,313.69 1069.79,310.35 1071.56,306.99 1073.31,303.6 1075.03,300.18 1076.72,296.73 1078.39,293.25 1080.03,289.75 1081.64,286.21 1083.23,282.65 1084.79,279.05 1164.07,94.48 1089.96,94.48 982.08,345.62 980.45,349.35 978.78,353.01 977.06,356.62 975.3,360.17 973.51,363.66 971.67,367.09 969.79,370.46 967.87,373.76 965.92,377 963.92,380.19 961.88,383.31 959.8,386.38 957.68,389.38 955.52,392.33 953.32,395.21 951.08,398.03 939.48,337.29 941.97,334.15 944.41,330.95 946.81,327.68 949.17,324.34 951.48,320.93 953.74,317.47 955.96,313.93 958.14,310.32 960.27,306.64 962.35,302.9 964.39,299.1 966.39,295.22 968.34,291.28 970.25,287.27 972.11,283.19 973.92,279.05 1093.78,0 1204.65,0 1189.74,94.48 1081.87,345.62 1080.46,348.85 1079.03,352.06 1077.58,355.24 1076.1,358.4 1074.6,361.53 1073.08,364.63 1071.53,367.71 1069.96,370.76 1068.36,373.79 1066.75,376.79 1065.11,379.77 1063.44,382.72 1061.75,385.64 1060.04,388.54 1058.31,391.41 1056.55,394.25 1054.77,397.07 1052.96,399.86 1051.14,402.63 1049.29,405.37 1047.41,408.08 1045.51,410.78 1043.59,413.44 1041.65,416.08 1039.67,418.69 1037.68,421.27 1035.67,423.83 1033.63,426.36 1031.57,428.87 1029.48,431.35 1027.38,433.81 1025.24,436.24 1023.08,438.64 1020.89,441.02 1018.68,443.37 1016.44,445.7 1014.17,448 1011.87,450.27 1009.54,452.52 1007.18,454.74 1004.8,456.93 1002.39,459.1 999.95,461.25 997.48,463.37 994.99,465.45 992.46,467.52 989.91,469.56 987.33,471.57 984.72,473.56 982.08,475.52 979.42,477.46 976.73,479.37 974.01,481.26 971.26,483.11 968.48,484.94 965.67,486.75 962.84,488.53 959.98,490.28 957.09,492.01 954.17,493.72 951.22,495.39 948.25,497.04 945.25,498.66 942.21,500.26 939.15,501.84 936.06,503.38 932.94,504.9 929.78,506.4 926.59,507.87 923.37,509.32 920.11,510.74 916.82,512.13 913.51,513.5 910.15,514.84 906.77,516.17 903.35,517.46 899.9,518.72 896.42,519.97 892.91,521.18 889.36,522.38 885.79,523.54 882.18,524.68 878.53,525.8 874.86,526.89 871.15,527.96 867.41,528.99 863.64,530.01 859.84,531 856,531.96 852.13,532.9 848.23,533.81 844.3,534.7 840.33,535.56 836.33,536.4 832.3,537.21 828.24,537.99 824.14,538.76 820,539.49 815.82,540.2 811.61,540.9 807.36,541.56 803.06,542.2 798.73,542.81 794.35,543.41 789.94,543.98 785.49,544.52 781,545.04 776.47,545.53 771.9,546 767.3,546.45 762.65,546.87 757.97,547.28 753.24,547.65 748.48,548 743.68,548.33 738.83,548.63 733.95,548.91 729.03,549.16 724.07,549.39 719.07,549.59 714.04,549.78 708.96,549.93 703.84,550.06 698.69,550.17 693.49,550.26 688.26,550.32 682.99,550.36 677.68,550.37 672.43,550.36 667.23,550.32 662.1,550.26 657.02,550.17 652.01,550.06 647.05,549.93 642.14,549.78 637.3,549.59 632.52,549.39 627.79,549.16 623.12,548.91 618.51,548.63 613.96,548.33 609.47,548 605.03,547.65 600.65,547.28 596.34,546.87 592.07,546.45 587.87,546 583.73,545.53 579.64,545.04 575.61,544.52 571.65,543.98 567.74,543.41 563.88,542.81 560.09,542.2 556.36,541.56 552.68,540.9 549.06,540.2 545.5,539.49 542,538.76 538.55,537.99 535.17,537.21 531.83,536.4 528.55,535.56 525.33,534.7 522.16,533.81 519.04,532.9 515.98,531.96 512.97,531 510.01,530.01 507.11,528.99 504.27,527.96 501.48,526.89 498.74,525.8 496.05,524.68 493.42,523.54 490.85,522.38 488.33,521.18 485.86,519.97 483.44,518.72 481.09,517.46 478.78,516.17 476.53,514.84 474.33,513.5 472.19,512.13 "/>
   <polygon class="fil2" points="541.63,406.89 541.89,409.66 542.29,412.51 542.83,415.28 543.5,417.99 544.31,420.64 545.26,423.21 546.34,425.72 547.56,428.16 548.92,430.54 550.41,432.84 552.03,435.08 553.79,437.25 555.69,439.35 526.67,410.01 526.5,410.04 522.75,410.65 519.02,411.28 515.3,411.91 511.61,412.54 507.93,413.17 504.27,413.81 500.63,414.46 497.01,415.11 493.42,415.76 489.84,416.42 486.28,417.08 482.74,417.74 479.22,418.41 475.72,419.08 472.24,419.75 468.78,420.43 465.35,421.11 461.93,421.79 458.54,422.48 455.17,423.16 451.82,423.85 448.49,424.54 445.18,425.24 441.89,425.93 438.63,426.63 435.39,427.32 432.17,428.02 428.98,428.72 359.36,371.39 362.91,370.61 366.48,369.83 370.09,369.06 373.71,368.28 377.36,367.51 381.04,366.74 384.74,365.98 388.46,365.21 392.21,364.45 395.98,363.69 399.77,362.93 403.59,362.17 407.43,361.42 411.3,360.67 415.18,359.93 419.1,359.19 423.03,358.45 426.98,357.71 430.96,356.98 434.96,356.26 438.98,355.54 443.02,354.82 447.08,354.11 451.17,353.4 455.28,352.7 459.4,352 463.55,351.31 467.72,350.63 471.91,349.95 476.12,349.27 480.34,348.61 484.59,347.95 484.55,347.42 484.53,347.12 484.52,346.97 484.51,346.82 484.48,346.35 484.45,345.82 484.43,345.28 484.4,344.74 484.39,344.2 484.37,343.66 484.37,340.26 484.5,336.78 484.76,333.22 485.15,329.57 485.67,325.83 486.32,322.01 487.1,318.1 488.02,314.1 489.06,310.02 490.24,305.85 491.55,301.6 492.99,297.26 494.56,292.84 496.26,288.33 498.09,283.73 500.06,279.05 563.27,131.88 612.5,213.16 555.6,345.62 553.84,349.83 552.19,353.97 550.66,358.03 549.24,362.01 547.95,365.91 546.77,369.74 545.71,373.49 544.77,377.17 543.94,380.76 543.24,384.28 542.65,387.72 542.18,391.08 541.84,394.37 541.6,397.58 541.49,400.71 541.49,403.76 541.61,406.62 541.62,406.67 "/>
   <polygon class="fil0" points="1133.06,433.78 1133.08,433.78 1134.7,435.35 1136.92,437.33 1139.25,439.25 1141.68,441.12 1144.22,442.92 1146.87,444.67 1149.62,446.36 1152.48,448 1155.45,449.57 1158.52,451.09 1161.7,452.55 1164.99,453.95 1168.38,455.29 1171.88,456.58 1175.49,457.81 1177.33,458.39 1179.19,458.97 1181.08,459.52 1182.99,460.05 1184.92,460.57 1186.88,461.06 1188.86,461.54 1190.86,462 1192.88,462.44 1194.93,462.86 1197,463.27 1199.1,463.65 1201.21,464.02 1203.35,464.36 1205.51,464.69 1207.7,465 1209.91,465.29 1212.14,465.56 1214.39,465.82 1216.67,466.05 1218.97,466.27 1221.3,466.46 1223.65,466.64 1226.02,466.8 1228.4,466.94 1230.82,467.06 1233.26,467.17 1235.72,467.25 1238.21,467.32 1240.72,467.36 1243.25,467.39 1245.8,467.4 1514.56,467.4 1519.59,467.46 1524.43,467.63 1529.06,467.91 1533.51,468.31 1537.75,468.82 1541.8,469.44 1545.65,470.18 1549.31,471.03 1552.77,472 1556.03,473.08 1559.1,474.27 1561.97,475.58 1564.64,477 1567.12,478.53 1569.4,480.18 1571.48,481.94 1573.36,483.81 1575.01,485.8 1576.44,487.9 1577.65,490.11 1578.64,492.44 1579.41,494.88 1579.95,497.44 1580.28,500.1 1580.38,502.89 1580.26,505.79 1579.92,508.79 1579.35,511.92 1578.57,515.15 1577.56,518.5 1576.33,521.97 1574.88,525.55 1573.38,528.83 1571.75,532.03 1569.98,535.15 1568.07,538.19 1566.02,541.14 1563.84,544.02 1561.51,546.81 1559.05,549.51 1556.46,552.14 1553.72,554.68 1550.85,557.15 1547.84,559.53 1602.54,516.73 1605.88,514.08 1609.07,511.34 1612.12,508.52 1615,505.6 1617.74,502.59 1620.32,499.49 1622.74,496.3 1625.02,493.01 1627.14,489.64 1629.11,486.17 1630.93,482.62 1632.59,478.97 1634.2,474.99 1635.57,471.15 1636.68,467.42 1637.55,463.83 1638.18,460.35 1638.56,457.01 1638.7,453.79 1638.58,450.7 1638.22,447.74 1637.62,444.9 1636.77,442.18 1635.67,439.6 1634.32,437.14 1632.73,434.8 1630.89,432.6 1628.81,430.51 1626.49,428.56 1623.96,426.73 1621.21,425.03 1618.24,423.45 1615.05,422 1611.64,420.67 1608.02,419.47 1604.17,418.4 1603.83,418.32 1615.85,415.63 1629.03,412.56 1692.75,353.43 1678.11,356.84 1663.22,360.17 1648.11,363.41 1632.76,366.55 1617.2,369.58 1601.42,372.49 1585.44,375.27 1569.26,377.92 1552.89,380.42 1536.34,382.76 1519.62,384.95 1502.72,386.95 1485.68,388.78 1468.48,390.42 1451.13,391.85 1433.65,393.08 1416.04,394.09 1398.31,394.88 1380.47,395.42 1362.52,395.73 1344.48,395.78 1326.34,395.57 1308.12,395.08 1289.83,394.31 1271.46,393.26 1253.04,391.91 1234.57,390.24 1216.05,388.27 1197.49,385.96 1178.91,383.32 1160.3,380.34 1141.7,377.01 1141.15,376.48 1138.92,374.15 1136.8,371.76 1134.81,369.32 1132.92,366.81 1131.16,364.25 1129.51,361.64 1127.97,358.96 1126.54,356.24 1125.24,353.45 1124.04,350.61 1122.97,347.71 1122,344.76 1121.16,341.74 1120.42,338.68 1119.81,335.55 1119.3,332.37 1118.92,329.14 1118.65,325.85 1118.51,322.53 1118.49,319.17 1118.59,315.77 1118.82,312.34 1112.49,375.58 1112.29,378.67 1112.19,381.73 1112.21,384.75 1112.34,387.74 1112.58,390.7 1112.93,393.61 1113.38,396.47 1113.94,399.28 1114.6,402.04 1115.36,404.75 1116.22,407.41 1117.19,410.02 1118.27,412.58 1119.44,415.08 1120.73,417.54 1122.11,419.95 1123.6,422.3 1125.19,424.6 1126.88,426.86 1128.68,429.06 1130.58,431.21 1130.88,431.54 1131.19,431.86 1131.49,432.19 1131.8,432.51 1132.11,432.83 1132.43,433.15 1132.59,433.31 1132.75,433.47 "/>
   <path class="fil3" d="M1093.78 0l110.87 0 -119.86 279.05c-16.53,38.49 -37.51,72.05 -62.92,100.69 -25.42,28.64 -56.17,52.35 -92.25,71.14 -36.09,18.78 -78.3,32.76 -126.64,41.92 -48.35,9.17 -104.11,13.75 -167.29,13.75 -62.58,0 -114.11,-4.58 -154.58,-13.75 -40.47,-9.16 -70.68,-23.14 -90.62,-41.92 -19.95,-18.79 -30.33,-42.5 -31.14,-71.14 -0.81,-28.64 7.05,-62.2 23.58,-100.69l63.22 -147.17 117.12 0 -63.22 147.17c-10.82,25.2 -16.05,46.74 -15.68,64.61 0.37,17.87 7.19,32.53 20.45,43.99 13.25,11.46 33.96,19.81 62.09,25.08 28.14,5.27 64.55,7.9 109.26,7.9 44.7,0 83.39,-2.63 116.06,-7.9 32.66,-5.27 60.54,-13.63 83.64,-25.08 23.1,-11.45 42.52,-26.12 58.24,-43.99 15.72,-17.87 28.99,-39.41 39.81,-64.61l119.86 -279.05z"/>
   <path class="fil4" d="M518.86 631.55l37.5 -87.29 953.41 0c30.4,0 56.35,-5.96 77.86,-17.87 21.51,-11.91 36.5,-27.72 44.96,-47.42 9.25,-21.54 7.99,-37.69 -3.78,-48.45 -11.76,-10.77 -32.84,-16.15 -63.25,-16.15l-298.62 0c-30.4,0 -56.44,-3.56 -78.12,-10.66 -21.69,-7.1 -38.32,-16.95 -49.9,-29.55 -11.58,-12.6 -18.24,-27.61 -20,-45.02 -1.76,-17.41 1.79,-36.43 10.65,-57.05 8.66,-20.16 20.99,-38.83 37.02,-56.02 16.02,-17.18 35.19,-31.96 57.48,-44.33 22.3,-12.37 47.5,-22.12 75.58,-29.21 28.08,-7.1 58.22,-10.65 90.41,-10.65l301.83 0 -37.49 87.29 -301.83 0c-26.22,0 -48.81,5.38 -67.73,16.15 -18.93,10.77 -32.53,25.78 -40.79,45.02 -8.26,19.25 -7.36,34.14 2.72,44.68 10.07,10.54 27.63,15.81 52.67,15.81l297.73 0c66.17,0 111.27,11.92 135.31,35.74 24.04,23.83 25.63,60.02 4.77,108.59 -9.05,21.08 -21.59,40.55 -37.61,58.42 -16.02,17.87 -35.19,33.33 -57.48,46.39 -22.3,13.06 -47.69,23.25 -76.17,30.59 -28.48,7.33 -59.71,10.99 -93.69,10.99l-953.42 0z"/>
   <path class="fil5" style="mask:url(#id0)" d="M359.36 371.39c37.74,-8.3 79.81,-16.42 125.23,-23.44 -0.11,-1.41 -0.19,-2.84 -0.22,-4.29 -0.37,-17.87 4.86,-39.41 15.68,-64.61l63.22 -147.17 -117.13 0 -63.22 147.17c-14.95,34.81 -22.81,65.58 -23.57,92.34zm580.12 -34.1c34.11,4.33 68.39,10.03 102.62,17.34 16.54,-22.63 30.77,-47.83 42.7,-75.58l119.86 -279.05 -110.87 0 -119.86 279.05c-9.57,22.28 -21.05,41.69 -34.45,58.24z"/>
   <path class="fil6" style="mask:url(#id2)" d="M1141.68 377.01c198.68,37.48 396.22,13.24 551.07,-23.58 -24.44,-8.4 -56.3,-12.61 -95.6,-12.61l-297.73 0c-25.04,0 -42.6,-5.27 -52.67,-15.81 -10.08,-10.54 -10.98,-25.43 -2.72,-44.68 8.26,-19.24 21.86,-34.25 40.79,-45.02 18.93,-10.77 41.52,-16.15 67.73,-16.15l301.83 0 37.49 -87.29 -301.83 0c-32.19,0 -62.33,3.55 -90.41,10.65 -28.08,7.09 -53.28,16.84 -75.58,29.21 -22.3,12.37 -41.47,27.15 -57.48,44.33 -16.03,17.19 -28.36,35.86 -37.02,56.02 -8.85,20.62 -12.41,39.64 -10.65,57.05 1.76,17.41 8.42,32.42 20,45.02 0.89,0.97 1.81,1.92 2.76,2.85z"/>
   <g>
    <path class="fil7" d="M2041.68 1077.79l3.79 -8.24 35.36 0c2.21,0 4.17,-0.56 5.87,-1.69 1.71,-1.13 2.99,-2.62 3.84,-4.48 0.94,-2.03 1.04,-3.56 0.32,-4.57 -0.72,-1.02 -2.19,-1.52 -4.4,-1.52l-21.67 0c-2.21,0 -4.05,-0.34 -5.53,-1.01 -1.49,-0.67 -2.58,-1.6 -3.26,-2.79 -0.68,-1.19 -0.98,-2.61 -0.9,-4.25 0.09,-1.64 0.58,-3.44 1.48,-5.38 0.88,-1.9 2,-3.67 3.37,-5.29 1.37,-1.62 2.95,-3.02 4.72,-4.18 1.76,-1.17 3.72,-2.09 5.84,-2.76 2.12,-0.67 4.35,-1.01 6.69,-1.01l33.87 0 -3.79 8.24 -33.87 0c-1.9,0 -3.61,0.51 -5.12,1.52 -1.5,1.02 -2.67,2.44 -3.51,4.25 -0.84,1.82 -0.95,3.23 -0.35,4.22 0.6,1 1.81,1.49 3.63,1.49l21.61 0c4.8,0 7.93,1.12 9.38,3.37 1.45,2.25 1.12,5.67 -0.98,10.25 -0.92,1.99 -2.07,3.83 -3.45,5.52 -1.38,1.69 -2.96,3.15 -4.74,4.38 -1.77,1.23 -3.74,2.19 -5.9,2.89 -2.16,0.69 -4.46,1.04 -6.93,1.04l-35.36 0z"/>
    <path class="fil8" d="M2047.87 1030.62l8.05 0 -12.12 26.34c-1.67,3.63 -3.61,6.8 -5.8,9.5 -2.19,2.7 -4.72,4.95 -7.56,6.72 -2.85,1.77 -6.08,3.1 -9.7,3.96 -3.62,0.87 -7.72,1.3 -12.31,1.3 -4.54,0 -8.23,-0.44 -11.05,-1.3 -2.83,-0.86 -4.85,-2.18 -6.06,-3.96 -1.23,-1.77 -1.69,-4.01 -1.39,-6.72 0.29,-2.7 1.28,-5.87 2.95,-9.5l12.12 -26.34 8.5 0 -12.12 26.34c-1.1,2.38 -1.74,4.41 -1.93,6.1 -0.19,1.69 0.12,3.07 0.95,4.15 0.82,1.08 2.22,1.87 4.2,2.37 1.97,0.5 4.59,0.75 7.83,0.75 3.24,0 6.08,-0.25 8.51,-0.75 2.44,-0.5 4.57,-1.29 6.38,-2.37 1.82,-1.08 3.4,-2.46 4.77,-4.15 1.36,-1.69 2.59,-3.72 3.68,-6.1l12.12 -26.34z"/>
    <polygon class="fil7" points="1910.46,1077.99 1932.25,1030.62 1940.49,1030.62 1918.7,1077.99 "/>
    <polygon class="fil7" points="1948.41,1077.99 1957.84,1057.48 1934.1,1057.48 1937.47,1050.15 1961.22,1050.15 1970.2,1030.62 1978.45,1030.62 1956.66,1077.99 "/>
    <polygon class="fil7" points="1878.96,1077.79 1896.86,1038.87 1878.96,1038.87 1882.74,1030.62 1926.8,1030.62 1923.01,1038.87 1905.1,1038.87 1887.19,1077.79 "/>
    <polygon class="fil7" points="1846.96,1077.79 1868.66,1030.62 1876.9,1030.62 1855.2,1077.79 "/>
    <path class="fil7" d="M1808.54 1062.02l-13.69 13.82c-0.88,0.87 -1.78,1.51 -2.71,1.95 -0.94,0.44 -1.83,0.65 -2.7,0.65 -1.9,0 -2.94,-0.87 -3.08,-2.6l-3.6 -45.22 9.86 0 2.39 36.27 13.05 -12.85 -1.49 -23.42 9.93 0 1.55 36.27 35.89 -36.27 9.21 0 -45.19 45.22c-0.88,0.87 -1.79,1.51 -2.75,1.95 -0.96,0.44 -1.87,0.65 -2.73,0.65 -0.86,0 -1.57,-0.22 -2.1,-0.65 -0.54,-0.43 -0.84,-1.08 -0.92,-1.95l-0.91 -13.82z"/>
    <polygon class="fil7" points="1719.56,1057.29 1722.75,1050.35 1748.9,1050.35 1745.71,1057.29 "/>
    <polygon class="fil7" points="1695.92,1077.79 1717.62,1030.62 1759.73,1030.62 1755.94,1038.87 1722.01,1038.87 1707.89,1069.56 1741.88,1069.56 1738.09,1077.79 "/>
    <path class="fil7" d="M1682.3 1077.79l6.24 -33.16 -27.49 30.69c-0.94,0.99 -1.86,1.76 -2.78,2.3 -0.92,0.54 -1.88,0.82 -2.87,0.82 -1.95,0 -2.87,-1.04 -2.79,-3.11l0.82 -30.69 -24.27 33.16 -8.11 0 32.55 -44.38c1.6,-2.25 3.48,-3.37 5.64,-3.37 0.86,0 1.56,0.24 2.1,0.71 0.54,0.48 0.8,1.17 0.77,2.08l-0.81 33.35 29.88 -33.35c1.63,-1.86 3.38,-2.79 5.24,-2.79 1.99,0 2.79,1.12 2.41,3.37l-8.35 44.38 -8.18 0z"/>
    <path class="fil7" d="M1600.18 1069.56c2.16,0 4.33,-0.39 6.51,-1.17 2.17,-0.77 4.23,-1.85 6.18,-3.21 1.94,-1.36 3.72,-2.99 5.34,-4.9 1.6,-1.9 2.92,-3.96 3.94,-6.16 1.01,-2.21 1.58,-4.25 1.72,-6.13 0.13,-1.88 -0.16,-3.49 -0.86,-4.84 -0.7,-1.34 -1.79,-2.39 -3.25,-3.15 -1.47,-0.76 -3.29,-1.13 -5.45,-1.13l-11.49 0c-2.12,0 -4.25,0.38 -6.39,1.13 -2.15,0.76 -4.18,1.81 -6.09,3.15 -1.91,1.34 -3.66,2.94 -5.26,4.8 -1.59,1.86 -2.9,3.91 -3.93,6.16 -1.02,2.21 -1.6,4.26 -1.74,6.16 -0.14,1.9 0.13,3.54 0.8,4.9 0.67,1.36 1.72,2.44 3.16,3.21 1.44,0.78 3.22,1.17 5.33,1.17l11.49 0zm-15.28 8.24c-3.29,0 -6.04,-0.62 -8.27,-1.85 -2.22,-1.23 -3.87,-2.92 -4.94,-5.06 -1.07,-2.15 -1.5,-4.69 -1.29,-7.63 0.2,-2.94 1.09,-6.12 2.67,-9.54 1.59,-3.46 3.62,-6.62 6.08,-9.47 2.46,-2.85 5.18,-5.29 8.16,-7.3 2.98,-2.01 6.12,-3.57 9.42,-4.67 3.3,-1.1 6.59,-1.66 9.88,-1.66l11.49 0c3.41,0 6.29,0.56 8.6,1.69 2.32,1.13 4.03,2.7 5.12,4.74 1.1,2.03 1.56,4.46 1.38,7.3 -0.18,2.84 -1.06,5.96 -2.63,9.38 -1.57,3.42 -3.61,6.59 -6.11,9.54 -2.5,2.94 -5.26,5.48 -8.31,7.63 -3.04,2.14 -6.25,3.83 -9.63,5.06 -3.37,1.23 -6.75,1.85 -10.12,1.85l-11.49 0z"/>
    <path class="fil7" d="M1531.12 1077.79c-3.29,0 -6.04,-0.62 -8.27,-1.85 -2.22,-1.23 -3.87,-2.92 -4.94,-5.06 -1.06,-2.15 -1.5,-4.69 -1.29,-7.63 0.2,-2.94 1.09,-6.12 2.67,-9.54 1.59,-3.46 3.62,-6.62 6.08,-9.47 2.46,-2.85 5.18,-5.29 8.16,-7.3 2.98,-2.01 6.12,-3.57 9.42,-4.67 3.3,-1.1 6.59,-1.66 9.88,-1.66l25.56 0 -3.79 8.24 -25.56 0c-2.12,0 -4.25,0.38 -6.39,1.13 -2.15,0.76 -4.18,1.81 -6.09,3.15 -1.91,1.34 -3.66,2.94 -5.26,4.8 -1.59,1.86 -2.9,3.91 -3.93,6.16 -1.02,2.21 -1.6,4.26 -1.74,6.16 -0.14,1.9 0.13,3.54 0.8,4.9 0.67,1.36 1.73,2.44 3.16,3.21 1.44,0.78 3.22,1.17 5.33,1.17l25.56 0 -3.79 8.24 -25.56 0z"/>
   </g>
   <path class="fil9" d="M976.74 934.33l-12.76 -36.95 -90.34 0 24.69 -20.79 58.56 0 -18.96 -54.91 -135.05 112.65 -38.08 0 170.13 -140.51c3.03,-2.56 6.17,-4.58 9.43,-6.06 3.26,-1.48 6.73,-2.22 10.41,-2.22 3.68,0 6.47,0.74 8.37,2.22 1.9,1.48 3.27,3.5 4.1,6.06l49.68 140.51 -40.18 0z"/>
   <path class="fil10" d="M697.41 934.33l-31.23 -41.34 -72.41 0 9.84 -22.92 80.67 0c12.25,0 22.58,-2.56 30.98,-7.67 8.41,-5.12 14.7,-12.52 18.86,-22.21 4.16,-9.69 4.01,-16.88 -0.44,-21.59 -4.46,-4.71 -12.54,-7.06 -24.25,-7.06 -46.32,0 -92.65,0 -138.97,0l11.16 -25.99 138.97 0c11.01,0 20.31,1.26 27.93,3.78 7.61,2.53 13.42,6.14 17.44,10.85 4.01,4.71 6.18,10.4 6.5,17.09 0.33,6.68 -1.3,14.19 -4.88,22.51 -5.33,12.42 -13.31,22.82 -23.92,31.21 -10.61,8.39 -23.01,14.43 -37.2,18.11l38.88 45.23 -47.92 0z"/>
   <polygon class="fil11" points="391.02,934.33 443.76,811.53 370.28,811.53 381.44,785.54 562.21,785.54 551.05,811.53 477.57,811.53 424.83,934.33 "/>
   <polygon class="fil12" points="207.11,934.33 271.02,785.54 304.83,785.54 252.09,908.34 382.27,908.34 371.11,934.33 "/>
   <path class="fil13" d="M215.74 785.54l32.56 0 -35.21 81.96c-4.85,11.3 -11.02,21.16 -18.48,29.58 -7.47,8.41 -16.5,15.37 -27.1,20.89 -10.6,5.52 -23,9.62 -37.2,12.31 -14.2,2.69 -30.58,4.04 -49.14,4.04 -18.38,0 -33.52,-1.35 -45.4,-4.04 -11.89,-2.69 -20.76,-6.8 -26.62,-12.31 -5.86,-5.52 -8.91,-12.48 -9.14,-20.89 -0.24,-8.41 2.07,-18.27 6.93,-29.58l35.21 -81.96 34.4 0 -35.21 81.96c-3.18,7.4 -4.72,13.73 -4.61,18.98 0.11,5.25 2.11,9.56 6.01,12.92 3.89,3.36 9.98,5.82 18.24,7.37 8.26,1.55 18.96,2.32 32.09,2.32 13.13,0 24.49,-0.77 34.09,-2.32 9.59,-1.55 17.78,-4 24.57,-7.37 6.79,-3.36 12.49,-7.67 17.11,-12.92 4.62,-5.25 8.52,-11.57 11.7,-18.98l35.21 -81.96z"/>
   <path class="fil5" style="mask:url(#id4)" d="M839.29 872.81c13.45,-0.88 26.99,-1.81 40.72,-2.81l57.93 -48.32 14.69 42.54c12.66,-1.09 25.43,-2.22 38.3,-3.41l-23.69 -66.99c-0.83,-2.56 -2.19,-4.58 -4.1,-6.06 -1.9,-1.48 -4.69,-2.22 -8.37,-2.22 -3.68,0 -7.14,0.74 -10.41,2.22 -3.26,1.48 -6.4,3.5 -9.43,6.06l-95.64 78.99z"/>
   <path class="fil5" style="mask:url(#id6)" d="M598.33 882.35c43.21,-0.78 88.22,-2.19 135.03,-4.3 3.6,-2.13 7.03,-4.49 10.28,-7.06 10.61,-8.39 18.59,-18.79 23.92,-31.21 3.58,-8.32 5.2,-15.83 4.88,-22.51 -0.32,-6.69 -2.49,-12.38 -6.5,-17.09 -4.01,-4.71 -9.83,-8.32 -17.44,-10.85 -7.61,-2.52 -16.92,-3.79 -27.92,-3.79l-138.97 0 -11.17 25.99c46.32,0 92.65,0 138.97,0 11.72,0 19.8,2.35 24.26,7.06 4.46,4.71 4.61,11.91 0.45,21.59 -4.16,9.69 -10.45,17.09 -18.86,22.2 -8.41,5.12 -18.74,7.68 -30.98,7.68l-80.67 0 -5.28 12.29z"/>
   <path class="fil5" style="mask:url(#id8)" d="M413.54 881.89c11.02,0.27 22.2,0.49 33.52,0.67l30.51 -71.03 73.48 0 11.16 -25.99 -180.77 0 -11.17 25.99 73.48 0 -30.22 70.36z"/>
   <path class="fil5" style="mask:url(#id10)" d="M233.38 873.19c10.72,0.78 21.72,1.51 32.85,2.22l38.6 -89.86 -33.81 0 -37.64 87.64z"/>
   <path class="fil5" style="mask:url(#id12)" d="M15.26 848.15c10.4,1.57 21.2,3.13 32.4,4.66l28.9 -67.27 -34.4 0 -26.89 62.61zm165.18 19.57c10.26,0.92 20.68,1.81 31.38,2.66 0.44,-0.95 0.86,-1.9 1.28,-2.87l35.21 -81.97 -32.56 0 -35.21 81.97 -0.09 0.21z"/>
   <polygon class="fil4" points="1830.64,869.66 1840.04,847.76 1947.33,847.76 1937.93,869.66 "/>
   <polygon class="fil4" points="1744.56,934.33 1808.46,785.54 1981.24,785.54 1970.08,811.53 1830.84,811.53 1789.26,908.34 1928.77,908.34 1917.6,934.33 "/>
   <path class="fil14" style="mask:url(#id14)" d="M1835.18 859.08c27.69,3.3 54.25,6.85 79.75,10.58l22.99 0 9.4 -21.9 -107.29 0 -4.86 11.32z"/>
   <path class="fil14" style="mask:url(#id16)" d="M1779.52 852.93c10.85,1.1 21.51,2.25 32.07,3.43l19.25 -44.83 139.24 0 11.16 -25.99 -172.78 0 -28.94 67.39z"/>
   <path class="fil4" d="M1602.01 826.93l-46.13 107.4 -31.78 0 57.23 -133.24c2.02,-4.71 5.16,-8.44 9.41,-11.2 4.25,-2.76 9,-4.14 14.25,-4.14 2.45,0 4.64,0.4 6.57,1.21 1.93,0.81 3.71,2.15 5.36,4.04l90.58 102.76 46.13 -107.4 31.78 0 -57.75 134.45c-2.08,4.85 -5.23,8.61 -9.45,11.3 -4.22,2.69 -8.78,4.04 -13.68,4.04 -5.43,0 -9.72,-1.82 -12.89,-5.45l-89.63 -103.77z"/>
   <path class="fil14" style="mask:url(#id18)" d="M1564.88 839.39c10.51,0.4 20.91,0.84 31.21,1.31l5.92 -13.78 12.67 14.67c16.77,0.87 33.22,1.85 49.43,2.93l-47.19 -53.53c-1.64,-1.88 -3.43,-3.23 -5.36,-4.04 -1.93,-0.81 -4.12,-1.21 -6.57,-1.21 -5.25,0 -10,1.38 -14.25,4.14 -4.25,2.76 -7.38,6.49 -9.41,11.2l-16.45 38.3zm161.74 9.85c10.33,0.88 20.51,1.81 30.59,2.76l28.2 -65.65 -31.78 0 -27.01 62.89z"/>
   <polygon class="fil4" points="1469.75,934.33 1533.66,785.54 1567.47,785.54 1503.56,934.33 "/>
   <path class="fil14" style="mask:url(#id20)" d="M1511.81 836.42c11.24,0.25 22.39,0.55 33.42,0.9l22.24 -51.78 -33.81 0 -21.85 50.88z"/>
   <polygon class="fil4" points="1260.66,934.33 1324.57,785.54 1358.24,785.54 1294.33,934.33 "/>
   <path class="fil14" style="mask:url(#id22)" d="M1302.3 837.38c11.45,-0.37 22.81,-0.7 34.09,-0.97l21.85 -50.87 -33.67 0 -22.27 51.83z"/>
   <polygon class="fil4" points="1414.95,934.33 1442.61,869.92 1345.57,869.92 1355.46,846.89 1452.5,846.89 1478.85,785.54 1512.53,785.54 1448.62,934.33 "/>
   <path class="fil14" style="mask:url(#id24)" d="M1457.46 835.36c11.26,0.09 22.44,0.22 33.5,0.4l21.57 -50.22 -33.68 0 -21.4 49.82z"/>
   <path class="fil4" d="M1036.61 934.33l11.16 -25.99 145.09 0c9.05,0 16.78,-1.77 23.18,-5.32 6.41,-3.55 10.87,-8.26 13.39,-14.12 2.75,-6.42 2.38,-11.22 -1.13,-14.43 -3.5,-3.21 -9.78,-4.81 -18.83,-4.81l-88.92 0c-9.05,0 -16.81,-1.06 -23.26,-3.17 -6.46,-2.11 -11.41,-5.05 -14.86,-8.8 -3.45,-3.75 -5.43,-8.22 -5.96,-13.41 -0.52,-5.18 0.53,-10.85 3.17,-16.99 2.58,-6 6.25,-11.56 11.02,-16.68 4.77,-5.11 10.48,-9.52 17.12,-13.2 6.64,-3.68 14.14,-6.58 22.5,-8.7 8.36,-2.11 17.34,-3.17 26.92,-3.17l89.87 0 -11.16 25.99 -89.87 0c-7.81,0 -14.53,1.6 -20.17,4.81 -5.64,3.21 -9.69,7.68 -12.15,13.4 -2.46,5.73 -2.19,10.16 0.81,13.3 3,3.14 8.23,4.71 15.68,4.71l88.65 0c19.7,0 33.13,3.55 40.29,10.64 7.16,7.1 7.63,17.87 1.42,32.33 -2.7,6.28 -6.43,12.08 -11.2,17.4 -4.77,5.32 -10.48,9.93 -17.12,13.82 -6.64,3.89 -14.2,6.92 -22.68,9.11 -8.48,2.18 -17.78,3.27 -27.9,3.27l-145.09 0z"/>
   <path class="fil14" style="mask:url(#id26)" d="M1078.28 851.32c15.78,-1.38 31.41,-2.66 46.91,-3.84 -4.82,-0.58 -8.37,-2.05 -10.64,-4.43 -3,-3.14 -3.27,-7.57 -0.81,-13.3 2.46,-5.73 6.51,-10.2 12.14,-13.41 5.64,-3.21 12.36,-4.81 20.17,-4.81l89.87 0 11.17 -25.99 -89.88 0c-9.58,0 -18.56,1.06 -26.92,3.17 -8.36,2.11 -15.86,5.01 -22.5,8.7 -6.64,3.68 -12.35,8.08 -17.12,13.2 -4.77,5.12 -8.44,10.67 -11.02,16.68 -2.64,6.14 -3.69,11.8 -3.17,16.99 0.25,2.51 0.85,4.86 1.79,7.04z"/>
   <path class="fil15" style="mask:url(#id28)" d="M750.4 1043.79l-0.51 0 -138.97 0 -0 -0 -16.22 -19.2 -0 0 0 0 2.17 0 0 0 2.17 0 0 0 2.17 0 0 0 2.17 0 0 0 2.17 0 2.17 0 0 0 2.17 0 0 0 2.17 0 2.17 0 0 0 2.17 0 0 0 2.17 0 2.17 0 2.17 0 0 0 2.17 0 0 0 2.17 0 2.17 0 0 0 2.17 0 0 0 2.17 0 2.17 0 0 0 2.17 0 0 0 2.17 0 2.17 0 0 0 2.17 0 0 0 2.17 0 2.17 0 2.17 0 0 0 2.17 0 0 0 2.17 0 2.17 0 0 0 2.17 0 0 0 2.17 0 2.17 0 0 0 2.17 0 0 0 2.17 0 2.17 0 0 0 2.17 0 0 0 2.17 0 2.17 0 0 0 2.17 0 0 0 2.17 0 0 0 2.17 0 2.17 0 0 0 2.17 0 0 0 2.17 0 2.17 0 0 0 2.17 0 0 0 2.17 0 2.17 0 0 0 2.17 0 0 0 2.17 0 2.17 0 0 0 2.17 0 0 0 2.17 0 0 0 2.17 0 0 0 2.17 0 0 0 2.17 0 0 0 2.17 0 0 0 2.17 0 0 0 2.17 0 0 0 2.17 0 0 0 2.17 0 0 0 2.17 0 0 0 2.17 0 0 0 2.17 0 0 0 0.54 0 0 0 0.54 -0 0 0 0.53 -0.01 0 0 0.53 -0.01 0 0 0.52 -0.01 0.51 -0.01 0 0 0.51 -0.02 0 0 0.5 -0.02 0 0 0.49 -0.02 0 0 0.49 -0.02 0.49 -0.03 0 0 0.48 -0.03 0 0 0.47 -0.03 0.46 -0.03 0 0 0.46 -0.04 0.46 -0.04 0.45 -0.04 0.44 -0.05 0.44 -0.05 0.43 -0.05 0.43 -0.05 0.42 -0.06 0.41 -0.06 0.41 -0.06 0.4 -0.06 0.4 -0.06 0.39 -0.07 0.38 -0.07 0 0 0.38 -0.07 0.37 -0.08 0 0 0.36 -0.08 0.36 -0.08 0.35 -0.08 0.35 -0.08 0 0 0.34 -0.09 0 0 0.33 -0.09 0.33 -0.09 0.32 -0.09 0 0 0.31 -0.1 0 0 0.31 -0.1 0 0 0.3 -0.1 0 0 0.3 -0.1 0.29 -0.11 0.29 -0.11 0.28 -0.11 0.28 -0.12 0.27 -0.12 0.26 -0.12 0 0 0.26 -0.12 0.25 -0.13 0.25 -0.13 0 0 0.24 -0.13 0.23 -0.13 0.23 -0.14 0 0 0.22 -0.14 0 0 0.22 -0.14 0.21 -0.14 0.2 -0.15 0 0 0.2 -0.15 0.19 -0.15 0.18 -0.15 0 0 0.18 -0.16 0.17 -0.16 0.17 -0.16 0.16 -0.17 0.16 -0.17 0.15 -0.17 0.14 -0.17 0.13 -0.18 0.13 -0.18 0.12 -0.18 0.11 -0.18 0.1 -0.19 0.1 -0.19 0.09 -0.19 0.08 -0.2 0.08 -0.19 0.07 -0.2 0.06 -0.2 0.06 -0.21 0.05 -0.21 0.04 -0.21 0.04 -0.21 0.03 -0.21 0.02 -0.22 0.02 -0.22 0.01 -0.22 0 -0.23 -0.01 -0.23 -0.01 -0.23 -0.02 -0.23 -0.03 -0.24 -0.04 -0.24 0 -0 -0.04 -0.24 -0.05 -0.24 0 -0 -0.05 -0.25 -0.06 -0.25 -0.07 -0.25 -0.08 -0.26 -0.08 -0.26 -0 0 -0.09 -0.26 -0.1 -0.26 -0.1 -0.27 -0.11 -0.27 -0 0 -0.12 -0.27 0 -0 -0.12 -0.27 -0 0 -0.13 -0.28 -0.14 -0.28 -0.15 -0.28 0 -0 -0.15 -0.28 -0.16 -0.29 -0 0 -0.17 -0.29 -0.36 -0.59 0 -0 -0.38 -0.6 -0.2 -0.31 -0.21 -0.31 -0 0 -0.44 -0.62 0 -0 -0.47 -0.63 0 -0c-0.48,-0.64 -1.01,-1.29 -1.58,-1.96 -0.38,-0.45 -0.76,-0.89 -1.15,-1.32l-0 0c-0.39,-0.43 -0.78,-0.86 -1.19,-1.28l-0 0c-0.41,-0.42 -0.81,-0.83 -1.23,-1.24l0 -0 -0.63 -0.6 -0 0 -0.31 -0.3 -0 0 -0.64 -0.59 -0 0 -0.32 -0.29 -0 0 -0.99 -0.86 -0.33 -0.28 -0 0 -0.68 -0.56 -0 0 -0.34 -0.28 -0.69 -0.54 -0 0 -0.7 -0.53 -0 0 -0.36 -0.26 -0 0 -0.36 -0.26 -0 0 -0.36 -0.26 -0.36 -0.26 -0 0 -0.36 -0.25 -0.74 -0.5 -0.37 -0.25 -0.38 -0.24 -0.38 -0.24 -0.38 -0.24 -0.38 -0.23 -0.38 -0.23 -0 0 -0.38 -0.23 -0.39 -0.23 -0 0 -0.39 -0.23 -0.39 -0.22 -0.4 -0.22 -0.4 -0.22 -0 0 -0.4 -0.22 -0.41 -0.21 -0.41 -0.21 -0.41 -0.21 -0.41 -0.21 -0.41 -0.2 -0.42 -0.2 -0.42 -0.2 -0.43 -0.19 -0.42 -0.2 -0.43 -0.19 0 -0 -0.43 -0.19 -0.43 -0.19 -0.44 -0.18 -0.44 -0.18 -0.44 -0.18c-9.4,-3.78 -20.23,-5.67 -32.48,-5.67l-80.67 0 -0 0 -7.67 -9.08 -6.64 -7.85 72.41 0 23.19 -30.55 47.92 0 -30.08 33.42c10.32,1.89 20.01,4.61 29.06,8.16l0 0 0.19 0.07 0.18 0.08 0.03 0.01 0.16 0.06 0.19 0.08 0.19 0.07 0.07 0.03 0.12 0.05 0.19 0.08 0.19 0.08 0.12 0.05 0.26 0.1 0.19 0.08 0.16 0.07 0.02 0.01 0.18 0.08 0.18 0.08 0.19 0.08 0.03 0.01 0.16 0.07 0.19 0.08 0.18 0.08 0.08 0.03 0.11 0.04 0.18 0.08 0.18 0.08 0.12 0.05 0.06 0.03 0.19 0.08 0.18 0.08 0.17 0.07 0.02 0.01 0.18 0.08 0.18 0.08 0.18 0.08 0.03 0.01 0.15 0.07 0.18 0.08 0.18 0.08 0.08 0.04 0.1 0.05 0.18 0.08 0.18 0.08 0.13 0.05 0.06 0.03 0.18 0.08 0.18 0.08 0.17 0.08 0.01 0.01 0.18 0.08 0.18 0.08 0.18 0.08 0.04 0.02 0.15 0.06 0.36 0.17 0.08 0.04 0.1 0.04 0.18 0.08 0.18 0.09 0.13 0.06 0.05 0.03 0.18 0.08 0.18 0.09 0.17 0.08 0 0 0.18 0.08 0.18 0.09 0.18 0.09 0.04 0.02 0.14 0.07 0.18 0.09 0.18 0.09 0.09 0.04 0.09 0.04 0.18 0.09 0.18 0.09 0.13 0.07 0.05 0.03 0.18 0.09 0.18 0.09 0.18 0.09 0.57 0.29 0.57 0.3 0 0 0.56 0.3 0.56 0.3 0.56 0.3 0.56 0.31 0.55 0.3 0.55 0.31 0.54 0.31 0 0 0.54 0.31 0 0 0.54 0.31 0 0 0.53 0.32 0.53 0.32 0 0 0.53 0.32 0 0 0.52 0.32 0 0 0.52 0.32 0 0 0.52 0.33 0.51 0.33 0 0 0.51 0.33 0.51 0.33 0.51 0.33 0 0 0.5 0.34 0 0 0.5 0.34 0 0 0.5 0.34 0.49 0.34 0.49 0.35 0 0 0.49 0.35 0 0 0.48 0.35 0 0 0.48 0.35 0.48 0.35 0.47 0.36 0 0 0.47 0.36 0 0 0.46 0.36 0 0 0.46 0.36 0.46 0.37 0.46 0.37 0 0 0.45 0.37 0 0 0.45 0.37 0 0 0.45 0.38 0.44 0.38 0.44 0.38 0 0 0.44 0.38 0 0 0.43 0.38 0 0 0.43 0.38 0.43 0.39 0.42 0.39 0 0 0.42 0.39 0.41 0.39 0 0 0.41 0.4 0 0 0.41 0.4 0 0 0.41 0.4 0 0 0.4 0.4 0.4 0.41 0 0 0.39 0.41 0 0 0.39 0.41 0 0 0.39 0.41 0.39 0.41 0.38 0.42 0.38 0.42 0.38 0.42 0.38 0.42 0.37 0.43 0 0 0.37 0.43 0.36 0.43 0.24 0.29 0.24 0.29 0.23 0.28 0 0 0.23 0.28 0.23 0.28 0.23 0.28 0.22 0.28 0.22 0.28 0.22 0.28 0.21 0.28 0.21 0.28 0.21 0.28 0.21 0.28 0.2 0.28 0 0 0.2 0.28 0.2 0.27 0 0 0.19 0.28 0 0 0.19 0.27 0.19 0.27 0.18 0.27 0 0 0.18 0.27 0 0 0.18 0.27 0.17 0.27 0 0 0.17 0.27 0.17 0.27 0.16 0.26 0 0 0.16 0.26 0.16 0.26 0.15 0.26 0.15 0.26 0 0 0.15 0.26 0.14 0.26 0.14 0.26 0 0 0.14 0.26 0 0 0.13 0.26 0 0 0.13 0.26 0 0 0.13 0.26 0.13 0.26 0.12 0.26 0.12 0.25 0 0 0.12 0.25 0.11 0.25 0.11 0.25 0.11 0.25 0 0 0.1 0.25 0.1 0.25 0.1 0.25 0.1 0.25 0 0 0.09 0.24 0.09 0.25 0.09 0.24 0.08 0.24 0 0 0.08 0.24 0.08 0.24 0.07 0.24 0.07 0.24 0.07 0.24 0.07 0.23 0.06 0.24 0.06 0.23 0.06 0.23 0.05 0.23 0.05 0.23 0.05 0.23c0.98,4.94 -0.08,9.15 -3.18,12.63 -3.1,3.48 -8.21,6.15 -15.33,8.02l-0.33 0.09 -0.34 0.08 -0.34 0.08 -0.34 0.08 -0.35 0.08 -0.35 0.08 -0.35 0.08 -0.36 0.08 -0.36 0.08 -0.36 0.07 -0.36 0.07 0 0 -0.37 0.07 -0.37 0.07 -0.37 0.07 0 0 -0.37 0.06 -0.38 0.07 -0.38 0.07 -0.38 0.06 -0.39 0.06 -0.39 0.06 -0.39 0.06 -0.39 0.06 -0.4 0.05 0 0 -0.4 0.05 -0 0 -0.4 0.05 0 0 -0.41 0.05 0 0 -0.41 0.05 -0.83 0.1 -0.84 0.09 -0.85 0.09 -0.43 0.04 -0 0 -0.43 0.04 -0.43 0.04 -0 0 -0.88 0.08 -0.44 0.03 0 0 -0.44 0.03 -0 0 -1.35 0.09 0 0 -0.46 0.02 0 0 -0.46 0.03 0 0 -0.46 0.02 0 0 -0.47 0.02 0 0 -1.89 0.08 0 0 -0.48 0.01 0 0 -1.46 0.04 0 0 -0.99 0.02 0 0 -0.49 0 0 0 -0.5 0.01 0 0 -0.5 0 0 0 -0.51 0 0 0 -0.51 0 0 0 -0.51 0z"/>
   <polygon class="fil16" style="mask:url(#id30)" points="591.51,1043.79 591.51,1043.8 410.75,1043.8 394.52,1024.59 468,1024.59 391.37,933.85 425.18,933.85 501.81,1024.59 575.29,1024.59 591.51,1043.79 "/>
   <polygon class="fil17" style="mask:url(#id32)" points="334.13,1043.79 334.13,1043.8 300.32,1043.8 300.32,1043.79 274.83,1013.61 245.62,979.03 207.47,933.85 371.46,933.85 387.68,953.06 257.5,953.06 278.05,977.39 "/>
   <path class="fil18" style="mask:url(#id34)" d="M105.85 1043.79l0 0 -34.4 0 0 -0 -39.08 -46.26 -12.08 -14.3c-7.05,-8.35 -11.28,-15.64 -12.68,-21.85 -1.4,-6.21 0.29,-11.36 5.08,-15.44 4.79,-4.08 12.86,-7.11 24.22,-9.1 11.36,-1.99 26.24,-2.98 44.62,-2.98 18.56,0 35.2,0.99 49.92,2.98 14.73,1.99 27.92,5.02 39.59,9.1 11.67,4.08 22.06,9.23 31.16,15.44 8.73,5.97 16.53,12.92 23.38,20.85l0.03 0.03 0.23 0.27 0.03 0.03 0.03 0.04 0.03 0.03 0.06 0.06 0.03 0.03 0.03 0.03 0.03 0.03 0.04 0.04 0.02 0.03 0.03 0.03 0.03 0.03 0.03 0.03 0.03 0.04 0.03 0.03 0.03 0.03 0.03 0.03 0.03 0.03 0.03 0.04 0.03 0.03 0.03 0.03 51.15 60.56 -0 0 0 0 -32.56 0 0 -0 -51.15 -60.56 -0 0 -0.13 -0.16c-4.59,-5.4 -9.67,-10.02 -15.25,-13.86 -5.64,-3.88 -12.18,-7.06 -19.62,-9.55 -7.44,-2.49 -16.11,-4.3 -26,-5.44 -9.9,-1.14 -21.41,-1.72 -34.54,-1.72 -13.13,0 -23.68,0.57 -31.64,1.72 -7.96,1.14 -13.56,2.96 -16.8,5.44 -3.24,2.49 -4.4,5.67 -3.49,9.55 0.91,3.88 3.68,8.55 8.3,14.02l9.17 10.86 41.98 49.71z"/>
   <polygon class="fil7" style="mask:url(#id36)" points="1843.57,981.64 1850.17,989.46 1857.24,997.82 1964.53,997.82 1964.53,997.82 1950.86,981.64 1927.87,981.64 "/>
   <polygon class="fil7" style="mask:url(#id38)" points="2010.54,1043.79 2010.55,1043.8 1837.76,1043.8 1795.71,994 1744.91,933.85 1917.95,933.85 1934.18,953.06 1794.67,953.06 1827.11,991.47 1855.08,1024.59 1855.09,1024.59 1994.32,1024.59 1994.32,1024.59 "/>
   <polygon class="fil7" style="mask:url(#id40)" points="1586.1,1006.83 1583.71,1004.01 "/>
   <path class="fil7" style="mask:url(#id42)" d="M1635.16 1043.63l-0.9 0.01 -0.25 -0 -0.24 0 -0 -0 -0.24 0 -0 -0 -0.24 -0 -0 -0 -0.24 -0 -0 -0 -0.24 -0 -0 -0 -0.24 -0.01 -0 -0 -0.24 -0.01 -0 -0 -0.24 -0.01 -0 -0 -0.24 -0.01 -0 -0 -0.24 -0.01 -0 -0 -0.24 -0.01 -0 -0 -0.24 -0.02 -0 -0 -0.24 -0.02 -0 0 -0.24 -0.02 -0 -0 -0.24 -0.02 -0 -0 -0.23 -0.02 -0 -0 -0.24 -0.02 -0 -0 -0.24 -0.03 -0 0 -0.24 -0.03 -0 -0 -0.23 -0.03 -0 -0 -0.24 -0.03 0 -0 -0.24 -0.03 0 -0 -0.23 -0.03 -0 -0 -0.24 -0.04 -0 0 -0.24 -0.03 -0 -0 -0.23 -0.04 -0 -0 -0.24 -0.04 -0 -0 -0.23 -0.04 -0 -0 -0.23 -0.04 -0 0 -0.23 -0.04 -0 -0 -0.23 -0.05 -0 -0 -0.23 -0.05 -0 -0 -0.23 -0.05 -0 -0 -0.23 -0.05 -0 -0 -0.23 -0.05 -0.23 -0.05 -0 -0 -0.23 -0.05 -0 0 -0.23 -0.06 -0 0 -0.23 -0.06 -0 -0 -0.23 -0.06 -0 -0 -0.23 -0.06 -0.23 -0.06 -0 0 -0.23 -0.07 -0.23 -0.07 -0.23 -0.07 -0 0 -0.23 -0.07 -0 0 -0.23 -0.07 -0 0 -0.23 -0.08 -0.23 -0.07 -0 0 -0.23 -0.08 -0 0 -0.23 -0.08 -0 0 -0.23 -0.08 -0.23 -0.08 -0.23 -0.08 -0.23 -0.08 -0.23 -0.08 0 -0 -0.22 -0.08 -0 0 -0.23 -0.09 -0.23 -0.09 -0 0 -0.23 -0.09 -0.22 -0.09 -0.23 -0.09 -0.23 -0.1 -0.22 -0.1 -0.22 -0.1 -0.22 -0.1 -0.22 -0.1 -0 0 -0.22 -0.1 -0.22 -0.1 -0.22 -0.1 -0.21 -0.1 -0.21 -0.1 -0.21 -0.1 -0.21 -0.11 -0 0 -0.21 -0.11 -0.21 -0.11 -0 0 -0.2 -0.11 -0 -0 -0.2 -0.11 -0 0 -0.2 -0.11 -0 0 -0.2 -0.11 -0 0 -0.2 -0.12 -0 0 -0.2 -0.11 -0 0 -0.2 -0.12 -0 0 -0.19 -0.12 -0 0 -0.19 -0.12 -0 0 -0.19 -0.12 -0 -0 -0.19 -0.12 -0 -0 -0.19 -0.12 -0 0 -0.19 -0.12 -0 -0 -0.19 -0.12 -0 -0 -0.18 -0.13 -0 0 -0.18 -0.13 -0 0 -0.18 -0.13 -0 0 -0.18 -0.13 -0 0 -0.18 -0.13 -0 0 -0.18 -0.13 -0 0 -0.18 -0.13 -0.18 -0.13 -0 0 -0.18 -0.13 0 -0 -0.18 -0.13 0 -0 -0.17 -0.13 -0 0 -0.17 -0.13 0 -0 -0.17 -0.13 -0 -0 -0.17 -0.14 -0 0 -0.17 -0.14 -0.17 -0.14 -0.16 -0.14 -0.16 -0.14 -0.16 -0.14 -0 0 -0.16 -0.15 -0.16 -0.15 -0.16 -0.14 0 -0 -0.15 -0.14 0 -0 -0.16 -0.15 -0.31 -0.3 -0 0 -0.15 -0.15 -0.15 -0.15 -0.15 -0.15 -0 0 -0.15 -0.15 -0 0 -0.15 -0.16 -0.15 -0.15 -0.14 -0.16 -0 0 -0.14 -0.16 -0 0 -0.14 -0.16 -0.14 -0.16 -0.14 -0.16 -21.51 -25.48 -61.64 -72.98 31.77 0 67.03 79.36 69.44 -76.67c2.46,-2.69 6.4,-4.03 11.83,-4.03 4.9,0 9.73,0.99 14.47,2.98 4.74,1.99 8.63,4.77 11.65,8.35l83.91 99.35 -31.78 0 -67.02 -79.36 -70.59 75.93c-1.28,1.39 -2.8,2.39 -4.57,2.98l-0.08 0.03 -0.08 0.03 -0.09 0.03 -0.08 0.03 -0.08 0.02 -0.08 0.03 -0.09 0.03 -0.09 0.03 -0.09 0.03 -0.09 0.03 -0.09 0.02 -0.09 0.03 -0.09 0.02 -0.09 0.02 -0.09 0.02 -0.09 0.02 0 0 -0.09 0.02 -0.09 0.02 -0 0 -0.09 0.02 -0.09 0.02 -0.09 0.02 -0.09 0.02 -0.1 0.02 0 0 -0.09 0.02 -0.1 0.02 -0.1 0.02 0 0 -0.1 0.01 0 0 -0.1 0.01 -0.1 0.02 -0.1 0.01 0 0 -0.1 0.01 0 0 -0.1 0.01 -0.1 0.01 -0.1 0.01 0 0 -0.1 0.01 0 0 -0.1 0.01 -0.1 0.01 0 0 -0.1 0.01 0 0 -0.1 0.01 0 0 -0.1 0.01 0 0 -0.1 0.01 0 0 -0.1 0.01 -0.1 0.01 0 0 -0.21 0.01 0 0 -0.1 0.01 0 0 -0.11 0 0 0 -0.1 0.01 0 0 -0.11 0 0 0 -0.22 0.01 -0.11 0.01 -0 0 -0.44 0.02 0 0z"/>
   <path class="fil7" style="mask:url(#id44)" d="M1583.71 1004.01c10.43,-0.29 20.74,-0.62 30.95,-0.97l-30.95 0.97z"/>
   <polygon class="fil7" style="mask:url(#id46)" points="1531.21,1006.2 1531.21,1006.2 1470.11,933.85 1503.92,933.85 1588.18,1033.62 1596.77,1043.8 1562.96,1043.8 "/>
   <polygon class="fil7" style="mask:url(#id48)" points="1321.52,1005.49 1321.52,1005.49 1261.01,933.85 1294.68,933.85 1387.54,1043.79 1387.54,1043.79 1387.54,1043.8 1353.87,1043.8 "/>
   <polygon class="fil7" style="mask:url(#id50)" points="1541.83,1043.79 1541.83,1043.8 1508.16,1043.8 1508.15,1043.79 1477.07,1006.98 1469.87,998.46 1372.83,998.46 1358.46,981.45 1455.49,981.45 1415.3,933.85 1448.97,933.85 1541.83,1043.79 "/>
   <path class="fil7" style="mask:url(#id52)" d="M1260.18 1024.59l16.22 19.21 -89.88 0 -0.45 -0 -0.44 0 -0 -0 -0.45 0 -0 -0 -0.44 0 -0 -0 -0.44 -0 -0 -0 -0.44 -0.01 -0 0 -0.44 -0 -0 -0 -0.44 -0.01 0 -0 -0.44 -0.01 -0 -0 -0.44 -0.01 0 -0 -0.44 -0.01 -0 -0 -0.44 -0.01 -0 -0 -0.44 -0.01 -0 -0 -0.44 -0.01 -0 -0 -0.44 -0.01 -0 -0 -0.44 -0.01 -0 -0 -0.44 -0.02 -0 -0 -0.44 -0.02 -0 0 -0.44 -0.02 -0 -0 -0.44 -0.02 0 -0 -0.44 -0.02 -0 -0 -0.43 -0.02 -0 -0 -0.43 -0.02 -0 -0 -0.43 -0.02 -0 -0 -0.43 -0.02 -0 -0 -0.43 -0.03 -0 -0 -0.44 -0.03 0 -0 -0.43 -0.03 -0.43 -0.03 -0 0 -0.43 -0.03 -0 -0 -0.43 -0.03 -0 0 -0.43 -0.03 -0 0 -0.43 -0.04 -0 -0 -0.43 -0.04 -0 -0 -0.43 -0.04 -0.43 -0.04 -0.43 -0.04 -0.43 -0.04 0 -0 -0.42 -0.04 -0 -0 -0.42 -0.04 0 -0 -0.43 -0.04 -0.42 -0.05 0 -0 -0.43 -0.05 0 -0 -0.42 -0.05 0 -0 -0.42 -0.05 -0.42 -0.05 -0.42 -0.05 0 -0 -0.42 -0.05 0 -0 -0.42 -0.05 0 -0 -0.42 -0.05 -0.42 -0.06 0 -0 -0.42 -0.06 0 -0 -0.42 -0.06 0 -0 -0.42 -0.06 -0.42 -0.06 0 -0 -0.42 -0.06 -0.41 -0.06 0 -0 -0.41 -0.06 0 -0 -0.41 -0.07 -0.41 -0.06 0 -0 -0.41 -0.07 0 -0 -0.41 -0.07 0 -0 -0.41 -0.07 0 -0 -0.41 -0.07 0 -0 -0.41 -0.07 0 -0 -0.41 -0.07 0 -0 -0.41 -0.07 -0.41 -0.08 0 -0 -0.41 -0.07 0 -0 -0.41 -0.08 0 -0 -0.41 -0.08 -0.4 -0.08 -0.4 -0.08 0 -0 -0.4 -0.08 -0.4 -0.08 -0.4 -0.08 0 -0 -0.4 -0.08 -0.4 -0.08 -0.4 -0.08 -0.4 -0.08 0 -0 -0.39 -0.08 -0.39 -0.09 0 -0 -0.39 -0.09 -0.39 -0.09 -0.39 -0.09 -0.39 -0.09 -0.39 -0.09 -0.39 -0.09 -0.39 -0.09 -0.38 -0.1 -0.38 -0.1 -0.38 -0.1 -0.38 -0.1 -0.38 -0.1 0 -0 -0.38 -0.1 -0.38 -0.1 -0.38 -0.1 -0.37 -0.1 -0.38 -0.1 0 -0 -0.38 -0.1 0 -0 -0.37 -0.1 0 -0 -0.37 -0.1 -0.74 -0.21 0 -0 -0.37 -0.11 -0.37 -0.11 0 -0 -0.37 -0.11 -0.36 -0.11 0 -0 -0.37 -0.11 -0.36 -0.11 -0.36 -0.11 -0.36 -0.11 0 -0 -0.36 -0.11 -0.36 -0.12 0 -0 -0.36 -0.11 -0.36 -0.12 0 -0 -0.36 -0.12 0 -0 -0.36 -0.12 -0.36 -0.12 -0 -0 -0.35 -0.12 -0 0 -0.35 -0.12 0 -0 -0.35 -0.12 -0 0 -0.35 -0.12 -0 0 -0.35 -0.13 -0.35 -0.13 -0 0 -0.34 -0.12 0 -0 -0.35 -0.13 -0 0 -0.34 -0.13 -0 0 -0.34 -0.13 -0 0 -0.34 -0.13 -0 0 -0.34 -0.13 -0 0 -0.34 -0.13 -0 0 -0.34 -0.13 -0 0 -0.33 -0.13 -0 0 -0.33 -0.13 -0 0 -0.33 -0.13 -0 0 -0.33 -0.13 -0 0 -0.33 -0.14 -0 0 -0.33 -0.13 -0 0 -0.33 -0.14 -0 0 -0.33 -0.14 -0 0 -0.33 -0.14 -0 0 -0.33 -0.14 -0 0 -0.32 -0.14 -0 0 -0.32 -0.14 -0 0 -0.32 -0.14 -0 0 -0.64 -0.29 -0 0 -0.32 -0.14 -0 0 -0.95 -0.44 -0 0 -0.31 -0.15 -0 0 -0.31 -0.15 -0 0 -0.31 -0.15 -0 0 -0.31 -0.15 -0 0 -0.31 -0.15 -0 0 -0.31 -0.15 -0 0 -0.31 -0.15 -0 0 -0.62 -0.31 -0 0 -0.3 -0.15 -0 0 -0.61 -0.31 -0 0 -0.3 -0.16 -0 0 -0.3 -0.15 -0 0 -0.3 -0.16 -0 0 -0.29 -0.16 -0 0 -0.3 -0.16 -0 0 -0.29 -0.16 -0 0 -0.29 -0.16 -0 0 -0.29 -0.16 -0 0 -0.29 -0.16 -0 0 -0.29 -0.17 -0 0 -0.29 -0.16 -0 0 -0.29 -0.17 -0 0 -0.28 -0.17 -0 0 -0.28 -0.16 -0 0 -0.28 -0.17 -0 0 -0.28 -0.17 -0 0 -0.28 -0.17 -0 -0 -0.28 -0.17 -0 0 -0.28 -0.17 -0 0 -0.28 -0.17 -0 -0 -0.27 -0.17 -0 0 -0.28 -0.17 -0 -0 -0.28 -0.17 -0 0 -0.27 -0.17 -0 -0 -0.27 -0.17 -0 -0 -0.27 -0.17 -0 -0 -0.27 -0.18 -0 0 -0.27 -0.18 -0 -0 -0.27 -0.17 -0 -0 -0.27 -0.18 -0 -0 -0.26 -0.18 -0 -0 -0.26 -0.18 -0 -0 -0.26 -0.18 -0 -0 -0.26 -0.18 -0 0 -0.26 -0.18 -0 -0 -0.26 -0.18 -0 -0 -0.26 -0.18 -0 0 -0.26 -0.18 -0 -0 -0.25 -0.18 -0 0 -0.25 -0.18 -0 -0 -0.25 -0.18 -0 -0 -0.25 -0.18 -0 -0 -0.25 -0.18 -0 -0 -0.24 -0.18 -0 0 -0.24 -0.18 -0 -0 -0.24 -0.18 -0 -0 -0.24 -0.18 -0 -0 -0.24 -0.18 -0 -0 -0.24 -0.19 -0.24 -0.19 -0.23 -0.19 -0 0 -0.23 -0.19 -0 -0 -0.23 -0.19 0 -0 -0.23 -0.19 -0 0 -0.23 -0.19 -0.23 -0.19 0 -0 -0.23 -0.19 -0.22 -0.19 -0 0 -0.23 -0.19 -0.22 -0.19 -0 0 -0.22 -0.19 -0 -0 -0.22 -0.19 -0.22 -0.2 -0.22 -0.19 -0 0 -0.21 -0.2 -0 0 -0.21 -0.19 -0.21 -0.2 -0 0 -0.21 -0.2 -0.21 -0.2 -0.21 -0.2 -0.21 -0.2 -0 0 -0.21 -0.2 -0.2 -0.2 -0 0 -0.2 -0.2 -0 0 -0.2 -0.2 -0.2 -0.2 -0.2 -0.2 -0 0 -0.19 -0.2 -0 0 -0.19 -0.2 -0 0 -0.19 -0.2 -0 0 -0.19 -0.2 -0.19 -0.2 -0 0 -0.18 -0.2 -0 0 -0.18 -0.21 -0 0 -0.18 -0.2 -0 0 -0.18 -0.21 -0 0 -0.18 -0.21 -0 0 -0.18 -0.21 -0 0 -0.18 -0.21 -0 0 -0.18 -0.21 -0 0 -0.18 -0.21 -0 0 -0.17 -0.21 -0 0 -0.18 -0.21 -0 0 -0.17 -0.21 -0 0 -0.17 -0.21 -0 0 -0.17 -0.21 -0 0 -0.17 -0.21 -0.17 -0.21 -0 0 -0.16 -0.21 -0 0 -0.16 -0.21 -0 0 -0.15 -0.21 -0 0 -0.15 -0.21 -0 0 -0.15 -0.21 -0 0 -0.15 -0.21 -0 0 -0.15 -0.21 -0.14 -0.21 -0 0 -0.14 -0.21 -0.14 -0.2 -0.14 -0.21 -0 0 -0.13 -0.2 -0 0 -0.13 -0.2 -0 0 -0.13 -0.2 -0 0 -0.13 -0.2 -0.13 -0.2 -0.12 -0.2 -0 0 -0.12 -0.2 -0.12 -0.2 -0 0 -0.12 -0.2 -0.11 -0.2 -0.11 -0.2 -0.11 -0.2 -0.11 -0.2 -0.1 -0.2 -0 0 -0.1 -0.19 -0.1 -0.2 -0.1 -0.19 -0.09 -0.19 -0 0 -0.09 -0.2 -0.09 -0.19 -0.09 -0.19 -0.08 -0.2 -0.08 -0.19 -0.08 -0.19 -0.08 -0.19 -0.08 -0.19 -0.07 -0.19 -0.07 -0.19 -0.07 -0.19 -0.07 -0.19 -0.06 -0.19 -0.06 -0.19 -0.06 -0.18 -0.06 -0.19 -0.05 -0.19 -0.05 -0.19 -0.05 -0.18 -0.05 -0.19 -0.04 -0.18 -0.04 -0.18 -0.04 -0.18 -0.04 -0.18 -0.04 -0.18 -0.03 -0.18 -0.03 -0.18 -0.03 -0.18 -0.03 -0.18 -0.01 -0.09 -0.01 -0.09 0 -0 -0.01 -0.08 -0.01 -0.09 0 -0.01 -0.01 -0.08 -0.01 -0.09 0 -0.01 -0 -0.07 -0.01 -0.09 0 -0.02 -0 -0.07 -0.01 -0.08 -0 -0.03 -0 -0.06 -0.01 -0.08 0 -0.03 -0 -0.05 -0 -0.09 0 -0.03 -0 -0.05 -0 -0.08 0 -0.04 0 -0.04 -0 -0.09 0 -0.04 0 -0.04 0 -0.08 0 -0.05 0 -0.03 0 -0.08 0 -0.05 0 -0.03 0 -0.08 0 -0.06 0 -0.03 0 -0.08 0 -0.06 0 -0.02 0 -0.08 0.01 -0.07 0 -0.01 0 -0.08 0.01 -0.07 0 -0.01 0 -0.08 0.01 -0.08 0 -0 0.01 -0.08 0.01 -0.08 0.01 -0.08 0.01 -0.08 0 -0.01 0.01 -0.07 0.01 -0.08 0 -0.01 0.01 -0.07 0.01 -0.08 0 -0.02 0.01 -0.06 0.01 -0.08 0 -0.02 0.01 -0.06 0.01 -0.08 0 -0.03 0.01 -0.05 0.01 -0.08 0 -0.03 0.01 -0.05 0.02 -0.08 0.01 -0.03 0.01 -0.04 0.02 -0.08 0.01 -0.04 0.01 -0.04 0.02 -0.08 0.01 -0.04 0.01 -0.03 0.02 -0.08 0.01 -0.05 0.01 -0.03 0.02 -0.08 0.01 -0.05 0.01 -0.03 0.02 -0.08 0.02 -0.05 0.01 -0.02 0.02 -0.08 0.02 -0.06 0 -0.02 0.02 -0.07 0.02 -0.07 0 -0.01c0.55,-1.71 1.52,-3.27 2.92,-4.7 2.72,-2.77 7.1,-4.94 13.15,-6.5 6.05,-1.56 13.59,-2.34 22.65,-2.34l88.92 0c9.05,0 15.02,-1.18 17.9,-3.55 2.88,-2.37 2.32,-5.92 -1.68,-10.66 -3.66,-4.34 -9.04,-7.81 -16.14,-10.44 -7.09,-2.62 -15.17,-3.93 -24.22,-3.93l-145.09 0 -16.22 -19.21 145.09 0c10.12,0 19.63,0.81 28.53,2.42 8.9,1.62 17.06,3.86 24.45,6.73 7.39,2.87 14,6.28 19.8,10.21 5.8,3.93 10.67,8.22 14.58,12.86 9.03,10.68 10.65,18.65 4.87,23.89 -5.78,5.24 -18.52,7.86 -38.22,7.86l-88.65 0c-1.81,0 -3.47,0.07 -4.98,0.21l-0.13 0.01 -0.09 0.01 -0.2 0.02 -0.02 0 -0.21 0.03 -0.05 0 -0.16 0.02 -0.12 0.01 -0.09 0.01 -0.18 0.02 -0.03 0 -0.21 0.03 -0.04 0 -0.16 0.02 -0.1 0.01 -0.1 0.01 -0.17 0.02 -0.03 0.01 -0.2 0.03 -0.03 0 -0.16 0.03 -0.1 0.02 -0.1 0.02 -0.15 0.03 -0.04 0.01 -0.19 0.04 -0.03 0 -0.16 0.03 -0.08 0.02 -0.1 0.02 -0.14 0.03 -0.04 0.01 -0.18 0.04 -0.02 0 -0.16 0.03 -0.07 0.02 -0.1 0.02 -0.13 0.03 -0.05 0.01 -0.17 0.04 -0.01 0 -0.16 0.04 -0.06 0.01 -0.1 0.03 -0.12 0.03 -0.05 0.01 -0.17 0.05 -0 0 -0.16 0.05 -0.05 0.01 -0.11 0.03 -0.1 0.03 -0.05 0.02 -0.15 0.05 -0 0 -0.15 0.05 -0.05 0.01 -0.11 0.03 -0.09 0.03 -0.06 0.02 -0.14 0.05 -0.01 0 -0.15 0.05 -0.04 0.01 -0.11 0.04 -0.08 0.03 -0.06 0.03 -0.13 0.05 -0.01 0.01 -0.14 0.06 -0.03 0.01 -0.1 0.05 -0.13 0.06 -0.11 0.05 -0.02 0.01 -0.13 0.06 -0.03 0.01 -0.1 0.05 -0.06 0.03 -0.06 0.03 -0.1 0.05 -0.02 0.01 -0.12 0.07 -0.02 0.01 -0.1 0.06 -0.05 0.03 -0.06 0.04 -0.09 0.05 -0.02 0.02 -0.11 0.07 -0.01 0 -0.1 0.07 -0.05 0.03 -0.06 0.04 -0.08 0.05 -0.03 0.02 -0.1 0.07 -0 0 -0.09 0.07 -0.17 0.13 -0.03 0.02 -0.09 0.08 -0 0 -0.09 0.08 -0.03 0.03 -0.06 0.05 -0.06 0.05 -0.03 0.03 -0.08 0.08 0 0 -0.11 0.11 0 0 -0.11 0.11 0 0 -0.1 0.11 0 0 -0.1 0.11 0 0 -0.09 0.11 -0.09 0.12 0 0 -0.08 0.12 0 0 -0.08 0.12 -0.08 0.12 -0.07 0.12 0 0 -0.07 0.12 0 0 -0.06 0.12 -0.06 0.13 -0.05 0.13 0 0 -0.05 0.13 -0.04 0.13 0 0 -0.04 0.13 0 0 -0.04 0.13 -0.03 0.13 -0.03 0.14 -0.02 0.14 -0.02 0.14 0 0 -0.01 0.14 -0.01 0.14 0 0 -0 0.14 0 0.14 0 0.15 0.01 0.15 0.01 0.15 0.02 0.15 0.02 0.15 0.03 0.15 0 0 0.03 0.15 0.03 0.16 0.04 0.15 0.04 0.16 0.05 0.16 0.05 0.16 0.06 0.16 0.06 0.16 0.07 0.17 0.07 0.17 0 0 0.07 0.17 0.08 0.17 0.08 0.17 0.09 0.17 0.09 0.18 0.1 0.18 0.1 0.18 0.1 0.18 0.11 0.18 0.11 0.18 0.12 0.18 0.12 0.18 0.13 0.19 0.13 0.19 0.13 0.19 0.14 0.19 0.14 0.19 0.15 0.19 0.15 0.19 0.16 0.2 0.16 0.2 0.16 0.2 0.17 0.2 0.17 0.2 0.17 0.2 0.17 0.19 0.18 0.19 0.18 0.19 0.18 0.19 0.18 0.18 0.19 0.19 0.18 0.18 0.19 0.19 0.19 0.18 0.19 0.18 0.19 0.18 0.19 0.18 0.2 0.18 0.2 0.18 0.2 0.18 0.21 0.17 0.21 0.17 0.21 0.17 0.21 0.17 0.21 0.17 0.21 0.17 0.22 0.16 0.22 0.16 0.22 0.16 0.22 0.16 0 0 0.22 0.16 0.23 0.16 0 0 0.23 0.15 0.23 0.15 0 0 0.23 0.15 0.23 0.15 0.23 0.15 0.24 0.15 0.24 0.15 0.24 0.15 0.24 0.14 0 0 0.25 0.14 0.25 0.14 0 0 0.25 0.14 0.25 0.14 0 0 0.25 0.14 0.26 0.14 0 0 0.26 0.13 0.26 0.13 0 0 0.26 0.13 0 0 0.26 0.13 0 0 0.26 0.13 0 0 0.27 0.13 0 0 0.27 0.13 0 0 0.27 0.12 0 0 0.27 0.13 0 0 0.27 0.12 0 0 0.28 0.12 0 0 0.28 0.12 0 0 0.28 0.12 0 0 0.28 0.11 0 0 0.28 0.11 0 0 0.29 0.11 0 0 0.29 0.11 0 0 0.29 0.11 0 0 0.29 0.11 0 0 0.29 0.11 0 0 0.3 0.11 0 0 0.3 0.1 0 0 0.3 0.1 0 0 0.3 0.1 0 0 0.3 0.1 0 0 0.3 0.1 0 0 0.3 0.1 0 0 0.3 0.09 0 0 0.3 0.09 0.31 0.09 0.31 0.09 0.31 0.09 0.31 0.09 0.31 0.08 0.31 0.08 0.31 0.08 0.31 0.08 0.31 0.08 0.31 0.08 0.32 0.08 0.32 0.08 0.32 0.07 0.32 0.07 0.32 0.07 0.32 0.07 0.32 0.07 0.32 0.06 0.33 0.06 0.33 0.06 0.33 0.06 0.33 0.06 0.33 0.05 0.33 0.05 0.33 0.05 0.33 0.05 0.33 0.05 0.34 0.05 0.34 0.04 0.34 0.04 0.34 0.04 0.34 0.04 0.34 0.04 0.34 0.03 0.34 0.04 0.35 0.03 0.35 0.03 0.35 0.03 0.35 0.03 0.35 0.03 0.35 0.02 0.35 0.02 0.35 0.02 0.36 0.02 0.35 0.02 0.36 0.02 0.36 0.01 0.36 0.01 0.36 0.01 0.36 0.01 0.36 0.01 0.36 0 0.36 0 0.36 0 89.88 0z"/>
   <polygon class="fil19" style="mask:url(#id54)" points="977.09,933.85 971.52,961.15 881.18,961.15 909.92,976.52 968.48,976.52 966.62,985.66 960.21,1017.09 892.87,981.39 803.24,933.85 765.16,933.85 962.62,1037.68 962.79,1037.77 962.95,1037.85 962.95,1037.85 963.12,1037.94 963.28,1038.03 963.45,1038.11 963.61,1038.2 963.78,1038.29 963.95,1038.37 964.11,1038.45 964.11,1038.45 964.28,1038.54 964.44,1038.62 964.6,1038.7 964.61,1038.7 964.77,1038.78 964.94,1038.86 965.1,1038.94 965.1,1038.94 965.27,1039.02 965.43,1039.1 965.6,1039.18 965.6,1039.18 965.76,1039.26 965.93,1039.33 965.93,1039.33 966.1,1039.41 966.26,1039.49 966.42,1039.56 966.43,1039.56 966.59,1039.64 966.76,1039.71 966.76,1039.71 966.92,1039.79 967.09,1039.86 967.25,1039.93 967.26,1039.93 967.42,1040 967.58,1040.07 967.59,1040.07 967.75,1040.15 967.92,1040.22 967.92,1040.22 968.08,1040.29 968.25,1040.35 968.25,1040.35 968.41,1040.42 968.58,1040.49 968.58,1040.49 968.75,1040.56 968.91,1040.62 968.91,1040.62 969.08,1040.69 969.24,1040.76 969.24,1040.76 969.41,1040.82 969.57,1040.88 969.58,1040.88 969.74,1040.95 969.9,1041.01 969.91,1041.01 970.07,1041.07 970.24,1041.14 970.4,1041.2 970.41,1041.2 970.57,1041.26 970.74,1041.32 970.74,1041.32 970.9,1041.38 971.07,1041.44 971.07,1041.44 971.24,1041.5 971.24,1041.5 971.4,1041.55 971.57,1041.61 971.57,1041.61 971.73,1041.67 971.74,1041.67 971.9,1041.73 972.06,1041.78 972.07,1041.78 972.23,1041.84 972.24,1041.84 972.4,1041.89 972.56,1041.94 972.57,1041.94 972.73,1042 972.73,1042 972.9,1042.05 972.9,1042.05 973.06,1042.1 973.06,1042.1 973.23,1042.15 973.23,1042.15 973.4,1042.21 973.4,1042.21 973.56,1042.26 973.73,1042.31 973.73,1042.31 973.9,1042.35 973.9,1042.35 974.06,1042.4 974.06,1042.4 974.23,1042.45 974.23,1042.45 974.4,1042.49 974.4,1042.49 974.56,1042.54 974.57,1042.54 974.73,1042.58 974.73,1042.58 974.9,1042.62 974.9,1042.62 975.06,1042.67 975.07,1042.67 975.23,1042.71 975.24,1042.71 975.4,1042.75 975.4,1042.75 975.57,1042.79 975.74,1042.83 975.91,1042.87 975.91,1042.87 976.07,1042.91 976.07,1042.91 976.24,1042.95 976.41,1042.98 976.41,1042.98 976.58,1043.02 976.75,1043.05 976.91,1043.09 976.91,1043.09 977.08,1043.12 977.25,1043.15 977.25,1043.15 977.42,1043.19 977.59,1043.22 977.76,1043.25 977.76,1043.25 977.93,1043.27 978.09,1043.31 978.1,1043.31 978.26,1043.33 978.27,1043.33 978.43,1043.36 978.6,1043.39 978.77,1043.41 978.94,1043.43 978.94,1043.43 979.11,1043.46 979.11,1043.46 979.28,1043.48 979.28,1043.48 979.45,1043.5 979.45,1043.5 979.62,1043.52 979.62,1043.52 979.79,1043.55 979.79,1043.55 979.96,1043.57 979.96,1043.57 980.13,1043.58 980.13,1043.58 980.3,1043.6 980.3,1043.6 980.47,1043.62 980.64,1043.63 980.81,1043.65 980.81,1043.65 980.98,1043.67 980.99,1043.67 981.16,1043.68 981.32,1043.69 981.5,1043.7 981.5,1043.7 981.67,1043.72 981.84,1043.73 981.84,1043.73 982.01,1043.74 982.18,1043.75 982.18,1043.75 982.35,1043.75 982.52,1043.76 982.53,1043.76 982.7,1043.77 982.87,1043.78 983.04,1043.78 983.21,1043.78 983.38,1043.79 983.55,1043.79 983.55,1043.79 983.73,1043.79 983.9,1043.8 984.07,1043.8 984.24,1043.8 984.41,1043.79 984.58,1043.79 984.75,1043.79 984.91,1043.78 984.91,1043.78 985.08,1043.78 985.24,1043.78 985.4,1043.77 985.4,1043.77 985.56,1043.76 985.56,1043.76 985.72,1043.75 985.87,1043.75 985.88,1043.75 986.03,1043.74 986.18,1043.73 986.33,1043.72 986.34,1043.72 986.48,1043.7 986.63,1043.69 986.64,1043.69 986.78,1043.68 986.79,1043.68 986.93,1043.67 986.93,1043.67 987.07,1043.65 987.07,1043.65 987.21,1043.63 987.22,1043.63 987.36,1043.62 987.5,1043.6 987.63,1043.58 987.64,1043.58 987.77,1043.57 987.77,1043.57 987.91,1043.55 987.91,1043.55 988.04,1043.52 988.04,1043.52 988.17,1043.5 988.3,1043.48 988.3,1043.48 988.43,1043.46 988.43,1043.46 988.56,1043.43 988.56,1043.43 988.69,1043.41 988.69,1043.41 988.81,1043.39 988.94,1043.36 989.06,1043.33 989.06,1043.33 989.18,1043.31 989.18,1043.31 989.3,1043.27 989.3,1043.27 989.41,1043.25 989.42,1043.25 989.53,1043.22 989.53,1043.22 989.64,1043.19 989.65,1043.19 989.76,1043.15 989.76,1043.15 989.87,1043.12 989.98,1043.09 990.08,1043.05 990.09,1043.05 990.19,1043.02 990.19,1043.02 990.3,1042.98 990.3,1042.98 990.4,1042.95 990.4,1042.95 990.5,1042.91 990.5,1042.91 990.6,1042.87 990.61,1042.87 990.7,1042.83 990.7,1042.83 990.8,1042.79 990.89,1042.75 990.9,1042.75 990.99,1042.71 991.08,1042.67 991.17,1042.62 991.27,1042.58 991.35,1042.54 991.44,1042.49 991.53,1042.45 991.61,1042.4 991.69,1042.35 991.77,1042.31 991.85,1042.26 991.93,1042.21 992.01,1042.15 992.08,1042.1 992.16,1042.05 992.23,1042 992.3,1041.94 992.38,1041.89 992.45,1041.84 992.51,1041.78 992.58,1041.73 992.65,1041.67 992.72,1041.61 992.78,1041.55 992.85,1041.5 992.91,1041.44 992.97,1041.38 993.04,1041.32 993.1,1041.26 993.16,1041.2 993.22,1041.14 993.28,1041.07 993.33,1041.01 993.39,1040.95 993.45,1040.88 993.5,1040.82 993.55,1040.76 993.61,1040.69 993.61,1040.69 993.66,1040.62 993.71,1040.56 993.76,1040.49 993.81,1040.42 993.85,1040.35 993.9,1040.29 993.9,1040.29 993.95,1040.22 994,1040.15 994.04,1040.07 994.08,1040 994.12,1039.93 994.16,1039.86 994.2,1039.79 994.24,1039.71 994.28,1039.64 994.32,1039.56 994.36,1039.49 994.36,1039.49 994.39,1039.41 994.39,1039.41 994.43,1039.33 994.46,1039.26 994.46,1039.26 994.49,1039.18 994.5,1039.18 994.53,1039.1 994.56,1039.02 994.56,1039.02 994.59,1038.94 994.62,1038.86 994.64,1038.78 994.67,1038.7 994.7,1038.62 994.7,1038.62 994.72,1038.54 994.74,1038.45 994.75,1038.45 994.77,1038.37 994.77,1038.37 994.79,1038.29 994.79,1038.29 994.81,1038.2 994.82,1038.2 994.84,1038.11 994.86,1038.03 994.86,1038.03 994.87,1037.94 994.89,1037.85 994.89,1037.85 994.91,1037.77 994.91,1037.77 994.92,1037.68 994.93,1037.68 1005.58,988.18 1017.27,933.85 "/>
  </g>
 </g>
</svg>
