<?xml version="1.0" encoding="UTF-8"?>
<!DOCTYPE svg PUBLIC "-//W3C//DTD SVG 1.1//EN" "http://www.w3.org/Graphics/SVG/1.1/DTD/svg11.dtd">
<!-- Creator: CorelDRAW 2019 (64 Bit) -->
<svg xmlns="http://www.w3.org/2000/svg" xml:space="preserve" width="223.761mm" height="31.0462mm" version="1.1" style="shape-rendering:geometricPrecision; text-rendering:geometricPrecision; image-rendering:optimizeQuality; fill-rule:evenodd; clip-rule:evenodd"
viewBox="0 0 7322.06 1015.91"
 xmlns:xlink="http://www.w3.org/1999/xlink">
 <defs>
  <style type="text/css">
   <![CDATA[
    .fil7 {fill:#FEFEFE}
    .fil0 {fill:#30466B;fill-rule:nonzero}
    .fil13 {fill:#192D48;fill-rule:nonzero}
    .fil1 {fill:url(#id72);fill-rule:nonzero}
    .fil10 {fill:url(#id73);fill-rule:nonzero}
    .fil2 {fill:url(#id74);fill-rule:nonzero}
    .fil3 {fill:url(#id75);fill-rule:nonzero}
    .fil4 {fill:url(#id76);fill-rule:nonzero}
    .fil6 {fill:url(#id77);fill-rule:nonzero}
    .fil5 {fill:url(#id78);fill-rule:nonzero}
    .fil12 {fill:url(#id79);fill-rule:nonzero}
    .fil9 {fill:url(#id80);fill-rule:nonzero}
    .fil11 {fill:url(#id81);fill-rule:nonzero}
    .fil8 {fill:url(#id82);fill-rule:nonzero}
   ]]>
  </style>
      <mask id="id0">
  <linearGradient id="id1" gradientUnits="userSpaceOnUse" x1="3540.35" y1="652.98" x2="3540.35" y2="-241.46">
   <stop offset="0" style="stop-opacity:1; stop-color:white"/>
   <stop offset="1" style="stop-opacity:0; stop-color:white"/>
  </linearGradient>
       <rect style="fill:url(#id1)" x="2907.74" y="-3.27" width="532.48" height="309.24"/>
      </mask>
      <mask id="id2">
  <linearGradient id="id3" gradientUnits="userSpaceOnUse" x1="3561.82" y1="654.86" x2="3561.82" y2="-251.87">
   <stop offset="0" style="stop-opacity:1; stop-color:white"/>
   <stop offset="1" style="stop-opacity:0; stop-color:white"/>
  </linearGradient>
       <rect style="fill:url(#id3)" x="1975.28" y="-3.27" width="707.31" height="342.33"/>
      </mask>
      <mask id="id4">
  <linearGradient id="id5" gradientUnits="userSpaceOnUse" x1="3571.37" y1="654.86" x2="3571.37" y2="-251.87">
   <stop offset="0" style="stop-opacity:1; stop-color:white"/>
   <stop offset="1" style="stop-opacity:0; stop-color:white"/>
  </linearGradient>
       <rect style="fill:url(#id5)" x="1281.02" y="-3.27" width="672.25" height="343.04"/>
      </mask>
      <mask id="id6">
  <linearGradient id="id7" gradientUnits="userSpaceOnUse" x1="3579.15" y1="654.86" x2="3579.15" y2="-251.87">
   <stop offset="0" style="stop-opacity:1; stop-color:white"/>
   <stop offset="1" style="stop-opacity:0; stop-color:white"/>
  </linearGradient>
       <rect style="fill:url(#id7)" x="806.18" y="-3.27" width="254.38" height="318.23"/>
      </mask>
      <mask id="id8">
  <linearGradient id="id9" gradientUnits="userSpaceOnUse" x1="3540.35" y1="645.98" x2="3540.35" y2="-248.46">
   <stop offset="0" style="stop-opacity:1; stop-color:white"/>
   <stop offset="1" style="stop-opacity:0; stop-color:white"/>
  </linearGradient>
       <rect style="fill:url(#id9)" x="49.65" y="-3.27" width="814.85" height="300.79"/>
      </mask>
      <mask id="id10">
  <linearGradient id="id11" gradientUnits="userSpaceOnUse" x1="3498.23" y1="654.86" x2="3498.23" y2="-251.87">
   <stop offset="0" style="stop-opacity:1; stop-color:white"/>
   <stop offset="1" style="stop-opacity:0; stop-color:white"/>
  </linearGradient>
       <rect style="fill:url(#id11)" x="6361.92" y="212.53" width="395.53" height="82.49"/>
      </mask>
      <mask id="id12">
  <linearGradient id="id13" gradientUnits="userSpaceOnUse" x1="3498.23" y1="654.86" x2="3498.23" y2="-251.87">
   <stop offset="0" style="stop-opacity:1; stop-color:white"/>
   <stop offset="1" style="stop-opacity:0; stop-color:white"/>
  </linearGradient>
       <rect style="fill:url(#id13)" x="6168.85" y="-3.27" width="706.22" height="252.17"/>
      </mask>
      <mask id="id14">
  <linearGradient id="id15" gradientUnits="userSpaceOnUse" x1="3529.9" y1="652.98" x2="3529.9" y2="-241.46">
   <stop offset="0" style="stop-opacity:1; stop-color:white"/>
   <stop offset="1" style="stop-opacity:0; stop-color:white"/>
  </linearGradient>
       <rect style="fill:url(#id15)" x="5424.41" y="-2.57" width="771.44" height="236.34"/>
      </mask>
      <mask id="id16">
  <linearGradient id="id17" gradientUnits="userSpaceOnUse" x1="3511.34" y1="654.86" x2="3511.34" y2="-251.87">
   <stop offset="0" style="stop-opacity:1; stop-color:white"/>
   <stop offset="1" style="stop-opacity:0; stop-color:white"/>
  </linearGradient>
       <rect style="fill:url(#id17)" x="5240.32" y="-3.27" width="199.61" height="186.14"/>
      </mask>
      <mask id="id18">
  <linearGradient id="id19" gradientUnits="userSpaceOnUse" x1="3524.8" y1="652.18" x2="3524.8" y2="-250.84">
   <stop offset="0" style="stop-opacity:1; stop-color:white"/>
   <stop offset="1" style="stop-opacity:0; stop-color:white"/>
  </linearGradient>
       <rect style="fill:url(#id19)" x="4513.67" y="-3.27" width="200.56" height="186.33"/>
      </mask>
      <mask id="id20">
  <linearGradient id="id21" gradientUnits="userSpaceOnUse" x1="3521.97" y1="652.18" x2="3521.97" y2="-250.84">
   <stop offset="0" style="stop-opacity:1; stop-color:white"/>
   <stop offset="1" style="stop-opacity:0; stop-color:white"/>
  </linearGradient>
       <rect style="fill:url(#id21)" x="5051.82" y="-3.27" width="197.56" height="180.72"/>
      </mask>
      <mask id="id22">
  <linearGradient id="id23" gradientUnits="userSpaceOnUse" x1="3532" y1="654.86" x2="3532" y2="-251.87">
   <stop offset="0" style="stop-opacity:1; stop-color:white"/>
   <stop offset="1" style="stop-opacity:0; stop-color:white"/>
  </linearGradient>
       <rect style="fill:url(#id23)" x="3729.99" y="-3.27" width="598.75" height="234.7"/>
      </mask>
      <mask id="id24">
  <linearGradient id="id25" gradientUnits="userSpaceOnUse" x1="3559.12" y1="-160.95" x2="3559.15" y2="778.66">
   <stop offset="0" style="stop-opacity:1; stop-color:white"/>
   <stop offset="1" style="stop-opacity:0; stop-color:white"/>
  </linearGradient>
       <rect style="fill:url(#id25)" x="2650.63" y="511.14" width="880.98" height="387.86"/>
      </mask>
      <mask id="id26">
  <linearGradient id="id27" gradientUnits="userSpaceOnUse" x1="3559.12" y1="-160.95" x2="3559.15" y2="778.66">
   <stop offset="0" style="stop-opacity:1; stop-color:white"/>
   <stop offset="1" style="stop-opacity:0; stop-color:white"/>
  </linearGradient>
       <rect style="fill:url(#id27)" x="2059.37" y="511.14" width="704.53" height="387.86"/>
      </mask>
      <mask id="id28">
  <linearGradient id="id29" gradientUnits="userSpaceOnUse" x1="3559.12" y1="-160.95" x2="3559.15" y2="778.66">
   <stop offset="0" style="stop-opacity:1; stop-color:white"/>
   <stop offset="1" style="stop-opacity:0; stop-color:white"/>
  </linearGradient>
       <rect style="fill:url(#id29)" x="1354.17" y="511.14" width="700.73" height="387.86"/>
      </mask>
      <mask id="id30">
  <linearGradient id="id31" gradientUnits="userSpaceOnUse" x1="3559.12" y1="-160.95" x2="3559.15" y2="778.66">
   <stop offset="0" style="stop-opacity:1; stop-color:white"/>
   <stop offset="1" style="stop-opacity:0; stop-color:white"/>
  </linearGradient>
       <rect style="fill:url(#id31)" x="716.31" y="511.14" width="631.62" height="387.86"/>
      </mask>
      <mask id="id32">
  <linearGradient id="id33" gradientUnits="userSpaceOnUse" x1="3559.12" y1="-160.95" x2="3559.15" y2="778.66">
   <stop offset="0" style="stop-opacity:1; stop-color:white"/>
   <stop offset="1" style="stop-opacity:0; stop-color:white"/>
  </linearGradient>
       <rect style="fill:url(#id33)" x="21.51" y="511.14" width="944.62" height="387.86"/>
      </mask>
      <mask id="id34">
  <linearGradient id="id35" gradientUnits="userSpaceOnUse" x1="3559.12" y1="-160.95" x2="3559.15" y2="778.66">
   <stop offset="0" style="stop-opacity:1; stop-color:white"/>
   <stop offset="1" style="stop-opacity:0; stop-color:white"/>
  </linearGradient>
       <rect style="fill:url(#id35)" x="2950.48" y="668.8" width="540.58" height="230.21"/>
      </mask>
      <mask id="id36">
  <linearGradient id="id37" gradientUnits="userSpaceOnUse" x1="3559.12" y1="-160.95" x2="3559.15" y2="778.66">
   <stop offset="0" style="stop-opacity:1; stop-color:white"/>
   <stop offset="1" style="stop-opacity:0; stop-color:white"/>
  </linearGradient>
       <rect style="fill:url(#id37)" x="2059.37" y="644.34" width="704.52" height="254.66"/>
      </mask>
      <mask id="id38">
  <linearGradient id="id39" gradientUnits="userSpaceOnUse" x1="3559.12" y1="-160.95" x2="3559.15" y2="778.66">
   <stop offset="0" style="stop-opacity:1; stop-color:white"/>
   <stop offset="1" style="stop-opacity:0; stop-color:white"/>
  </linearGradient>
       <rect style="fill:url(#id39)" x="1365.11" y="643.81" width="689.79" height="255.19"/>
      </mask>
      <mask id="id40">
  <linearGradient id="id41" gradientUnits="userSpaceOnUse" x1="3559.12" y1="-160.95" x2="3559.15" y2="778.66">
   <stop offset="0" style="stop-opacity:1; stop-color:white"/>
   <stop offset="1" style="stop-opacity:0; stop-color:white"/>
  </linearGradient>
       <rect style="fill:url(#id41)" x="848.66" y="662.15" width="313.53" height="236.86"/>
      </mask>
      <mask id="id42">
  <linearGradient id="id43" gradientUnits="userSpaceOnUse" x1="3559.12" y1="-160.95" x2="3559.15" y2="778.66">
   <stop offset="0" style="stop-opacity:1; stop-color:white"/>
   <stop offset="1" style="stop-opacity:0; stop-color:white"/>
  </linearGradient>
       <rect style="fill:url(#id43)" x="109.03" y="675.04" width="857.1" height="223.96"/>
      </mask>
      <mask id="id44">
  <linearGradient id="id45" gradientUnits="userSpaceOnUse" x1="3559.12" y1="-160.95" x2="3559.15" y2="778.66">
   <stop offset="0" style="stop-opacity:1; stop-color:white"/>
   <stop offset="1" style="stop-opacity:0; stop-color:white"/>
  </linearGradient>
       <rect style="fill:url(#id45)" x="6391.02" y="676.88" width="426.07" height="62.67"/>
      </mask>
      <mask id="id46">
  <linearGradient id="id47" gradientUnits="userSpaceOnUse" x1="3559.12" y1="-160.95" x2="3559.15" y2="778.66">
   <stop offset="0" style="stop-opacity:1; stop-color:white"/>
   <stop offset="1" style="stop-opacity:0; stop-color:white"/>
  </linearGradient>
       <rect style="fill:url(#id47)" x="6048.81" y="511.14" width="927.88" height="387.86"/>
      </mask>
      <mask id="id48">
  <linearGradient id="id49" gradientUnits="userSpaceOnUse" x1="3559.12" y1="-160.95" x2="3559.15" y2="778.66">
   <stop offset="0" style="stop-opacity:1; stop-color:white"/>
   <stop offset="1" style="stop-opacity:0; stop-color:white"/>
  </linearGradient>
       <rect style="fill:url(#id49)" x="6413.92" y="676.88" width="403.17" height="62.67"/>
      </mask>
      <mask id="id50">
  <linearGradient id="id51" gradientUnits="userSpaceOnUse" x1="3559.12" y1="-160.95" x2="3559.15" y2="778.66">
   <stop offset="0" style="stop-opacity:1; stop-color:white"/>
   <stop offset="1" style="stop-opacity:0; stop-color:white"/>
  </linearGradient>
       <rect style="fill:url(#id51)" x="6225" y="710.96" width="751.7" height="188.04"/>
      </mask>
      <mask id="id52">
  <linearGradient id="id53" gradientUnits="userSpaceOnUse" x1="3559.12" y1="-160.95" x2="3559.15" y2="778.66">
   <stop offset="0" style="stop-opacity:1; stop-color:white"/>
   <stop offset="1" style="stop-opacity:0; stop-color:white"/>
  </linearGradient>
       <rect style="fill:url(#id53)" x="5284.2" y="506.48" width="1012.74" height="392"/>
      </mask>
      <mask id="id54">
  <linearGradient id="id55" gradientUnits="userSpaceOnUse" x1="3559.12" y1="-160.95" x2="3559.15" y2="778.66">
   <stop offset="0" style="stop-opacity:1; stop-color:white"/>
   <stop offset="1" style="stop-opacity:0; stop-color:white"/>
  </linearGradient>
       <rect style="fill:url(#id55)" x="5489.7" y="722.15" width="807.23" height="176.35"/>
      </mask>
      <mask id="id56">
  <linearGradient id="id57" gradientUnits="userSpaceOnUse" x1="3559.12" y1="-160.95" x2="3559.15" y2="778.66">
   <stop offset="0" style="stop-opacity:1; stop-color:white"/>
   <stop offset="1" style="stop-opacity:0; stop-color:white"/>
  </linearGradient>
       <rect style="fill:url(#id57)" x="5095.68" y="511.14" width="445.88" height="387.86"/>
      </mask>
      <mask id="id58">
  <linearGradient id="id59" gradientUnits="userSpaceOnUse" x1="3559.12" y1="-160.95" x2="3559.15" y2="778.66">
   <stop offset="0" style="stop-opacity:1; stop-color:white"/>
   <stop offset="1" style="stop-opacity:0; stop-color:white"/>
  </linearGradient>
       <rect style="fill:url(#id59)" x="5307.61" y="759.76" width="233.95" height="139.25"/>
      </mask>
      <mask id="id60">
  <linearGradient id="id61" gradientUnits="userSpaceOnUse" x1="3559.12" y1="-160.95" x2="3559.15" y2="778.66">
   <stop offset="0" style="stop-opacity:1; stop-color:white"/>
   <stop offset="1" style="stop-opacity:0; stop-color:white"/>
  </linearGradient>
       <rect style="fill:url(#id61)" x="4370.45" y="511.14" width="445.39" height="387.86"/>
      </mask>
      <mask id="id62">
  <linearGradient id="id63" gradientUnits="userSpaceOnUse" x1="3559.12" y1="-160.95" x2="3559.15" y2="778.66">
   <stop offset="0" style="stop-opacity:1; stop-color:white"/>
   <stop offset="1" style="stop-opacity:0; stop-color:white"/>
  </linearGradient>
       <rect style="fill:url(#id63)" x="4580.31" y="759.61" width="235.54" height="139.39"/>
      </mask>
      <mask id="id64">
  <linearGradient id="id65" gradientUnits="userSpaceOnUse" x1="3559.12" y1="-160.95" x2="3559.15" y2="778.66">
   <stop offset="0" style="stop-opacity:1; stop-color:white"/>
   <stop offset="1" style="stop-opacity:0; stop-color:white"/>
  </linearGradient>
       <rect style="fill:url(#id65)" x="4708.44" y="511.14" width="642.56" height="387.86"/>
      </mask>
      <mask id="id66">
  <linearGradient id="id67" gradientUnits="userSpaceOnUse" x1="3559.12" y1="-160.95" x2="3559.15" y2="778.66">
   <stop offset="0" style="stop-opacity:1; stop-color:white"/>
   <stop offset="1" style="stop-opacity:0; stop-color:white"/>
  </linearGradient>
       <rect style="fill:url(#id67)" x="5119.83" y="763.76" width="231.17" height="135.25"/>
      </mask>
      <mask id="id68">
  <linearGradient id="id69" gradientUnits="userSpaceOnUse" x1="3559.12" y1="-160.95" x2="3559.15" y2="778.66">
   <stop offset="0" style="stop-opacity:1; stop-color:white"/>
   <stop offset="1" style="stop-opacity:0; stop-color:white"/>
  </linearGradient>
       <rect style="fill:url(#id69)" x="3593.36" y="511.14" width="841.47" height="387.86"/>
      </mask>
      <mask id="id70">
  <linearGradient id="id71" gradientUnits="userSpaceOnUse" x1="3559.12" y1="-160.95" x2="3559.15" y2="778.66">
   <stop offset="0" style="stop-opacity:1; stop-color:white"/>
   <stop offset="1" style="stop-opacity:0; stop-color:white"/>
  </linearGradient>
       <rect style="fill:url(#id71)" x="3792.06" y="723.88" width="638.31" height="175.13"/>
      </mask>
  <linearGradient id="id72" gradientUnits="userSpaceOnUse" x1="6906.72" y1="997.67" x2="7130.79" y2="850.05">
   <stop offset="0" style="stop-opacity:1; stop-color:red"/>
   <stop offset="0.478431" style="stop-opacity:1; stop-color:#FF4600"/>
   <stop offset="1" style="stop-opacity:1; stop-color:#FF8400"/>
  </linearGradient>
  <linearGradient id="id73" gradientUnits="userSpaceOnUse" xlink:href="#id72" x1="56.46" y1="885.1" x2="3628.54" y2="564.28">
  </linearGradient>
  <linearGradient id="id74" gradientUnits="userSpaceOnUse" xlink:href="#id72" x1="31.79" y1="459.34" x2="3526.41" y2="11.34">
  </linearGradient>
  <linearGradient id="id75" gradientUnits="userSpaceOnUse" xlink:href="#id72" x1="5.02" y1="458.56" x2="3547.7" y2="4.4">
  </linearGradient>
  <linearGradient id="id76" gradientUnits="userSpaceOnUse" xlink:href="#id72" x1="14.57" y1="458.56" x2="3557.24" y2="4.4">
  </linearGradient>
  <linearGradient id="id77" gradientUnits="userSpaceOnUse" xlink:href="#id72" x1="31.79" y1="459.34" x2="3526.41" y2="11.34">
  </linearGradient>
  <linearGradient id="id78" gradientUnits="userSpaceOnUse" xlink:href="#id72" x1="22.35" y1="458.56" x2="3565.02" y2="4.4">
  </linearGradient>
  <linearGradient id="id79" gradientUnits="userSpaceOnUse" xlink:href="#id72" x1="73.13" y1="880.07" x2="3596.76" y2="563.6">
  </linearGradient>
  <linearGradient id="id80" gradientUnits="userSpaceOnUse" xlink:href="#id72" x1="46.91" y1="885.1" x2="3618.99" y2="564.28">
  </linearGradient>
  <linearGradient id="id81" gradientUnits="userSpaceOnUse" xlink:href="#id72" x1="64.24" y1="885.1" x2="3636.32" y2="564.28">
  </linearGradient>
  <linearGradient id="id82" gradientUnits="userSpaceOnUse" xlink:href="#id72" x1="73.13" y1="880.07" x2="3596.76" y2="563.6">
  </linearGradient>
 </defs>
 <g id="Camada_x0020_1">
  <metadata id="CorelCorpID_0Corel-Layer"/>
  <g id="_1623992320672">
   <g>
    <path class="fil0" d="M7081.41 1013.66l13.14 -28.58 122.64 0c7.66,0 14.45,-1.96 20.37,-5.85 5.92,-3.91 10.37,-9.08 13.32,-15.53 3.26,-7.05 3.61,-12.34 1.12,-15.87 -2.51,-3.53 -7.59,-5.28 -15.25,-5.28l-75.16 0c-7.66,0 -14.04,-1.17 -19.2,-3.49 -5.18,-2.32 -8.95,-5.55 -11.32,-9.66 -2.38,-4.13 -3.41,-9.04 -3.13,-14.75 0.3,-5.7 2.01,-11.92 5.12,-18.67 3.04,-6.61 6.94,-12.71 11.7,-18.34 4.75,-5.62 10.22,-10.46 16.35,-14.51 6.12,-4.04 12.89,-7.24 20.27,-9.56 7.36,-2.32 15.1,-3.49 23.21,-3.49l117.46 0 -13.14 28.59 -117.46 0c-6.61,0 -12.53,1.76 -17.76,5.28 -5.22,3.53 -9.28,8.44 -12.17,14.73 -2.89,6.31 -3.31,11.19 -1.22,14.63 2.09,3.46 6.29,5.18 12.59,5.18l74.94 0c16.66,0 27.51,3.9 32.54,11.7 5.03,7.79 3.89,19.65 -3.41,35.55 -3.17,6.91 -7.17,13.28 -11.97,19.13 -4.78,5.85 -10.27,10.92 -16.44,15.2 -6.15,4.26 -12.97,7.61 -20.46,10.02 -7.47,2.39 -15.48,3.6 -24.04,3.6l-122.64 0z"/>
    <path class="fil1" d="M7102.88 850.05l27.91 0 -42.04 91.37c-5.79,12.59 -12.51,23.59 -20.11,32.95 -7.61,9.38 -16.37,17.16 -26.23,23.29 -9.88,6.15 -21.1,10.73 -33.66,13.73 -12.56,3.01 -26.79,4.52 -42.69,4.52 -15.75,0 -28.54,-1.51 -38.32,-4.52 -9.82,-2.99 -16.82,-7.58 -21.02,-13.73 -4.25,-6.14 -5.85,-13.91 -4.83,-23.29 1.02,-9.36 4.43,-20.36 10.22,-32.95l42.04 -91.37 29.48 0 -42.03 91.37c-3.8,8.24 -6.02,15.3 -6.69,21.15 -0.67,5.85 0.42,10.65 3.28,14.39 2.86,3.75 7.71,6.49 14.56,8.21 6.84,1.74 15.92,2.59 27.17,2.59 11.25,0 21.08,-0.85 29.53,-2.59 8.46,-1.72 15.83,-4.46 22.12,-8.21 6.3,-3.74 11.8,-8.54 16.53,-14.39 4.72,-5.85 8.96,-12.91 12.76,-21.15l42.04 -91.37z"/>
    <polygon class="fil0" points="6626.28,1014.32 6701.86,850.05 6730.44,850.05 6654.86,1014.32 "/>
    <polygon class="fil0" points="6757.92,1014.32 6790.64,943.21 6708.28,943.21 6719.99,917.78 6802.35,917.78 6833.5,850.05 6862.09,850.05 6786.51,1014.32 "/>
    <polygon class="fil0" points="6517.02,1013.66 6579.13,878.64 6517.02,878.64 6530.16,850.05 6682.97,850.05 6669.83,878.64 6607.71,878.64 6545.59,1013.66 "/>
    <polygon class="fil0" points="6406.06,1013.66 6481.32,850.05 6509.9,850.05 6434.64,1013.66 "/>
    <path class="fil0" d="M6272.8 958.96l-47.49 47.94c-3.04,3.01 -6.17,5.25 -9.41,6.76 -3.25,1.51 -6.35,2.26 -9.37,2.26 -6.59,0 -10.18,-3.01 -10.7,-9.02l-12.47 -156.85 34.21 0 8.29 125.8 45.26 -44.56 -5.17 -81.24 34.43 0 5.37 125.8 124.48 -125.8 31.95 0 -156.75 156.85c-3.04,3.01 -6.22,5.25 -9.53,6.76 -3.32,1.51 -6.47,2.26 -9.48,2.26 -2.99,0 -5.43,-0.75 -7.29,-2.26 -1.86,-1.51 -2.93,-3.75 -3.19,-6.76l-3.14 -47.94z"/>
    <polygon class="fil0" points="5964.16,942.54 5975.25,918.47 6065.94,918.47 6054.86,942.54 "/>
    <polygon class="fil0" points="5882.19,1013.66 5957.44,850.05 6103.49,850.05 6090.35,878.64 5972.66,878.64 5923.69,985.08 6041.6,985.08 6028.45,1013.66 "/>
    <path class="fil0" d="M5834.92 1013.66l21.63 -115 -95.34 106.46c-3.24,3.44 -6.45,6.1 -9.65,7.97 -3.19,1.89 -6.51,2.83 -9.95,2.83 -6.76,0 -9.97,-3.61 -9.67,-10.8l2.84 -106.46 -84.19 115 -28.13 0 112.9 -153.93c5.53,-7.81 12.06,-11.7 19.56,-11.7 2.99,0 5.42,0.84 7.29,2.48 1.87,1.65 2.76,4.04 2.66,7.21l-2.81 115.67 103.63 -115.67c5.65,-6.46 11.72,-9.68 18.17,-9.68 6.9,0 9.68,3.9 8.34,11.7l-28.96 153.93 -28.36 0z"/>
    <path class="fil0" d="M5550.12 985.08c7.49,0 15.02,-1.35 22.58,-4.06 7.54,-2.69 14.68,-6.4 21.43,-11.14 6.74,-4.72 12.91,-10.39 18.51,-16.99 5.57,-6.6 10.13,-13.73 13.66,-21.38 3.51,-7.64 5.48,-14.73 5.95,-21.25 0.45,-6.54 -0.55,-12.12 -2.97,-16.77 -2.44,-4.65 -6.2,-8.3 -11.29,-10.92 -5.1,-2.62 -11.4,-3.93 -18.89,-3.93l-39.85 0c-7.34,0 -14.73,1.31 -22.17,3.93 -7.44,2.62 -14.48,6.27 -21.12,10.92 -6.64,4.65 -12.71,10.2 -18.24,16.65 -5.52,6.45 -10.07,13.58 -13.65,21.37 -3.53,7.66 -5.53,14.78 -6.02,21.38 -0.48,6.6 0.44,12.27 2.76,16.99 2.32,4.73 5.98,8.44 10.97,11.14 4.98,2.71 11.15,4.06 18.49,4.06l39.84 0zm-52.98 28.58c-11.4,0 -20.95,-2.14 -28.67,-6.42 -7.69,-4.26 -13.41,-10.12 -17.12,-17.54 -3.7,-7.44 -5.2,-16.25 -4.48,-26.45 0.7,-10.2 3.8,-21.22 9.25,-33.07 5.52,-12.01 12.54,-22.95 21.08,-32.85 8.53,-9.9 17.97,-18.34 28.29,-25.31 10.35,-6.99 21.23,-12.39 32.65,-16.2 11.45,-3.83 22.86,-5.75 34.26,-5.75l39.84 0c11.84,0 21.8,1.95 29.81,5.85 8.04,3.91 13.96,9.38 17.77,16.44 3.8,7.04 5.4,15.48 4.78,25.31 -0.63,9.83 -3.66,20.66 -9.11,32.52 -5.45,11.86 -12.53,22.87 -21.18,33.07 -8.66,10.2 -18.26,19.01 -28.83,26.45 -10.54,7.42 -21.67,13.28 -33.39,17.54 -11.7,4.28 -23.43,6.42 -35.11,6.42l-39.84 0z"/>
    <path class="fil0" d="M5310.57 1013.66c-11.4,0 -20.95,-2.14 -28.67,-6.42 -7.69,-4.26 -13.41,-10.12 -17.12,-17.54 -3.69,-7.44 -5.2,-16.25 -4.48,-26.45 0.7,-10.2 3.8,-21.22 9.25,-33.07 5.52,-12.01 12.54,-22.95 21.08,-32.85 8.53,-9.9 17.97,-18.34 28.29,-25.31 10.35,-6.99 21.23,-12.39 32.65,-16.2 11.45,-3.83 22.86,-5.75 34.26,-5.75l88.67 0 -13.14 28.59 -88.67 0c-7.34,0 -14.73,1.31 -22.17,3.93 -7.44,2.62 -14.48,6.27 -21.12,10.92 -6.64,4.65 -12.71,10.2 -18.24,16.65 -5.52,6.45 -10.07,13.58 -13.64,21.37 -3.53,7.66 -5.54,14.78 -6.02,21.38 -0.48,6.6 0.44,12.27 2.76,16.99 2.32,4.73 5.98,8.44 10.97,11.14 4.98,2.71 11.15,4.06 18.49,4.06l88.67 0 -13.14 28.58 -88.67 0z"/>
   </g>
   <g>
    <g>
     <path class="fil2" d="M3387.74 516.05l-44.25 -128.14 -313.33 0 85.63 -72.12 203.12 0 -65.76 -190.46 -468.4 390.71 -132.08 0 590.07 -487.34c10.49,-8.87 21.39,-15.87 32.7,-21 11.32,-5.13 23.34,-7.7 36.1,-7.7 12.75,0 22.42,2.57 29.03,7.7 6.6,5.13 11.34,12.13 14.2,21l172.33 487.34 -139.37 0z"/>
     <path class="fil3" d="M2418.91 516.05l-108.32 -143.39 -251.16 0 34.15 -79.5 279.79 0c42.48,0 78.3,-8.87 107.46,-26.62 29.18,-17.75 50.97,-43.42 65.41,-77.02 14.43,-33.6 13.91,-58.56 -1.54,-74.89 -15.45,-16.33 -43.49,-24.49 -84.13,-24.49 -160.67,0 -321.34,0 -482.01,0l38.72 -90.15 482.01 0c38.17,0 70.45,4.38 96.86,13.13 26.4,8.76 46.56,21.3 60.48,37.62 13.91,16.33 21.44,36.08 22.55,59.27 1.13,23.19 -4.52,49.21 -16.92,78.08 -18.5,43.06 -46.15,79.15 -82.97,108.25 -36.81,29.1 -79.82,50.04 -129.02,62.82l134.84 156.87 -166.21 0z"/>
     <polygon class="fil4" points="1356.22,516.05 1539.15,90.15 1284.3,90.15 1323.02,0.01 1949.99,0.01 1911.27,90.15 1656.42,90.15 1473.49,516.05 "/>
     <polygon class="fil5" points="718.36,516.05 940.01,0.01 1057.28,0.01 874.35,425.9 1325.89,425.9 1287.17,516.05 "/>
     <path class="fil6" d="M748.27 0.01l112.95 0 -122.11 284.28c-16.84,39.21 -38.21,73.4 -64.1,102.58 -25.89,29.17 -57.22,53.33 -93.98,72.47 -36.77,19.14 -79.77,33.38 -129.02,42.71 -49.25,9.34 -106.06,14.01 -170.43,14.01 -63.76,0 -116.26,-4.67 -157.48,-14.01 -41.23,-9.33 -72,-23.57 -92.32,-42.71 -20.32,-19.14 -30.9,-43.3 -31.72,-72.47 -0.83,-29.18 7.18,-63.37 24.02,-102.58l122.11 -284.28 119.32 0 -122.11 284.28c-11.02,25.67 -16.35,47.61 -15.98,65.82 0.38,18.2 7.32,33.14 20.83,44.81 13.5,11.67 34.59,20.19 63.25,25.56 28.67,5.37 65.77,8.05 111.31,8.05 45.54,0 84.95,-2.69 118.23,-8.05 33.27,-5.37 61.67,-13.88 85.21,-25.56 23.53,-11.67 43.31,-26.61 59.33,-44.81 16.02,-18.2 29.54,-40.14 40.56,-65.82l122.11 -284.28z"/>
     <path class="fil7" style="mask:url(#id0)" d="M2911.01 302.7c46.65,-3.07 93.63,-6.28 141.22,-9.75l200.92 -167.6 50.95 147.56c43.91,-3.77 88.18,-7.71 132.83,-11.84l-82.16 -232.35c-2.87,-8.87 -7.6,-15.88 -14.2,-21 -6.6,-5.13 -16.28,-7.71 -29.03,-7.71 -12.76,0 -24.78,2.57 -36.1,7.71 -11.32,5.12 -22.21,12.13 -32.7,21l-331.74 273.98z"/>
     <path class="fil7" style="mask:url(#id2)" d="M2075.27 335.79c149.88,-2.71 305.99,-7.59 468.36,-14.92 12.48,-7.4 24.37,-15.57 35.67,-24.51 36.81,-29.1 64.47,-65.19 82.96,-108.24 12.41,-28.87 18.05,-54.9 16.92,-78.08 -1.12,-23.19 -8.64,-42.95 -22.55,-59.27 -13.92,-16.33 -34.08,-28.87 -60.48,-37.63 -26.41,-8.74 -58.68,-13.13 -96.86,-13.13l-482.01 0 -38.73 90.15c160.67,0 321.34,0 482.01,0 40.63,0 68.68,8.16 84.13,24.49 15.45,16.33 15.98,41.29 1.54,74.89 -14.43,33.59 -36.23,59.26 -65.41,77.01 -29.16,17.75 -64.99,26.62 -107.46,26.62l-279.79 0 -18.31 42.62z"/>
     <path class="fil7" style="mask:url(#id4)" d="M1434.34 334.18c38.2,0.93 77,1.69 116.26,2.33l105.81 -246.35 254.85 0 38.73 -90.15 -626.98 0 -38.73 90.15 254.85 0 -104.81 244.02z"/>
     <path class="fil7" style="mask:url(#id6)" d="M809.45 303.99c37.19,2.71 75.34,5.25 113.95,7.71l133.88 -311.69 -117.27 0 -130.57 303.98z"/>
     <path class="fil7" style="mask:url(#id8)" d="M52.92 217.16c36.07,5.44 73.54,10.84 112.37,16.17l100.23 -233.33 -119.32 0 -93.28 217.15zm572.92 67.87c35.58,3.18 71.74,6.27 108.84,9.21 1.51,-3.29 2.98,-6.6 4.43,-9.95l122.11 -284.29 -112.95 0 -122.11 284.29 -0.32 0.74z"/>
     <polygon class="fil0" points="6349.43,291.75 6382.05,215.79 6754.18,215.79 6721.55,291.75 "/>
     <polygon class="fil0" points="6050.86,516.05 6272.52,0.01 6871.8,0.01 6833.07,90.15 6350.14,90.15 6205.93,425.9 6689.79,425.9 6651.06,516.05 "/>
     <path class="fil7" style="mask:url(#id10)" d="M6365.19 255.05c96.03,11.45 188.15,23.76 276.6,36.7l79.76 0 32.62 -75.95 -372.12 0 -16.86 39.25z"/>
     <path class="fil7" style="mask:url(#id12)" d="M6172.12 233.74c37.65,3.81 74.62,7.81 111.24,11.89l66.78 -155.48 482.93 0 38.73 -90.15 -599.28 0 -100.4 233.73z"/>
     <path class="fil0" d="M5556.46 143.54l-160 372.51 -110.21 0 198.5 -462.14c7.02,-16.34 17.89,-29.29 32.63,-38.86 14.74,-9.57 31.22,-14.36 49.44,-14.36 8.5,0 16.1,1.4 22.79,4.2 6.69,2.8 12.88,7.47 18.58,14l314.19 356.4 160 -372.5 110.21 0 -200.31 466.34c-7.22,16.8 -18.14,29.87 -32.78,39.2 -14.64,9.34 -30.45,14.01 -47.46,14.01 -18.82,0 -33.72,-6.3 -44.71,-18.91l-310.87 -359.9z"/>
     <path class="fil7" style="mask:url(#id14)" d="M5427.68 186.76c36.44,1.37 72.52,2.9 108.25,4.55l20.52 -47.77 43.94 50.88c58.15,3 115.23,6.41 171.44,10.14l-163.67 -185.66c-5.7,-6.53 -11.89,-11.2 -18.58,-14 -6.69,-2.81 -14.28,-4.21 -22.78,-4.21 -18.22,0 -34.69,4.79 -49.44,14.36 -14.74,9.57 -25.61,22.52 -32.63,38.86l-57.06 132.84zm561 34.16c35.84,3.06 71.14,6.27 106.1,9.58l97.8 -227.69 -110.21 0 -93.69 218.11z"/>
     <polygon class="fil0" points="5097.73,516.05 5319.38,0.01 5436.66,0.01 5215,516.05 "/>
     <path class="fil7" style="mask:url(#id16)" d="M5243.59 176.47c39,0.88 77.67,1.92 115.93,3.12l77.14 -179.59 -117.27 0 -75.8 176.47z"/>
     <polygon class="fil0" points="4372.5,516.06 4594.16,0.01 4710.95,0.01 4489.29,516.06 "/>
     <path class="fil7" style="mask:url(#id18)" d="M4516.94 179.79c39.71,-1.3 79.12,-2.42 118.23,-3.36l75.79 -176.42 -116.79 0 -77.23 179.78z"/>
     <polygon class="fil0" points="4907.64,516.06 5003.59,292.67 4667.02,292.67 4701.33,212.79 5037.9,212.79 5129.3,0.01 5246.1,0.01 5024.44,516.06 "/>
     <path class="fil7" style="mask:url(#id20)" d="M5055.09 172.79c39.07,0.29 77.82,0.76 116.2,1.39l74.81 -174.18 -116.8 0 -74.21 172.79z"/>
     <path class="fil0" d="M3595.41 516.05l38.72 -90.15 503.25 0c31.4,0 58.2,-6.16 80.41,-18.46 22.22,-12.3 37.7,-28.63 46.44,-48.98 9.56,-22.24 8.26,-38.92 -3.9,-50.04 -12.15,-11.12 -33.92,-16.68 -65.32,-16.68l-308.41 0c-31.4,0 -58.29,-3.67 -80.68,-11.01 -22.4,-7.33 -39.57,-17.51 -51.53,-30.52 -11.96,-13.01 -18.84,-28.51 -20.65,-46.5 -1.82,-17.98 1.85,-37.62 10.99,-58.92 8.94,-20.82 21.68,-40.1 38.24,-57.85 16.54,-17.74 36.34,-33 59.37,-45.78 23.03,-12.77 49.06,-22.84 78.06,-30.17 29,-7.33 60.13,-11 93.37,-11l311.72 0 -38.72 90.15 -311.72 0c-27.08,0 -50.41,5.56 -69.95,16.68 -19.55,11.12 -33.59,26.62 -42.12,46.5 -8.54,19.88 -7.61,35.26 2.8,46.14 10.4,10.88 28.54,16.33 54.39,16.33l307.48 0c68.33,0 114.91,12.31 139.74,36.91 24.83,24.61 26.47,61.99 4.92,112.15 -9.35,21.77 -22.3,41.88 -38.85,60.33 -16.55,18.45 -36.34,34.43 -59.37,47.92 -23.03,13.48 -49.25,24.01 -78.67,31.59 -29.41,7.57 -61.66,11.35 -96.75,11.35l-503.25 0z"/>
     <path class="fil7" style="mask:url(#id22)" d="M3739.94 228.16c54.72,-4.79 108.93,-9.21 162.72,-13.32 -16.73,-2.01 -29.04,-7.13 -36.92,-15.37 -10.41,-10.88 -11.34,-26.27 -2.8,-46.14 8.53,-19.87 22.57,-35.37 42.12,-46.5 19.55,-11.12 42.87,-16.68 69.95,-16.68l311.72 0 38.73 -90.15 -311.72 0c-33.24,0 -64.37,3.67 -93.37,11 -29,7.33 -55.02,17.39 -78.06,30.17 -23.02,12.78 -42.82,28.04 -59.36,45.79 -16.56,17.75 -29.29,37.03 -38.24,57.85 -9.15,21.29 -12.81,40.93 -10.99,58.92 0.88,8.73 2.95,16.87 6.22,24.42z"/>
    </g>
    <g>
     <path class="fil8" style="mask:url(#id24)" d="M3388.97 514.41l-19.32 94.69 -313.34 0 99.66 53.29 203.12 0 -28.7 140.73 -544.42 -288.71 -132.08 0 684.88 360.11c12.22,6.55 24.48,11.73 36.79,15.52 12.32,3.8 24.85,5.69 37.6,5.69 12.75,0 21.92,-1.9 27.53,-5.69 5.61,-3.79 8.97,-8.96 10.12,-15.52l77.51 -360.11 -139.37 0z"/>
     <path class="fil9" style="mask:url(#id26)" d="M2420.14 514.41l-80.42 105.95 -251.16 0 49.61 58.74 279.79 0c42.48,0 80.03,6.56 112.64,19.67 32.63,13.12 59.42,32.08 80.39,56.91 20.97,24.83 25.31,43.27 13.03,55.33 -12.28,12.06 -38.73,18.1 -79.37,18.1 -160.67,0 -321.33,0 -482.01,0l56.26 66.61 482.01 0c38.17,0 69.6,-3.23 94.3,-9.7 24.7,-6.47 42.42,-15.74 53.16,-27.8 10.73,-12.06 14.42,-26.66 11.02,-43.8 -3.38,-17.13 -14.09,-36.36 -32.11,-57.7 -26.87,-31.82 -61.55,-58.48 -104.03,-79.99 -42.47,-21.51 -89.56,-36.98 -141.24,-46.42l104.32 -115.92 -166.21 0z"/>
     <polygon class="fil10" style="mask:url(#id28)" points="1357.44,514.41 1623.24,829.12 1368.39,829.12 1424.65,895.73 2051.62,895.73 1995.36,829.12 1740.51,829.12 1474.71,514.41 "/>
     <polygon class="fil11" style="mask:url(#id30)" points="719.58,514.41 1041.64,895.73 1158.91,895.73 893.12,581.03 1344.65,581.03 1288.39,514.41 "/>
     <path class="fil12" style="mask:url(#id32)" d="M849.9 895.73l112.95 0 -177.42 -210.06c-24.47,-28.97 -52.49,-54.23 -84.05,-75.8 -31.57,-21.56 -67.6,-39.41 -108.08,-53.55 -40.49,-14.14 -86.26,-24.66 -137.32,-31.56 -51.07,-6.9 -108.79,-10.35 -173.16,-10.35 -63.76,0 -115.34,3.45 -154.76,10.35 -39.41,6.9 -67.42,17.42 -84.01,31.56 -16.6,14.14 -22.47,31.99 -17.62,53.55 4.85,21.56 19.51,46.83 43.98,75.8l177.42 210.06 119.32 0 -177.42 -210.06c-16.02,-18.97 -25.62,-35.18 -28.78,-48.63 -3.16,-13.45 0.88,-24.49 12.12,-33.12 11.23,-8.62 30.67,-14.91 58.28,-18.88 27.62,-3.97 64.2,-5.95 109.74,-5.95 45.54,0 85.47,1.98 119.8,5.95 34.31,3.97 64.37,10.26 90.18,18.88 25.81,8.63 48.49,19.66 68.05,33.12 19.56,13.45 37.35,29.67 53.37,48.63l177.42 210.06z"/>
     <path class="fil7" style="mask:url(#id34)" d="M2953.75 672.07c47.24,2.26 94.86,4.64 143.12,7.21l233.53 123.85 22.24 -109.04c44.64,2.79 89.68,5.7 135.14,8.75l-36.95 171.69c-1.15,6.55 -4.51,11.73 -10.12,15.52 -5.61,3.8 -14.78,5.69 -27.53,5.69 -12.76,0 -25.28,-1.9 -37.6,-5.69 -12.31,-3.79 -24.57,-8.97 -36.79,-15.52l-385.04 -202.45z"/>
     <path class="fil7" style="mask:url(#id36)" d="M2111.57 647.62c150.4,2 307.46,5.61 471.26,11.03 13.92,5.47 27.4,11.5 40.44,18.11 42.47,21.5 77.15,48.17 104.03,79.98 18.02,21.34 28.73,40.57 32.11,57.7 3.4,17.14 -0.28,31.73 -11.02,43.8 -10.75,12.06 -28.47,21.33 -53.16,27.8 -24.71,6.46 -56.14,9.7 -94.31,9.7l-482.01 0 -56.27 -66.61c160.67,0 321.33,0 482.01,0 40.63,0 67.09,-6.03 79.37,-18.1 12.27,-12.07 7.94,-30.51 -13.03,-55.34 -20.97,-24.82 -47.77,-43.79 -80.4,-56.9 -32.62,-13.12 -70.17,-19.67 -112.64,-19.67l-279.78 0 -26.6 -31.49z"/>
     <path class="fil7" style="mask:url(#id38)" d="M1470.95 648.8c38.03,-0.68 76.68,-1.25 115.81,-1.72l153.74 182.03 254.85 0 56.27 66.61 -626.98 0 -56.27 -66.61 254.85 0 -152.29 -180.31z"/>
     <path class="fil7" style="mask:url(#id40)" d="M851.94 671.12c36.66,-2 74.32,-3.88 112.45,-5.69l194.53 230.31 -117.27 0 -189.71 -224.62z"/>
     <path class="fil7" style="mask:url(#id42)" d="M112.3 735.27c35.02,-4.02 71.43,-8.01 109.22,-11.95l145.63 172.41 -119.32 0 -135.53 -160.46zm559.72 -50.15c34.96,-2.35 70.52,-4.63 107.05,-6.81 2.15,2.43 4.27,4.87 6.36,7.35l177.43 210.07 -112.95 0 -177.43 -210.07 -0.46 -0.55z"/>
     <polygon class="fil13" style="mask:url(#id44)" points="6394.3,680.16 6441.7,736.28 6813.82,736.28 6766.42,680.16 "/>
     <polygon class="fil13" style="mask:url(#id46)" points="6052.09,514.41 6374.15,895.73 6973.42,895.73 6917.16,829.12 6434.23,829.12 6224.69,581.03 6708.55,581.03 6652.29,514.41 "/>
     <path class="fil7" style="mask:url(#id48)" d="M6417.2 707.27c93.81,-8.46 183.53,-17.56 269.47,-27.12l79.75 0 47.4 56.12 -372.12 0 -24.5 -29.01z"/>
     <path class="fil7" style="mask:url(#id50)" d="M6228.28 723.02c36.91,-2.82 73.1,-5.77 108.92,-8.79l97.03 114.88 482.93 0 56.27 66.61 -599.28 0 -145.87 -172.71z"/>
     <path class="fil13" style="mask:url(#id52)" d="M5630.16 789.67l-232.47 -275.26 -110.21 0 288.41 341.48c10.19,12.07 23.59,21.64 40.19,28.71 16.61,7.07 34.01,10.61 52.23,10.61 8.5,0 15.82,-1.03 21.97,-3.11 6.14,-2.07 11.42,-5.52 15.85,-10.35l244.85 -263.35 232.48 275.25 110.21 0 -291.04 -344.59c-10.48,-12.41 -23.95,-22.07 -40.41,-28.97 -16.46,-6.9 -33.17,-10.35 -50.18,-10.35 -18.83,0 -32.5,4.66 -41.03,13.97l-240.85 265.94z"/>
     <path class="fil7" style="mask:url(#id54)" d="M5492.98 757.73c36.17,-1.01 71.95,-2.14 107.37,-3.36l29.82 35.3 34.04 -37.6c57.57,-2.22 113.99,-4.74 169.47,-7.49l-127.55 137.19c-4.43,4.83 -9.71,8.27 -15.85,10.34 -6.14,2.07 -13.47,3.11 -21.96,3.11 -18.22,0 -35.63,-3.54 -52.24,-10.61 -16.6,-7.07 -29.99,-16.64 -40.19,-28.72l-82.91 -98.16zm554.35 -25.24c35.25,-2.26 69.92,-4.63 104.24,-7.08l142.1 168.25 -110.21 0 -136.13 -161.17z"/>
     <polygon class="fil13" style="mask:url(#id56)" points="5098.96,514.41 5421.01,895.73 5538.29,895.73 5216.23,514.41 "/>
     <path class="fil7" style="mask:url(#id58)" d="M5310.89 765.34c38.83,-0.65 77.29,-1.42 115.32,-2.31l112.08 132.7 -117.27 0 -110.13 -130.4z"/>
     <polygon class="fil13" style="mask:url(#id60)" points="4373.73,514.41 4695.79,895.73 4812.58,895.73 4490.52,514.41 "/>
     <path class="fil7" style="mask:url(#id62)" d="M4583.59 762.89c39.97,0.96 79.6,1.79 118.88,2.49l110.11 130.36 -116.79 0 -112.21 -132.85z"/>
     <polygon class="fil13" style="mask:url(#id64)" points="4908.87,514.41 5048.28,679.48 4711.71,679.48 4761.56,738.5 5098.13,738.5 5230.93,895.73 5347.73,895.73 5025.67,514.41 "/>
     <path class="fil7" style="mask:url(#id66)" d="M5123.1 768.06c39.02,-0.22 77.67,-0.56 115.93,-1.03l108.7 128.7 -116.8 0 -107.83 -127.67z"/>
     <path class="fil13" style="mask:url(#id68)" d="M3596.63 514.41l56.26 66.61 503.25 0c31.4,0 59.4,4.55 84,13.64 24.61,9.09 43.27,21.16 55.97,36.19 13.88,16.44 15.83,28.76 5.83,36.98 -9.99,8.22 -30.68,12.32 -62.07,12.32l-308.41 0c-31.4,0 -57.58,2.72 -78.54,8.13 -20.97,5.42 -36.17,12.94 -45.59,22.55 -9.43,9.62 -13.29,21.07 -11.61,34.36 1.68,13.29 9.17,27.8 22.46,43.54 12.99,15.39 29.49,29.63 49.49,42.75 19.99,13.11 42.76,24.39 68.27,33.83 25.52,9.44 53.5,16.88 83.93,22.29 30.43,5.42 62.27,8.13 95.51,8.13l311.72 0 -56.26 -66.61 -311.72 0c-27.08,0 -51.49,-4.11 -73.2,-12.33 -21.71,-8.21 -38.77,-19.67 -51.17,-34.35 -12.4,-14.69 -14.46,-26.05 -6.17,-34.1 8.28,-8.04 25.36,-12.06 51.22,-12.06l307.48 0c68.33,0 112.52,-9.09 132.56,-27.28 20.04,-18.18 14.41,-45.81 -16.9,-82.87 -13.59,-16.09 -30.45,-30.95 -50.58,-44.58 -20.14,-13.64 -43.04,-25.44 -68.69,-35.41 -25.66,-9.97 -53.92,-17.75 -84.81,-23.34 -30.88,-5.59 -63.87,-8.39 -98.97,-8.39l-503.24 0z"/>
     <path class="fil7" style="mask:url(#id70)" d="M3797.18 727.15c55.65,3.54 110.72,6.81 165.31,9.84 -16.34,1.48 -27.65,5.27 -33.93,11.35 -8.29,8.04 -6.23,19.41 6.17,34.09 12.4,14.68 29.46,26.14 51.17,34.36 21.71,8.22 46.12,12.32 73.19,12.32l311.72 0 56.27 66.61 -311.72 0c-33.24,0 -65.09,-2.71 -95.52,-8.13 -30.42,-5.42 -58.4,-12.85 -83.93,-22.29 -25.51,-9.44 -48.28,-20.72 -68.27,-33.83 -20.01,-13.11 -36.5,-27.36 -49.49,-42.75 -13.29,-15.74 -20.77,-30.25 -22.45,-43.54 -0.82,-6.45 -0.33,-12.47 1.47,-18.05z"/>
    </g>
   </g>
  </g>
 </g>
</svg>
