<?xml version="1.0" encoding="UTF-8"?>
<!DOCTYPE svg PUBLIC "-//W3C//DTD SVG 1.1//EN" "http://www.w3.org/Graphics/SVG/1.1/DTD/svg11.dtd">
<!-- Creator: CorelDRAW 2019 (64 Bit) -->
<svg xmlns="http://www.w3.org/2000/svg" xml:space="preserve" width="223.761mm" height="31.0462mm" version="1.1" style="shape-rendering:geometricPrecision; text-rendering:geometricPrecision; image-rendering:optimizeQuality; fill-rule:evenodd; clip-rule:evenodd"
viewBox="0 0 7322.06 1015.91"
 xmlns:xlink="http://www.w3.org/1999/xlink">
 <defs>
  <style type="text/css">
   <![CDATA[
    .fil7 {fill:#FEFEFE}
    .fil9 {fill:#FEFEFE;fill-rule:nonzero}
    .fil0 {fill:#E6E7E8;fill-rule:nonzero}
    .fil8 {fill:#606062;fill-rule:nonzero}
    .fil1 {fill:url(#id26);fill-rule:nonzero}
    .fil4 {fill:url(#id27);fill-rule:nonzero}
    .fil3 {fill:url(#id28);fill-rule:nonzero}
    .fil6 {fill:url(#id29);fill-rule:nonzero}
    .fil5 {fill:url(#id30);fill-rule:nonzero}
    .fil2 {fill:url(#id31);fill-rule:nonzero}
   ]]>
  </style>
    <mask id="id0">
  <linearGradient id="id1" gradientUnits="userSpaceOnUse" x1="3540.35" y1="652.98" x2="3540.35" y2="-241.46">
   <stop offset="0" style="stop-opacity:1; stop-color:white"/>
   <stop offset="1" style="stop-opacity:0; stop-color:white"/>
  </linearGradient>
     <rect style="fill:url(#id1)" x="2907.74" y="-3.27" width="532.48" height="309.24"/>
    </mask>
    <mask id="id2">
  <linearGradient id="id3" gradientUnits="userSpaceOnUse" x1="3561.82" y1="654.86" x2="3561.82" y2="-251.87">
   <stop offset="0" style="stop-opacity:1; stop-color:white"/>
   <stop offset="1" style="stop-opacity:0; stop-color:white"/>
  </linearGradient>
     <rect style="fill:url(#id3)" x="1975.28" y="-3.27" width="707.31" height="342.33"/>
    </mask>
    <mask id="id4">
  <linearGradient id="id5" gradientUnits="userSpaceOnUse" x1="3571.37" y1="654.86" x2="3571.37" y2="-251.87">
   <stop offset="0" style="stop-opacity:1; stop-color:white"/>
   <stop offset="1" style="stop-opacity:0; stop-color:white"/>
  </linearGradient>
     <rect style="fill:url(#id5)" x="1281.02" y="-3.27" width="672.25" height="343.04"/>
    </mask>
    <mask id="id6">
  <linearGradient id="id7" gradientUnits="userSpaceOnUse" x1="3579.15" y1="654.86" x2="3579.15" y2="-251.87">
   <stop offset="0" style="stop-opacity:1; stop-color:white"/>
   <stop offset="1" style="stop-opacity:0; stop-color:white"/>
  </linearGradient>
     <rect style="fill:url(#id7)" x="806.18" y="-3.27" width="254.38" height="318.23"/>
    </mask>
    <mask id="id8">
  <linearGradient id="id9" gradientUnits="userSpaceOnUse" x1="3540.35" y1="645.98" x2="3540.35" y2="-248.46">
   <stop offset="0" style="stop-opacity:1; stop-color:white"/>
   <stop offset="1" style="stop-opacity:0; stop-color:white"/>
  </linearGradient>
     <rect style="fill:url(#id9)" x="49.65" y="-3.27" width="814.85" height="300.79"/>
    </mask>
    <mask id="id10">
  <linearGradient id="id11" gradientUnits="userSpaceOnUse" x1="3498.23" y1="654.86" x2="3498.23" y2="-251.87">
   <stop offset="0" style="stop-opacity:1; stop-color:white"/>
   <stop offset="1" style="stop-opacity:0; stop-color:white"/>
  </linearGradient>
     <rect style="fill:url(#id11)" x="6361.92" y="212.53" width="395.53" height="82.49"/>
    </mask>
    <mask id="id12">
  <linearGradient id="id13" gradientUnits="userSpaceOnUse" x1="3498.23" y1="654.86" x2="3498.23" y2="-251.87">
   <stop offset="0" style="stop-opacity:1; stop-color:white"/>
   <stop offset="1" style="stop-opacity:0; stop-color:white"/>
  </linearGradient>
     <rect style="fill:url(#id13)" x="6168.85" y="-3.27" width="706.22" height="252.17"/>
    </mask>
    <mask id="id14">
  <linearGradient id="id15" gradientUnits="userSpaceOnUse" x1="3529.9" y1="652.98" x2="3529.9" y2="-241.46">
   <stop offset="0" style="stop-opacity:1; stop-color:white"/>
   <stop offset="1" style="stop-opacity:0; stop-color:white"/>
  </linearGradient>
     <rect style="fill:url(#id15)" x="5424.41" y="-2.57" width="771.44" height="236.34"/>
    </mask>
    <mask id="id16">
  <linearGradient id="id17" gradientUnits="userSpaceOnUse" x1="3511.34" y1="654.86" x2="3511.34" y2="-251.87">
   <stop offset="0" style="stop-opacity:1; stop-color:white"/>
   <stop offset="1" style="stop-opacity:0; stop-color:white"/>
  </linearGradient>
     <rect style="fill:url(#id17)" x="5240.32" y="-3.27" width="199.61" height="186.14"/>
    </mask>
    <mask id="id18">
  <linearGradient id="id19" gradientUnits="userSpaceOnUse" x1="3524.8" y1="652.18" x2="3524.8" y2="-250.84">
   <stop offset="0" style="stop-opacity:1; stop-color:white"/>
   <stop offset="1" style="stop-opacity:0; stop-color:white"/>
  </linearGradient>
     <rect style="fill:url(#id19)" x="4513.67" y="-3.27" width="200.56" height="186.33"/>
    </mask>
    <mask id="id20">
  <linearGradient id="id21" gradientUnits="userSpaceOnUse" x1="3521.97" y1="652.18" x2="3521.97" y2="-250.84">
   <stop offset="0" style="stop-opacity:1; stop-color:white"/>
   <stop offset="1" style="stop-opacity:0; stop-color:white"/>
  </linearGradient>
     <rect style="fill:url(#id21)" x="5051.82" y="-3.27" width="197.56" height="180.72"/>
    </mask>
    <mask id="id22">
  <linearGradient id="id23" gradientUnits="userSpaceOnUse" x1="3532" y1="654.86" x2="3532" y2="-251.87">
   <stop offset="0" style="stop-opacity:1; stop-color:white"/>
   <stop offset="1" style="stop-opacity:0; stop-color:white"/>
  </linearGradient>
     <rect style="fill:url(#id23)" x="3729.99" y="-3.27" width="598.75" height="234.7"/>
    </mask>
    <mask id="id24">
  <linearGradient id="id25" gradientUnits="userSpaceOnUse" x1="3559.12" y1="-160.95" x2="3559.15" y2="778.66">
   <stop offset="0" style="stop-opacity:1; stop-color:white"/>
   <stop offset="1" style="stop-opacity:0; stop-color:white"/>
  </linearGradient>
     <rect style="fill:url(#id25)" x="21.5" y="506.48" width="6955.19" height="392.52"/>
    </mask>
  <linearGradient id="id26" gradientUnits="userSpaceOnUse" x1="6906.72" y1="997.67" x2="7130.79" y2="850.05">
   <stop offset="0" style="stop-opacity:1; stop-color:red"/>
   <stop offset="0.478431" style="stop-opacity:1; stop-color:#FF4600"/>
   <stop offset="1" style="stop-opacity:1; stop-color:#FF8400"/>
  </linearGradient>
  <linearGradient id="id27" gradientUnits="userSpaceOnUse" xlink:href="#id26" x1="-221.67" y1="558.26" x2="3526.41" y2="11.34">
  </linearGradient>
  <linearGradient id="id28" gradientUnits="userSpaceOnUse" xlink:href="#id26" x1="-221.67" y1="558.26" x2="3526.41" y2="11.34">
  </linearGradient>
  <linearGradient id="id29" gradientUnits="userSpaceOnUse" xlink:href="#id26" x1="-221.67" y1="558.26" x2="3526.41" y2="11.34">
  </linearGradient>
  <linearGradient id="id30" gradientUnits="userSpaceOnUse" xlink:href="#id26" x1="-221.67" y1="558.26" x2="3526.41" y2="11.34">
  </linearGradient>
  <linearGradient id="id31" gradientUnits="userSpaceOnUse" xlink:href="#id26" x1="-221.67" y1="558.26" x2="3526.41" y2="11.34">
  </linearGradient>
 </defs>
 <g id="Camada_x0020_1">
  <metadata id="CorelCorpID_0Corel-Layer"/>
  <g id="_1624152902560">
   <g>
    <path class="fil0" d="M7081.41 1013.66l13.14 -28.58 122.64 0c7.66,0 14.45,-1.95 20.37,-5.85 5.92,-3.91 10.37,-9.08 13.32,-15.53 3.26,-7.05 3.61,-12.34 1.12,-15.87 -2.51,-3.53 -7.59,-5.28 -15.25,-5.28l-75.16 0c-7.66,0 -14.04,-1.17 -19.2,-3.49 -5.18,-2.33 -8.95,-5.55 -11.32,-9.67 -2.38,-4.13 -3.41,-9.04 -3.13,-14.75 0.3,-5.7 2.01,-11.92 5.12,-18.67 3.04,-6.6 6.94,-12.71 11.7,-18.34 4.75,-5.62 10.22,-10.47 16.35,-14.52 6.12,-4.04 12.89,-7.24 20.27,-9.56 7.36,-2.33 15.1,-3.49 23.21,-3.49l117.46 0 -13.14 28.59 -117.46 0c-6.61,0 -12.53,1.76 -17.76,5.28 -5.22,3.53 -9.28,8.44 -12.17,14.73 -2.89,6.3 -3.31,11.18 -1.22,14.63 2.09,3.46 6.29,5.18 12.59,5.18l74.94 0c16.66,0 27.51,3.89 32.54,11.7 5.03,7.79 3.89,19.65 -3.41,35.55 -3.17,6.91 -7.17,13.28 -11.97,19.13 -4.78,5.85 -10.27,10.92 -16.44,15.2 -6.15,4.26 -12.97,7.61 -20.46,10.01 -7.47,2.39 -15.48,3.6 -24.04,3.6l-122.64 0z"/>
    <path class="fil1" d="M7102.88 850.05l27.91 0 -42.04 91.37c-5.79,12.59 -12.51,23.59 -20.11,32.95 -7.61,9.38 -16.37,17.16 -26.23,23.29 -9.88,6.15 -21.1,10.73 -33.66,13.73 -12.56,3.01 -26.79,4.52 -42.69,4.52 -15.75,0 -28.54,-1.51 -38.32,-4.52 -9.82,-2.99 -16.82,-7.58 -21.02,-13.73 -4.25,-6.14 -5.85,-13.91 -4.83,-23.29 1.02,-9.36 4.43,-20.36 10.22,-32.95l42.04 -91.37 29.48 0 -42.03 91.37c-3.8,8.24 -6.02,15.3 -6.69,21.15 -0.67,5.85 0.42,10.65 3.28,14.39 2.86,3.75 7.71,6.49 14.56,8.21 6.84,1.74 15.92,2.59 27.17,2.59 11.25,0 21.08,-0.85 29.53,-2.59 8.46,-1.72 15.83,-4.46 22.12,-8.21 6.3,-3.74 11.8,-8.54 16.53,-14.39 4.72,-5.85 8.96,-12.91 12.76,-21.15l42.04 -91.37z"/>
    <polygon class="fil0" points="6626.28,1014.32 6701.86,850.05 6730.44,850.05 6654.86,1014.32 "/>
    <polygon class="fil0" points="6757.92,1014.32 6790.64,943.21 6708.28,943.21 6719.99,917.78 6802.35,917.78 6833.5,850.05 6862.09,850.05 6786.51,1014.32 "/>
    <polygon class="fil0" points="6517.02,1013.66 6579.13,878.64 6517.02,878.64 6530.16,850.05 6682.97,850.05 6669.83,878.64 6607.71,878.64 6545.59,1013.66 "/>
    <polygon class="fil0" points="6406.06,1013.66 6481.32,850.05 6509.9,850.05 6434.64,1013.66 "/>
    <path class="fil0" d="M6272.8 958.96l-47.49 47.94c-3.04,3.01 -6.17,5.25 -9.41,6.75 -3.25,1.51 -6.35,2.26 -9.37,2.26 -6.59,0 -10.18,-3.01 -10.7,-9.01l-12.47 -156.85 34.21 0 8.29 125.8 45.26 -44.56 -5.17 -81.24 34.43 0 5.37 125.8 124.48 -125.8 31.95 0 -156.75 156.85c-3.04,3.01 -6.22,5.25 -9.53,6.75 -3.32,1.51 -6.47,2.26 -9.48,2.26 -2.99,0 -5.43,-0.75 -7.29,-2.26 -1.86,-1.51 -2.93,-3.75 -3.19,-6.75l-3.14 -47.94z"/>
    <polygon class="fil0" points="5964.16,942.54 5975.25,918.47 6065.94,918.47 6054.86,942.54 "/>
    <polygon class="fil0" points="5882.19,1013.66 5957.44,850.05 6103.49,850.05 6090.35,878.64 5972.66,878.64 5923.69,985.08 6041.6,985.08 6028.45,1013.66 "/>
    <path class="fil0" d="M5834.92 1013.66l21.63 -115 -95.34 106.46c-3.24,3.44 -6.45,6.1 -9.65,7.97 -3.19,1.89 -6.51,2.83 -9.95,2.83 -6.76,0 -9.97,-3.61 -9.67,-10.8l2.84 -106.46 -84.19 115 -28.13 0 112.9 -153.93c5.53,-7.81 12.06,-11.7 19.56,-11.7 2.99,0 5.42,0.84 7.29,2.48 1.87,1.66 2.76,4.04 2.66,7.21l-2.81 115.67 103.63 -115.67c5.65,-6.45 11.72,-9.68 18.17,-9.68 6.9,0 9.68,3.9 8.34,11.7l-28.96 153.93 -28.36 0z"/>
    <path class="fil0" d="M5550.12 985.08c7.49,0 15.02,-1.35 22.58,-4.06 7.54,-2.69 14.68,-6.4 21.43,-11.14 6.74,-4.72 12.91,-10.38 18.51,-16.99 5.57,-6.6 10.13,-13.73 13.66,-21.38 3.51,-7.64 5.48,-14.73 5.95,-21.25 0.45,-6.54 -0.55,-12.12 -2.97,-16.77 -2.44,-4.65 -6.2,-8.3 -11.29,-10.92 -5.1,-2.62 -11.4,-3.93 -18.89,-3.93l-39.85 0c-7.34,0 -14.73,1.31 -22.17,3.93 -7.44,2.62 -14.48,6.27 -21.12,10.92 -6.64,4.65 -12.71,10.2 -18.24,16.65 -5.52,6.45 -10.07,13.58 -13.65,21.37 -3.53,7.66 -5.53,14.78 -6.02,21.38 -0.48,6.61 0.44,12.27 2.76,16.99 2.32,4.73 5.98,8.44 10.97,11.14 4.98,2.71 11.15,4.06 18.49,4.06l39.84 0zm-52.98 28.58c-11.4,0 -20.95,-2.14 -28.67,-6.42 -7.69,-4.26 -13.41,-10.12 -17.12,-17.54 -3.7,-7.44 -5.2,-16.25 -4.48,-26.45 0.7,-10.2 3.8,-21.22 9.25,-33.07 5.52,-12 12.54,-22.95 21.08,-32.85 8.53,-9.9 17.97,-18.34 28.29,-25.31 10.35,-6.99 21.23,-12.39 32.65,-16.2 11.45,-3.83 22.86,-5.75 34.26,-5.75l39.84 0c11.84,0 21.8,1.96 29.81,5.85 8.04,3.91 13.96,9.38 17.77,16.44 3.8,7.04 5.4,15.48 4.78,25.31 -0.63,9.83 -3.66,20.67 -9.11,32.52 -5.45,11.86 -12.53,22.87 -21.18,33.07 -8.66,10.2 -18.26,19.01 -28.83,26.45 -10.54,7.42 -21.67,13.28 -33.39,17.54 -11.7,4.28 -23.43,6.42 -35.11,6.42l-39.84 0z"/>
    <path class="fil0" d="M5310.57 1013.66c-11.4,0 -20.95,-2.14 -28.67,-6.42 -7.69,-4.26 -13.41,-10.12 -17.12,-17.54 -3.69,-7.44 -5.2,-16.25 -4.48,-26.45 0.7,-10.2 3.8,-21.22 9.25,-33.07 5.52,-12 12.54,-22.95 21.08,-32.85 8.53,-9.9 17.97,-18.34 28.29,-25.31 10.35,-6.99 21.23,-12.39 32.65,-16.2 11.45,-3.83 22.86,-5.75 34.26,-5.75l88.67 0 -13.14 28.59 -88.67 0c-7.34,0 -14.73,1.31 -22.17,3.93 -7.44,2.62 -14.48,6.27 -21.12,10.92 -6.64,4.65 -12.71,10.2 -18.24,16.65 -5.52,6.45 -10.07,13.58 -13.64,21.37 -3.53,7.66 -5.54,14.78 -6.02,21.38 -0.48,6.61 0.44,12.27 2.76,16.99 2.32,4.73 5.98,8.44 10.97,11.14 4.98,2.71 11.15,4.06 18.49,4.06l88.67 0 -13.14 28.58 -88.67 0z"/>
   </g>
   <path class="fil2" d="M3387.74 516.05l-44.25 -128.14 -313.33 0 85.63 -72.12 203.12 0 -65.76 -190.46 -468.4 390.71 -132.08 0 590.07 -487.34c10.49,-8.87 21.39,-15.87 32.7,-21 11.32,-5.14 23.34,-7.71 36.1,-7.71 12.75,0 22.42,2.57 29.03,7.71 6.6,5.13 11.34,12.13 14.2,21l172.33 487.34 -139.37 0z"/>
   <path class="fil3" d="M2418.91 516.05l-108.32 -143.39 -251.16 0 34.15 -79.5 279.79 0c42.48,0 78.3,-8.87 107.46,-26.62 29.18,-17.75 50.97,-43.42 65.41,-77.02 14.43,-33.6 13.91,-58.56 -1.54,-74.89 -15.45,-16.33 -43.49,-24.49 -84.13,-24.49 -160.67,0 -321.34,0 -482.01,0l38.72 -90.15 482.01 0c38.17,0 70.45,4.38 96.86,13.13 26.4,8.76 46.56,21.3 60.48,37.63 13.91,16.33 21.44,36.08 22.55,59.27 1.13,23.19 -4.52,49.21 -16.92,78.08 -18.5,43.06 -46.15,79.15 -82.97,108.25 -36.81,29.1 -79.82,50.04 -129.02,62.82l134.84 156.87 -166.21 0z"/>
   <polygon class="fil4" points="1356.22,516.05 1539.15,90.15 1284.3,90.15 1323.02,0.01 1949.99,0.01 1911.27,90.15 1656.42,90.15 1473.49,516.05 "/>
   <polygon class="fil5" points="718.36,516.05 940.01,0.01 1057.28,0.01 874.35,425.9 1325.89,425.9 1287.17,516.05 "/>
   <path class="fil6" d="M748.27 0.01l112.95 0 -122.11 284.28c-16.84,39.21 -38.21,73.4 -64.1,102.58 -25.89,29.17 -57.22,53.33 -93.98,72.47 -36.77,19.14 -79.77,33.38 -129.02,42.71 -49.25,9.34 -106.06,14.01 -170.43,14.01 -63.76,0 -116.26,-4.67 -157.48,-14.01 -41.23,-9.33 -72,-23.57 -92.32,-42.71 -20.32,-19.14 -30.9,-43.3 -31.72,-72.47 -0.83,-29.18 7.18,-63.37 24.02,-102.58l122.11 -284.28 119.32 0 -122.11 284.28c-11.02,25.67 -16.35,47.61 -15.98,65.82 0.38,18.2 7.32,33.14 20.83,44.81 13.5,11.67 34.59,20.18 63.25,25.55 28.67,5.37 65.77,8.05 111.31,8.05 45.54,0 84.95,-2.68 118.23,-8.05 33.27,-5.37 61.67,-13.88 85.21,-25.55 23.53,-11.67 43.31,-26.61 59.33,-44.81 16.02,-18.2 29.54,-40.15 40.56,-65.82l122.11 -284.28z"/>
   <path class="fil7" style="mask:url(#id0)" d="M2911.01 302.7c46.65,-3.06 93.63,-6.28 141.22,-9.75l200.92 -167.6 50.95 147.57c43.91,-3.77 88.18,-7.72 132.83,-11.84l-82.16 -232.35c-2.87,-8.87 -7.6,-15.88 -14.2,-21 -6.6,-5.13 -16.28,-7.71 -29.03,-7.71 -12.76,0 -24.78,2.57 -36.1,7.71 -11.32,5.12 -22.21,12.13 -32.7,21l-331.74 273.98z"/>
   <path class="fil7" style="mask:url(#id2)" d="M2075.27 335.79c149.88,-2.71 305.99,-7.59 468.36,-14.92 12.48,-7.4 24.37,-15.57 35.67,-24.51 36.81,-29.1 64.47,-65.19 82.96,-108.24 12.41,-28.87 18.05,-54.9 16.92,-78.08 -1.12,-23.19 -8.64,-42.95 -22.55,-59.27 -13.92,-16.33 -34.08,-28.86 -60.48,-37.63 -26.41,-8.74 -58.68,-13.13 -96.86,-13.13l-482.01 0 -38.73 90.15c160.67,0 321.34,0 482.01,0 40.63,0 68.68,8.16 84.13,24.49 15.45,16.33 15.98,41.29 1.54,74.89 -14.43,33.59 -36.23,59.27 -65.41,77.01 -29.16,17.75 -64.99,26.62 -107.46,26.62l-279.79 0 -18.31 42.62z"/>
   <path class="fil7" style="mask:url(#id4)" d="M1434.34 334.18c38.2,0.92 77,1.69 116.26,2.32l105.81 -246.35 254.85 0 38.73 -90.15 -626.98 0 -38.73 90.15 254.85 0 -104.81 244.03z"/>
   <path class="fil7" style="mask:url(#id6)" d="M809.45 303.99c37.19,2.71 75.34,5.25 113.95,7.71l133.88 -311.69 -117.27 0 -130.57 303.98z"/>
   <path class="fil7" style="mask:url(#id8)" d="M52.92 217.16c36.07,5.45 73.54,10.84 112.37,16.17l100.23 -233.33 -119.32 0 -93.28 217.15zm572.92 67.87c35.58,3.18 71.74,6.27 108.84,9.21 1.51,-3.29 2.98,-6.59 4.43,-9.95l122.11 -284.29 -112.95 0 -122.11 284.29 -0.32 0.74z"/>
   <polygon class="fil0" points="6349.43,291.75 6382.05,215.8 6754.18,215.8 6721.55,291.75 "/>
   <polygon class="fil0" points="6050.86,516.05 6272.52,0.01 6871.8,0.01 6833.07,90.15 6350.14,90.15 6205.93,425.9 6689.79,425.9 6651.06,516.05 "/>
   <path class="fil8" style="mask:url(#id10)" d="M6365.19 255.05c96.03,11.45 188.15,23.76 276.6,36.7l79.76 0 32.62 -75.95 -372.12 0 -16.86 39.25z"/>
   <path class="fil8" style="mask:url(#id12)" d="M6172.12 233.74c37.65,3.82 74.62,7.81 111.24,11.89l66.78 -155.48 482.93 0 38.73 -90.15 -599.28 0 -100.4 233.73z"/>
   <path class="fil0" d="M5556.46 143.54l-160 372.51 -110.21 0 198.5 -462.14c7.02,-16.34 17.89,-29.29 32.63,-38.86 14.74,-9.57 31.22,-14.36 49.44,-14.36 8.5,0 16.1,1.4 22.79,4.2 6.69,2.8 12.88,7.47 18.58,14l314.19 356.41 160 -372.51 110.21 0 -200.31 466.34c-7.22,16.8 -18.14,29.87 -32.78,39.21 -14.64,9.34 -30.45,14.01 -47.46,14.01 -18.82,0 -33.72,-6.3 -44.71,-18.9l-310.87 -359.91z"/>
   <path class="fil8" style="mask:url(#id14)" d="M5427.68 186.76c36.44,1.37 72.52,2.9 108.25,4.55l20.52 -47.78 43.94 50.88c58.15,3 115.23,6.41 171.44,10.14l-163.67 -185.66c-5.7,-6.53 -11.89,-11.2 -18.58,-14 -6.69,-2.81 -14.28,-4.21 -22.78,-4.21 -18.22,0 -34.69,4.79 -49.44,14.36 -14.74,9.57 -25.61,22.52 -32.63,38.86l-57.06 132.85zm561 34.15c35.84,3.06 71.14,6.27 106.1,9.58l97.8 -227.69 -110.21 0 -93.69 218.11z"/>
   <polygon class="fil0" points="5097.73,516.05 5319.38,0.01 5436.66,0.01 5215,516.05 "/>
   <path class="fil8" style="mask:url(#id16)" d="M5243.59 176.48c39,0.88 77.67,1.91 115.93,3.12l77.14 -179.59 -117.27 0 -75.8 176.47z"/>
   <polygon class="fil0" points="4372.5,516.06 4594.16,0.01 4710.95,0.01 4489.29,516.06 "/>
   <path class="fil8" style="mask:url(#id18)" d="M4516.94 179.79c39.71,-1.3 79.12,-2.43 118.23,-3.37l75.79 -176.42 -116.79 0 -77.23 179.79z"/>
   <polygon class="fil0" points="4907.64,516.06 5003.59,292.67 4667.02,292.67 4701.33,212.79 5037.9,212.79 5129.3,0.01 5246.1,0.01 5024.44,516.06 "/>
   <path class="fil8" style="mask:url(#id20)" d="M5055.09 172.79c39.07,0.29 77.82,0.76 116.2,1.39l74.81 -174.18 -116.8 0 -74.21 172.79z"/>
   <path class="fil0" d="M3595.41 516.05l38.72 -90.15 503.25 0c31.4,0 58.2,-6.15 80.41,-18.45 22.22,-12.31 37.7,-28.64 46.44,-48.98 9.56,-22.24 8.26,-38.93 -3.9,-50.05 -12.15,-11.12 -33.92,-16.68 -65.32,-16.68l-308.41 0c-31.4,0 -58.29,-3.67 -80.68,-11.01 -22.4,-7.33 -39.57,-17.51 -51.53,-30.52 -11.96,-13.01 -18.84,-28.51 -20.65,-46.5 -1.82,-17.98 1.85,-37.62 10.99,-58.92 8.94,-20.82 21.68,-40.1 38.24,-57.85 16.54,-17.74 36.34,-33 59.37,-45.78 23.03,-12.77 49.06,-22.84 78.06,-30.17 29,-7.33 60.13,-11 93.37,-11l311.72 0 -38.72 90.15 -311.72 0c-27.08,0 -50.41,5.56 -69.95,16.68 -19.55,11.12 -33.59,26.62 -42.12,46.5 -8.54,19.88 -7.61,35.26 2.8,46.14 10.4,10.88 28.54,16.33 54.39,16.33l307.48 0c68.33,0 114.91,12.3 139.74,36.91 24.83,24.61 26.47,61.99 4.92,112.15 -9.35,21.77 -22.3,41.88 -38.85,60.33 -16.55,18.45 -36.34,34.43 -59.37,47.92 -23.03,13.49 -49.25,24.01 -78.67,31.59 -29.41,7.57 -61.66,11.35 -96.75,11.35l-503.25 0z"/>
   <path class="fil8" style="mask:url(#id22)" d="M3739.94 228.16c54.72,-4.79 108.93,-9.21 162.72,-13.32 -16.73,-2 -29.04,-7.13 -36.92,-15.37 -10.41,-10.88 -11.34,-26.27 -2.8,-46.14 8.53,-19.87 22.57,-35.37 42.12,-46.5 19.55,-11.12 42.87,-16.68 69.95,-16.68l311.72 0 38.73 -90.15 -311.72 0c-33.24,0 -64.37,3.67 -93.37,11 -29,7.33 -55.02,17.39 -78.06,30.17 -23.02,12.77 -42.82,28.03 -59.36,45.78 -16.56,17.75 -29.29,37.03 -38.24,57.85 -9.15,21.3 -12.81,40.93 -10.99,58.92 0.88,8.73 2.95,16.87 6.22,24.42z"/>
   <path class="fil9" style="mask:url(#id24)" d="M3388.98 514.42l-19.32 94.68 -313.34 0 99.66 53.3 203.12 0 -28.7 140.73 -233.53 -123.85 -0.02 0 -310.86 -164.85 -132.08 0 684.88 360.11 0.01 0 0.57 0.3 0.01 0 0.57 0.3 0.57 0.3 0.01 0 0.56 0.3 0.01 0 0.57 0.3 0.01 0 0.57 0.3 0.57 0.29 0.01 0 0.57 0.29 0.01 0 0.57 0.29 0.57 0.28 0.57 0.28 0.01 0 0.57 0.29 0.57 0.28 0.57 0.28 0 0 0.57 0.28 0.57 0.28 0.57 0.27 0.01 0 0.57 0.27 0.57 0.27 0 0 0.57 0.27 0.57 0.27 0.57 0.26 0.01 0 0.57 0.26 0.57 0.26 0 0 0.57 0.26 0.57 0.26 0.01 0 0.57 0.26 0.57 0.25 0.58 0.25 0.57 0.25 0.58 0.25 0.57 0.24 0.58 0.24 0.57 0.24 0.01 0 0.57 0.24 0.57 0.24 0 0 0.57 0.23 0.57 0.23 0.01 0 0.57 0.23 0.01 0 0.57 0.23 0.57 0.22 0.01 0 0.57 0.22 0.57 0.23 0.01 0 0.57 0.22 0.01 0 0.57 0.22 0.57 0.22 0.01 0 0.57 0.21 0.01 0 0.57 0.21 0.01 0 0.57 0.21 0.01 0 0.57 0.2 0 0 0.57 0.21 0.01 0 0.57 0.21 0.01 0 0.56 0.2 0.01 0 0.57 0.2 0.01 0 0.57 0.2 0.01 0 0.57 0.19 0.01 0 0.57 0.2 0.01 0 0.57 0.19 0.01 0 0.57 0.19 0 0 0.57 0.19 0.01 0 0.57 0.19 0.01 0 0.56 0.18 0.01 0 0.57 0.18 0.01 0 0.56 0.18 0.01 0 0.57 0.17 0.01 0 0.56 0.18 0.01 0 0.57 0.17 0.01 0 0.57 0.17 0.01 0 0.57 0.16 0.02 0 0.56 0.17 0.01 0 0.57 0.15 0.01 0 0.57 0.15 0.02 0 0.57 0.16 0.01 0 0.57 0.15 0.01 0 0.57 0.15 0.01 0 0.57 0.14 0.01 0 0.57 0.14 0.01 0 0.56 0.14 0.02 0 0.57 0.14 0.01 0 0.57 0.13 0.01 0 0.57 0.13 0.01 0 0.56 0.13 0.02 0 0.57 0.12 0.02 0 0.57 0.12 0.02 0 0.57 0.12 0.02 0 0.57 0.12 0.02 0 0.56 0.12 0.02 0 0.57 0.11 0.01 0 0.57 0.11 0.01 0 0.57 0.1 0.01 0 0.57 0.1 0.02 0 0.57 0.1 0.01 0 0.57 0.1 0.01 0 0.58 0.09 0.01 0 0.57 0.09 0.01 0 0.58 0.09 0.01 0 0.57 0.09 0.01 0 0.58 0.08 0.01 0 0.58 0.09 0.01 0 0.58 0.08 0.01 0 0.58 0.08 0.01 0 0.58 0.07 0.01 0 0.58 0.07 0.01 0 0.58 0.07 0.01 0 0.58 0.07 0.01 0 0.58 0.06 0.01 0 0.58 0.06 0.01 0 0.58 0.06 0.01 0 0.58 0.06 0.01 0 0.58 0.05 0.01 0 0.58 0.05 0.01 0 0.58 0.05 0.01 0 0.58 0.04 0.01 0 0.59 0.04 0.01 0 0.58 0.04 0.01 0 0.58 0.04 0.01 0 0.59 0.03 0.01 0 0.58 0.03 0.01 0 0.58 0.03 0.01 0 0.58 0.02 0.01 0 0.59 0.02 0.01 0 0.59 0.02 0.01 0 0.58 0.01 0.01 0 0.58 0.01 0.01 0 0.59 0.01 0.01 0 0.59 0.01 0.01 0 0.58 0.01 0.01 0 0.58 0 0.01 0 0.59 0 0.01 0 0.58 -0.01 0.01 0 0.57 -0.01 0.01 0 0.57 -0.01 0.01 0 0.56 -0.01 0.01 0 0.56 -0.01 0.01 0 0.55 -0.02 0.01 0 0.55 -0.02 0.01 0 0.54 -0.02 0.01 0 0.54 -0.03 0.01 0 0.54 -0.03 0.01 0 0.53 -0.03 0.01 0 0.52 -0.04 0.01 0 0.52 -0.04 0 0 0.52 -0.04 0.01 0 0.51 -0.04 0 0 0.5 -0.05 0.01 0 0.5 -0.05 0.01 0 0.49 -0.05 0.01 0 0.48 -0.06 0.01 0 0.48 -0.06 0 0 0.48 -0.06 0.01 0 0.47 -0.06 0.01 0 0.46 -0.07 0.01 0 0.46 -0.07 0.01 0 0.46 -0.07 0.01 0 0.45 -0.07 0.01 0 0.45 -0.08 0.01 0 0.44 -0.08 0.01 0 0.44 -0.09 0.01 0 0.43 -0.08 0.01 0 0.43 -0.09 0.01 0 0.42 -0.09 0.01 0 0.41 -0.09 0.01 0 0.41 -0.09 0.01 0 0.4 -0.1 0.01 0 0.4 -0.1 0.01 0 0.4 -0.1 0.01 0 0.39 -0.1 0.01 0 0.38 -0.11 0.01 0 0.38 -0.11 0.01 0 0.37 -0.12 0.01 0 0.37 -0.12 0 0 0.37 -0.12 0.01 0 0.36 -0.12 0.01 0 0.35 -0.12 0.01 0 0.35 -0.13 0.01 0 0.34 -0.13 0.01 0 0.33 -0.13 0.01 0 0.34 -0.14 0.01 0 0.32 -0.14 0.01 0 0.32 -0.14 0.01 0 0.32 -0.14 0.01 0 0.31 -0.15 0.01 0 0.3 -0.15 0 0 0.3 -0.16 0.01 0 0.29 -0.15 0 0 0.29 -0.15 0.01 0 0.28 -0.17 0.01 0 0.28 -0.16 0.01 0 0.27 -0.17 0.01 0 0.27 -0.17 0.01 0 0.26 -0.18 0.01 0 0.26 -0.17 0.01 0 0.26 -0.18 0.01 0 0.26 -0.18 0.01 0 0.25 -0.18 0.25 -0.19 0.01 0 0.24 -0.19 0.01 0 0.24 -0.19 0.01 0 0.24 -0.19 0.01 0 0.24 -0.2 0.24 -0.19 0.23 -0.2 0.23 -0.2 0.22 -0.2 0.23 -0.21 0.22 -0.21 0.21 -0.2 0.01 0 0.21 -0.21 0.21 -0.21 0.01 0 0.2 -0.21 0.01 0 0.2 -0.22 0.2 -0.22 0.19 -0.22 0.01 0 0.19 -0.23 0 0 0.19 -0.22 0.19 -0.22 0.18 -0.23 0.18 -0.23 0.18 -0.23 0.01 0 0.17 -0.23 0.17 -0.24 0.01 0 0.16 -0.24 0.16 -0.24 0.01 0 0.15 -0.24 0.15 -0.24 0.01 0 0.15 -0.25 0.15 -0.25 0.15 -0.25 0.14 -0.25 0.13 -0.26 0.01 0 0.13 -0.26 0.01 0 0.13 -0.26 0.13 -0.26 0.12 -0.26 0.01 0 0.12 -0.26 0.12 -0.27 0.01 0 0.11 -0.27 0.01 0 0.1 -0.27 0.01 0 0.1 -0.27 0.01 0 0.1 -0.27 0.01 0 0.1 -0.28 0.01 0 0.09 -0.28 0.01 0 0.09 -0.28 0.01 0 0.09 -0.28 0.01 0 0.09 -0.29 0.01 0 0.08 -0.28 0.01 0 0.16 -0.58 0.01 0 0.07 -0.29 0.01 0 0.14 -0.59 0.01 0 0.31 -1.51 36.95 -171.7 -0.01 0 40.56 -188.41 -139.36 0zm207.66 0l56.26 66.61 503.24 0c31.4,0 59.4,4.55 84,13.64 24.62,9.09 43.28,21.15 55.97,36.2 13.88,16.43 15.82,28.76 5.83,36.98 -9.99,8.22 -30.69,12.32 -62.08,12.32l-308.41 0c-31.4,0 -57.58,2.71 -78.54,8.14 -20.98,5.42 -36.16,12.93 -45.59,22.55 -4.85,4.95 -8.23,10.39 -10.14,16.31l-0.01 0 -0.01 0.03 -0.07 0.23 -0.08 0.26 -0.02 0.05 -0.06 0.22 -0.08 0.26 -0.02 0.07 -0.06 0.2 -0.08 0.26 -0.02 0.08 -0.05 0.19 -0.08 0.27 -0.02 0.1 -0.04 0.17 -0.07 0.27 -0.03 0.12 -0.03 0.15 -0.06 0.27 -0.03 0.14 -0.03 0.13 -0.06 0.27 -0.03 0.15 -0.03 0.12 -0.05 0.27 -0.04 0.17 -0.02 0.1 -0.05 0.27 -0.04 0.19 -0.01 0.09 -0.05 0.27 -0.04 0.21 -0.01 0.08 -0.04 0.27 -0.03 0.22 -0.01 0.06 -0.05 0.28 -0.03 0.24 -0.01 0.05 -0.03 0.27 -0.03 0.26 -0.01 0.03 -0.03 0.28 -0.03 0.27 0 0.01 -0.03 0.28 -0.02 0.28 -0.01 0.01 -0.02 0.27 -0.02 0.28 0 0.03 -0.02 0.26 -0.02 0.29 0 0.04 -0.01 0.24 -0.02 0.28 0 0.06 -0.01 0.23 -0.01 0.28 -0.01 0.08 -0.01 0.21 -0.01 0.28 -0 0.09 0 0.19 0 0.29 0 0.28 0 0.29 0 0.13 0 0.16 0 0.29 0 0.15 0.01 0.14 0.01 0.29 0.01 0.17 0.01 0.12 0.01 0.29 0.01 0.19 0.01 0.11 0.02 0.29 0.01 0.21 0.01 0.09 0.02 0.29 0.02 0.22 0.01 0.08 0.03 0.3 0.02 0.24 0 0.06 0.03 0.3 0.03 0.26 0.01 0.04 0.03 0.3 0.03 0.28 0 0.02 0.04 0.3 0.04 0.3 0.08 0.62 0.09 0.63 0.1 0.63 0.11 0.63 0.12 0.63 0.12 0.63 0.13 0.63 0.14 0.64 0.15 0.63 0.15 0.65 0.18 0.64 0.17 0.65 0.19 0.64 0.19 0.65 0.2 0.64 0.21 0.65 0.22 0.65 0.23 0.65 0.24 0.66 0.25 0.66 0.25 0.66 0.27 0.66 0.27 0.66 0.28 0.67 0.29 0.66 0.3 0.67 0.3 0.66 0 0.01 0.31 0.67 0.32 0.67 0.33 0.68 0.33 0.68 0.35 0.68 0.35 0.68 0.37 0.68 0.37 0.68 0 0.01 0.38 0.68 0.39 0.69 0.4 0.69 0.4 0.69 0.42 0.7 0.42 0.69 0.44 0.7 0.44 0.7 0.45 0.7 0 0.01 0.45 0.7 0.47 0.7 0.48 0.71 0.48 0.71 0.49 0.71 0.5 0.71 0 0.01 0.51 0.71 0 0.01 0.52 0.71 0 0.01 0.52 0.71 0.53 0.71 0 0.01 0.55 0.72 0 0.01 0.55 0.72 0.56 0.72 0 0.01 0.57 0.72 0 0.01 0.58 0.72 0 0.01 0.58 0.73 0.59 0.73 0 0.01 0.6 0.73 0 0.01 0.61 0.73 0 0.01 0.62 0.73 0 0.01 0.61 0.71 0 0.01 0.62 0.71 0 0.01 0.62 0.71 0 0.01 0.63 0.71 0 0.01 0.63 0.71 0 0.01 0.63 0.71 0 0.01 0.64 0.7 0 0.01 0.65 0.7 0 0.01 0.65 0.7 0 0.01 0.66 0.7 0.66 0.7 0 0.01 0.67 0.69 0 0.01 0.67 0.7 0.68 0.69 0 0.01 0.68 0.69 0 0.01 0.69 0.69 0 0 0.69 0.69 0 0.01 0.7 0.69 0.7 0.69 0.71 0.69 0.71 0.68 0 0.01 0.72 0.68 0.73 0.68 0.73 0.67 0 0.01 0.73 0.68 0.74 0.68 0 0.01 0.74 0.67 0 0.01 0.75 0.67 0.76 0.68 0.76 0.67 0.77 0.67 0.78 0.66 0 0.01 0.77 0.66 0.79 0.66 0.79 0.66 0.79 0.66 0.8 0.67 0.8 0.66 0.8 0.66 0.81 0.65 0.81 0.65 0.82 0.65 0.83 0.65 0.83 0.65 0.84 0.64 0.84 0.64 0.85 0.64 0.85 0.64 0.86 0.64 0.86 0.64 0.87 0.63 0.87 0.64 0.88 0.63 0.88 0.63 0.89 0.63 0.9 0.63 0.9 0.63 0.9 0.63 0.91 0.63 0.91 0.62 0.92 0.62 0.93 0.62 0.93 0.62 0.94 0.62 0.94 0.62 0.95 0.61 0.95 0.61 0.95 0.6 0.96 0.6 0.96 0.6 0 0.01 0.97 0.6 0.97 0.59 0 0 0.98 0.59 0 0.01 0.98 0.58 0 0.01 0.98 0.59 0.98 0.58 0 0.01 0.98 0.58 0 0 0.99 0.57 0 0.01 0.99 0.57 0 0.01 1 0.56 0 0.01 1.01 0.57 0 0.01 1 0.56 0 0.01 1.01 0.56 0 0.01 1.02 0.55 0 0.01 1.02 0.56 1.03 0.55 0 0.01 1.03 0.55 0 0.01 1.03 0.55 0 0.01 1.04 0.54 0 0.01 2.09 1.09 0 0.01 2.1 1.07 1.06 0.53 1.06 0.53 0 0.01 1.06 0.53 0 0.01 1.07 0.52 1.07 0.52 0 0.01 2.16 1.04 0.01 0 1.08 0.51 1.09 0.52 0.01 0 1.09 0.51 0.01 0 1.09 0.51 2.21 1.01 0 0.01 1.11 0.49 1.11 0.5 1.12 0.5 1.12 0.49 0.01 0 1.12 0.49 0.01 0 1.12 0.48 0.01 0 1.13 0.48 1.14 0.48 0 0.01 1.14 0.48 1.14 0.47 2.31 0.94 1.16 0.47 0.01 0 2.32 0.92 1.16 0.46 0.01 0 1.17 0.46 0.01 0 1.17 0.45 0.01 0 1.18 0.45 1.18 0.45 0.01 0 1.19 0.45 0.01 0 1.18 0.44 0.01 0 1.19 0.44 0.01 0 1.19 0.44 0.01 0 1.2 0.44 1.2 0.43 0.01 0 1.21 0.44 1.21 0.42 0.01 0 1.22 0.42 1.22 0.42 1.22 0.42 1.23 0.42 1.24 0.41 1.24 0.41 0.01 0 1.23 0.41 1.25 0.41 1.25 0.4 1.25 0.4 0.01 0 1.25 0.39 0.01 0 1.26 0.39 1.26 0.39 0.01 0 1.26 0.39 0.01 0 1.27 0.38 1.28 0.38 1.27 0.38 0.01 0 1.28 0.37 1.28 0.37 0.01 0 1.29 0.37 1.29 0.37 1.29 0.36 0.01 0 1.29 0.36 0.01 0 1.3 0.36 0 0 1.3 0.35 0.01 0 1.31 0.35 0.01 0 1.31 0.35 1.32 0.34 1.32 0.34 0.01 0 1.32 0.34 0.01 0 1.33 0.33 0 0 1.33 0.34 1.33 0.33 0.01 0 1.34 0.32 1.34 0.32 1.35 0.32 1.35 0.31 1.35 0.32 1.35 0.31 1.36 0.3 1.36 0.31 0.01 0 1.36 0.3 1.37 0.3 1.37 0.3 0.01 0 1.37 0.3 1.38 0.29 1.38 0.29 1.39 0.28 1.39 0.28 1.4 0.28 1.4 0.27 1.4 0.27 1.4 0.27 1.41 0.27 1.42 0.26 1.42 0.26 1.42 0.26 1.42 0.25 1.43 0.26 1.43 0.25 1.43 0.24 1.43 0.24 1.44 0.24 1.44 0.23 1.44 0.23 0.01 0 1.43 0.22 0.01 0 1.44 0.22 1.45 0.22 1.45 0.21 1.45 0.21 0.01 0 1.45 0.21 0.01 0 1.45 0.2 0.01 0 1.45 0.2 1.45 0.19 0.01 0 1.45 0.19 0.01 0 1.46 0.19 0.01 0 1.46 0.18 1.47 0.18 0.01 0 1.46 0.17 0.01 0 1.47 0.17 0.01 0 1.47 0.16 0.01 0 1.47 0.16 1.47 0.16 0.01 0 1.48 0.15 1.48 0.15 0.01 0 1.48 0.14 0 0 1.48 0.14 0.01 0 1.48 0.14 0.01 0 1.48 0.13 0.01 0 1.49 0.12 0.01 0 1.49 0.13 0 0 1.49 0.12 0.01 0 1.5 0.12 1.5 0.11 0.01 0 1.5 0.11 0.01 0 1.5 0.1 0.01 0 1.5 0.1 0.01 0 1.5 0.1 0.01 0 1.51 0.09 0 0 1.51 0.09 0.01 0 1.5 0.09 0.01 0 1.52 0.08 0.01 0 1.51 0.08 0.01 0 1.52 0.08 0.01 0 1.52 0.07 0.01 0 1.52 0.06 0.01 0 1.52 0.06 0.01 0 1.52 0.06 0.01 0 1.53 0.06 0.01 0 1.52 0.05 0.01 0 1.53 0.04 0.01 0 1.53 0.04 0.01 0 1.53 0.04 0.01 0 1.54 0.04 0.01 0 1.53 0.03 0.01 0 1.54 0.02 0.01 0 1.54 0.03 0.01 0 1.54 0.02 0.01 0 1.55 0.01 0.01 0 1.54 0.01 0.01 0 1.55 0.01 0.01 0 1.55 0 311.73 0 -56.27 -66.61 -311.71 0 -0.01 0 -1.26 0 -0.01 0 -1.26 -0.01 -1.25 -0.01 -0.01 0 -1.25 -0.03 -1.25 -0.02 -0.01 0 -1.24 -0.03 -0.01 0 -1.24 -0.04 -0.01 0 -1.24 -0.05 -0.01 0 -1.23 -0.05 -0.01 0 -1.23 -0.06 -1.22 -0.07 -0.01 0 -1.22 -0.07 -1.22 -0.07 -1.22 -0.08 -1.21 -0.09 -1.21 -0.09 -1.21 -0.1 -1.2 -0.11 -1.2 -0.11 -1.19 -0.12 -1.18 -0.12 -1.19 -0.13 -1.18 -0.13 -1.18 -0.14 -1.17 -0.15 -1.17 -0.15 -1.16 -0.16 -0.01 0 -1.16 -0.17 -0.01 0 -1.16 -0.17 -1.15 -0.17 -0.01 0 -1.14 -0.19 -0.01 0 -1.14 -0.19 -1.15 -0.2 -1.14 -0.2 -0.01 0 -1.13 -0.21 -0 0 -1.13 -0.21 -0.01 0 -1.12 -0.22 -1.12 -0.22 -0.01 0 -1.11 -0.23 -0.01 0 -1.11 -0.24 -1.1 -0.24 -0.01 0 -1.1 -0.25 -0.01 0 -1.1 -0.25 -0.01 0 -1.09 -0.26 -1.09 -0.27 -0.01 0 -1.08 -0.27 -0.01 0 -1.08 -0.28 -0.01 0 -1.08 -0.28 -1.07 -0.29 -0.01 0 -1.07 -0.3 -0.01 0 -1.07 -0.3 -1.06 -0.31 -0.01 0 -1.06 -0.31 -1.06 -0.32 -0.01 0 -1.05 -0.33 -1.05 -0.34 -0.01 0 -1.04 -0.34 -1.04 -0.34 -1.04 -0.35 -1.04 -0.36 -1.03 -0.36 -1.02 -0.37 -1.03 -0.37 -1.02 -0.39 -1.01 -0.38 -1.01 -0.4 -1 -0.39 -0.99 -0.41 -0.99 -0.41 -0.98 -0.41 -0.01 0 -0.97 -0.42 -0.97 -0.42 -0.96 -0.42 -0.96 -0.43 -0.94 -0.44 -0.94 -0.44 -0.01 0 -0.93 -0.45 -0.93 -0.45 -0.92 -0.45 -0.91 -0.46 -0.9 -0.46 0 -0.01 -0.9 -0.46 -0.89 -0.47 -0.88 -0.48 -0.87 -0.48 -0.01 -0.01 -0.87 -0.48 -0.86 -0.49 -0.86 -0.5 -0.85 -0.5 0 -0.01 -0.84 -0.5 0 -0.01 -0.84 -0.5 0 -0.01 -0.83 -0.51 -0.01 -0 -0.82 -0.52 0 -0.01 -0.81 -0.51 -0.01 -0.01 -0.81 -0.53 -0.8 -0.53 -0.8 -0.53 -0.01 -0.01 -0.78 -0.54 -0.01 -0.01 -0.78 -0.54 -0.01 -0.01 -0.77 -0.55 -0.01 -0.01 -0.76 -0.55 0 -0.01 -0.77 -0.56 0 -0.01 -0.75 -0.56 -0.01 -0 -0.75 -0.57 0 -0.01 -0.74 -0.57 -0.01 -0.01 -0.73 -0.58 -0.01 -0.01 -0.73 -0.58 0 -0.01 -2.14 -1.78 0 -0.01 -1.39 -1.21 -0.01 -0.01 -0.68 -0.61 0 -0.01 -0.68 -0.61 -0.01 -0.01 -0.67 -0.62 0 -0.01 -0.66 -0.62 0 -0.01 -0.66 -0.63 -0.01 -0.01 -0.64 -0.63 -0.01 -0.01 -0.64 -0.64 -0.01 -0.01 -0.63 -0.64 -0.01 -0.01 -0.63 -0.64 0 -0.01 -0.63 -0.65 0 -0.01 -0.61 -0.65 -0.01 -0.01 -0.61 -0.66 0 -0.01 -0.61 -0.66 0 -0.01 -0.6 -0.67 0 -0.01 -0.59 -0.68 0 -0.01 -0.58 -0.68 0 -0.01 -0.57 -0.68 0 -0.01 -0.56 -0.68 0 -0 -0.55 -0.67 0 -0.01 -0.53 -0.66 0 -0.01 -0.52 -0.66 0 -0 -0.5 -0.66 0 -0.01 -0.48 -0.65 -0.46 -0.65 -0.45 -0.65 0 -0.01 -0.44 -0.63 0 -0.01 -0.42 -0.63 0 -0.01 -0.41 -0.63 -0.39 -0.63 -0.38 -0.62 0 -0.01 -0.36 -0.62 -0.35 -0.61 0 -0.01 -0.33 -0.6 0 -0.01 -0.32 -0.6 0 -0.01 -0.3 -0.6 -0.01 0 -0.28 -0.59 -0.01 -0.01 -0.27 -0.59 -0.26 -0.58 -0.24 -0.58 -0.22 -0.58 -0.21 -0.57 0 -0.01 -0.19 -0.56 -0.01 0 -0.17 -0.56 -0.01 0 -0.16 -0.56 -0.15 -0.55 -0.13 -0.55 -0.12 -0.54 -0.11 -0.53 -0.09 -0.53 -0.08 -0.53 -0.06 -0.52 -0.01 0 -0.04 -0.51 -0.01 0 -0.03 -0.51 -0.01 -0.5 0 -0.5 0.02 -0.5 0.03 -0.49 0.04 -0.49 0.01 0 0.06 -0.48 0.01 0 0.07 -0.48 0.09 -0.47 0.1 -0.46 0.01 0 0.12 -0.46 0.01 0 0.13 -0.46 0.01 0 0.15 -0.45 0.01 0 0.16 -0.45 0.01 0 0.18 -0.44 0.2 -0.44 0.44 -0.86 0.01 0 0.24 -0.43 0.26 -0.42 0.27 -0.42 0.29 -0.41 0.31 -0.4 0.31 -0.41 0.34 -0.39 0.35 -0.39 0.37 -0.38 0.38 -0.38 0.3 -0.29 0.1 -0.09 0.21 -0.19 0.2 -0.17 0.12 -0.1 0.3 -0.27 0.01 -0.01 0.33 -0.27 0.09 -0.07 0.24 -0.19 0.2 -0.16 0.14 -0.1 0.32 -0.24 0.03 -0.02 0.36 -0.25 0.08 -0.06 0.28 -0.19 0.21 -0.14 0.16 -0.11 0.34 -0.22 0.04 -0.02 0.39 -0.24 0.08 -0.05 0.31 -0.19 0.21 -0.12 0.19 -0.11 0.35 -0.2 0.06 -0.04 0.42 -0.23 0.07 -0.03 0.35 -0.19 0.21 -0.1 0.22 -0.12 0.36 -0.18 0.09 -0.04 0.45 -0.22 0.06 -0.03 0.39 -0.19 0.21 -0.09 0.26 -0.12 0.35 -0.16 0.11 -0.05 0.47 -0.21 0.04 -0.01 0.44 -0.19 0.2 -0.08 0.29 -0.12 0.36 -0.14 0.13 -0.06 0.5 -0.19 0.03 -0.01 0.68 -0.24 0.33 -0.12 0.37 -0.12 0.16 -0.06 0.53 -0.17 0.01 0 0.53 -0.17 0.18 -0.06 0.37 -0.11 0.37 -0.11 0.19 -0.06 0.55 -0.15 0.01 -0.01 0.57 -0.16 0.18 -0.05 0.76 -0.2 0.22 -0.06 0.56 -0.14 0.04 -0.01 0.6 -0.14 0.16 -0.04 0.45 -0.1 0.36 -0.08 0.26 -0.06 0.57 -0.12 0.06 -0.01 1.62 -0.32 0.29 -0.06 0.57 -0.1 0.09 -0.02 0.66 -0.12 0.12 -0.02 0.55 -0.09 0.34 -0.06 0.33 -0.06 0.57 -0.09 1.5 -0.23 0.33 -0.04 0.37 -0.06 0.56 -0.07 0.16 -0.03 1.76 -0.21 0.42 -0.05 0.56 -0.06 0.18 -0.03 0.75 -0.08 0.06 0 0.69 -0.07 0.3 -0.03 0.46 -0.04c5.25,-0.47 11,-0.71 17.28,-0.71l307.49 0c68.34,0 112.52,-9.1 132.57,-27.27 20.03,-18.19 14.4,-45.81 -16.89,-82.88 -13.59,-16.08 -30.45,-30.93 -50.59,-44.58 -20.14,-13.63 -43.04,-25.44 -68.69,-35.4 -25.66,-9.97 -53.92,-17.75 -84.8,-23.35 -30.89,-5.6 -63.87,-8.39 -98.97,-8.39l-503.24 0zm1312.23 0l139.41 165.06 -336.57 0 49.85 59.03 336.57 0 132.79 157.23 116.8 0 -108.7 -128.7 -213.36 -252.62 -116.8 0zm-206.39 250.96l110.11 130.36 -0.01 0 -116.78 0 -112.2 -132.84 -209.86 -248.48 116.79 0 211.96 250.96zm723.73 -2.34l0.01 0 112.08 132.7 -0.01 0 -117.26 0 -322.06 -381.32 117.27 0 209.97 248.62zm203.96 26.63l34.04 -37.59 0.01 0 206.79 -228.34c8.53,-9.32 22.21,-13.98 41.03,-13.98 17.01,0 33.73,3.46 50.19,10.35 16.46,6.9 29.93,16.57 40.41,28.97l148.93 176.34 0 0 142.1 168.25 -110.21 0 -136.13 -161.17 0.01 0 -96.35 -114.09 -117.3 126.18 -127.54 137.18 -0.21 0.22 -0.2 0.23 -0.21 0.22 -0.21 0.22 -0.22 0.22 -0.21 0.22 -0.22 0.21 -0.22 0.21 -0.22 0.21 -0.22 0.2 -0.22 0.21 -0.23 0.21 -0.22 0.2 -0.22 0.2 -0.23 0.2 -0.01 0 -0.22 0.19 -0.23 0.19 -0.23 0.19 -0.23 0.19 -0.23 0.19 -0.01 0 -0.23 0.18 -0.23 0.19 -0.01 0 -0.23 0.18 -0.01 0 -0.24 0.18 -0.24 0.18 -0.24 0.17 -0.01 0 -0.24 0.17 -0.01 0 -0.24 0.17 -0.01 0 -0.24 0.17 -0.01 0 -0.24 0.17 -0.24 0.16 -0.01 0 -0.24 0.16 -0.01 0 -0.24 0.16 -0 0 -0.24 0.16 -0.01 0 -0.25 0.15 -0.25 0.16 -0.01 0 -0.25 0.15 -0.01 0 -0.25 0.16 -0.01 0 -0.25 0.15 -0.01 0 -0.25 0.14 -0 0 -0.26 0.14 -0.01 0 -0.26 0.14 -0.01 0 -0.26 0.14 -0.01 0 -0.25 0.14 -0.01 0 -0.26 0.14 -0.01 0 -0.26 0.13 -0.01 0 -0.26 0.13 -0.01 0 -0.26 0.13 -0.01 0 -0.26 0.13 -0.01 0 -0.26 0.12 -0.01 0 -0.27 0.12 -0.01 0 -0.27 0.12 -0.01 0 -0.27 0.12 -0.01 0 -0.27 0.12 -0.01 0 -0.27 0.12 -0.27 0.11 -0.01 0 -0.27 0.11 -0.01 0 -0.27 0.11 -0.01 0 -0.28 0.1 -0.28 0.1 -0.28 0.1 -0.29 0.1 -0.28 0.1 -0.28 0.1c-6.15,2.08 -13.47,3.11 -21.96,3.11 -18.23,0 -35.63,-3.54 -52.24,-10.61l-0.78 -0.33 -0.77 -0.34 -0.77 -0.34 -0.76 -0.34 -0.76 -0.35 -0.75 -0.35 -0.74 -0.35 -0.75 -0.36 -0.74 -0.36 -0.73 -0.37 -0.73 -0.37 -0.73 -0.37 -0.71 -0.38 -0.01 0 -0.71 -0.38 -0.01 0 -0.71 -0.38 -0.7 -0.39 -0 0 -0.7 -0.39 -0.01 0 -0.69 -0.39 -0.01 0 -0.68 -0.41 -0.01 0 -0.68 -0.4 -0.68 -0.4 -0.68 -0.41 -0.67 -0.42 -0.66 -0.42 -0.01 0 -0.66 -0.42 -0.01 0 -0.65 -0.42 -0.01 0 -0.65 -0.43 -0 0 -0.65 -0.44 -0.64 -0.44 -0.64 -0.44 -0.63 -0.44 -0.63 -0.45 -0.01 0 -0.62 -0.45 -0.62 -0.45 -0.62 -0.46 -0 0 -0.61 -0.46 -0.6 -0.47 -0.01 0 -0.6 -0.46 -0.01 0 -0.6 -0.47 -0.59 -0.48 -0.59 -0.48 -0.58 -0.48 -0.58 -0.49 -0.57 -0.49 -0.01 0 -0.57 -0.49 -0.57 -0.49 -0.56 -0.5 -0.56 -0.51 -0.55 -0.51 -0.55 -0.51 -0.54 -0.52 -0.54 -0.52 -0.53 -0.52 -0.53 -0.53 -0.52 -0.53 -0.52 -0.53 -0.51 -0.54 -0.01 0 -0.5 -0.54 -0.51 -0.55 -0.5 -0.55 -0.5 -0.55 -0.48 -0.56 -0.49 -0.56 -0.48 -0.57 -288.4 -341.47 110.21 0 232.47 275.25zm598.11 -66.64l0.01 0 -176.19 -208.6 600.2 0 56.26 66.61 -483.85 0 209.54 248.1 482.93 0 0.01 0 56.26 66.61 -599.28 0 -145.88 -172.72zm166.02 -42.86l47.41 56.13 372.12 0 -47.4 -56.13 -79.75 0 -292.37 0zm-6281.99 55.12l0.01 0 -41.9 -49.61c-24.47,-28.97 -39.13,-54.23 -43.99,-75.8 -4.85,-21.56 1.03,-39.4 17.63,-53.54 16.59,-14.15 44.6,-24.67 84.01,-31.57 39.41,-6.9 90.99,-10.34 154.76,-10.34 64.37,0 122.08,3.44 173.15,10.34 51.07,6.9 96.85,17.42 137.33,31.57 40.48,14.14 76.51,31.98 108.08,53.54 28.87,19.72 54.76,42.53 77.69,68.44l0.1 0.11 0.1 0.12 0.1 0.11 0.1 0.11 0.11 0.12 0.06 0.07 0.04 0.04 0.1 0.11 0.1 0.12 0.1 0.11 0.1 0.11 0.1 0.12 0.1 0.11 0.2 0.23 0.1 0.11 0.1 0.12 0.1 0.11 0.03 0.03 0.07 0.09 0.1 0.11 0.1 0.11 0.1 0.12 0.1 0.11 0.1 0.12 0.1 0.11 0.1 0.11 0.1 0.12 0.1 0.11 0.1 0.12 0.1 0.11 0.1 0.12 0.1 0.11 0.1 0.12 0.1 0.11 0.1 0.12 0.1 0.11 0.1 0.12 0.1 0.11 0.1 0.12 0.1 0.11 0.1 0.12 0.07 0.08 0.03 0.04 0.1 0.12 0.1 0.12 0.1 0.11 0.1 0.12 0.1 0.11 0.1 0.12 0.1 0.12 0.1 0.11 0.1 0.12 0.1 0.12 0.09 0.11 0.04 0.05 0.06 0.08 0.1 0.12 0.1 0.11 0.1 0.12 0.1 0.12 0.1 0.11 0.1 0.12 0.1 0.12 0.09 0.12 0.1 0.11 0.1 0.12 0.1 0.12 177.43 210.07 -0.01 0 -112.94 0 -0.01 0 -177.42 -210.07c-16.02,-18.97 -33.81,-35.18 -53.37,-48.63 -19.56,-13.45 -42.24,-24.49 -68.05,-33.12 -25.81,-8.62 -55.87,-14.91 -90.18,-18.88 -34.33,-3.97 -74.25,-5.95 -119.8,-5.95 -45.55,0 -82.12,1.98 -109.75,5.95 -27.61,3.96 -47.05,10.26 -58.28,18.88 -11.23,8.63 -15.27,19.67 -12.12,33.12 3.17,13.45 12.76,29.67 28.78,48.63l31.8 37.65 145.62 172.41 0.01 0 -0.01 0 -119.32 0 -135.52 -160.46zm944.7 39.8l101.91 120.66 -0.01 0 -117.27 0 -322.06 -381.32 568.81 0 56.26 66.61 -451.54 0 163.88 194.06zm529.76 -127.99l0.01 0 60.87 72.08 92.88 109.96 254.84 0 56.27 66.61 -626.97 0 -0.01 0 -56.26 -66.61 -0.01 0 0.01 0 254.85 0 -265.79 -314.71 117.27 0 112.05 132.67zm524.8 0.53l0.01 0 -23.02 -27.25 251.16 0 80.42 -105.95 166.2 0 -104.32 115.91c35.81,6.54 69.41,15.98 100.8,28.31l0.65 0.26 0.65 0.26 0.08 0.03 0.57 0.23 0.64 0.26 0.65 0.26 0.25 0.1 0.4 0.16 0.64 0.26 0.65 0.27 0.42 0.16 0.23 0.1 0.65 0.27 0.64 0.26 0.58 0.24 0.07 0.03 0.64 0.27 0.64 0.27 0.64 0.27 0.1 0.04 0.55 0.24 0.64 0.27 0.91 0.38 0.38 0.16 0.64 0.27 0.63 0.27 0.43 0.18 0.21 0.09 0.64 0.28 0.64 0.27 0.59 0.25 0.05 0.02 0.63 0.28 0.64 0.28 0.63 0.28 0.11 0.05 0.52 0.23 0.63 0.28 0.63 0.28 0.27 0.12 0.36 0.16 0.63 0.28 0.63 0.29 0.43 0.2 0.19 0.09 0.63 0.28 0.63 0.29 0.59 0.27 0.04 0.01 0.63 0.29 0.63 0.29 0.63 0.29 0.12 0.06 0.5 0.23 0.63 0.29 0.62 0.29 0.28 0.14 0.34 0.16 1.24 0.59 0.44 0.21 0.18 0.09 0.62 0.29 0.62 0.3 0.6 0.29 0.02 0.01 1.24 0.6 0.62 0.3 0.14 0.07 0.48 0.24 1.23 0.6 0.29 0.15 0.32 0.16 0.62 0.3 0.62 0.31 0.45 0.22 0.17 0.08 0.62 0.31 0.61 0.3 0.61 0.31 0.01 0 1.98 1.01 0.01 0 1.96 1.02 0.01 0 1.95 1.03 0.01 0 1.94 1.04 0.01 0 1.93 1.04 0.01 0 1.92 1.05 0.01 0 1.91 1.06 0.01 0 1.89 1.06 0 0 1.89 1.07 0.01 0 1.88 1.08 0.01 0 3.72 2.18 0.01 0 1.84 1.1 0.01 0 1.83 1.11 0.01 0 1.82 1.12 0.01 0 1.81 1.13 0.01 0 1.8 1.14 0.01 0 1.79 1.14 0 0 1.77 1.15 0.01 0 1.76 1.16 0.01 0 1.75 1.16 0.01 0 1.74 1.17 1.73 1.17 0.01 0 1.71 1.19 0.01 0 1.71 1.19 1.7 1.2 1.68 1.21 0.01 0 1.67 1.22 0.01 0 1.67 1.22 1.65 1.23 1.64 1.23 0.01 0 1.63 1.25 1.62 1.25 1.61 1.26 1.6 1.27 1.58 1.28 1.57 1.28 1.56 1.29 1.55 1.3 1.54 1.31 1.53 1.31 1.52 1.32 1.51 1.33 1.5 1.34 1.48 1.34 1.47 1.35 1.46 1.36 1.45 1.36 1.44 1.37 1.42 1.38 1.42 1.38 1.4 1.4 1.39 1.4 1.38 1.41 1.36 1.42 1.36 1.43 1.34 1.43 1.34 1.44 1.33 1.45 1.31 1.45 1.3 1.47 1.29 1.47 1.27 1.49 1.27 1.48 0.84 1 0.83 0.99 0.81 0.99 0.81 0.99 0.8 0.98 0 0.01 0.79 0.98 0.78 0.98 0 0.01 0.77 0.98 0.75 0.97 0 0.01 0.74 0.97 0.73 0.96 0 0.01 0.73 0.96 0.71 0.96 0 0.01 0.7 0.96 0 0.01 0.69 0.95 0.68 0.95 0 0.01 0.66 0.94 0 0.01 0.66 0.94 0 0.01 0.65 0.94 0 0.01 0.64 0.93 0 0.01 0.62 0.93 0 0.01 0.62 0.93 0 0.01 0.6 0.93 0 0.01 0.6 0.93 0.58 0.92 0 0 0.57 0.92 0 0.01 0.56 0.91 0.55 0.91 0 0.01 0.54 0.91 0 0.01 0.53 0.9 0 0 0.52 0.9 0 0.01 0.51 0.9 0.5 0.9 0.48 0.89 0 0.01 0.48 0.89 0 0.01 0.46 0.88 0 0.01 0.45 0.88 0 0.01 0.45 0.88 0.43 0.88 0.42 0.87 0 0.01 0.41 0.87 0 0.01 0.79 1.73 0 0.01 0.38 0.86 0.37 0.86 0.36 0.86 0 0.01 0.68 1.71 0.01 0 0.32 0.85 0.62 1.69 0.01 0 0.28 0.84 0.01 0 0.28 0.84 0.27 0.83 0.01 0 0.26 0.83 0.01 0 0.24 0.83 0 0 0.24 0.82 0 0 0.23 0.82 0.22 0.82 0.21 0.82 0.01 0 0.19 0.81 0.18 0.8 0.01 0 0.17 0.81 0.01 0 0.15 0.81 0.01 0 0.15 0.8 0 0 0.14 0.8 0.01 0 0.12 0.8 0.01 0 0.12 0.79 0.01 0 0.1 0.79 0.01 0 0.1 0.78 0.01 0 0.24 2.32 0.01 0 0.06 0.77 0.01 0 0.05 0.77 0.01 0 0.03 0.76 0.01 0 0.03 0.76 0 0 0.01 0.75 0.01 0 0.01 0.75c0.01,0.75 0,1.49 -0.03,2.23l-0.01 0 -0.07 1.47 -0.01 0 -0.05 0.73 -0.01 0 -0.06 0.73 -0.01 0 -0.15 1.44 -0.01 0c-0.09,0.71 -0.19,1.42 -0.31,2.12l-0 0 -0.12 0.7 -0 0 -0.13 0.7 -0.01 0 -0.14 0.7 -0.01 0 -0.15 0.69 -0.01 0 -0.34 1.37 -0.38 1.35 -0.01 0 -0.2 0.67 -0.01 0 -0.22 0.67 -0.23 0.66 0 0.01 -0.24 0.66 -0.01 0c-0.24,0.66 -0.49,1.31 -0.78,1.96l-0.28 0.64 -0.01 0 -0.28 0.64 0 0.01 -0.3 0.63 -0.31 0.63 -0.32 0.63 -0.68 1.25 -0.71 1.24 -0.37 0.61 0 0.01 -0.39 0.6 -0.4 0.6 0 0.01 -0.41 0.6 -0.42 0.6 0 0 -0.42 0.59 -0.01 0 -0.44 0.59 -0.45 0.59 -0.45 0.58 -0.46 0.58 -0.48 0.58 -0.49 0.57 -0.49 0.56c-10.75,12.06 -28.46,21.33 -53.16,27.8l-1.16 0.3 -1.17 0.3 -1.19 0.29 -1.19 0.29 -1.2 0.28 -1.21 0.28 -1.22 0.27 -1.23 0.27 -1.24 0.26 -1.26 0.26 -1.26 0.25 -1.27 0.25 -1.28 0.25 -1.29 0.24 -1.3 0.24 -1.31 0.23 -1.33 0.23 -1.33 0.22 -1.34 0.22 -1.35 0.21 -1.36 0.21 -1.37 0.21 -1.38 0.19 -1.39 0.19 -1.4 0.19 -1.41 0.19 -1.41 0.17 -1.43 0.17 -1.44 0.17 -1.45 0.17 -1.46 0.15 -1.47 0.16 -0.01 0 -1.47 0.15 -0 0 -1.49 0.14 -1.5 0.14 -1.51 0.13 -1.52 0.13 -1.53 0.12 -1.53 0.12 -0.01 0 -1.54 0.12 -1.55 0.11 -0.01 0 -1.56 0.1 -0.01 0 -1.57 0.1 -0.01 0 -1.58 0.09 -1.6 0.09 -1.6 0.09 -0.01 0 -1.61 0.09 -1.62 0.08 -0.01 0 -1.63 0.08 -0.01 0 -1.64 0.07 -0.01 0 -1.65 0.06 -0.01 0 -1.66 0.06 -0.01 0 -1.67 0.06 -0.01 0 -1.68 0.05 -0.01 0 -1.69 0.04 -0.01 0 -1.7 0.04 -0.01 0 -1.71 0.03 -0.01 0 -1.72 0.03 -0 0 -1.73 0.03 -0.01 0 -1.74 0.03 -0 0 -1.75 0.02 -0.01 0 -1.75 0.01 -0.01 0 -1.76 0.01 -0.01 0 -1.77 0 -0.01 0 -482 0 -0.01 0 -18.75 -22.21 -37.51 -44.41 0.01 0 7.52 0 0.01 0 7.52 0 0.01 0 7.52 0 0.01 0 7.52 0 0.01 0 7.52 0 0.01 0 7.52 0 0.01 0 7.52 0 0.01 0 7.52 0 0.01 0 7.53 0 0 0 7.52 0 0.01 0 7.53 0 0.01 0 7.52 0 0.01 0 7.53 0 0.01 0 7.52 0 0.01 0 7.53 0 7.53 0 0.01 0 7.53 0 7.53 0 0.01 0 7.53 0 7.53 0 0.01 0 7.53 0 7.53 0 0 0 7.53 0 7.53 0 0.01 0 7.52 0 0.01 0 7.53 0 7.53 0 0.01 0 7.53 0 7.53 0 0.01 0 7.53 0 7.53 0 0.01 0 7.53 0 7.53 0 0.01 0 7.53 0 7.53 0 0 0 7.53 0 7.53 0 0.01 0 7.53 0 7.53 0 0.01 0 7.53 0 7.53 0 0.01 0 7.53 0 7.53 0 7.54 0 7.53 0 7.53 0 7.53 0 7.53 0 0 0 7.53 0 7.53 0 0.01 0 7.53 0 7.53 0 0.01 0 7.53 0 7.53 0 0.01 0 7.53 0 7.53 0 0.01 0 7.53 0 7.53 0 0.01 0 7.53 0 7.53 0 0.01 0 7.53 0 7.53 0 0.01 0 7.53 0 7.53 0 0.01 0 1.89 -0.01 0.01 0 1.87 -0.01 0 0 1.85 -0.02 0.01 0 1.83 -0.03 0.01 0 1.8 -0.04 0.01 0 1.79 -0.05 1.77 -0.06 1.75 -0.07 0.01 0 1.72 -0.08 0.01 0 1.7 -0.08 0.01 0 1.69 -0.09 1.66 -0.1 0.01 0 1.64 -0.11 3.23 -0.25 1.58 -0.14 0.01 0 1.56 -0.15 1.54 -0.15 0 -0.01 1.52 -0.16 1.5 -0.17 0.01 0 1.47 -0.18 0.01 0 1.45 -0.19 1.44 -0.2 1.41 -0.21 1.39 -0.22 0 0 1.37 -0.23 1.35 -0.24 1.34 -0.24 1.31 -0.25 1.29 -0.26 1.27 -0.27 1.25 -0.27 0 -0 1.23 -0.29 1.2 -0.29 0 -0.01 1.19 -0.3 1.16 -0.31 1.15 -0.32 1.12 -0.33 0.01 0 1.1 -0.34 0.01 0 1.08 -0.35 1.06 -0.36 1.04 -0.37 1.02 -0.37 0 -0.01 1 -0.38 0.98 -0.4 0.96 -0.4 0 -0 1.86 -0.83 0.9 -0.43 0.01 0 0.87 -0.44 0 -0.01 1.69 -0.89 0 -0.01 0.81 -0.46 0 -0.01 0.8 -0.47 0 -0.01c0.79,-0.48 1.53,-0.96 2.25,-1.46l0 -0.01c1.69,-1.18 3.21,-2.42 4.54,-3.75 1.15,-1.13 2.16,-2.32 3.02,-3.55l0 -0.01c0.43,-0.62 0.82,-1.25 1.18,-1.9l0 -0 0.66 -1.31 0 -0.01c0.31,-0.66 0.59,-1.34 0.81,-2.04l0 -0 0.22 -0.7 0 -0.01 0.19 -0.71 0.01 0 0.17 -0.72 0.01 0 0.15 -0.73 0 -0.01 0.12 -0.73 0 -0c0.11,-0.75 0.19,-1.5 0.23,-2.27l0.03 -1.56 -0.02 -0.8 -0.01 0 -0.04 -0.8 -0.01 -0 -0.06 -0.81 -0.01 0 -0.09 -0.83 -0.01 0 -0.12 -0.83 -0.13 -0.84 -0.01 0 -0.16 -0.85 -0.01 0 -0.19 -0.86 -0 0 -0.21 -0.87 -0.01 0 -0.23 -0.88 -0.01 0 -0.26 -0.89 -0.01 0 -0.28 -0.89 -0.31 -0.91 -0.01 0 -0.33 -0.92 -0.01 0 -0.36 -0.92 -0 0 -0.39 -0.93 -0.01 0 -0.4 -0.95 -0.01 0 -0.43 -0.96 -0.01 0 -0.93 -1.93 -0.01 0 -0.5 -0.98 -0 0 -1.09 -1.99 0 -0.01 -0.58 -1 -0.01 0 -0.6 -1.02 -0.63 -1.03 -0.01 0 -0.64 -1.04 -0.01 0 -1.38 -2.1 0 -0.01 -0.73 -1.06 -0.75 -1.07 -0.78 -1.08 0 -0.01c-0.79,-1.09 -1.61,-2.2 -2.47,-3.3l0 -0.01 -0.87 -1.12 -0.01 0 -0.89 -1.13 0 -0.01 -1.87 -2.28 0 -0.01 -0.97 -1.16 0 -0.01 -0.98 -1.16 0 -0 -0.99 -1.15 0 -0.01 -1.01 -1.14 0 -0.01 -1.01 -1.13 -1.02 -1.13 -0.01 0 -1.02 -1.11 0 -0.01 -2.09 -2.21 0 -0 -1.06 -1.09 -1.06 -1.08 -0 0 -1.07 -1.07 -1.08 -1.06 0 -0.01 -2.19 -2.1 -0.01 0 -2.22 -2.07 0 -0 -1.13 -1.02 -1.13 -1.01 -0.01 0 -1.14 -1.01 -1.15 -0.99 0 -0.01 -2.32 -1.96 -1.17 -0.97 -0.01 0 -1.18 -0.97 -1.19 -0.96 -1.2 -0.94 -1.21 -0.93 0 -0.01 -1.22 -0.93 -1.22 -0.92 -0.01 0 -1.23 -0.91 -1.24 -0.91 -1.26 -0.89 -1.26 -0.89 -1.27 -0.88 -1.28 -0.87 -1.29 -0.86 -1.29 -0.85 -1.31 -0.84 -1.31 -0.84 -1.32 -0.82 -1.33 -0.82 -1.34 -0.81 -1.35 -0.8 0 -0.01 -1.35 -0.79 -1.36 -0.78 -1.37 -0.77 -1.38 -0.77 -1.39 -0.76 -0 0 -1.39 -0.75 -0.01 0 -1.4 -0.74 -1.41 -0.73 -0.01 0 -1.42 -0.72 -0.01 0 -1.43 -0.72 -1.43 -0.71 -0.01 0 -1.45 -0.7 -1.45 -0.69 -0.01 0 -1.46 -0.68 -0.01 0 -1.47 -0.67 -0.01 0 -1.48 -0.66 -0.01 0 -1.49 -0.65 -0 0 -1.49 -0.64 -0.01 0 -1.5 -0.63 -0.01 0 -1.51 -0.63 -0 0 -1.52 -0.62 -0.01 0 -1.53 -0.61 -0.01 0 -1.53 -0.6 -0.01 0 -1.54 -0.59 -0.01 0 -1.54 -0.58 -0.01 0 -1.55 -0.57 -0.01 0 -1.56 -0.57 -0.01 0 -1.57 -0.55 -0.01 0 -1.58 -0.54 -1.59 -0.53 -1.6 -0.52 -0.01 0 -1.6 -0.52 -0.01 0 -1.61 -0.5 -0.01 0 -1.61 -0.49 -0.01 0 -1.62 -0.48 -0.01 0 -1.63 -0.48 -0.01 0 -1.64 -0.46 -1.65 -0.45 -0.01 0 -1.65 -0.45 -0.01 0 -1.66 -0.44 -0.01 0 -1.67 -0.43 -0.01 0 -1.67 -0.42 -0.01 0 -1.68 -0.41 -0.01 0 -1.68 -0.4 -0.01 0 -1.7 -0.39 -0.01 0 -1.7 -0.38 -0.01 0 -1.71 -0.37 -0.01 0 -1.71 -0.36 -0.01 0 -1.72 -0.35 -0.01 0 -1.73 -0.34 -1.74 -0.33 -0.01 0 -1.74 -0.32 -1.75 -0.31 -0.01 0 -1.76 -0.3 -0.01 0 -1.76 -0.29 -0.01 0 -1.78 -0.28 -0.01 0 -1.78 -0.27 -0.01 0 -1.79 -0.26 -0.01 0 -1.79 -0.26 -0.01 0 -1.8 -0.25 -0 0 -1.81 -0.24 -0.01 0 -1.82 -0.23 -0.01 0 -1.82 -0.22 -0.01 0 -1.83 -0.21 -1.84 -0.2 -0.01 0 -1.84 -0.19 -0.01 0 -1.85 -0.18 -0.01 0 -1.86 -0.17 -0 0 -1.87 -0.15 -0.01 0 -1.87 -0.15 -0.01 0 -1.88 -0.13 -0.01 0 -1.89 -0.13 -0.01 0 -1.89 -0.12 -0.01 0 -1.9 -0.11 -0.01 0 -1.9 -0.1 -0.01 0 -1.92 -0.09 -0.01 0 -1.92 -0.09 -1.93 -0.07 -0 0 -1.94 -0.06 -0.01 0 -1.95 -0.06 -1.96 -0.04 -1.97 -0.03 -1.97 -0.02 -1.98 -0.01 -1.99 -0.01 -279.78 0 -26.61 -31.49z"/>
  </g>
 </g>
</svg>
