<?xml version="1.0" encoding="UTF-8"?>
<!DOCTYPE svg PUBLIC "-//W3C//DTD SVG 1.1//EN" "http://www.w3.org/Graphics/SVG/1.1/DTD/svg11.dtd">
<!-- Creator: CorelDRAW 2019 (64 Bit) -->
<svg xmlns="http://www.w3.org/2000/svg" xml:space="preserve" width="77.6434mm" height="94.1918mm" version="1.1" style="shape-rendering:geometricPrecision; text-rendering:geometricPrecision; image-rendering:optimizeQuality; fill-rule:evenodd; clip-rule:evenodd"
viewBox="0 0 1836.14 2227.48"
 xmlns:xlink="http://www.w3.org/1999/xlink"
 xmlns:xodm="http://www.corel.com/coreldraw/odm/2003">
 <defs>
  <style type="text/css">
   <![CDATA[
    .fil4 {fill:black;fill-rule:nonzero}
    .fil1 {fill:#0084FF;fill-rule:nonzero}
    .fil0 {fill:#92E03F;fill-rule:nonzero}
    .fil2 {fill:#F2427F;fill-rule:nonzero}
    .fil3 {fill:#FF6400;fill-rule:nonzero}
   ]]>
  </style>
 </defs>
 <g id="Camada_x0020_1">
  <metadata id="CorelCorpID_0Corel-Layer"/>
  <g id="_029-podium.svg">
   <rect class="fil0" x="890.66" y="1705.59" width="318.94" height="478.43"/>
   <rect class="fil1" x="298.99" y="1867" width="327.55" height="316.98"/>
   <rect class="fil2" x="1467.11" y="1979.11" width="325.53" height="204.87"/>
   <g>
    <path class="fil3" d="M1116.98 1191.65c85.13,0 154.14,-66.92 154.14,-149.48l0 -327.43c0,-155.45 -106.87,-286.63 -253.23,-328.41 -146.36,41.78 -253.23,172.95 -253.23,328.41l0 327.43c0,82.56 69.01,149.48 154.14,149.48l22.39 0 0 513.92 159.1 0 0 -513.92 16.69 0z"/>
    <path class="fil3" d="M982.8 61.83c-52.86,27.34 -89.02,82.48 -89.02,146.1 0,63.62 36.16,118.76 89.02,146.1 52.86,-27.34 89.02,-82.48 89.02,-146.1 0,-63.62 -36.15,-118.76 -89.02,-146.1z"/>
   </g>
   <path class="fil4" d="M1792.63 1935.59l-539.54 0 0 -230.02c0,-24.03 -19.48,-43.5 -43.51,-43.5l-65.79 -0 0 -428.74c96.34,-12.82 170.83,-93.63 170.83,-191.16l0 -327.43c0,-165.54 -107.69,-307.06 -258.47,-361.74 36.57,-37.49 59.17,-88.68 59.17,-145.07 -0,-114.65 -93.28,-207.93 -207.94,-207.93 -114.65,0 -207.93,93.28 -207.93,207.93 0,59.41 25.09,113.05 65.18,150.98 -142.7,58.48 -243.14,195.95 -243.14,355.83l0 327.43c0,99.45 77.44,181.54 176.53,191.87l0 428.03 -71.49 0c-24.02,0 -43.5,19.48 -43.5,43.51l0 117.92 -539.54 0c-24.02,0 -43.5,19.48 -43.5,43.51l0 316.97c0,24.03 19.48,43.51 43.51,43.51l1749.13 0c24.02,0 43.51,-19.48 43.51,-43.51l0 -204.88c-0,-24.03 -19.48,-43.51 -43.51,-43.51zm-885.24 -1848.58c66.67,0 120.92,54.25 120.92,120.92 0,66.67 -54.25,120.92 -120.92,120.92 -66.68,0 -120.92,-54.25 -120.92,-120.92 0,-66.67 54.25,-120.92 120.92,-120.92zm-165.85 595.61c-24.02,0 -43.51,19.48 -43.51,43.51l0 420.05c-50.94,-9.47 -89.52,-52.5 -89.52,-104.01l0 -327.43c0,-164.8 138.87,-298.88 309.55,-298.88 170.68,0 309.55,134.08 309.55,298.88l0 327.43c0,49.58 -35.74,91.3 -83.82,102.81l0 -418.85c0,-24.03 -19.48,-43.51 -43.5,-43.51 -24.02,0 -43.51,19.48 -43.51,43.51l0 935.94 -92.37 -0 0 -494.68c0,-24.03 -19.48,-43.51 -43.5,-43.51 -24.02,0 -43.51,19.48 -43.51,43.51l0 494.68 -92.36 -0 0 -935.94c0,-24.03 -19.48,-43.51 -43.5,-43.51zm-654.53 1227.89l496.04 0 0 229.97 -496.04 0 0 -229.97zm583.05 -43.51l0 -117.92 496.03 0 0 230.02 0 161.37 -496.03 0 0 -273.47zm1079.07 273.47l-496.03 0 0 -117.87 496.03 0 0 117.87z"/>
   <g>
   </g>
   <g>
   </g>
   <g>
   </g>
   <g>
   </g>
   <g>
   </g>
   <g>
   </g>
   <g>
   </g>
   <g>
   </g>
   <g>
   </g>
   <g>
   </g>
   <g>
   </g>
   <g>
   </g>
   <g>
   </g>
   <g>
   </g>
   <g>
   </g>
  </g>
 </g>
</svg>
