<?xml version="1.0" encoding="UTF-8"?>
<!DOCTYPE svg PUBLIC "-//W3C//DTD SVG 1.1//EN" "http://www.w3.org/Graphics/SVG/1.1/DTD/svg11.dtd">
<!-- Creator: CorelDRAW 2019 (64 Bit) -->
<svg xmlns="http://www.w3.org/2000/svg" xml:space="preserve" width="275.899mm" height="170.527mm" version="1.1" style="shape-rendering:geometricPrecision; text-rendering:geometricPrecision; image-rendering:optimizeQuality; fill-rule:evenodd; clip-rule:evenodd"
viewBox="0 0 7808.73 4826.39"
 xmlns:xlink="http://www.w3.org/1999/xlink">
 <defs>
  <style type="text/css">
   <![CDATA[
    .fil4 {fill:#999999}
    .fil2 {fill:#061324;fill-rule:nonzero}
    .fil3 {fill:#CCCCCC;fill-rule:nonzero}
    .fil1 {fill:#FF4D00;fill-rule:nonzero}
    .fil0 {fill:white;fill-rule:nonzero}
   ]]>
  </style>
 </defs>
 <g id="Camada_x0020_1">
  <metadata id="CorelCorpID_0Corel-Layer"/>
  <g id="_1805208427200">
   <path class="fil0" d="M837.9 564.69c933.57,-76.93 1937.65,-159.61 3020.76,-248.85 1170.71,-96.46 2443.25,-201.28 3827.58,-315.34 66.93,-5.51 122.48,35.5 122.48,90.73 0,696.18 0,1419.98 0,2171.4 0,781.94 0,1597.3 0,2445.61 0,69.76 -62.73,122.85 -138.79,117.83 -1558.87,-102.81 -2975.03,-196.28 -4266.51,-281.49 -1183.27,-78.08 -2271.66,-149.86 -3275.36,-216.11 -88.61,-5.85 -144.14,-96.7 -123.9,-201.81 116.87,-606.74 230.49,-1196.64 340.58,-1768.22 106.99,-555.48 211.03,-1096.02 312.13,-1621.21 16.92,-87.9 98.42,-165.72 181.02,-172.53z"/>
   <path class="fil1" d="M841.5 647.12c915.69,-72.58 1899.9,-150.57 2959.75,-234.5 1143.36,-90.55 2383.79,-188.73 3731.27,-295.35 34.25,-2.71 61.27,17.77 61.15,45.19 -0.82,176.09 -1.73,354.11 -3.18,533.57 -0.23,28.38 -27.71,53.44 -63.18,55.54 -1369.45,81.04 -2628.99,155.38 -3788.66,224.61 -1072.87,64.05 -2068.31,123.89 -2992.88,179.45 -21.7,1.3 -34.83,-16.21 -30.59,-38.77 26.94,-143.29 53.71,-285.44 80.22,-426.48 4.17,-22.18 24.69,-41.56 46.09,-43.25z"/>
   <path class="fil2" d="M737.67 1198.94c925.62,-53.95 1922.2,-112.25 2996.31,-174.65 1160.27,-67.41 2421.26,-139.37 3793.01,-218.48 35.51,-2.05 62.91,19.15 62.78,48.02 -0.84,182.83 -2.42,367.1 -3.28,553.77 -0.13,29.35 -28.89,54.73 -64.13,56.03 -1395.15,51.64 -2675.75,99.26 -3852.81,143.64 -1087.48,41 -2095.66,79.63 -3030.41,115.24 -22.02,0.84 -35.25,-17.83 -30.93,-40.78 27.81,-147.79 54.73,-294.21 82.63,-439.27 4.43,-23.05 25.11,-42.26 46.83,-43.52z"/>
   <path class="fil3" d="M703.55 1776.57c489.02,-17.57 997.91,-35.65 1527.37,-54.91 24.28,-0.88 40.93,18.59 37.23,43.95 -57.61,394.44 -115.82,797.39 -175.49,1208.82 -61,420.53 -122.59,849.98 -186.12,1289.08 -4.06,28.06 -28.01,50.07 -53.02,48.53 -557.44,-34.32 -1091.44,-66.72 -1603.54,-97.9 -21.9,-1.33 -36.73,-24.02 -31.79,-50.42 76.79,-410.04 152.1,-811.79 226.04,-1206.34 72.32,-385.91 142.7,-764.61 212.4,-1136.55 4.45,-23.76 25.61,-43.5 46.93,-44.26z"/>
   <g>
    <path class="fil4" d="M759.08 1913.45c171.23,-5.22 346.13,-10.83 522.52,-16.21 22.88,-0.7 38.14,18.28 34.16,42.68 -1.2,7.36 -2.51,15.11 -3.65,22.08 -3.99,24.4 -26.5,44.9 -48.7,45.48 -177.62,4.64 -352.28,9.46 -524.72,13.98 -21.46,0.56 -34.91,-18.43 -30.55,-42.27 1.25,-6.82 2.67,-14.37 3.99,-21.57 4.36,-23.83 24.82,-43.51 46.95,-44.18z"/>
    <path class="fil4" d="M714 2076.34c182.32,-4.39 367.59,-9 555.84,-13.86 14.08,-0.36 23.14,12.27 20.66,27.38 0,0 0,0 0,0 -2.49,15.11 -16.43,28.05 -30.53,28.36 -187.76,4.09 -373.31,7.96 -555.87,12.29 -14.11,0.33 -22.23,-11.67 -19.51,-26.43 0,0 0,0 0,0 2.72,-15.14 16.09,-27.42 29.42,-27.74z"/>
    <path class="fil4" d="M694.13 2185.43c311.4,-6.38 630.23,-13.07 957.98,-19.35 14.12,-0.27 24.07,12.17 21.72,27.52 0,0 0,0 0,0 -2.35,15.74 -16.2,28.81 -31.09,29.08 -328.21,5.94 -646.74,11.59 -958.57,17.3 -14.14,0.26 -22.3,-11.77 -19.56,-26.91 0,0 0,0 0,0 2.74,-14.76 15.41,-27.35 29.52,-27.64z"/>
   </g>
   <g>
    <path class="fil4" d="M668.28 2405.4c173.39,-1.91 349.77,-4.49 528.4,-6.46 22.42,-0.24 37.74,20.24 33.69,45.03 -1.27,7.75 -2.47,15.11 -3.67,22.47 -4.14,25.18 -26.95,45.69 -49.43,45.83 -179.13,1.18 -356.01,2.28 -529.14,3.79 -21.74,0.19 -36.11,-19.19 -31.57,-44.16 1.3,-7.19 2.63,-14.38 4.02,-21.95 4.43,-24.22 26.04,-44.32 47.71,-44.56z"/>
    <path class="fil4" d="M622.99 2571.8c183.88,-1.17 370.77,-1.83 560.66,-2.66 14.26,-0.06 23.41,12.77 20.85,28.27 0,0 0,0 0,0 -2.57,15.88 -16.71,28.57 -30.99,28.63 -189.41,0.78 -377.31,1.4 -560.7,1.82 -14.28,0.03 -22.49,-12.52 -19.68,-28.04 0,0 0,0 0,0 2.8,-15.14 15.6,-27.93 29.86,-28.02z"/>
    <path class="fil4" d="M602.62 2683.92c313.87,-0.29 636.01,-0.39 966.44,-0.64 15.05,-0.01 25.11,13.08 22.7,29.21 0,0 0,0 0,0 -3.18,15.74 -17.24,28.97 -31.56,28.95 -331.64,-0.47 -653.49,-1.08 -968.56,-1.47 -13.57,-0.01 -22.55,-12.63 -18.97,-28.15 0,0 0,0 0,0 2.8,-15.14 15.66,-27.9 29.96,-27.91z"/>
   </g>
   <g>
    <path class="fil4" d="M575.9 2909.48c174.1,1.49 352.75,3.49 532.9,4.71 22.71,0.15 38.16,21.45 34.03,46.63 -1.33,8.13 -2.65,16.27 -3.86,23.63 -4.21,25.57 -27.39,46.81 -50.16,46.56 -180.68,-2.02 -359.07,-4.8 -534.43,-7.07 -22.01,-0.28 -35.67,-21.1 -31.12,-46.08 1.38,-7.56 2.77,-15.14 4.21,-23.08 4.53,-24.98 26.48,-45.49 48.43,-45.3z"/>
    <path class="fil4" d="M528.81 3081.27c185.49,2.82 374.8,5.53 566.37,8.46 14.44,0.22 23.74,13.28 21.05,29.55 0,0 0,0 0,0 -2.63,16.27 -16.98,29.14 -31.45,28.89 -191.85,-3.35 -380.66,-6.49 -566.42,-9.71 -14.47,-0.25 -22.75,-13.4 -19.88,-28.91 0,0 0,0 0,0 2.95,-16.27 16.65,-28.49 30.33,-28.29z"/>
    <path class="fil4" d="M507.9 3196.05c317.16,5.95 642.71,12.28 976.64,18.98 14.49,0.29 24.64,14.01 22.15,30.53 0,0 0,0 0,0 -2.48,16.52 -16.75,29.94 -32.02,29.6 -334.41,-7.43 -659.67,-14.51 -977.29,-21.54 -14.51,-0.32 -22.81,-13.51 -19.92,-29.4 0,0 0,0 0,0 2.89,-15.89 15.95,-28.44 30.43,-28.17z"/>
   </g>
   <g>
    <path class="fil4" d="M480.29 3428.35c176.36,5 355.8,10.22 538.3,15.4 23,0.65 38.64,23.07 34.35,49.03 -1.34,8.13 -2.61,16.27 -3.89,24.02 -4.29,25.96 -27.84,47.28 -50.91,46.48 -182.26,-6.34 -362.99,-12.07 -539.09,-18.2 -22.3,-0.77 -36.88,-22.66 -32.2,-48.02 1.4,-7.57 2.55,-15.18 4.25,-23.46 5.21,-25.4 26.95,-45.88 49.18,-45.26z"/>
    <path class="fil4" d="M432.99 3603.24c187.14,6.89 378.15,13.49 571.45,20.62 14.64,0.54 23.96,14.59 21.26,31.25 0,0 0,0 0,0 -2.7,16.66 -17.26,29.68 -31.15,29.13 -194.36,-7.6 -384.87,-14.6 -572.28,-21.91 -14.66,-0.57 -23.02,-14.28 -20.08,-30.55 0,0 0,0 0,0 2.95,-15.89 16.16,-29.08 30.79,-28.54z"/>
    <path class="fil4" d="M411.54 3721.43c319.77,13.09 648.04,26.47 985.57,40.28 15.45,0.63 25.7,14.95 23.15,31.87 0,0 0,0 0,0 -3.32,16.92 -17.8,30.08 -32.5,29.44 -338.03,-14.6 -666.78,-28.65 -987.78,-42.5 -13.93,-0.6 -22.31,-14.4 -19.35,-30.67 0,0 0,0 0,0 2.97,-16.27 16.23,-29.02 30.9,-28.42z"/>
   </g>
   <g>
    <path class="fil3" d="M3865.52 1656.93c-479.38,17.37 -941.14,33.67 -1388.91,49.64 -22.05,0.78 -43.33,20.21 -46.59,42.89 -38.36,267.2 -75.85,538.54 -114.43,813.11 -3.4,24.19 12.39,43.31 34.93,43.24 456.04,-1.44 927.86,-2.75 1416.96,-4.15 25.54,-0.07 48.83,-20.34 51.43,-45.94 29.46,-289.54 58.77,-575.3 87.54,-856.82 2.43,-23.82 -15.91,-42.88 -40.92,-41.98z"/>
    <path class="fil3" d="M5586.77 1595.79c-537.48,18.81 -1055.1,37.31 -1555.81,54.98 -25,0.88 -47.78,21.57 -50.18,45.45 -28.29,282.25 -57.81,568.7 -86.82,859.48 -2.51,25.16 17.02,45.37 42.56,45.32 511.64,-0.97 1041.31,-2.62 1592.01,-3.93 27.79,-0.07 52.63,-21.62 54.13,-48.26 17.29,-307.69 35.81,-610.37 52.66,-908.57 1.43,-25.29 -20.61,-45.45 -48.55,-44.48z"/>
    <path class="fil3" d="M7528.6 1527.77c-608.06,21.01 -1192.59,41.61 -1755.81,61.67 -28.67,1.02 -52.19,22.47 -53.57,47.83 -16.31,299.03 -33.53,602.57 -50.25,911.11 -1.45,26.72 20.34,48.62 49.64,48.56 577.75,-1.26 1177.29,-2.81 1801.63,-3.95 32.31,-0.06 59.4,-22.99 59.59,-51.37 2.18,-327.65 3.78,-650 5.9,-966.58 0.18,-26.94 -26.25,-48.33 -57.13,-47.27z"/>
    <g>
     <path class="fil4" d="M2418.3 2347.18c117.23,-1.7 235.21,-3.23 354.68,-4.59 14.93,-0.17 25.38,12.5 23.55,28.1 -0.58,4.92 -1,9.87 -1.69,14.37 -2.42,15.62 -16.06,28.35 -31.01,28.48 -119.67,1.05 -237.85,2.64 -355.27,3.68 -14.96,0.13 -25.14,-12.35 -22.57,-27.75 0.74,-4.42 1.2,-9.31 1.83,-14.15 1.98,-15.37 15.56,-27.92 30.49,-28.13z"/>
     <path class="fil4" d="M2393.54 2452.48c124.26,-0.94 249.28,-2.37 375.79,-3.32 8.98,-0.07 16.3,7.72 14.38,17.57 0,0 0,0 0,0 -1.17,9.85 -9.59,18.06 -18.57,18.11 -126.62,0.78 -252.48,1.69 -376.1,2.84 -9.74,0.09 -16.23,-7.63 -14.97,-17.74 0,0 0,0 0,0 2.01,-9.7 10.49,-17.4 19.48,-17.47z"/>
     <path class="fil4" d="M2383.72 2522.88c211.45,-1.19 425.9,-2.5 644.1,-4.09 9.74,-0.07 16.37,7.84 15.27,18.2 0,0 0,0 0,0 -1.11,9.95 -9.49,17.79 -19.99,17.83 -217.63,0.92 -433.01,1.97 -643.89,3.27 -9.75,0.06 -16.26,-7.67 -15,-17.78 0,0 0,0 0,0 2.01,-9.71 10.52,-17.38 19.51,-17.42z"/>
    </g>
    <g>
     <path class="fil4" d="M3998.32 2327.47c130.67,-1.83 263.58,-3.49 397.24,-4.95 17.17,-0.19 29.6,13.22 28.36,29.73 -0.39,5.21 -0.78,10.43 -1.14,15.21 -1.24,16.51 -16.47,30.01 -33.67,30.15 -134.63,1.13 -267.02,2.82 -398.66,3.94 -16.45,0.14 -28.6,-13.07 -26.61,-29.34 0.57,-4.68 0.85,-9.84 1.3,-14.97 1.41,-16.25 16.75,-29.53 33.17,-29.76z"/>
     <path class="fil4" d="M3976.03 2438.84c138.49,-0.99 279.22,-2.11 421.45,-3.52 9.73,-0.1 18.84,8.17 17.3,18.6 0,0 0,0 0,0 -0.79,10.43 -10.4,19.12 -20.89,19.18 -142.35,0.82 -282.45,1.77 -421.8,2.98 -10.49,0.09 -18.02,-8.07 -17.12,-18.33 0,0 0,0 0,0 0.89,-10.69 10.59,-18.83 21.07,-18.9z"/>
     <path class="fil4" d="M3968.11 2513.32c236.95,-1.23 477.64,-2.58 722.84,-3.81 11.24,-0.06 19.68,8.31 18.21,18.84 0,0 0,0 0,0 -0.72,10.53 -10.3,18.84 -20.8,18.88 -245.4,0.93 -486.29,2.4 -723.44,3.32 -10.5,0.04 -18.05,-8.12 -17.15,-18.38 0,0 0,0 0,0 0.89,-10.27 9.86,-18.8 20.35,-18.85z"/>
    </g>
    <g>
     <path class="fil4" d="M5773.22 2306.18c147.85,-1.97 297.19,-3.77 448.02,-5.35 19.41,-0.2 34.63,14.04 34.06,31.57 -0.18,5.54 -0.36,11.08 -0.53,16.16 -0.57,17.54 -17.49,31.88 -36.19,32.03 -151.83,1.21 -301.43,3.02 -449.52,4.21 -18.7,0.15 -33.62,-13.88 -32.28,-31.14 0.38,-4.98 0.46,-10.44 0.7,-15.89 0.76,-17.24 17.06,-31.34 35.73,-31.59z"/>
     <path class="fil4" d="M5753.89 2424.38c157.2,-1.05 315.15,-2.24 476.09,-3.73 11.97,-0.11 21.42,8.68 21.06,19.76 0,0 0,0 0,0 -0.36,11.54 -10.39,20.3 -23.12,20.37 -160.33,0.85 -319.16,1.85 -475.74,3.12 -11.98,0.1 -21.34,-8.56 -20.86,-19.46 0,0 0,0 0,0 1.23,-11.35 10.6,-19.98 22.57,-20.06z"/>
     <path class="fil4" d="M5749.7 2503.41c267.69,-1.69 539.13,-2.64 816.56,-3.9 12.74,-0.06 22.27,8.83 21.99,20.03 0,0 0,0 0,0 -1.03,11.2 -11.02,20 -23.77,20.06 -276.92,1.35 -549.33,2.41 -816.5,3.32 -12,0.04 -21.38,-8.62 -20.9,-19.51 0,0 0,0 0,0 1.23,-10.89 10.61,-19.93 22.61,-20z"/>
    </g>
   </g>
   <g>
    <path class="fil3" d="M3759.81 2677.34c-489.93,0.12 -962.56,0.21 -1419.38,0.45 -22.58,0.01 -43.66,19.66 -47.01,43.45 -39.49,281.03 -80.2,566.81 -120.79,856.71 -3.44,24.6 13.31,46.01 35.63,46.79 466.25,16.27 947.9,32.92 1448.78,50.47 25.39,0.89 49.35,-19.97 52.01,-46.34 30.97,-306.64 62.42,-608.52 92.58,-905.79 2.54,-25.1 -17,-45.75 -41.83,-45.75z"/>
    <path class="fil3" d="M5523.87 2677.83c-551.65,-0.12 -1082.98,-0.29 -1594.73,-0.25 -26.34,0 -49.66,20.26 -52.17,45.5 -29.65,297.98 -59.15,600.78 -90.29,908.16 -2.69,26.51 16.55,49.13 42.71,50.05 523.96,18.44 1067.93,37.4 1632.67,57.39 28.47,1.01 54.64,-21.46 56.26,-49.5 18.86,-326.17 36.77,-647.42 54.45,-963.24 1.49,-26.64 -21.06,-48.1 -48.9,-48.11z"/>
    <path class="fil3" d="M7519.74 2678.95c-626.15,-0.49 -1226.72,-0.98 -1805.46,-1.23 -29.35,-0.01 -53.43,21.54 -54.87,48.26 -17.1,316.7 -35.17,638.8 -52.7,965.93 -1.53,28.53 20.77,52.6 50.78,53.66 593.21,21.06 1210.27,42.83 1854.26,65.35 33.09,1.15 60.83,-22.24 61.03,-52.54 2.28,-348.33 3.96,-690.9 6.19,-1028.16 0.19,-28.38 -26.86,-51.24 -59.22,-51.26z"/>
    <g>
     <path class="fil4" d="M2278.61 3353.12c120.04,2.98 240.08,5.82 362.41,8.86 15.29,0.38 25.76,13.88 23.26,30.32 -0.81,5.31 -1.25,10.67 -1.78,15.18 -1.96,16.82 -15.76,29.54 -31.08,29.12 -122.54,-3.36 -242.79,-6.52 -363.03,-9.81 -14.55,-0.4 -25.08,-13.78 -23.01,-29.96 0.62,-4.85 1.29,-10.11 1.92,-14.96 2.11,-16.17 16.79,-29.12 31.31,-28.76z"/>
     <path class="fil4" d="M2252.89 3463.71c127.24,3.65 254.49,7.24 384.03,10.96 9.2,0.26 15.89,8.75 14.68,19.42 0,0 0,0 0,0 -1.22,10.26 -9.91,18.61 -19.89,18.31 -128.89,-3.87 -257.01,-7.67 -383.59,-11.47 -9.97,-0.3 -15.78,-9.06 -14.46,-19.17 0,0 0,0 0,0 1.32,-10.51 10.04,-18.32 19.23,-18.06z"/>
     <path class="fil4" d="M2242.6 3537.76c215.76,7.03 435.37,13.7 658.04,20.96 9.98,0.33 16.69,9.32 15.58,19.27 0,0 0,0 0,0 -1.16,10.77 -9.82,19.18 -20.58,18.83 -222.86,-7.15 -441.9,-14.52 -657.84,-21.43 -9.99,-0.32 -15.8,-9.11 -14.47,-19.62 0,0 0,0 0,0 1.27,-9.71 10.06,-18.31 19.27,-18.01z"/>
    </g>
    <g>
     <path class="fil4" d="M3893.38 3392.75c134.56,3.38 269.9,6.65 407.52,10.1 17.58,0.44 30.28,15.23 28.98,32.61 -0.42,5.65 -0.64,10.88 -1.21,16.08 -1.89,17.4 -17.69,31.23 -35.31,30.74 -137.09,-3.82 -272.65,-7.44 -407.45,-11.18 -16.85,-0.47 -29.44,-14.63 -27.94,-32.17 0.4,-4.7 1.45,-10.17 2.13,-15.83 2.04,-17.05 16.45,-30.78 33.27,-30.36z"/>
     <path class="fil4" d="M3870.28 3510.13c142.57,4.14 285.92,8.24 431.56,12.47 10.73,0.31 19.27,9.33 18.45,20.62 0,0 0,0 0,0 -0.83,10.86 -11.49,20.06 -21.46,19.76 -145.76,-4.45 -289.99,-9.14 -431.93,-13.48 -10.74,-0.33 -18.39,-9.62 -17.46,-20.32 0,0 0,0 0,0 0.94,-10.69 10.11,-19.37 20.84,-19.06z"/>
     <path class="fil4" d="M3862.76 3588.88c242.64,7.95 489.11,15.98 740.21,23.8 11.51,0.36 20.1,9.92 19.37,20.45 0,0 0,0 0,0 -1.53,11.41 -10.61,20.27 -22.14,19.9 -251.3,-8.15 -498.77,-16.49 -741.61,-24.35 -10.76,-0.35 -18.43,-9.67 -16.71,-20.79 0,0 0,0 0,0 0.91,-10.27 10.14,-19.36 20.89,-19.01z"/>
    </g>
    <g>
     <path class="fil4" d="M5713.82 3438.55c152.15,3.88 305.07,7.65 461.03,11.63 19.88,0.51 35.44,15.79 34.85,34.25 -0.19,6 -0.96,11.93 -1.32,17.54 -1.18,18.43 -17.17,33.14 -37.09,32.58 -156.23,-4.4 -309.42,-8.56 -461.82,-12.85 -19.15,-0.54 -34.39,-16.04 -33.01,-34.21 0.41,-5.43 0.48,-10.9 0.74,-16.79 0.79,-18.16 17.51,-32.64 36.62,-32.15z"/>
     <path class="fil4" d="M5693.86 3563.55c161.73,4.74 324.25,9.45 489.05,14.32 13.03,0.38 22.69,9.95 22.31,21.49 0,0 0,0 0,0 -1.15,12 -11.44,21.31 -23.71,20.94 -165.71,-5.11 -328.36,-10 -489.47,-14.96 -12.27,-0.38 -21.83,-10.26 -21.32,-22.06 0,0 0,0 0,0 1.27,-11.35 10.87,-20.09 23.14,-19.73z"/>
     <path class="fil4" d="M5689.47 3647.12c274.89,9.07 554.39,17.8 839.26,26.79 13.05,0.41 22.79,11.06 22.5,22.26 0,0 0,0 0,0 -0.3,12.13 -10.54,22.01 -23.6,21.56 -285.11,-9.81 -564.86,-18.93 -839.98,-28.37 -12.3,-0.42 -21.86,-10.32 -20.58,-22.12 0,0 0,0 0,0 0.49,-10.89 10.13,-20.53 22.41,-20.12z"/>
    </g>
   </g>
   <g>
    <path class="fil3" d="M3648.27 3755.15c-500.98,-18.88 -983.45,-37.26 -1450.53,-54.79 -22.34,-0.84 -44.82,18.93 -48.35,44.34 -32.59,234.59 -65.95,471.56 -99.39,710.56 501.85,33.13 1022.52,67.5 1565.15,103.26 25.77,-253.38 51.59,-505.03 76.58,-753.33 2.69,-26.8 -17.25,-49.05 -43.45,-50.03z"/>
    <path class="fil3" d="M5457.2 3823.47c-565.72,-21.5 -1110.64,-41.94 -1635.51,-61.79 -26.21,-0.99 -50.08,19.8 -52.81,46.74 -25.26,248.88 -49.97,500.83 -74.54,755.3 565.37,37.34 1154.26,76.17 1768.24,116.69 15.01,-270.63 29.41,-538.57 44.61,-803.3 1.64,-28.49 -21.47,-52.57 -49.99,-53.65z"/>
    <path class="fil3" d="M7511.22 3902.17c-645.12,-24.72 -1263.25,-48.62 -1858.26,-71.28 -30.06,-1.14 -54.67,20.97 -56.28,49.95 -14.7,265.06 -29.41,534.16 -43.93,805.55 643,42.41 1312.65,86.63 2013.68,132.87 2.09,-290.12 3.46,-576.87 5.43,-859.77 0.21,-30.79 -28.28,-56.08 -60.64,-57.32z"/>
    <path class="fil4" d="M2132.08 4413.3c122.19,7.89 245.96,15.85 369.72,23.83 16.45,1.06 26.5,16.6 24.47,33.84 -0.63,5.34 -1.23,10.26 -1.81,15.19 -0.05,0.41 -0.05,0.41 -0.05,0.41 -144.28,-9.53 -286.21,-18.9 -426.57,-28.16 0,0 0.01,0 0.06,-0.4 0.64,-4.85 1.28,-9.71 1.96,-14.96 2.2,-16.98 17.35,-30.7 32.23,-29.74z"/>
    <path class="fil4" d="M3784.08 4519.69c137.86,8.88 276.51,17.39 416.72,26.44 18.01,1.16 31.53,17.72 29.59,36 -0.65,6.06 -0.83,11.3 -1.23,16.51 -0.04,0.44 -0.04,0.44 -0.04,0.44 -163.1,-10.76 -323.85,-21.36 -481.46,-31.8 0,0 0,0 0.04,-0.43 0.45,-5.13 0.92,-10.27 1.39,-15.83 1.57,-18.39 17.75,-32.44 34.98,-31.33z"/>
    <path class="fil4" d="M5651.49 4639.53c156.66,10.09 314.11,20.23 473.9,30.54 20.36,1.31 36.27,19.01 35.65,38.39 -0.21,6.46 -0.38,12 -0.56,17.54 -0.02,0.46 -0.02,0.46 -0.02,0.46 -185.84,-12.24 -367.76,-24.27 -547.33,-36.13 0,0 0,0 0.02,-0.46 0.24,-5.44 0.48,-10.9 0.75,-17.25 0.83,-19.06 18,-34.36 37.58,-33.1z"/>
   </g>
  </g>
 </g>
</svg>
