<?xml version="1.0" encoding="UTF-8"?>
<!DOCTYPE svg PUBLIC "-//W3C//DTD SVG 1.1//EN" "http://www.w3.org/Graphics/SVG/1.1/DTD/svg11.dtd">
<!-- Creator: CorelDRAW 2019 (64 Bit) -->
<svg xmlns="http://www.w3.org/2000/svg" xml:space="preserve" width="85.0691mm" height="84.6668mm" version="1.1" style="shape-rendering:geometricPrecision; text-rendering:geometricPrecision; image-rendering:optimizeQuality; fill-rule:evenodd; clip-rule:evenodd"
viewBox="0 0 1499.53 1492.44"
 xmlns:xlink="http://www.w3.org/1999/xlink"
 xmlns:xodm="http://www.corel.com/coreldraw/odm/2003">
 <defs>
  <style type="text/css">
   <![CDATA[
    .fil5 {fill:black;fill-rule:nonzero}
    .fil3 {fill:#D1893D;fill-rule:nonzero}
    .fil1 {fill:#D1893D;fill-rule:nonzero}
    .fil0 {fill:#FF6400;fill-rule:nonzero}
    .fil4 {fill:#FFAE57;fill-rule:nonzero}
    .fil2 {fill:#FFAE57;fill-rule:nonzero}
   ]]>
  </style>
 </defs>
 <g id="Camada_x0020_1">
  <metadata id="CorelCorpID_0Corel-Layer"/>
  <g id="_018-teamwork.svg">
   <rect class="fil0" x="641.29" y="299.14" width="828.96" height="248.79"/>
   <path class="fil1" d="M1111.88 502.99l-120.66 -207.72 0 46.97 0 -46.97 -30.42 -52.37c-1.77,-3.04 -3.42,-6.13 -4.96,-9.27 -31.97,13.73 -54.36,45.49 -54.36,82.48l0 77.82c0,12.27 3.25,24.32 9.41,34.93l68.02 117.1c8.06,13.88 12.31,29.65 12.31,45.71l0 42.51 148.01 0 0 -29.68c-0,-35.66 -9.44,-70.69 -27.35,-101.52z"/>
   <g>
    <path class="fil2" d="M1336.37 518.75c11.43,-41.75 17.23,-84.84 17.23,-128.13l0 -246.03c0,-23.84 -19.33,-43.17 -43.17,-43.17l0 0c-23.84,0 -43.17,19.33 -43.17,43.17l0 43.17 0 -43.17 0 -14.2c0,-25.41 -20.6,-46.01 -46.01,-46.01l0 0c-25.41,0 -46.01,20.6 -46.01,46.01l0 55.09 0 -55.09 0 -36.35c0,-21.86 -15.44,-40.11 -36.02,-44.45l0 0.9 0 -0.9c-3.04,-0.64 -6.19,-0.99 -9.42,-0.99 -25.09,0 -45.44,20.34 -45.44,45.44l0 27.83 0 67.02 0 -67.02c0,-25.72 -20.85,-46.57 -46.57,-46.57 -25.72,0 -46.57,20.85 -46.57,46.57l0 104.51 0 68.89 120.66 207.72c17.91,30.84 27.35,65.86 27.35,101.52l0 29.68 165.52 0 31.61 -115.44z"/>
    <path class="fil2" d="M991.22 295.27l0 -68.89c-12.57,0 -24.53,2.59 -35.38,7.26 1.55,3.14 3.2,6.23 4.96,9.27l30.42 52.37z"/>
   </g>
   <rect class="fil0" x="1113.9" y="634.19" width="239.69" height="828.96"/>
   <path class="fil1" d="M946.45 975.37c-13.88,8.06 -29.65,12.31 -45.71,12.31l-42.51 0 0 313.53 115.44 31.62c12.21,3.35 24.54,6.14 36.95,8.52l0 -403.25 -64.18 37.28z"/>
   <path class="fil2" d="M1347.83 1350.06c23.84,0 43.17,-19.33 43.17,-43.17l0 0c0,-23.84 -19.33,-43.17 -43.17,-43.17l-43.17 -0 43.17 0 14.2 0c25.41,0 46.01,-20.6 46.01,-46.01l0 0c0,-25.41 -20.6,-46 -46.01,-46l-55.09 0 55.09 0 36.35 0c25.09,0 45.44,-20.34 45.44,-45.44 0,-25.09 -20.34,-45.44 -45.44,-45.44l-27.83 0 -67.02 0 67.02 0c25.73,0 46.57,-20.85 46.57,-46.57 0,-25.73 -20.85,-46.57 -46.57,-46.57l-104.51 0 -115.87 0 115.87 0c0,-49.56 -40.18,-89.74 -89.74,-89.74l-77.82 0c-12.27,0 -24.32,3.25 -34.93,9.41l-52.92 30.74 0 403.25c30.03,5.75 60.55,8.71 91.18,8.71l246.03 0z"/>
   <rect class="fil0" x="29.29" y="1081.07" width="828.96" height="268.98"/>
   <path class="fil1" d="M282.93 925.85l18.53 -67.66 -106.67 0 -31.62 115.44c-11.43,41.75 -17.23,84.84 -17.23,128.13l0 246.03c0,23.84 19.33,43.17 43.17,43.17l0 0c23.84,0 43.17,-19.33 43.17,-43.17l0 -43.17 0 43.17 0 14.2c0,17.56 9.84,32.81 24.3,40.56l0 -280.74c-0,-66.21 8.86,-132.11 26.35,-195.97z"/>
   <path class="fil2" d="M278.28 1408c25.41,0 46.01,-20.6 46.01,-46.01l0 -55.09 0 55.09 0 36.35c0,25.09 20.34,45.44 45.44,45.44 6.75,0 13.13,-1.51 18.89,-4.15l0 -7.54 0 7.54c15.65,-7.17 26.55,-22.94 26.55,-41.29l0 -27.83 0 -67.02 0 67.02c0,25.72 20.85,46.57 46.57,46.57 25.72,0 46.57,-20.85 46.57,-46.57l0 -104.51 0 -115.87 0 115.87c49.56,0 89.74,-40.18 89.74,-89.74l0 -77.82c0,-12.27 -3.25,-24.32 -9.41,-34.93l-68.02 -117.1c-8.06,-13.88 -12.31,-29.65 -12.31,-45.71l0 -42.51 -206.85 -0 -18.53 67.66c-17.49,63.85 -26.35,129.76 -26.35,195.97l0 280.74c6.47,3.47 13.86,5.45 21.71,5.45l0 0z"/>
   <rect class="fil0" x="301.46" y="29.29" width="250.03" height="828.96"/>
   <g>
    <path class="fil3" d="M421.44 504.76l-68.68 0 -36.98 0 -80.17 0c0,49.56 40.62,89.74 90.73,89.74l78.68 0c12.41,0 24.59,-3.25 35.32,-9.41l16.31 -9.37c-21.42,-16.42 -35.22,-42.09 -35.22,-70.96z"/>
    <path class="fil3" d="M268.69 458.18c0,-25.72 21.08,-46.57 47.09,-46.57l-28.14 0c-25.37,0 -45.94,-20.34 -45.94,-45.44 0,-25.09 20.57,-45.44 45.94,-45.44l36.75 0c-25.69,0 -46.51,-20.6 -46.51,-46.01l0 0c0,-25.41 20.83,-46.01 46.51,-46.01l14.36 0c-24.1,0 -43.65,-19.33 -43.65,-43.17l0 0c0,-23.84 19.54,-43.17 43.65,-43.17l-185.83 -0c-24.1,0 -43.65,19.33 -43.65,43.17l0 0c0,23.84 19.54,43.17 43.65,43.17l43.65 0 -43.64 0 -14.36 0c-25.69,0 -46.51,20.6 -46.51,46.01l0 0c0,25.41 20.83,46.01 46.51,46.01l55.71 0 -55.71 0 -36.75 0c-25.37,0 -45.94,20.34 -45.94,45.44 0,25.09 20.57,45.44 45.94,45.44l28.14 0 67.76 0 -67.76 0c-26.01,0 -47.09,20.85 -47.09,46.57 0,25.72 21.08,46.57 47.09,46.57l105.66 0 80.17 0c-26.01,0 -47.09,-20.85 -47.09,-46.57z"/>
   </g>
   <path class="fil4" d="M604.96 504.76l42.98 0 0 -313.53 -116.72 -31.62c-42.21,-11.43 -85.78,-17.23 -129.55,-17.23l-62.92 0c-24.1,0 -43.65,19.33 -43.65,43.17l0 0c0,23.84 19.54,43.17 43.65,43.17l43.65 0 -43.65 0 -14.36 0c-25.69,0 -46.51,20.6 -46.51,46.01l0 0c0,25.41 20.83,46.01 46.51,46.01l55.71 0 -55.71 0 -36.75 0c-25.37,0 -45.94,20.34 -45.94,45.44 0,25.09 20.57,45.44 45.94,45.44l28.14 0 67.76 0 -67.76 0c-26.01,0 -47.09,20.85 -47.09,46.57 0,25.72 21.08,46.57 47.09,46.57l36.99 0 68.68 0 117.15 0 -117.15 0c0,28.88 13.8,54.55 35.22,70.96l102.08 -58.65c14.03,-8.06 29.98,-12.3 46.21,-12.3z"/>
   <path class="fil5" d="M1470.25 518.64l-103.63 0c10.75,-41.81 16.26,-84.83 16.26,-128.02l0 -218.94 87.36 0c16.17,0 29.29,-13.11 29.29,-29.29 0,-16.17 -13.11,-29.29 -29.29,-29.29l-94.57 -0c-11.74,-24.22 -36.57,-40.97 -65.25,-40.97 -11.93,0 -23.19,2.9 -33.13,8.02 -13.8,-15.38 -33.81,-25.06 -56.05,-25.06 -8.84,0 -17.33,1.53 -25.22,4.34 -12.5,-23.83 -37.49,-40.13 -66.22,-40.13 -25.73,0 -48.47,13.07 -61.91,32.92 -9.23,-4.01 -19.41,-6.23 -30.1,-6.23 -38.86,0 -70.98,29.38 -75.34,67.1l-321.18 0c-16.17,0 -29.29,13.11 -29.29,29.29l0 10.46 -31.22 -8.55 0 -114.68c0,-16.18 -13.11,-29.29 -29.29,-29.29 -16.18,0 -29.29,13.11 -29.29,29.29l-0 98.84c-40.7,-10.15 -82.51,-15.35 -124.48,-15.35l-222.48 -0 0 -83.81c0,-16.17 -13.11,-29.29 -29.29,-29.29 -16.18,0 -29.29,13.11 -29.29,29.29l0 92.87c-22.3,12.37 -37.43,36.14 -37.43,63.4 0,11.93 2.9,23.19 8.03,33.13 -15.38,13.79 -25.07,33.81 -25.07,56.04 0,8.84 1.53,17.33 4.35,25.22 -23.83,12.5 -40.13,37.49 -40.13,66.22 0,25.73 13.07,48.47 32.92,61.91 -4.01,9.23 -6.23,19.41 -6.23,30.1 0,37.64 27.56,68.95 63.55,74.85l0 325.22c0,16.17 13.11,29.29 29.29,29.29l10.46 0 -7.58 27.69 -119.53 0c-16.17,0 -29.29,13.11 -29.29,29.29 0,16.18 13.11,29.29 29.29,29.29l103.62 0c-10.74,41.81 -16.26,84.83 -16.26,128.02l0 218.94 -87.37 0c-16.17,0 -29.29,13.11 -29.29,29.29 0,16.18 13.11,29.29 29.29,29.29l94.57 -0c11.74,24.23 36.57,40.97 65.25,40.97 11.93,0 23.19,-2.9 33.13,-8.02 13.8,15.38 33.81,25.06 56.05,25.06 8.84,0 17.33,-1.53 25.22,-4.34 12.5,23.83 37.49,40.13 66.22,40.13 25.73,0 48.46,-13.07 61.91,-32.92 9.23,4 19.41,6.23 30.1,6.23 38.86,0 70.98,-29.38 75.34,-67.09l321.18 -0c16.17,0 29.29,-13.11 29.29,-29.29l0 -10.45 31.22 8.55 0 115c0,16.17 13.11,29.29 29.29,29.29 16.18,0 29.29,-13.11 29.29,-29.29l0 -99.17c40.7,10.15 82.51,15.35 124.48,15.35l222.48 0 0 83.81c0,16.18 13.11,29.29 29.29,29.29 16.18,0 29.29,-13.11 29.29,-29.29l0 -92.87c22.3,-12.37 37.43,-36.14 37.43,-63.4 0,-11.93 -2.9,-23.19 -8.02,-33.13 15.38,-13.8 25.06,-33.81 25.06,-56.05 0,-8.84 -1.53,-17.33 -4.34,-25.22 23.83,-12.5 40.13,-37.49 40.13,-66.22 0,-25.73 -13.07,-48.46 -32.92,-61.91 4.01,-9.23 6.23,-19.41 6.23,-30.1 0,-37.64 -27.56,-68.95 -63.56,-74.85l0 -325.22c0,-16.18 -13.11,-29.29 -29.29,-29.29l-10.46 0 7.58 -27.69 119.53 0c16.17,0 29.29,-13.11 29.29,-29.29 0,-16.18 -13.11,-29.29 -29.29,-29.29zm-1274.26 -136.31l-94.85 0c-8.91,0 -16.15,-7.25 -16.15,-16.15 0,-8.91 7.24,-16.15 16.15,-16.15l91.44 0c16.17,0 29.29,-13.11 29.29,-29.29 0,-16.18 -13.11,-29.29 -29.29,-29.29l-55.09 -0c-9.22,0 -16.72,-7.5 -16.72,-16.72 0,-9.22 7.5,-16.72 16.72,-16.72l57.37 0c16.17,0 29.29,-13.11 29.29,-29.29 0,-16.18 -13.11,-29.29 -29.29,-29.29l-43.17 0c-7.65,0 -13.88,-6.23 -13.88,-13.88 0,-7.65 6.23,-13.88 13.88,-13.88l246.03 0c40.67,0 81.17,5.44 120.39,16.19l93.89 25.71 0 261.9 -13.22 0c-21.2,0 -42.09,5.62 -60.42,16.27l-117.1 68.02c-6.13,3.56 -13.13,5.45 -20.22,5.45l-77.82 0c-22.72,0 -42.54,-12.59 -52.87,-31.16l79 0c16.17,0 29.29,-13.11 29.29,-29.29 0,-16.18 -13.11,-29.29 -29.29,-29.29l-220.38 -0c-9.53,0 -17.29,-7.75 -17.29,-17.29 0,-9.53 7.76,-17.29 17.29,-17.29l67.02 0c16.18,0 29.29,-13.11 29.29,-29.29 0,-16.17 -13.12,-29.29 -29.29,-29.29zm283.04 988.25c0,9.53 -7.76,17.29 -17.29,17.29 -9.53,0 -17.29,-7.75 -17.29,-17.29l0 -67.02c0,-16.17 -13.11,-29.29 -29.29,-29.29 -16.17,0 -29.29,13.11 -29.29,29.29l0 94.85c0,8.91 -7.25,16.15 -16.15,16.15 -8.91,0 -16.15,-7.24 -16.15,-16.15l0 -91.44c0,-16.18 -13.11,-29.29 -29.29,-29.29 -16.18,0 -29.29,13.11 -29.29,29.29l0 55.09c0,9.22 -7.5,16.72 -16.72,16.72 -9.22,0 -16.72,-7.5 -16.72,-16.72l0 -57.37c0,-16.18 -13.11,-29.29 -29.29,-29.29 -16.18,0 -29.29,13.11 -29.29,29.29l0 43.17c0,7.65 -6.23,13.88 -13.88,13.88 -7.65,0 -13.88,-6.23 -13.88,-13.88l0 -246.03c0,-40.67 5.45,-81.17 16.19,-120.39l25.71 -93.89 261.89 -0 0 13.22c0,21.2 5.63,42.09 16.28,60.42l68.02 117.1c3.56,6.13 5.45,13.12 5.45,20.22l0 77.82c0,22.71 -12.59,42.54 -31.16,52.87l0 -79c0,-16.17 -13.11,-29.29 -29.29,-29.29 -16.17,0 -29.29,13.11 -29.29,29.29l0 220.38 -0.01 -0zm349.94 -49.81l-291.37 0 0 -29.06c51.52,-13.08 89.74,-59.86 89.74,-115.38l0 -77.82c0,-17.42 -4.63,-34.59 -13.37,-49.64l-68.02 -117.1c-5.46,-9.4 -8.35,-20.12 -8.35,-31l0 -13.22 13.88 0c16.17,0 29.29,-13.11 29.29,-29.29l0 -183.8c0,-16.17 -13.11,-29.29 -29.29,-29.29 -16.17,0 -29.29,13.11 -29.29,29.29l0 154.52 -346.96 -0 0 -294.92 32.6 0c13.08,51.52 59.86,89.74 115.38,89.74l77.82 0c17.42,0 34.58,-4.62 49.64,-13.37l117.1 -68.02c9.4,-5.46 20.12,-8.35 30.99,-8.35l13.22 0 0 13.88c0,16.17 13.11,29.29 29.29,29.29l204.98 0c16.17,0 29.29,-13.11 29.29,-29.29 0,-16.18 -13.11,-29.29 -29.29,-29.29l-175.69 -0 0 -346.96 291.37 0 0 29.06c-51.52,13.08 -89.74,59.86 -89.74,115.38l0 77.82c0,17.42 4.63,34.58 13.37,49.64l68.02 117.1c5.46,9.4 8.35,20.12 8.35,30.99l0 13.22 -13.88 0c-16.17,0 -29.29,13.11 -29.29,29.29l0 207.83c0,16.17 13.11,29.29 29.29,29.29 16.17,0 29.29,-13.11 29.29,-29.29l0 -178.54 327.31 0c0.04,0 0.07,0.01 0.11,0.01 0.06,0 0.11,-0.01 0.17,-0.01l19.37 0 0 294.92 -32.6 0c-13.08,-51.52 -59.86,-89.74 -115.38,-89.74l-77.82 0c-17.42,0 -34.59,4.62 -49.64,13.37l-117.1 68.02c-9.4,5.46 -20.12,8.35 -30.99,8.35l-13.22 0 0 -13.88c0,-16.17 -13.11,-29.29 -29.29,-29.29l-211.84 0c-16.17,0 -29.29,13.11 -29.29,29.29 0,16.18 13.11,29.29 29.29,29.29l182.55 0 0 346.96 -0 0zm474.59 -210.65l94.85 0c8.91,0 16.15,7.25 16.15,16.15 0,8.91 -7.25,16.15 -16.15,16.15l-91.44 0c-16.17,0 -29.29,13.11 -29.29,29.29 0,16.18 13.11,29.29 29.29,29.29l55.09 0c9.22,0 16.72,7.5 16.72,16.72 0,9.22 -7.5,16.72 -16.72,16.72l-57.37 0c-16.17,0 -29.29,13.11 -29.29,29.29 0,16.18 13.11,29.29 29.29,29.29l43.17 0c7.65,0 13.88,6.23 13.88,13.88 0,7.65 -6.23,13.88 -13.88,13.88l-246.03 0c-40.67,0 -81.17,-5.44 -120.39,-16.19l-93.89 -25.71 0 -261.89 13.22 0c21.2,0 42.09,-5.63 60.42,-16.28l117.1 -68.02c6.13,-3.56 13.12,-5.45 20.22,-5.45l77.82 0c22.71,0 42.54,12.59 52.87,31.16l-79 0c-16.17,0 -29.29,13.11 -29.29,29.29 0,16.18 13.11,29.29 29.29,29.29l220.38 0c9.53,0 17.29,7.75 17.29,17.29 0,9.53 -7.75,17.29 -17.29,17.29l-67.02 -0c-16.17,0 -29.29,13.11 -29.29,29.29 0,16.18 13.11,29.29 29.29,29.29zm-283.04 -505.22l0 -13.22c0,-21.2 -5.63,-42.09 -16.28,-60.42l-68.02 -117.1c-3.56,-6.13 -5.45,-13.13 -5.45,-20.22l0 -77.82c0,-22.72 12.59,-42.54 31.16,-52.87l0 79c0,16.17 13.11,29.29 29.29,29.29 16.18,0 29.29,-13.11 29.29,-29.29l0 -220.38c0,-9.53 7.75,-17.29 17.29,-17.29 9.53,0 17.29,7.75 17.29,17.29l0 67.02c0,16.18 13.11,29.29 29.29,29.29 16.18,0 29.29,-13.11 29.29,-29.29l-0 -94.86c0,-8.91 7.25,-16.15 16.15,-16.15 8.91,0 16.15,7.24 16.15,16.15l0 91.44c0,16.17 13.11,29.29 29.29,29.29 16.18,0 29.29,-13.11 29.29,-29.29l-0 -55.09c0,-9.22 7.5,-16.72 16.72,-16.72 9.22,0 16.72,7.5 16.72,16.72l0 57.37c0,16.17 13.11,29.29 29.29,29.29 16.17,0 29.29,-13.11 29.29,-29.29l-0 -43.17c0,-7.65 6.23,-13.88 13.88,-13.88 7.65,0 13.88,6.23 13.88,13.88l0 246.03c0,40.67 -5.45,81.17 -16.19,120.39l-25.71 93.89 -261.89 0z"/>
   <circle class="fil5" cx="453.35" cy="764.26" r="29.29"/>
   <circle class="fil5" cx="453.35" cy="666.59" r="29.29"/>
   <circle class="fil5" cx="769.62" cy="1038.6" r="29.29"/>
   <circle class="fil5" cx="671.98" cy="1038.6" r="29.29"/>
   <circle class="fil5" cx="1046.13" cy="722.82" r="29.29"/>
   <circle class="fil5" cx="1046.13" cy="820.47" r="29.29"/>
   <circle class="fil5" cx="734.45" cy="463.21" r="29.29"/>
   <circle class="fil5" cx="832.1" cy="463.21" r="29.29"/>
   <g>
   </g>
   <g>
   </g>
   <g>
   </g>
   <g>
   </g>
   <g>
   </g>
   <g>
   </g>
   <g>
   </g>
   <g>
   </g>
   <g>
   </g>
   <g>
   </g>
   <g>
   </g>
   <g>
   </g>
   <g>
   </g>
   <g>
   </g>
   <g>
   </g>
  </g>
 </g>
</svg>
