<?xml version="1.0" encoding="UTF-8"?>
<!DOCTYPE svg PUBLIC "-//W3C//DTD SVG 1.1//EN" "http://www.w3.org/Graphics/SVG/1.1/DTD/svg11.dtd">
<!-- Creator: CorelDRAW 2019 (64 Bit) -->
<svg xmlns="http://www.w3.org/2000/svg" xml:space="preserve" width="297mm" height="124.753mm" version="1.1" style="shape-rendering:geometricPrecision; text-rendering:geometricPrecision; image-rendering:optimizeQuality; fill-rule:evenodd; clip-rule:evenodd"
viewBox="0 0 29698.94 12474.81"
 xmlns:xlink="http://www.w3.org/1999/xlink">
 <defs>
  <style type="text/css">
   <![CDATA[
    .fil1 {fill:url(#id2)}
    .fil0 {fill:url(#id3)}
   ]]>
  </style>
   <mask id="id0">
  <linearGradient id="id1" gradientUnits="userSpaceOnUse" x1="4606.68" y1="-4250.61" x2="25092.15" y2="17950.88">
   <stop offset="0" style="stop-opacity:1; stop-color:white"/>
   <stop offset="1" style="stop-opacity:0; stop-color:white"/>
  </linearGradient>
    <rect style="fill:url(#id1)" x="-10" y="-10" width="29718.94" height="12494.81"/>
   </mask>
  <linearGradient id="id2" gradientUnits="userSpaceOnUse" x1="-0" y1="6018.69" x2="29698.94" y2="6018.69">
   <stop offset="0" style="stop-opacity:1; stop-color:#010311"/>
   <stop offset="1" style="stop-opacity:1; stop-color:#00193B"/>
  </linearGradient>
  <linearGradient id="id3" gradientUnits="userSpaceOnUse" xlink:href="#id2" x1="-0" y1="6237.4" x2="29698.94" y2="6237.4">
  </linearGradient>
 </defs>
 <g id="Camada_x0020_1">
  <metadata id="CorelCorpID_0Corel-Layer"/>
  <path class="fil0" style="mask:url(#id0)" d="M9801.67 12474.57c6887.68,41.5 19897.27,-5399.29 19897.27,-8628.15 0,-3228.85 -18392.7,-3846.42 -18392.7,-3846.42l-11306.24 0 0 7878.02c0,0 2913.99,4555.05 9801.67,4596.56z"/>
  <path class="fil1" d="M9801.67 12037.13c6887.68,40.05 19897.27,-5182.84 19897.27,-7593.96 0,-2411.12 -9177.01,-4443.17 -9177.01,-4443.17l-20521.93 0 0 7601.77c0,0 2913.99,4395.31 9801.67,4435.36z"/>
 </g>
</svg>
